<?xml version="1.0" encoding="UTF-8"?>
<svg width="124px" height="24px" viewBox="0 0 124 24" version="1.1" xmlns="http://www.w3.org/2000/svg" xmlns:xlink="http://www.w3.org/1999/xlink" style="background: #FFFFFF;">
    <title>↳Icon 图标/发现/操作系统(AIX)@1x</title>
    <g id="↳Icon-图标/发现/操作系统(AIX)" stroke="none" stroke-width="1" fill="none" fill-rule="evenodd">
        <rect fill="#FFFFFF" x="0" y="0" width="124" height="24"></rect>
        <path d="M45.1180895,6.90021189 L50.333639,6.90021189 L52.1157615,11.2922536 C52.1157615,11.2922536 72.2938479,-6.2759134 83.6857062,6.90021189 C76.1347399,2.3709188 70.3723296,2.91992402 62,7.30982125 L62,22 L57.6079582,22 L57.6079582,10.3314945 L56.7844504,10.3314945 L52.9414139,13.7627771 L55.5470441,22 L50.7432484,22 L49.9197406,17.1962043 L46.4884579,22 L40.3142938,22 L45.1180895,6.90021189 Z M47.7258643,10.7411039 L45.9415973,17.1940598 L48.961126,14.1723865 L47.7258643,10.7411039 Z M63.784267,7.30982125 L68.8625653,7.30982125 L71.0607307,10.7411039 L73.2588961,7.30982125 L78.4744457,7.30982125 L73.6685055,13.7627771 L73.6685055,14.9958943 L78.4723012,21.8584596 L73.254607,21.8584596 L70.6468322,17.4664178 L68.0390574,21.8606041 L62.8235078,21.8606041 L68.0390574,14.4490337 L68.0390574,13.6255258 L63.784267,7.30982125 Z" id="AIX" fill="#088AFF" fill-rule="nonzero"></path>
    </g>
</svg>