<?xml version="1.0" encoding="UTF-8"?>
<svg width="124px" height="24px" viewBox="0 0 124 24" version="1.1" xmlns="http://www.w3.org/2000/svg" xmlns:xlink="http://www.w3.org/1999/xlink">
    <title>↳Icon 图标/iconfont/发现/Apache服务器@1x</title>
    <g id="↳Icon-图标/iconfont/发现/Apache服务器" stroke="none" stroke-width="1" fill="none" fill-rule="evenodd">
        <path d="M51.4625528,4.40506328 C51.6144515,4.25316454 51.6904009,4.25316454 51.8422996,4.25316454 C51.9941983,4.25316454 52.1460971,4.32911389 52.2979958,4.40506328 C52.4498945,4.63291138 53.589135,5.54430379 55.9435654,7.1392405 C58.2979958,8.73417721 61.1081224,9.94936707 64.6017933,10.7848101 C67.032173,11.2405063 69.2347047,11.6202532 71.361287,11.8481013 C73.4878692,12.0759494 75.1587553,12.2278481 76.4498945,12.3797468 C76.4498945,12 76.2220464,11.6962025 75.7663502,11.4683544 C75.310654,11.2405063 74.5511604,10.8607595 73.4119199,10.3291139 C72.7283756,10.0253165 71.8929325,9.56962026 70.9055908,8.96202531 L67.7916667,7.06329114 C67.1081224,7.5949367 66.3486287,8.0506329 65.5891351,8.35443036 C64.8296414,8.65822782 64.3739452,8.88607592 64.1460971,8.96202531 C63.9941983,9.03797466 63.8422996,9.03797466 63.6904009,8.96202531 C63.5385021,8.88607595 63.4625528,8.81012656 63.3866034,8.65822785 C63.3106541,8.50632911 63.3106541,8.3544304 63.3866034,8.20253165 C63.4625528,8.0506329 63.5385022,7.97468355 63.6904009,7.89873416 L64.2979958,7.67088606 C64.6777427,7.51898731 65.0574895,7.29113921 65.5891351,7.06329114 C65.9688819,6.83544304 66.3486287,6.60759494 66.5764768,6.45569619 L64.9815401,5.54430379 C64.2220465,5.92405064 63.4625528,6.22784809 62.7030591,6.53164555 C62.0195148,6.75949365 61.4119199,6.9113924 60.9562236,7.06329114 L60.19673,7.29113924 C60.0448312,7.3670886 59.8929325,7.29113924 59.7410338,7.21518985 C59.589135,7.1392405 59.5131857,6.98734175 59.4372363,6.83544304 C59.361287,6.6835443 59.4372363,6.53164558 59.5131857,6.37974684 C59.589135,6.22784809 59.7410338,6.15189874 59.8929325,6.07594935 C59.9688819,6.07594935 60.3486287,5.9240506 61.1081224,5.69620253 C61.8676161,5.46835447 62.7030591,5.16455698 63.6904009,4.78481013 C62.8549578,4.32911393 62.0195148,4.02531647 61.3359705,3.72151898 C59.589135,3.11392403 57.6904009,2.81012657 55.7916667,2.65822783 C53.8929325,2.58227847 52.2220464,2.81012657 50.9309072,3.26582277 L48.0448313,0.151898711 C47.9688819,0.0759493553 47.8169832,0 47.7410338,0 C47.589135,0 47.5131857,0 47.361287,0.151898711 C47.2093882,0.151898711 47.1334389,0.303797457 47.1334389,0.455696203 C47.1334389,0.607594949 47.1334389,0.759493659 47.2853376,0.835443015 L50.0954642,4.10126582 C49.7916667,4.32911393 49.9435654,5.69620253 50.3992616,8.12658226 C50.9309072,10.556962 53.5131857,12.6835443 58.2220464,14.5063291 C62.7030591,15.721519 66.5764768,16.1012658 69.7663502,15.5696202 C72.9562237,15.0379747 75.0068566,14.3544304 75.9941983,13.443038 C74.6271097,13.3670886 72.9562237,13.2151899 70.9055908,12.9873418 C68.8549578,12.7594937 66.6524262,12.3797468 64.2979958,11.9240506 C60.6524262,11.0886076 57.6144515,9.79746836 55.2600211,8.12658226 C52.9055907,6.45569616 51.6144515,5.54430379 51.3866034,5.24050633 C51.310654,5.08860759 51.2347046,5.01265823 51.2347047,4.86075948 C51.2347047,4.70886074 51.310654,4.55696203 51.4625528,4.40506328 Z M53.6650844,22.3291139 L52.4498945,22.3291139 L51.9941983,21.0379747 L49.7157173,21.0379747 L49.2600211,22.2531645 L48.0448313,22.2531645 L50.2473629,16.6329114 L51.4625528,16.6329114 L53.6650844,22.3291139 Z M51.6144515,20.1265823 L50.8549578,18.0759494 L50.0954642,20.1265823 L51.6144515,20.1265823 L51.6144515,20.1265823 Z M54.2726794,18.3037975 L55.2600211,18.3037975 L55.2600211,18.9113924 C55.4119199,18.6835443 55.5638186,18.5316456 55.7916667,18.4556962 C56.0195148,18.3037975 56.2473629,18.3037975 56.5511604,18.3037975 C57.0068566,18.3037975 57.3866034,18.4556962 57.7663502,18.835443 C58.0701477,19.2151899 58.2979958,19.7468354 58.2979958,20.4303797 C58.2979958,21.113924 58.1460971,21.6455696 57.7663502,22.0253164 C57.4625528,22.4050633 57.0068566,22.556962 56.5511604,22.556962 C56.3233123,22.556962 56.0954642,22.4810127 55.9435654,22.4050633 C55.7916667,22.3291139 55.5638186,22.1772152 55.3359705,21.9493671 L55.3359705,24 L54.2726794,24 L54.2726794,18.3037975 Z M55.3359705,20.2025316 C55.3359705,20.6582278 55.4119199,21.0379747 55.5638186,21.1898734 C55.7157174,21.4177215 55.9435655,21.4936709 56.2473629,21.4936709 C56.475211,21.4936709 56.7030591,21.4177215 56.8549578,21.1898734 C57.0068566,20.9620253 57.0828059,20.6582279 57.0828059,20.2025316 C57.0828059,19.7468354 57.0068566,19.443038 56.8549578,19.2151899 C56.7030591,18.9873418 56.475211,18.9113924 56.2473629,18.9113924 C56.0195148,18.9113924 55.7916667,18.9873418 55.639768,19.2151899 C55.4119199,19.5189873 55.3359705,19.8227848 55.3359705,20.2025316 L55.3359705,20.2025316 Z M59.8929325,19.5189873 L58.9055907,19.3670886 C58.9815401,18.9873418 59.2093882,18.6835443 59.4372363,18.5316456 C59.7410338,18.3797468 60.1207806,18.2278481 60.6524262,18.2278481 C61.1081224,18.2278481 61.4878692,18.3037975 61.7157173,18.3797468 C61.9435654,18.4556962 62.0954642,18.6075949 62.2473629,18.835443 C62.3233123,18.9873418 62.3992616,19.3670886 62.3992616,19.8227848 L62.3992616,21.113924 C62.3992616,21.4936709 62.3992616,21.721519 62.475211,21.8734177 C62.5511604,22.0253165 62.5511604,22.2531646 62.7030591,22.4050633 L61.639768,22.4050633 L61.4878692,21.9493671 C61.3359705,22.1012658 61.1081224,22.2531645 60.8802743,22.3291139 C60.6524262,22.4050633 60.4245781,22.4810126 60.19673,22.4810126 C59.8169831,22.4810126 59.4372363,22.3291139 59.2093882,22.1012658 C58.9815401,21.8734177 58.8296414,21.5696203 58.8296414,21.2658228 C58.8296414,21.0379747 58.9055907,20.8101266 58.9815401,20.6582278 C59.0574895,20.5063291 59.2093882,20.3544304 59.4372363,20.278481 C59.6650844,20.2025317 59.8929325,20.1265823 60.2726793,20.0506329 C60.8043249,19.9746836 61.1081224,19.8987342 61.3359705,19.8227848 L61.3359705,19.7468354 C61.3359705,19.5189873 61.2600211,19.3670886 61.1840718,19.2911392 C61.1081224,19.2151899 60.8802743,19.1392405 60.5764768,19.1392405 C60.4245781,19.1392405 60.2726794,19.2151899 60.1207806,19.2911392 C60.0448313,19.2151899 59.9688819,19.2911392 59.8929325,19.5189873 L59.8929325,19.5189873 Z M61.3359705,20.3544304 C61.1840718,20.4303797 60.9562236,20.5063291 60.6524262,20.5063291 C60.3486287,20.5822785 60.19673,20.6582279 60.0448312,20.6582278 C59.8929325,20.8101266 59.8169831,20.8860759 59.8169831,21.0379747 C59.8169831,21.1898734 59.8929325,21.3417721 59.9688819,21.4177215 C60.0448312,21.5696202 60.19673,21.5696202 60.4245781,21.5696202 C60.5764768,21.5696202 60.8043249,21.4936709 60.9562236,21.3417721 C61.1081224,21.2658228 61.1840718,21.113924 61.1840718,20.9620253 C61.2600211,20.886076 61.2600211,20.6582279 61.2600211,20.4303797 L61.3359705,20.3544304 Z M66.9562237,19.443038 L65.8929325,19.6708861 C65.8929325,19.443038 65.8169832,19.2911392 65.6650844,19.2151899 C65.5131857,19.1392405 65.361287,19.0632911 65.1334389,19.0632911 C64.8296414,19.0632911 64.6777427,19.1392405 64.5258439,19.3670886 C64.3739452,19.5189874 64.2979958,19.8227848 64.2979958,20.278481 C64.2979958,20.7341772 64.3739452,21.1139241 64.5258439,21.2658228 C64.6777427,21.4177215 64.9055908,21.5696202 65.2093882,21.5696202 C65.4372363,21.5696202 65.5891351,21.4936709 65.7410338,21.4177215 C65.8929325,21.2658228 65.9688819,21.1139241 65.9688819,20.8101266 L67.032173,20.9620253 C66.8802743,21.4177215 66.7283756,21.7974684 66.4245781,22.1012658 C66.1207806,22.3291139 65.6650844,22.4810126 65.2093882,22.4810126 C64.6017933,22.4810126 64.1460971,22.3291139 63.7663503,21.9493671 C63.3866034,21.5696202 63.2347047,21.0379747 63.2347047,20.3544304 C63.2347047,19.6708861 63.3866034,19.1392405 63.7663503,18.7594937 C64.1460971,18.3797468 64.6017933,18.2278481 65.2093882,18.2278481 C65.6650844,18.2278481 66.0448313,18.3037975 66.3486287,18.5316456 C66.6524262,18.7594937 66.8043249,19.0632911 66.9562237,19.443038 L66.9562237,19.443038 Z M68.8549578,16.7088608 L68.8549578,18.7594937 C69.2347047,18.3797468 69.6144515,18.1518987 70.0701477,18.1518987 C70.2979958,18.1518987 70.5258439,18.2278481 70.753692,18.3037975 C70.9815401,18.3797468 71.1334389,18.5316456 71.2093882,18.6835443 L71.4372363,19.1392405 C71.5131857,19.2911393 71.5131857,19.5949367 71.5131857,19.9746835 L71.5131857,22.3291139 L70.4498946,22.3291139 L70.4498946,20.2025316 C70.4498946,19.7468354 70.4498946,19.5189873 70.3739452,19.3670886 C70.2979958,19.2151899 70.2220465,19.1392405 70.1460971,19.0632911 C70.0701477,18.9873418 69.918249,18.9873418 69.7663502,18.9873418 C69.6144515,18.9873418 69.4625528,19.0632911 69.310654,19.1392405 C69.1587553,19.2151899 69.0828059,19.3670886 69.0068566,19.5189873 C68.9309072,19.6708861 68.9309072,19.9746835 68.9309072,20.278481 L68.9309072,22.2531645 L67.8676161,22.2531645 L67.8676161,16.6329114 L68.8549578,16.7088608 L68.8549578,16.7088608 Z M74.9309072,21.0379747 L75.9941983,21.1898734 C75.8422996,21.5696203 75.6144515,21.8734177 75.3866034,22.1012658 C75.082806,22.3291139 74.7030591,22.4050633 74.2473629,22.4050633 C73.5638186,22.4050633 73.0321731,22.1772152 72.6524262,21.721519 C72.3486288,21.3417721 72.2726794,20.8860759 72.2726794,20.3544304 C72.2726794,19.6708861 72.4245781,19.1392405 72.8043249,18.7594937 C73.1840718,18.3797468 73.5638186,18.2278481 74.1714135,18.2278481 C74.7790085,18.2278481 75.2347047,18.4556962 75.6144515,18.835443 C75.9941984,19.2151898 76.1460971,19.8227848 76.1460971,20.6582278 L73.4878692,20.6582278 C73.4878692,20.9620253 73.5638186,21.2658228 73.7157173,21.4177215 C73.8676161,21.5696203 74.0954642,21.6455696 74.3233123,21.6455696 C74.475211,21.6455696 74.6271097,21.5696203 74.7790085,21.4936709 C74.9309072,21.4177215 74.8549578,21.2658228 74.9309072,21.0379747 L74.9309072,21.0379747 Z M75.0068566,19.9746835 C75.0068566,19.6708861 74.9309072,19.443038 74.7790085,19.2911392 C74.6271097,19.1392405 74.475211,19.0632911 74.2473629,19.0632911 C74.0195148,19.0632911 73.7916667,19.1392405 73.639768,19.2911392 C73.4878692,19.443038 73.4119199,19.6708861 73.4119199,19.9746835 L75.0068566,19.9746835 Z" id="Apache" fill="#D22129" fill-rule="nonzero"></path>
    </g>
</svg>