<?xml version="1.0" encoding="UTF-8"?>
<svg width="124px" height="24px" viewBox="0 0 124 24" version="1.1" xmlns="http://www.w3.org/2000/svg" xmlns:xlink="http://www.w3.org/1999/xlink">
    <title>↳Icon 图标/发现/数据库(ASM磁盘组)@1x</title>
    <defs>
        <filter id="filter-1">
            <feColorMatrix in="SourceGraphic" type="matrix" values="0 0 0 0 0.458824 0 0 0 0 0.474510 0 0 0 0 0.529412 0 0 0 1.000000 0"></feColorMatrix>
        </filter>
    </defs>
    <g id="↳Icon-图标/发现/数据库(ASM磁盘组)" stroke="none" stroke-width="1" fill="none" fill-rule="evenodd">
        <g id="↳Icon-图标/资源/数据库(ASM磁盘组)" transform="translate(52.000000, 2.000000)" filter="url(#filter-1)">
            <g>
                <path d="M18.25,0 C19.2164983,-1.7754286e-16 20,0.783501688 20,1.75 L20,18.25 C20,19.2164983 19.2164983,20 18.25,20 L1.75,20 C0.783501688,20 1.18361906e-16,19.2164983 0,18.25 L0,1.75 C-1.18361906e-16,0.783501688 0.783501688,1.7754286e-16 1.75,0 L18.25,0 Z M13.4228516,6.09375 L7.84179687,6.09375 L7.7151505,6.10021439 C7.09044981,6.16433105 6.6015625,6.69746094 6.6015625,7.34375001 L6.6015625,7.34375001 L6.6015625,15.78125 L6.60797638,15.9088936 C6.67159214,16.5385132 7.20055695,17.03125 7.84179687,17.03125 L7.84179687,17.03125 L15.2832031,17.03125 L15.4098495,17.0247856 C16.0345502,16.9606689 16.5234375,16.4275391 16.5234375,15.78125 L16.5234375,15.78125 L16.5234375,9.21875001 L13.4228516,6.09375 Z M11.5625,12.3046875 C12.4470185,12.3046875 13.1640625,13.0217315 13.1640625,13.90625 C13.1640625,14.7907685 12.4470185,15.5078125 11.5625,15.5078125 C10.6779815,15.5078125 9.9609375,14.7907685 9.9609375,13.90625 C9.9609375,13.0217315 10.6779815,12.3046875 11.5625,12.3046875 Z M12.359375,2.96875 L4.4765625,2.96875 C3.92427775,2.96875 3.4765625,3.41646525 3.4765625,3.96875 L3.4765625,13.296875 C3.4765625,13.8491597 3.92427775,14.296875 4.4765625,14.296875 L5.000375,14.29675 L5.00035196,5.41518305 C5.00035196,4.90234722 5.38639215,4.47967589 5.88373084,4.42191079 L6.00035196,4.41518305 L13.359375,4.41475 L13.359375,3.96875 C13.359375,3.41646525 12.9116597,2.96875 12.359375,2.96875 Z M13.203125,7.96875 L13.203125,10.703125 L8.515625,10.703125 L8.515625,7.96875 L13.203125,7.96875 Z" id="ASM磁盘组" fill="#999999"></path>
            </g>
        </g>
    </g>
</svg>