<?xml version="1.0" encoding="UTF-8"?>
<svg width="124px" height="24px" viewBox="0 0 124 24" version="1.1" xmlns="http://www.w3.org/2000/svg" xmlns:xlink="http://www.w3.org/1999/xlink">
    <title>↳Icon 图标/iconfont/发现/CentOS操作系统@1x</title>
    <g id="↳Icon-图标/iconfont/发现/CentOS操作系统" stroke="none" stroke-width="1" fill="none" fill-rule="evenodd">
        <g id="Centos" transform="translate(50.000000, 0.000000)" fill-rule="nonzero">
            <path d="M10.0884375,11.0991563 L10.9536562,11.9595 L10.0884375,12.8196563 L3.99853125,12.8196563 L3.99853125,15.6856875 L0.284625,11.9595 L3.99853125,8.29575 L3.99853125,11.0991563 L10.0885312,11.0991563 L10.0884375,11.0991563 Z M12.765375,3.78028125 L20.1649688,3.78028125 L20.1649688,11.1799688 L12.765375,11.1799688 L12.765375,3.78028125 Z" id="形状" fill="#932279"></path>
            <path d="M12.8460938,10.0884375 L11.9859375,10.9536562 L11.1257813,10.0884375 L11.1257813,3.99853125 L8.2595625,3.99853125 L11.9859375,0.284625 L15.6494063,3.99853125 L12.8460937,3.99853125 L12.8460937,10.0885312 L12.8460938,10.0884375 Z M12.7654687,12.765375 L20.1649687,12.765375 L20.1649687,20.1650625 L12.765375,20.1650625 L12.765375,12.765375 L12.7654687,12.765375 Z" id="形状" fill="#EFA724"></path>
            <path d="M13.8569062,12.8460938 L12.9915937,11.9859375 L13.8569062,11.1257813 L19.9467187,11.1257813 L19.9467187,8.2595625 L23.6608125,11.9859375 L19.9467187,15.6494062 L19.9467187,12.8460937 L13.8569062,12.8460937 L13.8569062,12.8460938 Z M3.78028125,12.7654688 L11.179875,12.7654688 L11.179875,20.1651562 L3.78028125,20.1651562 L3.78028125,12.7654688 Z" id="形状" fill="#262577"></path>
            <path d="M11.0991562,13.8569063 L11.9593125,12.9915938 L12.8196562,13.8569063 L12.8196562,19.9469063 L15.6856875,19.9469063 L11.9593125,23.6608125 L8.2959375,19.9469063 L11.0991562,19.9469063 L11.0991562,13.8569063 L11.0991562,13.8569063 Z M3.78028125,3.78028125 L11.179875,3.78028125 L11.179875,11.1799688 L3.78028125,11.1799688 L3.78028125,3.78028125 Z" id="形状" fill="#9CCD2A"></path>
            <path d="M3.516,3.516 L11.4441563,3.516 L11.4441563,11.4441562 L3.516,11.4441562 L3.516,3.516 Z M4.04446875,10.9156875 L10.9155,10.9156875 L10.9155,4.04465625 L4.04446875,4.04465625 L4.04446875,10.9156875 Z M12.5012813,3.516 L20.4294375,3.516 L20.4294375,11.4441562 L12.5012813,11.4441562 L12.5012813,3.516 L12.5012813,3.516 Z M13.02975,10.9156875 L19.9007813,10.9156875 L19.9007813,4.04465625 L13.02975,4.04465625 L13.02975,10.9156875 Z M12.5012813,12.5012812 L20.4294375,12.5012812 L20.4294375,20.429625 L12.5012813,20.429625 L12.5012813,12.5011875 L12.5012813,12.5012812 Z M13.02975,19.9007813 L19.9007813,19.9007813 L19.9007813,13.02975 L13.02975,13.02975 L13.02975,19.9007813 Z M3.516,12.5012812 L11.4441563,12.5012812 L11.4441563,20.429625 L3.516,20.429625 L3.516,12.5011875 L3.516,12.5012812 Z M4.04446875,19.9007813 L10.9155,19.9007813 L10.9155,13.02975 L4.04446875,13.02975 L4.04446875,19.9007813 Z" id="形状" fill="#FFFFFF"></path>
            <path d="M5.6191875,17.578875 L0.0129375,11.972625 L5.61909375,6.3665625 L11.2253437,11.972625 L5.61928125,17.578875 L5.6191875,17.578875 Z M0.7605,11.972625 L5.6191875,16.8313125 L10.4776875,11.972625 L5.619,7.114125 L0.7605,11.972625 Z M11.972625,11.22525 L6.3665625,5.6191875 L11.972625,0.0129375 L17.5786875,5.6191875 L11.972625,11.22525 Z M7.114125,5.6191875 L11.972625,10.4776875 L16.8313125,5.6191875 L11.972625,0.7605 L7.114125,5.6191875 Z M18.32625,17.578875 L12.7201875,11.972625 L18.32625,6.3665625 L23.9323125,11.972625 L18.32625,17.578875 L18.32625,17.578875 Z M13.4675625,11.972625 L18.32625,16.8313125 L23.18475,11.972625 L18.32625,7.114125 L13.4675625,11.972625 Z M11.972625,23.9323125 L6.3665625,18.32625 L11.972625,12.7201875 L17.5786875,18.32625 L11.972625,23.9323125 L11.972625,23.9323125 Z M7.114125,18.32625 L11.972625,23.18475 L16.8313125,18.32625 L11.972625,13.46775 L7.114125,18.32625 L7.114125,18.32625 Z" id="形状" fill="#FFFFFF"></path>
        </g>
    </g>
</svg>