<?xml version="1.0" encoding="UTF-8"?>
<svg width="124px" height="24px" viewBox="0 0 124 24" version="1.1" xmlns="http://www.w3.org/2000/svg" xmlns:xlink="http://www.w3.org/1999/xlink">
    <title>↳Icon 图标/discovery/思科路由器@1x</title>
    <g id="↳Icon-图标/discovery/思科路由器" stroke="none" stroke-width="1" fill="none" fill-rule="evenodd">
        <path d="M61.5879992,18.4039721 C61.372491,18.2264948 61.1569829,18.0828227 60.9076696,18.0109867 L59.7582928,17.5799704 C59.6146207,17.5081344 59.5089795,17.4024931 59.4371435,17.2926262 C59.3991126,17.186985 59.3991126,17.0433129 59.4371435,16.933446 C59.4709487,16.8954152 59.4709487,16.86161 59.5089795,16.8278048 L59.6146207,16.7221635 L59.6526516,16.6883583 C59.7963237,16.6165223 59.9019649,16.5827171 60.045637,16.5827171 C60.2949503,16.5489119 60.5484893,16.5489119 60.7639975,16.5827171 C61.0513416,16.6207479 61.3386858,16.6545531 61.5879992,16.7263892 L61.6598352,16.7263892 L61.6598352,15.3276991 L61.554194,15.2896683 C61.2668498,15.2178322 60.9795056,15.184027 60.6921614,15.1459962 C60.3329812,15.112191 59.9399958,15.112191 59.5808156,15.1459962 C59.1159941,15.184027 58.646947,15.3615043 58.2877667,15.6826537 C58.0384534,15.8981618 57.8567505,16.1474752 57.7511092,16.4348194 C57.5736319,16.8996408 57.5736319,17.4024931 57.7511092,17.8715402 C57.8229453,18.0870484 57.9666174,18.3025565 58.1440947,18.4800338 C58.2877667,18.6237059 58.465244,18.767378 58.646947,18.839214 C58.8962603,18.9828861 59.1497993,19.0885274 59.4371435,19.1603634 C59.5427847,19.1983943 59.6146207,19.2321995 59.6864568,19.2321995 L59.8301289,19.2702303 L59.8681597,19.2702303 C60.0118318,19.3040355 60.1174731,19.3758715 60.22734,19.4857384 C60.299176,19.5575745 60.371012,19.6294105 60.371012,19.7350518 C60.4090429,19.8068878 60.4090429,19.9125291 60.371012,19.9843651 C60.3372068,20.1280372 60.22734,20.2336784 60.1216987,20.3055145 C59.9780266,20.3773505 59.8343545,20.4111557 59.6906824,20.4491866 C59.4751743,20.4872174 59.225861,20.4872174 59.0103528,20.4872174 L58.139869,20.3773505 C57.9961969,20.3393197 57.8525248,20.3055145 57.6750475,20.2717093 L57.6032115,20.2717093 L57.6032115,21.7802662 L57.7088527,21.8182971 C58.068033,21.8901331 58.3891823,21.9239383 58.7483626,21.9619692 C59.0695119,22 59.3568561,22 59.6822311,22 C59.9695753,21.9619692 60.2569195,21.928164 60.5442637,21.8225227 C60.8654131,21.7168815 61.1907881,21.5732094 61.4401014,21.3577012 C61.6894147,21.1421931 61.8711177,20.8928798 61.9767589,20.6055356 C62.1542362,20.1026833 62.1542362,19.5660258 61.9767589,19.0969787 C61.9471794,18.7969575 61.8035073,18.5814494 61.5879992,18.4039721 Z M49.8153391,15.1713501 C49.3124868,15.1713501 48.8476653,15.2769913 48.3786182,15.4924995 C47.9137967,15.7080076 47.5165857,15.9953518 47.1954363,16.3883372 C46.2277625,17.6433552 46.1897317,19.4012254 47.1236003,20.660469 C47.5884217,21.2689626 48.2349461,21.6661737 48.9913374,21.843651 C49.7815339,22.0211282 50.5717304,21.9873231 51.323896,21.7718149 L51.4675681,21.7380097 L51.4675681,19.9801394 L51.4295373,19.9801394 C51.0365519,20.1576167 50.6055356,20.2674836 50.1745193,20.3012888 C49.7096979,20.335094 49.2786816,20.1956476 48.9195014,19.9421086 C48.670188,19.7266005 48.4546799,19.4772871 48.3828439,19.1519121 C48.2772026,18.8307627 48.2772026,18.4335517 48.344813,18.1124023 C48.4166491,17.7532221 48.6321572,17.4320727 48.9195014,17.2165645 C49.1688147,17.0010564 49.4941897,16.8573843 49.8153391,16.8235791 C50.3900275,16.7517431 50.9647158,16.8573843 51.5013733,17.1447285 L51.5394042,17.1785337 L51.5394042,15.4206634 L51.4675681,15.3868582 C50.8928798,15.2093809 50.3519966,15.1375449 49.8153391,15.1713501 L49.8153391,15.1713501 Z M53.7620959,15.281217 L55.414325,15.281217 L55.414325,21.8478766 L53.7620959,21.8478766 L53.7620959,15.281217 Z M79.2807944,21.095711 L79.6019438,21.095711 L79.6019438,21.8478766 L79.707585,21.8478766 L79.707585,21.095711 L79.9949292,21.095711 L79.9949292,20.9900697 L79.2765688,20.9900697 L79.2765688,21.095711 L79.2807944,21.095711 Z M80.4977815,21.7042045 L80.2484682,20.9858441 L80.0709909,20.9858441 L80.0709909,21.8478766 L80.1766322,21.8478766 L80.1766322,21.167547 L80.4259455,21.8478766 L80.5696176,21.8478766 L80.8189309,21.1295162 L80.8189309,21.8478766 L80.9245722,21.8478766 L80.9245722,20.9858441 L80.7470949,20.9858441 L80.4977815,21.7042045 L80.4977815,21.7042045 Z M43.8952039,7.38347771 C43.6796958,7.38347771 43.4641876,7.45531375 43.3205155,7.59898584 C43.1768434,7.74265793 43.0712022,7.95816607 43.0712022,8.1736742 L43.0712022,10.0033805 C43.0712022,10.2188887 43.1768434,10.3963659 43.3205155,10.540038 C43.4641876,10.6837101 43.6796958,10.7555462 43.8952039,10.7555462 C44.110712,10.7555462 44.2881893,10.6837101 44.4698922,10.540038 C44.6135643,10.3963659 44.7192056,10.2188887 44.7192056,10.0033805 L44.7192056,8.1736742 C44.7192056,7.95816607 44.6135643,7.78068878 44.4698922,7.59898584 C44.2881893,7.45531375 44.110712,7.38347771 43.8952039,7.38347771 Z M48.4166491,10.7597718 C48.6321572,10.7597718 48.8096345,10.6879358 48.9913374,10.5442637 C49.1350095,10.4005916 49.2406508,10.2231143 49.2406508,10.0076062 L49.2406508,5.87914642 C49.2406508,5.66363828 49.1350095,5.486161 48.9913374,5.30445806 C48.8476653,5.16078597 48.6321572,5.08894993 48.4166491,5.08894993 C48.2011409,5.08894993 47.9856328,5.16078597 47.8419607,5.30445806 C47.6982886,5.44813015 47.5926474,5.66363828 47.5926474,5.87914642 L47.5926474,9.96957532 C47.5926474,10.1850835 47.6982886,10.3625607 47.8419607,10.5062328 C48.019438,10.6499049 48.2011409,10.7597718 48.4166491,10.7597718 Z M52.9380942,2.00422565 C52.7225861,2.00422565 52.507078,2.07606169 52.3634059,2.21973378 C52.2197338,2.36340587 52.1140925,2.57891401 52.1140925,2.79442214 L52.1140925,11.6218044 C52.1140925,11.8373125 52.2197338,12.0147898 52.3634059,12.1584619 C52.507078,12.302134 52.7225861,12.37397 52.9380942,12.37397 C53.1536024,12.37397 53.3310797,12.302134 53.5127826,12.1584619 C53.6564547,12.0147898 53.7620959,11.8373125 53.7620959,11.6218044 L53.7620959,2.79019649 C53.7620959,2.57468836 53.6564547,2.39721107 53.5127826,2.21550813 C53.3691105,2.07606169 53.1536024,2.00422565 52.9380942,2.00422565 Z M58.3215719,9.96957532 L58.3215719,5.87914642 C58.3215719,5.66363828 58.2159307,5.486161 58.0722586,5.30445806 C57.9285865,5.16078597 57.7130784,5.08894993 57.4975703,5.08894993 C57.2820621,5.08894993 57.066554,5.16078597 56.9228819,5.30445806 C56.7792098,5.44813015 56.6735686,5.66363828 56.6735686,5.87914642 L56.6735686,9.96957532 C56.6735686,10.1850835 56.7792098,10.3625607 56.9228819,10.5062328 C57.066554,10.6499049 57.2820621,10.721741 57.4975703,10.721741 C57.7130784,10.721741 57.8905557,10.6499049 58.0722586,10.5062328 C58.211705,10.4005916 58.2835411,10.1850835 58.3215719,9.96957532 Z M62.0190154,7.38347771 C61.8035073,7.38347771 61.5879992,7.45531375 61.4443271,7.59898584 C61.300655,7.74265793 61.1950137,7.95816607 61.1950137,8.1736742 L61.1950137,10.0033805 C61.1950137,10.2188887 61.300655,10.3963659 61.4443271,10.540038 C61.5879992,10.6837101 61.8035073,10.7555462 62.0190154,10.7555462 C62.2345236,10.7555462 62.4120008,10.6837101 62.5937038,10.540038 C62.7373759,10.3963659 62.8430171,10.2188887 62.8430171,10.0033805 L62.8430171,8.1736742 C62.8430171,7.95816607 62.7373759,7.78068878 62.5937038,7.59898584 C62.4120008,7.45531375 62.2345236,7.38347771 62.0190154,7.38347771 Z M66.5404606,10.7597718 C66.7559687,10.7597718 66.933446,10.6879358 67.115149,10.5442637 C67.258821,10.4005916 67.3644623,10.2231143 67.3644623,10.0076062 L67.3644623,5.87914642 C67.3644623,5.66363828 67.258821,5.486161 67.115149,5.30445806 C66.9714769,5.16078597 66.7559687,5.08894993 66.5404606,5.08894993 C66.3249525,5.08894993 66.1094443,5.16078597 65.9657722,5.30445806 C65.8221001,5.44813015 65.7164589,5.66363828 65.7164589,5.87914642 L65.7164589,9.96957532 C65.7164589,10.1850835 65.8221001,10.3625607 65.9657722,10.5062328 C66.1432495,10.6499049 66.3249525,10.7597718 66.5404606,10.7597718 Z M71.6365941,12.1584619 C71.7802662,12.0147898 71.8859075,11.8373125 71.8859075,11.6218044 L71.8859075,2.79019649 C71.8859075,2.57468836 71.7802662,2.39721107 71.6365941,2.21550813 C71.492922,2.07183604 71.2774139,2 71.0619058,2 C70.8463976,2 70.6308895,2.07183604 70.4872174,2.21550813 C70.3435453,2.35918022 70.2379041,2.57468836 70.2379041,2.79019649 L70.2379041,11.6175787 C70.2379041,11.8330868 70.3435453,12.0105641 70.4872174,12.1542362 C70.6308895,12.2979083 70.8463976,12.3697443 71.0619058,12.3697443 C71.2774139,12.37397 71.492922,12.302134 71.6365941,12.1584619 Z M75.6171561,10.7597718 C75.8326643,10.7597718 76.0101416,10.6879358 76.1918445,10.5442637 C76.3355166,10.4005916 76.4411578,10.2231143 76.4411578,10.0076062 L76.4411578,5.87914642 C76.4411578,5.66363828 76.3355166,5.486161 76.1918445,5.30445806 C76.0481724,5.16078597 75.8326643,5.08894993 75.6171561,5.08894993 C75.401648,5.08894993 75.1861399,5.16078597 75.0424678,5.30445806 C74.8987957,5.44813015 74.7931544,5.66363828 74.7931544,5.87914642 L74.7931544,9.96957532 C74.7931544,10.1850835 74.8987957,10.3625607 75.0424678,10.5062328 C75.1861399,10.6499049 75.401648,10.7597718 75.6171561,10.7597718 Z M80.6794845,7.59898584 C80.5358124,7.45531375 80.3203042,7.38347771 80.1047961,7.38347771 C79.889288,7.38347771 79.6737798,7.45531375 79.5301078,7.59898584 C79.3864357,7.74265793 79.2807944,7.95816607 79.2807944,8.1736742 L79.2807944,10.0033805 C79.2807944,10.2188887 79.3864357,10.3963659 79.5301078,10.540038 C79.6737798,10.6837101 79.889288,10.7555462 80.1047961,10.7555462 C80.3203042,10.7555462 80.4977815,10.6837101 80.6794845,10.540038 C80.8231566,10.3963659 80.9287978,10.2188887 80.9287978,10.0033805 L80.9287978,8.1736742 C80.9287978,7.95816607 80.8569618,7.74265793 80.6794845,7.59898584 Z M67.1489542,15.1713501 C66.6461018,15.1713501 66.1812804,15.2769913 65.7122333,15.4924995 C65.2474118,15.7080076 64.8502007,15.9953518 64.5290513,16.3883372 C63.5613776,17.6433552 63.5233467,19.4012254 64.4572153,20.660469 C64.9220368,21.2689626 65.5685612,21.6661737 66.3249525,21.843651 C67.115149,22.0211282 67.9053454,21.9873231 68.6575111,21.7718149 L68.8011832,21.7380097 L68.8011832,19.9801394 L68.7631523,19.9801394 C68.3701669,20.1576167 67.9391506,20.2674836 67.5081344,20.3012888 C67.0433129,20.335094 66.6122966,20.1956476 66.2531164,19.9421086 C66.0038031,19.7266005 65.788295,19.4772871 65.7164589,19.1519121 C65.6108177,18.8307627 65.6108177,18.4335517 65.6826537,18.1124023 C65.7544898,17.7532221 65.9699979,17.4320727 66.2573421,17.2165645 C66.5066554,17.0010564 66.8320304,16.8573843 67.1531798,16.8235791 C67.7278682,16.7517431 68.3025565,16.8573843 68.839214,17.1447285 L68.8772449,17.1785337 L68.8772449,15.4206634 L68.8054088,15.3868582 C68.2264948,15.2093809 67.6856117,15.1375449 67.1489542,15.1713501 L67.1489542,15.1713501 Z M75.9045003,15.6742024 C74.8269596,15.027678 73.5001056,14.9938728 72.422565,15.5685612 C71.3112191,16.1770547 70.6266638,17.2926262 70.5928587,18.5476442 C70.5928587,19.587154 71.095711,20.5590535 71.9197127,21.2013522 C72.7437143,21.8478766 73.7874498,22.0971899 74.8269596,21.8816818 C76.1918445,21.6323685 77.2693852,20.5548278 77.5186985,19.1561378 C77.7342066,17.7912529 77.0919079,16.3925629 75.9045003,15.6742024 Z M75.7988591,18.7631523 C75.7650539,19.2279738 75.5115149,19.6251849 75.1523347,19.9125291 C74.7931544,20.1998732 74.328333,20.3435453 73.8973167,20.2717093 C73.4324952,20.2379041 73.0352842,19.9843651 72.74794,19.6251849 C72.4605958,19.2660046 72.3169237,18.8011832 72.3887598,18.3701669 C72.4267906,17.9053454 72.676104,17.5081344 73.0352842,17.2207902 C73.3944644,16.933446 73.8592859,16.7897739 74.2903021,16.86161 C74.7551236,16.8996408 75.1523347,17.1489542 75.4396789,17.5081344 C75.6889922,17.8292838 75.8326643,18.2941052 75.7988591,18.7631523 Z" id="思科" fill="#29B6EB" fill-rule="nonzero"></path>
    </g>
</svg>