<?xml version="1.0" encoding="UTF-8"?>
<svg width="124px" height="24px" viewBox="0 0 124 24" version="1.1" xmlns="http://www.w3.org/2000/svg" xmlns:xlink="http://www.w3.org/1999/xlink">
    <title>↳Icon 图标/发现/网络设备(通用网络设备)@1x</title>
    <defs>
        <filter id="filter-1">
            <feColorMatrix in="SourceGraphic" type="matrix" values="0 0 0 0 0.458824 0 0 0 0 0.474510 0 0 0 0 0.529412 0 0 0 1.000000 0"></feColorMatrix>
        </filter>
    </defs>
    <g id="↳Icon-图标/发现/网络设备(通用网络设备)" stroke="none" stroke-width="1" fill="none" fill-rule="evenodd">
        <g id="↳Icon-图标/资源/网络设备(通用网络设备)" transform="translate(52.000000, 2.000000)" filter="url(#filter-1)">
            <g>
                <path d="M18.25,0 C19.2164983,2.6654635e-16 20,0.783501688 20,1.75 L20,18.25 C20,19.2164983 19.2164983,20 18.25,20 L1.75,20 C0.783501688,20 1.18361906e-16,19.2164983 0,18.25 L0,1.75 C-1.18361906e-16,0.783501688 0.783501688,1.7754286e-16 1.75,0 L18.25,0 Z M17.1484375,11.2109375 L2.8515625,11.2109375 L2.8515625,16.6796875 L17.1484375,16.6796875 L17.1484375,11.2109375 Z M14.609375,12.96875 C15.1487813,12.96875 15.5859375,13.4055951 15.5859375,13.9453125 C15.5859375,14.4850299 15.1487813,14.921875 14.609375,14.921875 C14.0699687,14.921875 13.6328125,14.4850299 13.6328125,13.9453125 C13.6328125,13.4055951 14.0699687,12.96875 14.609375,12.96875 Z M11.484375,12.96875 C12.0237813,12.96875 12.4609375,13.4055951 12.4609375,13.9453125 C12.4609375,14.4850299 12.0237813,14.921875 11.484375,14.921875 C10.9449687,14.921875 10.5078125,14.4850299 10.5078125,13.9453125 C10.5078125,13.4055951 10.9449687,12.96875 11.484375,12.96875 Z M6.7578125,12.96875 L6.7578125,14.921875 L4.8046875,14.921875 L4.8046875,12.96875 L6.7578125,12.96875 Z M17.1484375,3.3203125 L2.8515625,3.3203125 L2.8515625,8.7890625 L17.1484375,8.7890625 L17.1484375,3.3203125 Z M14.609375,5.078125 C15.1487813,5.078125 15.5859375,5.51497009 15.5859375,6.05468749 C15.5859375,6.59440491 15.1487813,7.03125 14.609375,7.03125 C14.0699687,7.03125 13.6328125,6.59440489 13.6328125,6.05468749 C13.6328125,5.51497009 14.0699687,5.078125 14.609375,5.078125 Z M11.484375,5.078125 C12.0237813,5.078125 12.4609375,5.51497009 12.4609375,6.05468749 C12.4609375,6.59440491 12.0237813,7.03125 11.484375,7.03125 C10.9449687,7.03125 10.5078125,6.59440489 10.5078125,6.05468749 C10.5078125,5.51497009 10.9449687,5.078125 11.484375,5.078125 Z M6.7578125,5.078125 L6.7578125,7.03125 L4.8046875,7.03125 L4.8046875,5.078125 L6.7578125,5.078125 Z" id="网络设备" fill="#999999" fill-rule="nonzero"></path>
            </g>
        </g>
    </g>
</svg>