<?xml version="1.0" encoding="UTF-8"?>
<svg width="124px" height="24px" viewBox="0 0 124 24" version="1.1" xmlns="http://www.w3.org/2000/svg" xmlns:xlink="http://www.w3.org/1999/xlink">
    <title>↳Icon 图标/discovery/操作系统@1x</title>
    <g id="↳Icon-图标/discovery/操作系统" stroke="none" stroke-width="1" fill="none" fill-rule="evenodd">
        <path d="M70.7628866,2 C71.4501718,2 72,2.55363322 72,3.24567474 L72,16.8788927 C71.9312715,17.5709342 71.3814433,18.1245675 70.6941581,18.1245675 L62.721,18.124 L62.7209691,20.4766886 L67.9450172,20.4775087 C68.2886598,20.4775087 68.5635739,20.7543253 68.5635739,21.100346 L68.5635739,21.3771626 C68.5635739,21.7231834 68.2886598,22 67.9450172,22 L55.9175258,22 C55.5738832,22 55.2989691,21.7231834 55.2989691,21.3771626 L55.2989691,21.100346 C55.2989691,20.7543253 55.5738832,20.4775087 55.9175258,20.4775087 L61.2089691,20.4766886 L61.209,18.124 L53.2371134,18.1245675 C52.5498282,18.1245675 52,17.5709342 52,16.8788927 L52,3.24567474 C52,2.55363322 52.5498282,2 53.2371134,2 L70.7628866,2 Z M66.0893471,5.73702422 C65.1958763,5.73702422 64.4398625,5.94463668 63.8900344,6.42906574 C63.2714776,6.9134948 62.9965636,7.46712802 62.9965636,8.2283737 C62.9965636,8.78200693 63.1340206,9.19723184 63.4089347,9.54325259 C63.6838488,9.88927336 64.233677,10.3044983 65.1271478,10.650519 C65.8831615,10.9273356 66.3642612,11.2041522 66.6391753,11.4117647 C66.9140893,11.6193772 66.9828179,11.8961938 66.9828179,12.2422145 C66.9828179,13.0034602 66.4329897,13.4186851 65.2646048,13.4186851 C64.4398625,13.4186851 63.6838488,13.1418685 62.9278351,12.5882353 L62.9278351,14.1799308 C63.5463918,14.5259516 64.233677,14.6643599 65.1271478,14.6643599 C66.0893471,14.6643599 66.8453608,14.4567474 67.4639175,13.9723183 C68.0824742,13.5570934 68.3573883,12.934256 68.3573883,12.1038062 C68.3573883,11.550173 68.2199313,11.0657439 67.8762887,10.7197232 C67.532646,10.3737024 66.9828179,9.9584775 66.0893471,9.61245674 C65.4020619,9.33564013 64.9209622,9.05882351 64.7147766,8.85121107 C64.5085911,8.64359862 64.371134,8.36678202 64.371134,8.02076125 C64.371134,7.67474048 64.5085911,7.39792388 64.7835052,7.12110725 C65.0584192,6.9134948 65.4707904,6.77508649 65.95189,6.77508651 C66.7079038,6.77508651 67.395189,6.98269896 67.9450172,7.39792388 L67.9450172,6.01384083 C67.395189,5.80622837 66.7766323,5.73702422 66.0893471,5.73702422 Z M58.5979381,5.4602076 C57.6357388,5.4602076 56.9484536,5.87543251 56.3986254,6.70588234 C55.9175258,7.46712802 55.7113402,8.6435986 55.7113402,10.16609 C55.7113402,11.550173 55.9175258,12.6574394 56.3986254,13.349481 C56.8797251,14.1107266 57.5670103,14.5259516 58.4604811,14.5259516 C59.3539519,14.5259516 60.1099656,14.1107266 60.5910653,13.2802768 C61.0721649,12.5190311 61.347079,11.3425606 61.347079,9.9584775 C61.2783505,6.98269896 60.3848797,5.4602076 58.5979381,5.4602076 Z M58.5292096,6.56747405 C59.4226804,6.56747405 59.8350515,7.67474048 59.8350515,9.82006919 C59.8350515,11.9653979 59.4226804,13.0034602 58.5292096,13.0034602 C57.6357388,13.0034602 57.1546392,11.9653979 57.1546392,9.88927336 C57.1546392,7.67474048 57.6357388,6.56747405 58.5292096,6.56747405 Z" id="操作系统" fill="#757987" fill-rule="nonzero"></path>
    </g>
</svg>