<?xml version="1.0" encoding="UTF-8"?>
<svg width="124px" height="24px" viewBox="0 0 124 24" version="1.1" xmlns="http://www.w3.org/2000/svg" xmlns:xlink="http://www.w3.org/1999/xlink">
    <title>↳Icon 图标/iconfont/发现/迪普交换机@1x</title>
    <defs>
        <linearGradient x1="0%" y1="49.9929232%" x2="102.193058%" y2="49.9929232%" id="linearGradient-1">
            <stop stop-color="#F7F5FD" offset="9%"></stop>
            <stop stop-color="#328BCF" offset="77%"></stop>
        </linearGradient>
    </defs>
    <g id="↳Icon-图标/iconfont/发现/迪普交换机" stroke="none" stroke-width="1" fill="none" fill-rule="evenodd">
        <g id="迪普" transform="translate(33.875000, 2.000000)" fill-rule="nonzero">
            <path d="M0,19.9405797 C0.0492753623,18.9942029 0.31884058,18.0855072 0.494202899,17.1623188 C0.979710145,14.5971014 1.48985507,12.0362319 1.96956522,9.47101449 C2.05072464,9.03623188 2.2115942,8.85217391 2.67681159,8.87536232 C3.43043478,8.9115942 4.1884058,8.90434783 4.94202899,8.87536232 C5.38695652,8.85797101 5.48115942,9.02028986 5.39855072,9.43188406 C4.90289855,11.884058 4.42318841,14.3478261 3.93913043,16.7942029 C3.86956522,17.1492754 3.8057971,17.5043478 3.73478261,17.8594203 C3.6884058,18.0913043 3.76231884,18.2347826 4.01304348,18.2376812 C5.11304348,18.2463768 6.22028986,18.3202899 7.28115942,17.9202899 C8.13913043,17.5956522 8.88985507,17.1130435 9.41304348,16.3463768 C10.6724638,14.5028986 11.1521739,12.4782609 10.6289855,10.2927536 C10.2550725,8.7173913 9.06521739,7.8057971 7.44057971,7.77681159 C5.93043478,7.74927536 4.41884058,7.77681159 2.90869565,7.77681159 C2.32898551,7.77681159 2.30144928,7.75362319 2.41884058,7.18550725 C2.68550725,5.89710145 2.45072464,6.06376812 3.76956522,6.07391304 C5.5942029,6.08695652 7.42173913,5.98550725 9.24347826,6.13478261 C12.1302923,6.33276447 14.3715564,8.73104361 14.373913,11.6246377 C14.4289855,15.8405797 11.7202899,19.1043478 7.53623188,19.8550725 C7.41449275,19.8768116 7.29275362,19.9115942 7.17246377,19.9391304 L0,19.9405797 Z" id="路径" fill="#0269B8"></path>
            <path d="M13.5057971,19.9405797 C14.0768116,16.9772947 14.647343,14.0130435 15.2173913,11.0478261 C15.3318841,10.4681159 15.4536232,9.87536232 15.5536232,9.28695652 C15.5574107,9.16772673 15.6116856,9.05572311 15.7029174,8.97886717 C15.7941493,8.90201123 15.9137427,8.86754404 16.0318841,8.88405797 C16.8652174,8.88405797 17.7,8.89130435 18.5333333,8.88405797 C18.9,8.88405797 18.942029,9.05217391 18.8782609,9.36521739 C18.6478261,10.4898551 18.4521739,11.6202899 18.2086957,12.742029 C18.115942,13.1768116 18.2826087,13.2507246 18.6434783,13.2057971 C18.9086957,13.1710145 19.173913,13.1449275 19.4376812,13.1014493 C20.4521739,12.9362319 21.1376812,12.3971014 21.4246377,11.3942029 C21.6231884,10.6971014 21.8202899,9.99710145 21.6173913,9.26231884 C21.3797101,8.39275362 20.7971014,7.94637681 19.9028986,7.94347826 C18.7434783,7.94347826 17.5724638,7.93043478 16.4086957,7.95072464 C15.9652174,7.95072464 15.8289855,7.82898551 15.9246377,7.37101449 C16.2,6.0115942 16.0231884,6.25797101 17.2652174,6.24347826 C18.6028986,6.22898551 19.9405797,6.22173913 21.2782609,6.24347826 C22.5188406,6.26666667 23.6289855,6.63333333 24.4797101,7.60289855 C24.9144928,8.09710145 25.1130435,8.56811594 24.7811594,9.25507246 C24.2297057,10.4252435 23.8747147,11.6782391 23.7304348,12.9637681 C23.7069864,13.4710365 23.3777868,13.9132193 22.8985507,14.0811594 C21.9217391,14.4942029 20.8942029,14.6043478 19.8550725,14.6608696 C19.3679629,14.6862386 18.8798632,14.6862386 18.3927536,14.6608696 C18.0072464,14.642029 17.8362319,14.773913 17.7637681,15.1695652 C17.4666667,16.7637681 17.1333333,18.3478261 16.8144928,19.9347826 L13.5057971,19.9405797 Z" id="路径" fill="#0269B8"></path>
            <path d="M47.126087,19.9405797 C47.0710145,19.3014493 47.2956522,18.7028986 47.415942,18.0927536 C48.0231884,15.0101449 48.6550725,11.9318841 49.2797101,8.85217391 C49.3130435,8.69130435 49.2956522,8.48405797 49.542029,8.46956522 C49.7884058,8.45507246 49.884058,8.5884058 49.942029,8.79275362 C49.9884058,8.95797101 50.0550725,9.12028986 50.0869565,9.28985507 C50.1753623,9.76231884 50.4014493,10.0144928 50.926087,9.91449275 C51.2550725,9.85072464 51.3333333,10.0376812 51.2652174,10.3376812 C51.1057971,11.0434783 50.9594203,11.7507246 50.8101449,12.457971 C50.7855072,12.573913 50.7043478,12.6913043 50.8101449,12.8434783 C51.1699396,12.545531 51.5583006,12.2838728 51.9695652,12.0623188 C52.764891,11.6531037 53.7014668,11.6206797 54.5231884,11.973913 C55.0231884,12.1724638 55.3144928,12.5753623 55.5289855,13.0463768 L55.5289855,14.557971 C55.384058,15.2637681 55.2318841,15.9695652 55.0811594,16.6753623 C54.8492754,17.7623188 54.7202899,18.8724638 54.3956522,19.9405797 L52.1318841,19.9405797 C52.0909473,19.8044605 52.0909473,19.6593076 52.1318841,19.5231884 C52.2985507,18.6913043 52.4898551,17.8637681 52.626087,17.026087 C52.7710145,16.1130435 53.0884058,15.2246377 53.0608696,14.2855072 C53.0347826,13.4855072 52.5014493,13.0869565 51.726087,13.2710145 C51.3072327,13.3711929 50.9521369,13.6475547 50.7521739,14.0289855 C50.4811594,14.5028986 50.3797101,15.026087 50.2753623,15.5507246 C49.9855072,17.0144928 49.6917874,18.4772947 49.3942029,19.9391304 L47.126087,19.9405797 Z" id="路径" fill="#000000"></path>
            <path d="M35.3217391,19.9405797 C35.2637394,19.9171336 35.2041745,19.8977629 35.1434783,19.8826087 C33.2782609,19.5927536 32.426087,18.2217391 32.6130435,16.3173913 C32.7666667,14.7521739 33.315942,13.3855072 34.642029,12.426087 C35.6666667,11.6826087 36.826087,11.4594203 38.0507246,11.657971 C39.526087,11.8971014 40.2898551,12.9971014 40.1449275,14.5695652 C40.026087,15.8173913 40.026087,15.8173913 38.7898551,15.8173913 C37.7666667,15.8173913 36.7434783,15.8289855 35.7202899,15.8173913 C35.3550725,15.8173913 35.1637681,15.9130435 35.1405797,16.3086957 C35.1231884,16.6362319 35.0492754,16.957971 35.1072464,17.2927536 C35.2985507,18.3971014 36.0652174,18.9492754 37.173913,18.7550725 C37.6879045,18.6696269 38.1802314,18.4845119 38.6231884,18.2101449 C38.7405797,18.1362319 38.8695652,18.026087 39.0072464,18.1449275 C39.1710145,18.2898551 39.0405797,18.4347826 38.9768116,18.5666667 C38.7580075,19.0814637 38.3124783,19.4654113 37.7710145,19.6057971 C37.3942029,19.7130435 37.0202899,19.8333333 36.6449275,19.9463768 L35.3217391,19.9405797 Z M36.5884058,14.9275362 L36.5884058,14.9275362 C36.8536232,14.9275362 37.1202899,14.9275362 37.3869565,14.9275362 C37.5550725,14.9275362 37.7072464,14.8782609 37.7333333,14.684058 C37.7971014,14.2043478 37.9014493,13.7246377 37.8202899,13.2347826 C37.6884058,12.442029 37.1666667,12.2202899 36.5028986,12.6913043 C36.244736,12.8728631 36.043649,13.1242217 35.9231884,13.415942 C35.7782609,13.7608696 35.657971,14.1173913 35.5202899,14.4666667 C35.3753623,14.8391304 35.5376812,14.9507246 35.8884058,14.9347826 C36.1173913,14.9144928 36.3536232,14.9275362 36.5884058,14.9275362 Z" id="形状" fill="#000000"></path>
            <path d="M29.4652174,19.9405797 C28.526087,19.573913 28.2768116,19.2275362 28.3057971,18.2014493 C28.3391304,17 28.7101449,15.8507246 28.9028986,14.673913 C28.9768116,14.2246377 29.0594203,13.7753623 29.1637681,13.3333333 C29.242029,13.0043478 29.1637681,12.8826087 28.8057971,12.8826087 C28.6043478,12.8826087 28.2463768,13.0768116 28.2130435,12.6594203 C28.1637681,12.0550725 28.3942029,11.7130435 28.8507246,11.7434783 C29.3652174,11.7797101 29.5869565,11.5492754 29.5942029,11.0797101 C29.6086957,10.2101449 30.0072464,9.69710145 30.8652174,9.48550725 C31.2724638,9.3884058 31.6521739,9.17101449 32.0405797,9.00144928 C32.3028986,8.88695652 32.3927536,8.96086957 32.3304348,9.24057971 C32.1985507,9.90289855 32.0855072,10.5695652 31.9376812,11.2289855 C31.8565217,11.5927536 31.9304348,11.7782609 32.3362319,11.7275362 C32.3843509,11.7214738 32.4330404,11.7214738 32.4811594,11.7275362 C32.7057971,11.7536232 33.0231884,11.6289855 33.1202899,11.8855072 C33.2173913,12.142029 33.0869565,12.4652174 32.9942029,12.7550725 C32.9463768,12.9 32.7942029,12.8869565 32.6695652,12.8898551 C32.481296,12.9000002 32.2926171,12.9000002 32.1043478,12.8898551 C31.7608696,12.857971 31.6014493,12.9869565 31.5362319,13.3434783 C31.2594203,14.873913 30.9449275,16.3971014 30.6666667,17.926087 C30.5217391,18.715942 30.7144928,18.9217391 31.5144928,18.8927536 C31.6594203,18.8927536 31.9014493,18.7724638 31.9289855,19.0376812 C31.9536232,19.273913 31.9101449,19.5246377 31.6391304,19.6173913 C31.2985507,19.7347826 30.9507246,19.8304348 30.6043478,19.9347826 L29.4652174,19.9405797 Z" id="路径" fill="#000000"></path>
            <path d="M43.1594203,19.9405797 C43.0246377,19.9028986 42.8898551,19.8608696 42.7536232,19.8275362 C40.9376812,19.3768116 40.073913,18.1072464 40.326087,16.2608696 C40.8028986,12.7826087 44.0768116,10.7536232 47.4173913,11.8884058 L47.5072464,11.9173913 C48.342029,12.226087 48.3695652,12.2971014 47.942029,13.0652174 C47.7826087,13.3550725 47.6173913,13.6449275 47.4565217,13.9347826 C47.3970033,14.0873777 47.2404847,14.17913 47.0782609,14.1565217 C46.873913,14.1275362 46.8449275,13.9652174 46.8362319,13.8043478 C46.8072464,13.2434783 46.5985507,12.7594203 46.0565217,12.5637681 C45.4771914,12.3398927 44.8200514,12.486877 44.3913043,12.9362319 C43.1231884,14.2101449 42.684058,15.7826087 42.9681159,17.5246377 C43.1130435,18.4333333 44.0043478,18.9101449 45.0115942,18.7608696 C45.4999583,18.7082925 45.9638453,18.5200267 46.3507246,18.2173913 C46.4869565,18.1057971 46.6275362,17.9826087 46.8014493,18.157971 C46.9463768,18.3028986 46.8434783,18.4391304 46.7797101,18.5855072 C46.5302059,19.2129781 45.9683852,19.6624346 45.3014493,19.7681159 C45.0550725,19.815942 44.8144928,19.8869565 44.5768116,19.9463768 L43.1594203,19.9405797 Z" id="路径" fill="#000000"></path>
            <path d="M24.9492754,12.0956522 C24.9492754,12.0956522 26.8333333,3.68985507 33.2101449,1.24637681 C39.5869565,-1.19710145 45.2637681,-0.315942029 50.1275362,6.34637681 C50.1275362,6.34637681 46.2666667,0.998550725 38.4695652,2.89275362 C37.5451827,3.11881219 36.6718746,3.51760324 35.8956522,4.06811594 C34.3811594,5.13913043 31.6927536,7.13188406 31.0043478,8.25217391 C30.889376,8.43994962 30.6952669,8.5652673 30.4768116,8.59275362 C29.4855072,8.72318841 26.7144928,9.32898551 24.9492754,12.0956522 Z" id="路径" fill="url(#linearGradient-1)"></path>
            <polygon id="路径" fill="#1090CF" points="52.0710145 8.46376812 51.0826087 8.33768116 50.4188406 9.07826087 50.2347826 8.10144928 49.3231884 7.69855072 50.1971014 7.22028986 50.2985507 6.23043478 51.0231884 6.91304348 51.9956522 6.70289855 51.5695652 7.60289855"></polygon>
        </g>
    </g>
</svg>