<?xml version="1.0" encoding="UTF-8"?>
<svg width="124px" height="24px" viewBox="0 0 124 24" version="1.1" xmlns="http://www.w3.org/2000/svg" xmlns:xlink="http://www.w3.org/1999/xlink">
    <title>↳Icon 图标/iconfont/发现/华三交换机@1x</title>
    <g id="↳Icon-图标/iconfont/发现/华三交换机" stroke="none" stroke-width="1" fill="none" fill-rule="evenodd">
        <path d="M72.4784689,7.48564594 C70.8971292,8.57655503 70.3062201,10.2607656 70.3062201,11.9473684 C70.3062201,13.7320574 70.9976077,15.3181818 72.576555,16.4090909 C74.1578947,17.6052632 77.8181818,17.9952173 81.0813397,17.9952173 C82.7000048,17.9957272 84.3171437,17.8958545 85.923445,17.6961722 L85.923445,15.9114832 C84.2488038,16.1100478 83.5526316,16.2105263 81.7727273,16.3086124 C79.8947368,16.4090909 78.1124402,16.1100478 76.8277512,15.3181818 C75.7416268,14.5263158 75.1531101,13.7320574 75.1531101,11.9473684 C75.1531101,10.6578947 75.4473684,9.56937799 76.437799,8.77751196 C77.722488,7.784689 79.5023923,7.48564594 81.5789474,7.48564594 C83.0413957,7.48207223 84.4993167,7.64825596 85.923445,7.98086125 L85.923445,6.10047847 C84.145933,6 83.1555024,6 80.8851675,6 C77.5215311,6 74.0598086,6.39473685 72.4784689,7.48564594 Z M54.9832536,6.19617225 L54.9832536,7.784689 C56.7819288,7.51078497 58.5992745,7.37800355 60.4186603,7.38755981 C61.507177,7.38755981 63.0885167,7.48564594 63.6818182,7.784689 C64.1232033,8.01720715 64.392046,8.48233284 64.3732057,8.98086124 C64.3705953,9.42847373 64.1938405,9.85749008 63.8803828,10.1770335 C63.3863373,10.523438 62.8075659,10.7293153 62.2057416,10.7727273 C61.1246373,10.9131626 60.0351194,10.9787095 58.9449761,10.9688995 L56.4641148,10.9688995 L56.4641148,12.3588517 L59.1291866,12.3588517 C60.7105263,12.3588517 62,12.3588517 62.6889952,12.5574163 C63.5789474,12.7559809 64.0717703,12.9545454 64.4665072,13.3492823 C64.8708134,13.6315789 64.8708134,14.1267943 64.8708134,14.6291866 C64.8708134,15.2248804 64.5741627,15.7200957 63.7870813,16.1148325 C63.0933014,16.4138756 61.5119617,16.5119617 60.3253588,16.5119617 C58.5454545,16.4138756 56.6674641,16.3133971 54.7894737,16.1148325 L54.7894737,17.7009569 C56.7655502,17.7990431 59.8325359,18 60.5311005,18 C63.2009569,18 66.2727273,17.7990431 67.7488038,17.1052632 C68.6494801,16.5908871 69.2364677,15.663357 69.3157895,14.6291866 C69.3157895,14.1315789 69.3157895,13.5382775 68.9210526,13.1411483 C68.6244019,12.645933 68.2272727,12.4473684 67.5358852,12.1483254 C66.8444976,11.8492823 66.4497608,11.7559809 65.1650718,11.5550239 C66.5454545,11.1555024 67.0430622,10.9545455 67.7416268,10.562201 C68.4178773,10.1763995 68.8331742,9.45557581 68.8277512,8.67703349 C68.8277512,7.88516746 68.4330143,7.19138755 67.3444976,6.69617225 C66.1483254,6.1985646 62.9976077,6.00239235 60.9186603,6.00239235 C59.6291866,6 57.0598086,6 54.9832536,6.19617225 Z M49.2416268,6 L49.2416268,10.9545455 L42.2272727,10.9545455 L42.2272727,6 L38.076555,6 L38.076555,17.9952153 L42.2272727,17.9952153 L42.2272727,12.3444976 L49.2488038,12.3444976 L49.2488038,17.9952153 L53.4019139,17.9952153 L53.4019139,6 L49.2416268,6 Z" id="H3C" fill="#E60012" fill-rule="nonzero"></path>
    </g>
</svg>