<?xml version="1.0" encoding="UTF-8"?>
<svg width="124px" height="24px" viewBox="0 0 124 24" version="1.1" xmlns="http://www.w3.org/2000/svg" xmlns:xlink="http://www.w3.org/1999/xlink">
    <title>↳Icon 图标/发现/操作系统(HPUX)@1x</title>
    <g id="↳Icon-图标/发现/操作系统(HPUX)" stroke="none" stroke-width="1" fill="none" fill-rule="evenodd">
        <g id="hpux" transform="translate(42.000000, 2.000000)" fill="#045495" fill-rule="nonzero">
            <path d="M9.725,-1.11022302e-15 L10.1821429,-1.11022302e-15 C12.6857143,0.285714277 15.2285714,1.13571428 17.0357143,2.96428572 C19.3785714,5.1857143 20.5,8.61785715 19.8678571,11.7928571 C19.3892857,14.55 17.6,17.0071429 15.2178571,18.4428571 C13.7678571,19.3142857 12.1,19.7142857 10.45,20 L10.0178571,20 L9.76785715,19.8392857 C10.425,18.0107143 11.1392857,16.2035714 11.7392857,14.3571429 C12.8892857,14.3035714 14.0535714,14.3392857 15.1821429,14.1035714 C15.825,13.6928571 15.9857143,12.8571429 16.275,12.2 C16.9214286,10.2142857 17.8714286,8.31428572 18.1857143,6.23571428 C16.5214286,5.45 14.6428571,5.84642855 12.8714286,5.78214285 C11.2321429,10.4 9.43928572,14.9607143 7.84642857,19.5928571 C2.36071428,18.5071429 -1.45,12.0857143 0.692857148,6.825 C1.68214285,3.69285715 4.38571428,1.42857143 7.44285715,0.425 C5.8,5.07857143 4.08928572,9.70714285 2.35714285,14.3285714 C3.0392857,14.3285714 3.725,14.3285714 4.40714285,14.325 C5.35357143,11.8928571 6.22857143,9.43214285 7.11428572,6.97857143 C7.66785715,6.975 8.21785715,6.97142857 8.77142857,6.97142857 C7.85,9.39285715 6.98214285,11.8357143 6.06428572,14.2607143 C6.76428572,14.25 7.46428572,14.2357143 8.16071428,14.2178571 C8.93571428,11.8392857 10.0214286,9.55714287 10.6392857,7.13571428 C10.9428571,5.36071428 8.66428572,5.8142857 7.60357143,5.74285715 C8.27857143,3.81785715 8.9392857,1.8857143 9.725,-1.11022302e-15 Z M23.4607143,5.75714285 C24.075,5.72142857 24.6928571,5.67857143 25.3071429,5.63214285 C24.9,7.71071428 24.1178571,9.7 23.7714286,11.7892857 C23.675,12.6642857 24.6928571,12.8964286 25.3642857,12.7928571 C26.3678571,12.8321429 27.1857143,11.9928571 27.425,11.0714286 C27.925,9.30714285 28.4142857,7.5357143 28.8392857,5.75 C29.4642857,5.72142857 30.0857143,5.69285715 30.7071429,5.64642857 C30.2285714,7.7357143 29.675,9.81785715 29.0321429,11.8607143 C28.2107143,14.3321429 24.9357143,15.1785714 22.7642857,14.0464286 C21.7142857,13.4785714 21.8321429,12.1035714 22.0428571,11.1142857 C22.4714286,9.31428572 23.0321429,7.55357145 23.4607143,5.75714285 L23.4607143,5.75714285 Z M31.8,5.67142857 C32.4285714,5.67857143 33.0607143,5.68214285 33.6928571,5.69642857 C33.9636861,6.52915342 34.2398823,7.36012308 34.5214286,8.18928572 C35.2321429,7.31785715 35.9964286,6.49285715 36.775,5.68214285 C37.4107143,5.67142857 38.0464286,5.66785713 38.6821429,5.67142857 C37.6214286,7.13928572 36.3214286,8.4107143 35.0857143,9.72857143 C35.4892857,11.3035714 36.0928571,12.8142857 36.5892857,14.3607143 C35.9071429,14.325 35.225,14.2928571 34.5464286,14.2535714 C34.2464286,13.3321429 33.9357143,12.4142857 33.6392857,11.4892857 C32.8357143,12.4678571 31.9892857,13.4107143 31.1321429,14.3428571 C30.4642857,14.3357143 29.7964286,14.3321429 29.1285714,14.325 C30.3642857,12.6892857 32.0785714,11.3892857 33.0892857,9.61071428 C32.7392857,8.27142855 32.1714286,7.00357143 31.8,5.67142857 L31.8,5.67142857 Z" id="形状"></path>
            <path d="M14.5,6.96785715 C15.0357143,6.96785715 15.575,6.97142857 16.1107143,6.975 C15.3928571,8.98571428 14.6035714,10.975 13.95,13.0107143 C13.3892857,13.0321429 12.8285714,13.0428571 12.2678571,13.05 C13.0285714,11.0285714 13.7428571,8.98928572 14.5,6.96785715 Z" id="路径"></path>
        </g>
    </g>
</svg>