<?xml version="1.0" encoding="UTF-8"?>
<svg width="124px" height="24px" viewBox="0 0 124 24" version="1.1" xmlns="http://www.w3.org/2000/svg" xmlns:xlink="http://www.w3.org/1999/xlink">
    <title>↳Icon 图标/iconfont/发现/华为防火墙@1x</title>
    <g id="↳Icon-图标/iconfont/发现/华为防火墙" stroke="none" stroke-width="1" fill="none" fill-rule="evenodd">
        <path d="M60.0135006,2.00099228 C60.0135006,2.00099228 57.8285263,1.90124346 56.4358426,3.70194729 C55.041734,5.50265114 56.0886217,8.25286882 56.7493389,9.67167717 C57.4100561,11.0904855 60.8969902,16.6578951 61.0252387,16.7804437 C61.1525372,16.9029922 61.3054854,16.8516928 61.3140353,16.7410191 C61.3221102,16.6317704 61.7120806,8.65186413 61.3985843,6.68443725 C61.085088,4.71653538 60.1555239,2.21663973 60.0135006,2.00099228 L60.0135006,2.00099228 Z M52.4629893,5.71069869 C52.2131422,5.73729837 50.4205133,7.52470237 50.2590152,9.27220686 C50.0970421,11.0192363 50.8451583,12.1820227 52.9332338,13.5732813 C55.0355591,15.0642888 60.0315504,17.8064316 60.1232243,17.5698844 C60.2148982,17.3342871 58.187147,13.7314545 56.5275165,11.1109103 C54.868361,8.49036605 52.7114114,5.68409901 52.4629893,5.71022371 L52.4629893,5.71069869 Z M53.1346314,21.8291593 C54.6465386,22.5050764 57.0020359,20.9865192 57.6537283,20.5452494 C58.2593462,20.0821299 59.378908,19.2314149 59.378908,19.2314149 L50.8119087,19.4603622 C50.8119087,19.4603622 51.6227242,21.1527673 53.1346314,21.8291593 L53.1346314,21.8291593 Z M53.3498039,14.9056407 C51.8165219,14.1385247 48.6620839,12.3753454 48.5385854,12.40907 C48.4150868,12.4423196 47.9400924,14.6358438 48.9266558,16.2892994 C49.9132192,17.94228 51.8345717,18.4476741 52.7161613,18.5830475 C53.7074747,18.7241208 59.5356562,18.6609465 59.4967066,18.5436229 C59.462507,18.4414991 54.8845108,15.6727567 53.3502789,14.9056407 L53.3498039,14.9056407 Z M67.5640119,3.70194729 C66.1703782,1.90171844 63.9854039,2.00099228 63.9854039,2.00099228 C63.8433806,2.21663975 62.9142915,4.71653538 62.6007952,6.68443725 C62.2872989,8.65186413 62.6777443,16.6317704 62.6862942,16.7410191 C62.6943691,16.8512178 62.8468423,16.9025172 62.9746158,16.7804437 C63.1019143,16.6578951 66.5893233,11.0904855 67.2505156,9.67167717 C67.9107578,8.25286884 68.9571705,5.50265114 67.5635369,3.70194729 L67.5640119,3.70194729 Z M75.4607941,12.408595 C75.3372955,12.3753454 72.1833326,14.1385247 70.6495756,14.9056407 C69.1162936,15.6727567 64.5373474,18.4414991 64.5036228,18.5440979 C64.4637233,18.6609466 70.2923798,18.7241208 71.2836932,18.5830475 C72.1652828,18.4476741 74.0861603,17.941805 75.0731986,16.2888244 C76.060712,14.6358438 75.5842926,12.4423196 75.4607941,12.408595 L75.4607941,12.408595 Z M66.3461262,20.5452494 C66.9978185,20.9869942 69.3537908,22.5050764 70.8661731,21.8291593 C72.3780803,21.1527673 73.1888958,19.4603622 73.1888958,19.4603622 L64.6218964,19.2314149 C64.6218964,19.2314149 65.7409833,20.0826049 66.3461262,20.5452494 L66.3461262,20.5452494 Z M73.7417893,9.27173186 C73.5793412,7.5237524 71.7871872,5.73682339 71.5382902,5.71022371 C71.2889181,5.68362403 69.1319685,8.48989106 67.4723379,11.1104353 C65.8127074,13.7309795 63.7849563,17.3342872 63.8766302,17.5694094 C63.9687791,17.8059566 68.9657204,15.0638138 71.0670957,13.5728063 C73.1551712,12.1815477 73.9042374,11.0187613 73.7413143,9.27173186 L73.7417893,9.27173186 Z" id="华为" fill="#F5222D" fill-rule="nonzero"></path>
    </g>
</svg>