<?xml version="1.0" encoding="UTF-8"?>
<svg width="124px" height="24px" viewBox="0 0 124 24" version="1.1" xmlns="http://www.w3.org/2000/svg" xmlns:xlink="http://www.w3.org/1999/xlink">
    <title>↳Icon 图标/发现/操作系统(Linux)@1x</title>
    <g id="↳Icon-图标/发现/操作系统(Linux)" stroke="none" stroke-width="1" fill="none" fill-rule="evenodd">
        <g id="linux" transform="translate(53.597938, 2.000000)" fill-rule="nonzero">
            <path d="M8.67020377,2.99051627 C8.47912355,3.11625094 8.33201693,3.29845199 8.24937581,3.51173889 C8.16552303,3.7877846 8.17737211,4.0840613 8.28300177,4.35252899 C8.36920198,4.63546914 8.54314202,4.88366882 8.77967945,5.06125161 C8.90026056,5.14578447 9.03958308,5.19973895 9.18564755,5.21846811 C9.3320128,5.23682174 9.48052338,5.21101119 9.6121134,5.14435003 C9.76901745,5.05747379 9.89324987,4.92172384 9.96591092,4.75775209 C10.0370226,4.59348569 10.0765792,4.41730175 10.0825145,4.23840206 C10.0983908,4.01087203 10.0697475,3.78242942 9.99818782,3.5658626 C9.92067647,3.32992461 9.76756192,3.12611157 9.56254027,2.98596569 C9.45862045,2.91847846 9.34121352,2.87450498 9.21852851,2.85711985 C9.09550687,2.83956835 8.97004299,2.85354266 8.8538982,2.89773276 C8.78854951,2.92418625 8.72648768,2.958126 8.66895538,2.99887242" id="路径" fill="#FFFFFF"></path>
            <path d="M15.0324178,12.1012806 C14.9187986,11.4702021 14.7411183,10.8523554 14.5021343,10.2573293 C14.3392139,9.81447839 14.1177746,9.39541622 13.8437097,9.01129591 C13.5666076,8.64275934 13.2174412,8.33225274 12.9461179,7.95918573 C12.8031169,7.76588676 12.6820031,7.54939191 12.5331427,7.3580662 C12.4725542,7.23381633 12.4134795,7.10883393 12.3559319,6.98314675 C12.1769692,6.59336743 12.0143967,6.19388289 11.8018082,5.8233932 C11.768793,5.76515385 11.7342149,5.70781454 11.6981113,5.65143766 C11.6711099,5.2945393 11.6336783,4.93816447 11.6143082,4.58064191 C11.6307638,3.86325251 11.5705261,3.14615803 11.4346207,2.44156733 C11.3417206,2.10371342 11.1983602,1.78181594 11.0093831,1.48675097 C10.7909693,1.13873 10.5090308,0.834906403 10.178278,0.59113241 C9.64006483,0.210190902 8.99753287,0.0043638432 8.33815238,0.00167123067 C7.85347667,-0.0101215761 7.37367374,0.100693814 6.9432587,0.323836179 C6.48997657,0.571237198 6.12396166,0.952333397 5.89505477,1.41523035 C5.67958238,1.88114999 5.5658242,2.38762203 5.56135229,2.90093428 C5.54455944,3.40349146 5.59105187,3.90604865 5.6097173,4.40923003 C5.62908747,4.9316809 5.61867751,5.45618557 5.66186775,5.97740818 C5.67600274,6.14553802 5.69537291,6.31306379 5.69464803,6.48191849 C5.69464803,6.56572165 5.6894934,6.65067252 5.68816447,6.73449581 L5.68166076,6.75253705 C5.45393889,7.13882379 5.20218155,7.51042747 4.92787532,7.86515383 C4.73688626,8.10818477 4.54358522,8.34938988 4.34799855,8.58873631 C4.09631943,8.8723591 3.88258374,9.18750045 3.71216575,9.52623631 C3.59850598,9.82166674 3.50593999,10.1247855 3.4351643,10.4333119 L3.4280364,10.4590851 C3.32144485,10.8126936 3.18722571,11.1573774 3.02661888,11.4899525 C3.01177916,11.5210011 2.99631524,11.5543855 2.98145538,11.582736 C2.88455101,11.7818972 2.78402557,11.9792762 2.67992912,12.1747745 L2.5594193,12.4009544 C2.48338132,12.5365371 2.41603401,12.6768138 2.35778431,12.8209367 C2.32400782,12.9073509 2.29896884,12.9969301 2.28304204,13.0883336 C2.25478162,13.2820456 2.26706867,13.479516 2.31912452,13.6682305 C2.33134775,13.7156052 2.34554886,13.7624473 2.36169056,13.808634 C2.41024509,13.947569 2.46881817,14.0827971 2.53694829,14.2132531 C2.56787613,14.2731556 2.60138128,14.3324138 2.63291318,14.3910881 L2.66190802,14.4335535 C2.69405228,14.4893076 2.72710545,14.5445327 2.76105428,14.5992067 L2.76498067,14.6057104 C2.80396049,14.667383 2.84434911,14.728154 2.88611469,14.7879752 L2.89197407,14.796432 C2.93443706,14.8553784 2.9773939,14.9139675 3.02084005,14.9721931 C3.18670362,15.6164358 3.48854091,16.2177143 3.90606878,16.7356234 C3.84163579,16.8484013 3.78298164,16.9624275 3.71792445,17.0737556 C3.49079892,17.4033346 3.30312995,17.7584256 3.15876691,18.1317453 C3.0979657,18.3232059 3.08337884,18.5263454 3.11620087,18.7245288 C3.1500655,18.9237261 3.25374442,19.1043594 3.40866624,19.234073 C3.51296341,19.3141785 3.63378421,19.3700631 3.76236308,19.3976724 C3.89056788,19.4252723 4.021715,19.4367711 4.15276659,19.4319024 C4.6492206,19.393437 5.1394342,19.2967621 5.61332152,19.1438668 C5.89855005,19.0690723 6.18575875,19.0020439 6.47462951,18.942856 C6.77542342,18.87377 7.08183541,18.8319541 7.39014175,18.8179164 C7.46613241,18.8179164 7.54220361,18.8179164 7.61757007,18.8101844 C7.82693825,18.8335254 8.03775126,18.8412787 8.24826836,18.8333803 L8.32558795,18.8289505 C8.38031572,18.8354341 8.4351643,18.8386155 8.48989207,18.8418371 C8.85977771,18.8629591 9.22956266,18.8991422 9.59552191,18.9545949 C9.91804427,19.0031438 10.238191,19.06634 10.5549694,19.1439876 C11.0439229,19.2920604 11.5470218,19.3885906 12.0560567,19.4320031 C12.1904822,19.4380354 12.3251375,19.4274036 12.4569507,19.4003504 C12.5890384,19.3731921 12.7132263,19.3163688 12.8201313,19.2341736 C12.9753892,19.1043202 13.0793225,18.9234148 13.1133014,18.7238845 C13.1461047,18.5252265 13.131127,18.3216126 13.0696078,18.1298929 C12.9234021,17.7564831 12.7321297,17.4023313 12.5000403,17.0753061 C12.418895,16.9385873 12.343448,16.798808 12.262947,16.6629349 C12.6094619,16.2761156 12.9137794,15.8534798 13.1707474,15.4021827 C13.3259507,15.4118252 13.4815809,15.3921315 13.6294902,15.3441326 C14.0210925,15.2125853 14.3599303,14.958441 14.5958441,14.6193218 C14.6678655,14.5189358 14.7225334,14.4071771 14.7575709,14.2887001 C14.91081,14.0488539 15.0158275,13.7814371 15.0667486,13.5014095 C15.1390544,13.0363975 15.127427,12.5621901 15.0324178,12.1012806 L15.0324178,12.1012806 Z" id="路径" fill="#020204"></path>
            <path d="M6.44740657,5.77895457 C6.37855999,5.86876991 6.32957711,5.97218506 6.30370087,6.08235341 C6.27802939,6.19225904 6.26399831,6.30456166 6.26183956,6.41740496 C6.26872505,6.64257945 6.24991124,6.86780473 6.20576273,7.08871617 C6.1278298,7.317691 6.01027875,7.53119529 5.85846891,7.71949501 C5.59765941,8.04715993 5.39239688,8.41540944 5.25086582,8.80956024 C5.1783574,9.05295699 5.1544994,9.30825197 5.18065399,9.56086904 C4.90951958,9.96031851 4.67533159,10.3836335 4.48099227,10.8255678 C4.18088035,11.4936774 3.98883813,12.2052314 3.91204897,12.9336139 C3.81651175,13.8281636 3.94676409,14.7323911 4.29089481,15.5636074 C4.54232895,16.1627782 4.92601334,16.6973275 5.41323695,17.1272552 C5.66213476,17.3431589 5.9377824,17.5261345 6.23338837,17.6716736 C7.2750957,18.1810344 8.49605863,18.1690712 9.52758537,17.6393967 C10.0428336,17.3380129 10.5134195,16.9660782 10.9256806,16.5343911 C11.1908633,16.2928414 11.4285461,16.022732 11.6344032,15.7289787 C11.980018,15.1276465 12.1825931,14.4548353 12.2264417,13.762645 C12.4397321,12.5659537 12.3085925,11.3332902 11.8483006,10.2082595 C11.6675942,9.83326981 11.4283614,9.48942794 11.139578,9.18963434 C11.0620187,8.66523949 10.9101565,8.15456627 10.6885672,7.67300258 C10.5287935,7.3264135 10.3341455,6.99591253 10.18601,6.64211501 C10.1254027,6.49780525 10.0726079,6.34964965 10.0049936,6.20852126 C9.94104069,6.06473501 9.85151754,5.93375231 9.74077803,5.82194346 C9.6225523,5.71247614 9.48150141,5.63061711 9.32780284,5.58227287 C9.17448312,5.53417353 9.01540648,5.5068481 8.85482442,5.5010269 C8.53267961,5.48495892 8.21053479,5.5268001 7.89229623,5.5139135 C7.63456427,5.50360422 7.38273196,5.45918573 7.12757732,5.47402545 C6.99957253,5.47972495 6.87335317,5.50625556 6.75388611,5.55257329 C6.63416362,5.5992204 6.52837194,5.67573256 6.44658102,5.77482684 M6.55047922,2.99051627 C6.42965271,2.99949552 6.31573545,3.05031292 6.22833441,3.13422197 C6.14171773,3.21807763 6.07731817,3.32216039 6.04093508,3.43709729 C5.98026281,3.67000255 5.96603856,3.91257435 5.99907378,4.15097455 C6.00340979,4.36857423 6.0414542,4.58418642 6.11185164,4.79012967 C6.15123696,4.89162781 6.21010473,4.98443723 6.28513611,5.06332555 C6.36074341,5.14219955 6.45656264,5.19879119 6.56213756,5.22692494 C6.66176155,5.25092488 6.76605966,5.24714324 6.86368396,5.21599146 C6.96068333,5.18441049 7.04894693,5.13056969 7.12141591,5.05877497 C7.22613306,4.95219074 7.30158166,4.82039322 7.34046794,4.67612355 C7.37900204,4.53230999 7.39615996,4.38360801 7.39139014,4.23479784 C7.39098163,4.04856524 7.36230442,3.86347372 7.3063386,3.6858489 C7.24994023,3.50773314 7.15389753,3.34472009 7.0254309,3.20906492 C6.96337347,3.14354322 6.89062001,3.08905812 6.81028512,3.04794217 C6.72962644,3.00687394 6.63979679,2.98713901 6.54935164,2.99061695 M8.67020377,2.99051627 C8.47912355,3.11625094 8.33201693,3.29845199 8.24937581,3.51173889 C8.16552303,3.7877846 8.17737211,4.0840613 8.28300177,4.35252899 C8.36920198,4.63546914 8.54314202,4.88366882 8.77967945,5.06125161 C8.90026056,5.14578447 9.03958308,5.19973895 9.18564755,5.21846811 C9.3320128,5.23682174 9.48052338,5.21101119 9.6121134,5.14435003 C9.76901745,5.05747379 9.89324987,4.92172384 9.96591092,4.75775209 C10.0370226,4.59348569 10.0765792,4.41730175 10.0825145,4.23840206 C10.0983908,4.01087203 10.0697475,3.78242942 9.99818782,3.5658626 C9.92067647,3.32992461 9.76756192,3.12611157 9.56254027,2.98596569 C9.45862045,2.91847846 9.34121352,2.87450498 9.21852851,2.85711985 C9.09550687,2.83956835 8.97004299,2.85354266 8.8538982,2.89773276 C8.78854951,2.92418625 8.72648768,2.958126 8.66895538,2.99887242" id="形状" fill="#FFFFFF"></path>
            <path d="M9.10194507,3.55492912 C9.03149742,3.55989983 8.96333349,3.58201975 8.90339079,3.61936211 C8.84370271,3.65758571 8.79242331,3.70756342 8.752678,3.76624919 C8.67593639,3.88551912 8.63418527,4.02392216 8.63216817,4.16573373 C8.6265578,4.2716303 8.64096458,4.37763522 8.67463354,4.47819346 C8.7091284,4.57832716 8.76991078,4.66734483 8.85061614,4.73592542 C8.93477682,4.80555576 9.03913215,4.84621762 9.14821601,4.85188466 C9.2572874,4.85705041 9.36503833,4.82626443 9.45491704,4.7642558 C9.52565949,4.71404199 9.58351988,4.64780543 9.62377175,4.57095683 C9.66397603,4.49419645 9.6899597,4.41079494 9.70046714,4.32478254 C9.72191195,4.17272511 9.69675021,4.01773893 9.62830219,3.88027545 C9.55876,3.74287699 9.44074619,3.63614086 9.29707635,3.58070232 C9.23549642,3.55710115 9.16962546,3.5467745 9.10377738,3.55039868" id="路径" fill="#020204"></path>
            <path d="M6.55049936,2.99051627 C6.42966578,2.99949094 6.31574067,3.05030866 6.22833441,3.13422197 C6.14171773,3.21807763 6.07731817,3.32216039 6.04093508,3.43709729 C5.98026281,3.67000255 5.96603856,3.91257435 5.99907378,4.15097455 C6.00340979,4.36857423 6.0414542,4.58418642 6.11185164,4.79012967 C6.15123696,4.89162781 6.21010473,4.98443723 6.28513611,5.06332555 C6.36074341,5.14219955 6.45656264,5.19879119 6.56213756,5.22692494 C6.66176155,5.25092488 6.76605966,5.24714324 6.86368396,5.21599146 C6.96068333,5.18441049 7.04894693,5.13056969 7.12141591,5.05877497 C7.22613306,4.95219074 7.30158166,4.82039322 7.34046794,4.67612355 C7.37900204,4.53230999 7.39615996,4.38360801 7.39139014,4.23479784 C7.39098163,4.04856524 7.36230442,3.86347372 7.3063386,3.6858489 C7.24994023,3.50773314 7.15389753,3.34472009 7.0254309,3.20906492 C6.96337347,3.14354322 6.89062001,3.08905812 6.81028512,3.04794217 C6.72962644,3.00687394 6.63979679,2.98713901 6.54935164,2.99061695" id="路径" fill="#FFFFFF"></path>
            <path d="M6.2612355,3.98264336 C6.23154594,4.13274066 6.24041351,4.28791619 6.2870087,4.43365416 C6.32234957,4.52945619 6.37669636,4.61712335 6.44678238,4.69138611 C6.49069668,4.74120224 6.5436104,4.78229133 6.60275048,4.8125 C6.66242851,4.8427219 6.73072678,4.85135878 6.79604945,4.83694427 C6.85543316,4.82047915 6.90788151,4.78521216 6.94553399,4.7364288 C6.98273557,4.68767194 7.01049563,4.63239084 7.02738402,4.57343347 C7.07802648,4.39901311 7.0750801,4.21339845 7.01892719,4.04067332 C6.98397672,3.91316612 6.91333712,3.79829293 6.81531894,3.7095683 C6.76782925,3.66832745 6.71134711,3.63877276 6.65039062,3.62326836 C6.58818095,3.60720737 6.52238483,3.61243873 6.46349468,3.63812822 C6.40058203,3.66935851 6.34981716,3.72059081 6.31916479,3.78378705 C6.28885877,3.84657864 6.26864302,3.91375608 6.25926224,3.98284472" id="路径" fill="#020204"></path>
            <path d="M5.97968347,5.86070393 C5.98376876,5.88068874 5.99115917,5.89985207 6.00155042,5.91740496 C6.02105797,5.947734 6.04672967,5.97361838 6.07689675,5.99337548 C6.10524726,6.01399404 6.13557104,6.03070635 6.16514981,6.04947245 C6.3196777,6.15401959 6.45466985,6.28486139 6.56399001,6.43605026 C6.69901049,6.6451817 6.86446303,6.833009 7.05488885,6.99333521 C7.20083524,7.0929008 7.36983894,7.15344988 7.54580783,7.16921714 C7.75207767,7.18512291 7.95947806,7.16103616 8.15661244,7.09828044 C8.34064559,7.04520507 8.51679314,6.96786374 8.68041237,6.86829494 C8.9628961,6.63997469 9.26740705,6.44034215 9.58944104,6.27235019 C9.66418331,6.24532861 9.7415029,6.22533425 9.81304365,6.19182909 C9.88705947,6.16117434 9.94840624,6.10619168 9.98695232,6.03596166 C10.0124491,5.96403111 10.0268035,5.88862647 10.0295184,5.81235905 C10.041076,5.73183795 10.0668492,5.65329011 10.0810648,5.5733932 C10.0995777,5.49324002 10.0930702,5.40933775 10.0624195,5.33299774 C10.0320435,5.27198176 9.98244682,5.22264691 9.92127094,5.19259423 C9.86090588,5.16321861 9.7950786,5.14675322 9.72799211,5.14424936 C9.59299885,5.14812589 9.45844516,5.16148841 9.32532619,5.18423808 C9.14698776,5.20032619 8.9677231,5.17775451 8.78863966,5.18423808 C8.56648679,5.19074178 8.34670989,5.24093911 8.12445635,5.24867107 C7.87065077,5.26095361 7.61744926,5.22156894 7.36354301,5.21125966 C7.25355353,5.20485581 7.14319552,5.21003896 7.03429043,5.22672358 C6.92515347,5.2434066 6.82095677,5.28364927 6.72893847,5.34465609 C6.64519274,5.41151386 6.56518206,5.48292051 6.48926788,5.55855348 C6.44943041,5.59449965 6.4050248,5.62503315 6.35720039,5.64936372 C6.30907966,5.67369315 6.25587825,5.68627242 6.20195715,5.68607039 C6.174653,5.68153262 6.14678708,5.68153262 6.11948293,5.68607039 C6.10323055,5.69163926 6.08848409,5.7008868 6.07639336,5.71309198 C6.06425786,5.72547609 6.0534409,5.7390867 6.04411646,5.7537049 C6.02161965,5.78699235 6.00199742,5.82213453 5.98546231,5.85875081" id="路径" fill="#D99A03"></path>
            <path d="M6.53894169,5.29896907 C6.44925881,5.35300748 6.3617747,5.41061372 6.27669942,5.47164948 C6.23011494,5.49956812 6.19132569,5.53878675 6.16392155,5.58567574 C6.14909451,5.6211165 6.14206268,5.65933147 6.143303,5.69772874 C6.14545747,5.73598582 6.14545747,5.77422278 6.143303,5.81235905 C6.14008135,5.83813225 6.13299372,5.86390544 6.13164465,5.8902827 C6.13099182,5.90329368 6.13231566,5.91632844 6.13557104,5.92894249 C6.13893903,5.94165763 6.14533649,5.95336789 6.15421633,5.96307184 C6.16638878,5.97512256 6.18148879,5.98379675 6.19803077,5.98824098 C6.21411888,5.99337548 6.23081105,5.9959528 6.24762403,5.99977851 C6.326035,6.02213151 6.39759416,6.06377801 6.45576273,6.12091253 C6.51637001,6.17501611 6.57049372,6.23626772 6.63357764,6.28781411 C6.81122818,6.42101009 7.02815391,6.49129737 7.25016108,6.48759665 C7.4703312,6.48325796 7.68920597,6.4527742 7.90218267,6.3967864 C8.06973363,6.36181354 8.2348299,6.31596916 8.39642397,6.25954414 C8.64583292,6.16667288 8.87634791,6.02937355 9.07679607,5.8543009 C9.16326705,5.77059262 9.25608601,5.69370125 9.35442171,5.6243154 C9.4446279,5.56761437 9.54772068,5.53018283 9.63730267,5.47605912 C9.64555815,5.47132732 9.65359214,5.46597133 9.66100193,5.45999114 C9.66841173,5.45401095 9.67471408,5.44658102 9.67914385,5.43812419 C9.68542922,5.42262211 9.68542922,5.4052814 9.67914385,5.38977932 C9.67490795,5.37517558 9.66814039,5.36142917 9.65914948,5.3491664 C9.64772887,5.33513297 9.63502933,5.32219077 9.62121456,5.3105066 C9.51961678,5.234062 9.39658535,5.19143871 9.26947084,5.18864771 C9.14060486,5.17896263 9.01616865,5.18864771 8.89185325,5.16484778 C8.77581236,5.14003487 8.66171172,5.10688674 8.55043895,5.06566124 C8.43185935,5.02720558 8.31055857,4.99771163 8.18756041,4.97742832 C7.8977262,4.93103017 7.60183459,4.93826468 7.31461421,4.99877175 C7.04215633,5.05639757 6.7809747,5.15825426 6.54143847,5.300298" id="路径" fill="#604405"></path>
            <path d="M6.51059117,4.9942413 C6.38068776,5.08178907 6.26434046,5.18793308 6.16527062,5.30927835 C6.10629998,5.37689541 6.06001865,5.45460165 6.02865255,5.53865979 C6.0096789,5.60642398 5.99484534,5.67527968 5.98423405,5.74484536 C5.97771686,5.77035431 5.97384387,5.79646659 5.97267639,5.82276901 C5.97267639,5.83585696 5.97464965,5.84884423 5.97845522,5.8614288 C5.98243826,5.87417755 5.98927644,5.88584997 5.99844958,5.89555815 C6.01442047,5.91086628 6.0346637,5.92096333 6.05649968,5.92451273 C6.07772229,5.92906331 6.09958924,5.92966736 6.12093267,5.93224468 C6.21868736,5.94793887 6.31112156,5.98729875 6.39018202,6.04689514 C6.471428,6.10297197 6.54606959,6.16740496 6.62924855,6.22017961 C6.81702633,6.33231048 7.03095607,6.39316842 7.24963756,6.39666559 C7.46725539,6.40067441 7.68458845,6.37904788 7.89714884,6.3322326 C8.06744369,6.30036944 8.23455755,6.25338215 8.39650451,6.19182909 C8.64022319,6.08744002 8.86901098,5.95116943 9.07687661,5.78658586 C9.17418425,5.71586615 9.266912,5.63905035 9.35450226,5.55660035 C9.38410116,5.52824984 9.41253222,5.49855026 9.44410438,5.47277706 C9.47511159,5.44584539 9.51096811,5.42507089 9.54975435,5.41156572 C9.61022897,5.39576025 9.67360781,5.39465561 9.73459649,5.40834407 C9.78026337,5.418452 9.82695715,5.42382813 9.87375161,5.42445232 C9.8972003,5.42475341 9.9205288,5.42105598 9.94273518,5.41351885 C9.96474968,5.40496483 9.98424649,5.39098808 9.99941608,5.37288579 C10.0188334,5.3485842 10.0292861,5.31833526 10.0290201,5.28723019 C10.0286087,5.25631252 10.019962,5.22606291 10.0039667,5.19960132 C9.96966496,5.14783411 9.92013292,5.1079974 9.86221408,5.0855952 C9.78376459,5.05468598 9.70267754,5.03094349 9.61994604,5.01465851 C9.36787137,4.95338965 9.12344473,4.86410446 8.89122906,4.74846972 C8.77597455,4.69116463 8.66390142,4.62806057 8.54979462,4.56684923 C8.43447608,4.50130795 8.31295885,4.44733102 8.18701675,4.40570635 C7.89905702,4.32708897 7.59368529,4.34082929 7.31394974,4.44499034 C7.00171048,4.55415812 6.72403185,4.74422666 6.50926224,4.99579172" id="路径" fill="#F5BD0C"></path>
            <path d="M7.96413901,4.89938533 C7.97950226,5.1449561 8.06012403,5.10409328 8.10649565,5.21447212 C8.15280686,5.32485097 8.18000966,5.52955892 8.22569668,5.54875952 C8.2713837,5.56796012 8.33785035,5.47313869 8.34360905,5.26183361 C8.35134101,4.98160329 8.26763853,4.80160996 8.21474307,4.70127451 C8.14421465,4.53950171 8.06297123,4.53145139 7.9911606,4.67911997 C7.97559601,4.72293673 7.9588837,4.81775816 7.96413901,4.89938533 L7.96413901,4.89938533 Z M7.19541318,4.76074714 C7.13553077,4.66602417 7.03696843,5.17971411 7.0665472,5.44438702 C7.07560809,5.51695545 7.10262967,5.60823215 7.12067091,5.5607722 C7.13871215,5.51350918 7.17088837,5.22057693 7.20056782,5.11965069 C7.2231395,5.04757459 7.21860905,4.79560362 7.19541318,4.76074714 L7.19541318,4.76074714 Z" id="形状" fill="#CD8907"></path>
            <path d="M16.7603898,17.0847898 C16.7150699,17.2007145 16.651102,17.30845 16.5710172,17.4037331 C16.3827359,17.603814 16.1564367,17.7643298 15.905364,17.875886 C15.4810989,18.0717909 15.067541,18.2900968 14.6664385,18.5298808 C14.405302,18.7030609 14.1607018,18.8999664 13.9357482,19.1180936 C13.7503224,19.3112268 13.5518588,19.4914048 13.3417566,19.6573574 C13.1235852,19.8190062 12.8700306,19.9263324 12.6021062,19.9704414 C12.2741631,20.0125501 11.9409789,19.9621258 11.640182,19.8248631 C11.4237462,19.7421416 11.2372124,19.5962023 11.1048446,19.4060285 C10.9941276,19.2016655 10.9421777,18.9706298 10.954756,18.738543 C10.967647,18.3297514 11.016598,17.9228957 11.101039,17.5227126 C11.1601965,17.188386 11.2170184,16.8533545 11.2530807,16.5151216 C11.3153323,15.9000039 11.3224752,15.2805528 11.2744241,14.6641632 C11.262982,14.5611859 11.262982,14.457258 11.2744241,14.3542808 C11.2884697,14.1444872 11.4648958,13.9827604 11.6751168,13.9869725 C11.7708211,13.9853798 11.8664461,13.9933255 11.9605751,14.0106918 C12.1844054,14.0366888 12.4066042,14.0752009 12.6261276,14.126047 C12.7633296,14.1621295 12.8973502,14.2103737 13.034673,14.2478858 C13.2631631,14.3138053 13.5021049,14.3356714 13.7387645,14.3123188 C13.9873829,14.2551682 14.2397086,14.2155519 14.4938789,14.1937621 C14.5987605,14.1972319 14.7026313,14.2154519 14.8024323,14.2478858 C14.9060415,14.2760311 15.0011805,14.3291243 15.0795345,14.402525 C15.1359473,14.4618195 15.1797818,14.5319136 15.2084005,14.6085897 C15.2515817,14.7218563 15.2780747,14.8407966 15.287049,14.9616825 C15.2905643,15.0694803 15.2998195,15.1770142 15.3147753,15.2838273 C15.3532363,15.4568133 15.4347927,15.6172733 15.5518686,15.750302 C15.6687924,15.8805859 15.7968326,16.0004472 15.9345401,16.1085293 C16.0692856,16.2219314 16.2045345,16.3340851 16.3494684,16.4306943 C16.4177271,16.4769652 16.4880195,16.5209005 16.5524525,16.571722 C16.6185515,16.6215034 16.6743584,16.6836426 16.7167767,16.7546915 C16.7711654,16.8527439 16.787428,16.967428 16.7624436,17.0767357" id="路径" fill="#F5BD0C"></path>
            <path d="M16.7603898,17.0847898 C16.7150699,17.2007145 16.651102,17.30845 16.5710172,17.4037331 C16.3827359,17.603814 16.1564367,17.7643298 15.905364,17.875886 C15.4810989,18.0717909 15.067541,18.2900968 14.6664385,18.5298808 C14.405302,18.7030609 14.1607018,18.8999664 13.9357482,19.1180936 C13.7503224,19.3112268 13.5518588,19.4914048 13.3417566,19.6573574 C13.1235852,19.8190062 12.8700306,19.9263324 12.6021062,19.9704414 C12.2741631,20.0125501 11.9409789,19.9621258 11.640182,19.8248631 C11.4237462,19.7421416 11.2372124,19.5962023 11.1048446,19.4060285 C10.9941276,19.2016655 10.9421777,18.9706298 10.954756,18.738543 C10.967647,18.3297514 11.016598,17.9228957 11.101039,17.5227126 C11.1601965,17.188386 11.2170184,16.8533545 11.2530807,16.5151216 C11.3153323,15.9000039 11.3224752,15.2805528 11.2744241,14.6641632 C11.262982,14.5611859 11.262982,14.457258 11.2744241,14.3542808 C11.2884697,14.1444872 11.4648958,13.9827604 11.6751168,13.9869725 C11.7708211,13.9853798 11.8664461,13.9933255 11.9605751,14.0106918 C12.1844054,14.0366888 12.4066042,14.0752009 12.6261276,14.126047 C12.7633296,14.1621295 12.8973502,14.2103737 13.034673,14.2478858 C13.2631631,14.3138053 13.5021049,14.3356714 13.7387645,14.3123188 C13.9873829,14.2551682 14.2397086,14.2155519 14.4938789,14.1937621 C14.5987605,14.1972319 14.7026313,14.2154519 14.8024323,14.2478858 C14.9060415,14.2760311 15.0011805,14.3291243 15.0795345,14.402525 C15.1359473,14.4618195 15.1797818,14.5319136 15.2084005,14.6085897 C15.2515817,14.7218563 15.2780747,14.8407966 15.287049,14.9616825 C15.2905643,15.0694803 15.2998195,15.1770142 15.3147753,15.2838273 C15.3532363,15.4568133 15.4347927,15.6172733 15.5518686,15.750302 C15.6687924,15.8805859 15.7968326,16.0004472 15.9345401,16.1085293 C16.0692856,16.2219314 16.2045345,16.3340851 16.3494684,16.4306943 C16.4177271,16.4769652 16.4880195,16.5209005 16.5524525,16.571722 C16.6185515,16.6215034 16.6743584,16.6836426 16.7167767,16.7546915 C16.7711654,16.8527439 16.787428,16.967428 16.7624436,17.0767357 M2.73900612,13.6603979 C2.84806549,13.6171367 2.96726638,13.606156 3.08239369,13.6287653 C3.19806411,13.65121 3.307786,13.6975195 3.40455863,13.764739 C3.59013951,13.9061319 3.74989972,14.0785214 3.87679204,14.2743033 C4.1912049,14.7071722 4.49335535,15.149102 4.76788015,15.6079655 C4.99015383,15.9803077 5.19434601,16.3650532 5.4514739,16.7148035 C5.61899968,16.9429365 5.80835213,17.1549009 5.97720683,17.3823091 C6.15329861,17.6052406 6.28657385,17.8588609 6.37028834,18.1303359 C6.46821255,18.4893223 6.42915647,18.8718954 6.26071198,19.2036888 C6.14125651,19.4352911 5.96022392,19.6294502 5.73753624,19.7647995 C5.51445592,19.8995167 5.25709905,19.9666606 4.9966374,19.9580984 C4.58687236,19.9023475 4.18963392,19.7770439 3.82204414,19.5875886 C3.0431097,19.2771021 2.19654075,19.1798687 1.39380638,18.9382249 C1.14700789,18.8641269 0.904115657,18.7758739 0.656088918,18.7075145 C0.544629421,18.6813718 0.435400392,18.6464972 0.32941366,18.6032136 C0.223514438,18.5588907 0.133618407,18.483378 0.071681701,18.3867188 C0.0268643078,18.3083871 0.00456592746,18.2191935 0.00724871134,18.1289868 C0.0102404155,18.0407791 0.0278707924,17.953682 0.0594192977,17.8712548 C0.119925902,17.7049774 0.217239852,17.5542647 0.283021907,17.3899404 C0.38116534,17.1169694 0.419382403,16.8260665 0.395074903,16.5370087 C0.380859375,16.2482482 0.330641914,15.9622664 0.313849066,15.6736066 C0.301167353,15.5447671 0.305289364,15.4148256 0.326111469,15.287049 C0.36042004,15.0316824 0.559089817,14.8295678 0.81382893,14.7908747 C0.931143405,14.7699216 1.05045676,14.7623493 1.1694789,14.768303 C1.28836191,14.7745916 1.40749424,14.7745916 1.52637726,14.768303 C1.64558247,14.761792 1.76191348,14.7292419 1.8671875,14.6729422 C1.96414567,14.6139272 2.04757457,14.5351363 2.11203286,14.4417083 C2.17623263,14.348663 2.23475179,14.2518236 2.28727046,14.1517196 C2.33989804,14.0515824 2.40159582,13.9564813 2.47158908,13.8676103 C2.54206978,13.7784022 2.63316161,13.7076459 2.73703286,13.6614248" id="形状" fill="#F5BD0C"></path>
            <path d="M2.73900612,13.6603979 C2.84806351,13.6171299 2.96726446,13.6061422 3.08239369,13.6287452 C3.19806411,13.6511899 3.307786,13.6974993 3.40455863,13.7647189 C3.59013951,13.9061118 3.74989972,14.0785013 3.87679204,14.2742832 C4.1912049,14.7071521 4.49335535,15.1490818 4.76788015,15.6079454 C4.99015383,15.9802875 5.19434601,16.365033 5.4514739,16.7147833 C5.61899968,16.9429164 5.80835213,17.1548808 5.97720683,17.382289 C6.15329861,17.6052205 6.28657385,17.8588408 6.37028834,18.1303157 C6.46821255,18.4893022 6.42915647,18.8718752 6.26071198,19.2036687 C6.14125651,19.435271 5.96022392,19.62943 5.73753624,19.7647793 C5.51445592,19.8994966 5.25709905,19.9666405 4.9966374,19.9580783 C4.58687236,19.9023273 4.18963392,19.7770237 3.82204414,19.5875685 C3.0431097,19.277082 2.19654075,19.1798486 1.39380638,18.9382047 C1.14700789,18.8641068 0.904115657,18.7758537 0.656088918,18.7074944 C0.544629421,18.6813517 0.435400392,18.6464771 0.32941366,18.6031935 C0.223514438,18.5588705 0.133618407,18.4833579 0.071681701,18.3866986 C0.0268643078,18.3083669 0.00456592746,18.2191734 0.00724871134,18.1289667 C0.0102404155,18.040759 0.0278707924,17.9536618 0.0594192977,17.8712347 C0.119925902,17.7049573 0.217239852,17.5542445 0.283021907,17.3899203 C0.38116534,17.1169493 0.419382403,16.8260464 0.395074903,16.5369886 C0.380859375,16.2482281 0.330641914,15.9622463 0.313849066,15.6735865 C0.301167353,15.544747 0.305289364,15.4148055 0.326111469,15.2870288 C0.36042004,15.0316623 0.559089817,14.8295476 0.81382893,14.7908545 C0.931143405,14.7699015 1.05045676,14.7623291 1.1694789,14.7682829 C1.28836191,14.7745714 1.40749424,14.7745714 1.52637726,14.7682829 C1.64558247,14.7617719 1.76191348,14.7292217 1.8671875,14.672922 C1.96414567,14.613907 2.04757457,14.5351161 2.11203286,14.4416881 C2.17623263,14.3486429 2.23475179,14.2518035 2.28727046,14.1516994 C2.33989804,14.0515623 2.40159582,13.9564612 2.47158908,13.8675902 C2.54206978,13.778382 2.63316161,13.7076257 2.73703286,13.6614046" id="路径" fill="#F5BD0C"></path>
            <path d="M2.90908908,13.8491463 C3.00837851,13.8110388 3.11687179,13.8038513 3.22032055,13.8285277 C3.32304,13.8535349 3.41909964,13.9005617 3.50185245,13.9663539 C3.66098573,14.1047684 3.79425882,14.2703576 3.89545747,14.4554003 C4.16285438,14.8883698 4.42376772,15.3252658 4.66861308,15.7717461 C4.84484729,16.1137369 5.0435202,16.4436903 5.26332957,16.7594435 C5.41539143,16.9641793 5.5893001,17.1518001 5.74456347,17.3540391 C5.9069236,17.5516182 6.03004914,17.7783917 6.1073212,18.022169 C6.19588958,18.3425385 6.15998111,18.6845538 6.00680573,18.9795425 C5.89590485,19.18959 5.72855998,19.3645012 5.52361872,19.4845764 C5.31815506,19.6041523 5.08270736,19.6622927 4.84519974,19.6521021 C4.47220616,19.5951749 4.10978582,19.4829484 3.76989369,19.3191245 C3.09022632,19.0722254 2.35252899,19.0394451 1.65669298,18.8467703 C1.40669298,18.7792566 1.16317655,18.6883255 0.911867751,18.6252416 C0.799649594,18.6018399 0.689367737,18.5699615 0.581970844,18.5298808 C0.473874905,18.4891778 0.38186499,18.4145668 0.319708441,18.3172117 C0.278500486,18.2419773 0.258884909,18.1568185 0.263027545,18.071138 C0.267317225,17.9857553 0.285813426,17.9016854 0.317755316,17.8223864 C0.378282055,17.6632168 0.473622745,17.5189876 0.53485422,17.359818 C0.618780658,17.1150581 0.648475066,16.8549744 0.621879027,16.5975958 C0.604562661,16.3399646 0.557446037,16.0854341 0.544559439,15.8283465 C0.534591651,15.7134607 0.539790955,15.5977627 0.560023357,15.4842341 C0.580668182,15.3701134 0.634449925,15.2645948 0.714662532,15.1808352 C0.807314278,15.0952607 0.924508961,15.0409563 1.04969394,15.025592 C1.17380302,15.0105409 1.29927607,15.0105409 1.42338515,15.025592 C1.54762001,15.0406331 1.67266028,15.0465327 1.79770055,15.0429083 C1.92339266,15.0392576 2.04579719,15.0019145 2.15212226,14.9347817 C2.24465832,14.8677458 2.31960555,14.7793207 2.37057023,14.6770498 C2.42119522,14.5763532 2.46553744,14.4726191 2.50334246,14.3664425 C2.54131939,14.2598581 2.59147995,14.1580168 2.652827,14.062943 C2.71551674,13.9666789 2.8051514,13.8909936 2.91055896,13.8453206" id="路径" fill="#F5BD0C"></path>
        </g>
    </g>
</svg>