<?xml version="1.0" encoding="UTF-8"?>
<svg width="124px" height="24px" viewBox="0 0 124 24" version="1.1" xmlns="http://www.w3.org/2000/svg" xmlns:xlink="http://www.w3.org/1999/xlink">
    <title>↳Icon 图标/discovery/mysql@1x</title>
    <g id="↳Icon-图标/discovery/mysql" stroke="none" stroke-width="1" fill="none" fill-rule="evenodd">
        <path d="M51.4690806,0 C51.6346109,0.0263343467 51.8039031,0.0376205124 51.9637903,0.0827651033 C52.2308958,0.161768167 52.4998824,0.240771208 52.7519398,0.357394784 C53.212791,0.573712688 53.6868093,0.774982364 54.0949918,1.0909946 C54.2887374,1.23959558 54.4730778,1.39948273 54.6668234,1.54808371 C54.710087,1.58006114 54.7721608,1.60451446 54.8267106,1.6082765 C55.6035739,1.65530214 56.3785563,1.7117329 57.1309664,1.94121796 C57.6162709,2.08793792 58.0451446,2.33247119 58.4740183,2.59017165 C59.6949914,3.30759777 60.8286676,4.16416709 61.8523395,5.14272279 C62.3639784,5.63931343 62.8173054,6.19797789 63.2668704,6.75476135 C63.7728662,7.38302376 64.2694568,8.02445334 64.6249706,8.75429109 C64.88079,9.28097815 65.0764166,9.83588057 65.3209499,10.3682107 C65.8288267,11.4592053 66.3479896,12.5407947 66.8633906,13.6242652 C67.0063485,13.9252292 67.1624736,14.2167882 67.3073125,14.5139901 C67.3900776,14.6851634 67.5179873,14.8130731 67.6948037,14.8676229 C69.1130966,15.3077827 70.3301199,16.0921702 71.4643781,17.0270397 C71.754056,17.2659299 72.056901,17.491653 72.352222,17.723019 C72.5704209,17.8923113 72.7622854,18.0879379 72.9240536,18.317423 C73.0444392,18.4885963 73.1836351,18.6484834 73.3190689,18.8102516 C73.3886668,18.8948977 73.3792617,18.9513285 73.2569951,18.992711 C72.8093111,19.1450741 72.3616271,19.2993181 71.8876087,19.3689161 C71.3439925,19.4479191 70.8060193,19.5626617 70.264284,19.660475 C70.108159,19.6886903 69.9501528,19.7112626 69.7601693,19.7413591 C69.8090759,19.8241242 69.8429344,19.9087703 69.8956031,19.9746062 C70.1608277,20.3000235 70.482483,20.5671291 70.8549259,20.7589937 C71.6374324,21.161533 72.2976722,21.7183165 72.9033623,22.3446979 C73.1253233,22.5741829 73.328474,22.8224783 73.5429109,23.0594874 C73.6369622,23.1591818 73.7366565,23.251352 73.8344698,23.3435222 C74.0225723,23.5184576 74.1843405,23.7065601 74.1862215,24 C74.1561251,23.9924759 74.1222666,23.9905949 74.0959323,23.9774277 C73.8100165,23.8344698 73.5297437,23.6839878 73.2419469,23.546673 C72.0907595,23.0011757 70.93581,22.4688455 69.7883847,21.9177052 C69.0529039,21.5603104 68.3381143,21.159652 67.5969904,20.8116624 C66.4063014,20.2529979 65.1986833,19.7281919 64.0042323,19.1751705 C63.0260992,18.7237244 62.0855867,18.2045615 61.2466494,17.5217494 C60.3569245,16.7994357 59.6252057,15.9360451 58.9630849,15.0068187 C58.1692923,13.8932518 57.4958852,12.7025629 56.8205972,11.515636 C56.282624,10.5732424 55.7747473,9.6063955 55.1088643,8.74488597 C54.5972255,8.07712204 54.0216318,7.45638374 53.4723724,6.81683517 C53.3820832,6.71149776 53.2842699,6.60992241 53.1695274,6.48389371 C53.1789325,6.53844345 53.1808135,6.56101573 53.1883376,6.58358807 C53.4253468,7.39242888 53.8278862,8.10721845 54.4166471,8.70914648 C54.713849,9.01199152 54.8116624,9.34305196 54.6630614,9.74371032 C54.563367,10.016459 54.484364,10.2986127 54.3752645,10.5675993 C54.2097343,10.9776628 54.1495415,11.4140607 54.0554902,11.8410534 C53.9238185,12.4429814 53.9952974,13.0392664 54.0498472,13.6411945 C54.0949918,14.1359041 54.1420174,14.6287327 54.3263579,15.0933459 C54.4674348,15.4469786 54.6423701,15.7893252 54.8116624,16.1316718 C54.8906654,16.2896779 55.0279803,16.3950153 55.1878674,16.4702563 C55.3251822,16.5360922 55.3740889,16.519163 55.4023043,16.3649189 C55.4342817,16.1937456 55.4530919,16.0188103 55.4775453,15.8438749 C55.533976,15.4262873 55.5678345,15.0011757 55.6581237,14.5892311 C55.7653421,14.1001646 55.9628497,13.6411945 56.3108394,13.2612274 C56.4425112,13.1182695 56.5553727,12.9583823 56.6870444,12.7928521 C56.7096167,12.8304726 56.7340701,12.86245 56.7434752,12.8963085 C57.1234423,14.1133318 57.7216083,15.2287797 58.3649189,16.3197743 C58.8596285,17.1624735 59.3637432,18.0051728 60.0446743,18.7199624 C60.2572302,18.9419234 60.4998824,19.1337879 60.7293675,19.3388197 C60.7519398,19.3576299 60.7857983,19.365154 60.8158947,19.3783212 L60.7726311,19.436633 C60.6992711,19.4046556 60.616506,19.3858453 60.5581942,19.3369386 C60.3257888,19.147614 60.0981148,18.9525544 59.8753821,18.7519398 C59.3750294,18.2986128 58.8784387,17.8396426 58.3799671,17.3844345 C57.9846145,17.0158835 57.6455455,16.591255 57.3736186,16.1241477 C57.2118504,15.85328 57.0989889,15.5560781 56.9635551,15.2720433 C56.9069988,15.1529612 56.8467773,15.0356547 56.7829767,14.9202916 C56.7641665,14.8864331 56.7246649,14.8638608 56.6945685,14.8356454 C56.6738772,14.8732659 56.6381378,14.9127675 56.6324947,14.956031 C56.6099224,15.1083941 56.6005173,15.2645192 56.577945,15.4187632 C56.5233952,15.8024924 56.4726076,16.1862215 56.4048907,16.5661886 C56.3583908,16.7910063 56.2539999,16.9997881 56.1020456,17.1718787 C55.8988949,17.416412 55.6336703,17.4465084 55.3402304,17.416412 C54.9452152,17.3731484 54.6724665,17.1568305 54.4279332,16.8615095 C53.7827416,16.0790031 53.4761345,15.1591818 53.3425817,14.1772866 C53.2208526,13.3370003 53.2221199,12.4834669 53.3463437,11.6435457 C53.3990124,11.3143663 53.5043498,10.994592 53.590877,10.6710557 C53.664237,10.396426 53.741359,10.1255584 53.8241241,9.85469081 C53.8596236,9.74908068 53.9062862,9.64755812 53.96332,9.55184576 C54.0178697,9.45779449 54.0197508,9.37126735 53.9294616,9.30731249 C53.6190924,9.08158947 53.4441571,8.75429109 53.2447684,8.43827886 C52.7124383,7.59181753 52.4171173,6.64566188 52.095462,5.71079239 C52.0317817,5.522048 51.9740682,5.3313427 51.9224077,5.13896072 C51.8567773,4.90475946 51.7579619,4.68115802 51.6289678,4.47495885 C51.2526085,3.88510854 50.8418338,3.31793786 50.3987773,2.77639314 C50.1383977,2.46614646 49.9518749,2.10081891 49.85328,1.70797086 L49.8137785,1.53679757 L49.8137785,1.17564072 C49.8307077,1.10416176 49.8438749,1.02892076 49.8645662,0.959322839 C49.998119,0.494709624 50.2652245,0.154244065 50.7542911,0.0376205124 C50.8389372,0.0188102442 50.9273454,0.0112861418 51.0138726,0 L51.4690806,0 Z M54.5219845,4.20785328 C54.5802963,4.29626146 54.634846,4.36962144 54.6818716,4.44674349 C54.937691,4.85492595 55.1916294,5.26498942 55.4493299,5.67317188 C55.4681401,5.70703033 55.5114037,5.75405596 55.5377381,5.75217494 C55.8951328,5.70703033 56.1998589,5.3383494 56.1114507,5.01857513 C56.0173995,4.67622855 55.8010816,4.41288504 55.5621914,4.1645897 C55.3402304,3.93322362 55.084411,3.91065131 54.8060193,4.03291795 C54.7063249,4.07618152 54.6179168,4.14766048 54.5219845,4.20785328 Z" id="MySQL" fill="#449EFE" fill-rule="nonzero"></path>
    </g>
</svg>