<?xml version="1.0" encoding="UTF-8"?>
<svg width="124px" height="24px" viewBox="0 0 124 24" version="1.1" xmlns="http://www.w3.org/2000/svg" xmlns:xlink="http://www.w3.org/1999/xlink">
    <title>↳Icon 图标/iconfont/发现/网络拓扑@1x</title>
    <g id="↳Icon-图标/iconfont/发现/网络拓扑" stroke="none" stroke-width="1" fill="none" fill-rule="evenodd">
        <g id="网络拓扑" transform="translate(50.333333, 2.000000)" fill-rule="nonzero">
            <path d="M14.1042348,17.4899853 C13.8404664,17.3515176 13.536332,17.3104517 13.2452856,17.3740054 C13.2435415,17.3513326 13.2391814,17.3286598 13.2322051,17.305115 L11.816901,12.5917947 C11.7663233,12.4208769 11.5849411,12.3214656 11.4166394,12.3746594 C11.2483377,12.4252371 11.1506704,12.6101074 11.2029921,12.7818972 L12.6191683,17.4952175 C12.6357369,17.5501554 12.6662579,17.5972449 12.7054992,17.6347422 C12.5685906,17.746362 12.4517386,17.8876308 12.3662797,18.0568045 C12.0392686,18.7012344 12.2904131,19.4921653 12.9252507,19.8235366 C13.5592163,20.1549079 14.3370667,19.9002752 14.6632058,19.2558453 C14.9884729,18.6122874 14.7390724,17.8213565 14.1042348,17.4899853 L14.1042348,17.4899853 Z M23.2901951,13.6687514 C23.2657783,12.8978772 22.9474875,12.1793247 22.3911326,11.6517468 C21.8356497,11.1241688 21.1162252,10.8459914 20.3514552,10.8721523 C19.5927894,10.8965691 18.8873174,11.2200921 18.3675877,11.7851673 C18.0698753,12.1083477 17.8497769,12.4951601 17.7240299,12.9161898 L11.4855298,11.1773627 L15.0076575,7.2697978 C15.2308971,7.36920919 15.4768094,7.4258911 15.7349302,7.4258911 C16.7360203,7.4258911 17.551368,6.59833497 17.551368,5.58067637 C17.551368,4.56301778 16.7360203,3.73546162 15.7349302,3.73546162 C14.7338402,3.73546162 13.9193645,4.56301776 13.9193645,5.58067637 C13.9193645,6.09866198 14.1312677,6.56606989 14.4696152,6.90092926 L10.9248147,10.833783 L7.68086439,5.19698333 C8.54743589,4.64730759 9.04628294,3.66966092 8.98280466,2.64542457 C8.89036953,1.10280412 7.58406911,-0.0726918561 6.06324941,0.0153831439 C5.32551233,0.0581125947 4.65056139,0.392971993 4.1630968,0.952815009 C3.67214411,1.51265805 3.42710379,2.23295455 3.47244931,2.98028395 C3.55965227,4.46622247 4.77700566,5.61555755 6.22370286,5.61555755 C6.27864074,5.61555755 6.33445064,5.61555755 6.39462067,5.61294145 C6.63791695,5.59811695 6.87249292,5.55102734 7.09398845,5.47603281 L10.3335786,11.1084723 C10.3196261,11.1328892 10.3074177,11.158178 10.2995694,11.186083 C10.2917212,11.2139879 10.2891051,11.2427649 10.2891051,11.2706698 L4.96013189,14.7640206 C4.41860147,14.15796 3.6276706,13.7864754 2.75738499,13.8135083 C1.9987192,13.8379251 1.29237519,14.1614481 0.773517543,14.7265233 C0.253787879,15.2915985 -0.0174133523,16.0284636 0.00613146307,16.7993378 C0.0296762547,17.570212 0.349711151,18.2878924 0.905194034,18.8154704 C1.43800414,19.3212476 2.12516352,19.5976809 2.84982015,19.5976809 L2.94312732,19.5976809 C4.51278068,19.5471032 5.74670265,18.2076657 5.69612493,16.6118514 C5.68249751,16.1509232 5.55934436,15.6998599 5.3368487,15.2959587 L10.8044746,11.7110448 C10.8254033,11.7154049 10.847204,11.7188931 10.8690048,11.7188931 C10.8969098,11.7188931 10.9248147,11.7145329 10.9527196,11.7075567 L17.6063059,13.5614917 C17.5993296,13.6600311 17.5975856,13.7585704 17.6002017,13.8588538 C17.6237464,14.6297281 17.9429093,15.3474085 18.4992642,15.8758584 C19.0312023,16.3816356 19.7192337,16.658069 20.4430183,16.658069 C20.4752834,16.658069 20.5058045,16.6554529 20.5354535,16.6554529 C22.1059789,16.6040032 23.3390288,15.2645656 23.2901951,13.6687514 L23.2901951,13.6687514 Z M15.7340582,4.71649498 C16.2032102,4.71649498 16.5851591,5.10454818 16.5851591,5.58154839 C16.5851591,6.0585486 16.2023381,6.4466018 15.7340582,6.4466018 C15.2657783,6.4466018 14.8829573,6.0585486 14.8829573,5.58154839 C14.8829573,5.10454818 15.2649063,4.71649498 15.7340582,4.71649498 Z M7.08439612,3.59157673 C6.87859711,3.82440864 6.59693153,3.96393338 6.29084915,3.98311804 C5.66124375,4.02323139 5.11360911,3.52791856 5.07349574,2.88523272 C5.05518312,2.57217408 5.15808262,2.27219588 5.36126553,2.03936397 C5.56706454,1.80653205 5.84873011,1.66700732 6.15481252,1.64869467 C6.17835732,1.6460786 6.20190213,1.6460786 6.22631894,1.6460786 C6.50885653,1.6460786 6.77395355,1.74810606 6.98760083,1.94082462 C7.21694463,2.15011174 7.35385329,2.43613745 7.37303793,2.74745204 C7.39047853,3.05876662 7.28845104,3.35874482 7.08439612,3.59157673 L7.08439612,3.59157673 Z M2.89429366,17.9643694 C2.56466645,17.9748338 2.2481197,17.8544937 2.00569545,17.6242778 C1.76327121,17.394062 1.62287443,17.0836195 1.6132821,16.746144 C1.60281776,16.4086685 1.72141378,16.0903777 1.94814148,15.8435933 C2.17486918,15.5968089 2.48095159,15.4555401 2.81232287,15.4442037 L2.85505232,15.4442037 C3.16811096,15.4442037 3.46808916,15.5645438 3.70092107,15.7842953 C3.94421735,16.0145111 4.08287005,16.3249537 4.09333442,16.6624291 C4.11426314,17.3591808 3.57709287,17.9399526 2.89429366,17.9643694 L2.89429366,17.9643694 Z M20.4857478,15.0212693 C20.1543765,15.0317337 19.8395738,14.9113936 19.5971496,14.6811778 C19.3547253,14.450962 19.2152006,14.1405194 19.2047362,13.8030439 C19.1933656,13.4698712 19.313666,13.1456242 19.5395956,12.9004933 C19.7663233,12.6537089 20.0715337,12.5124401 20.403777,12.5011037 L20.4465064,12.5011037 C20.7621812,12.5011037 21.0595433,12.6214438 21.2923752,12.8411952 C21.5347994,13.0714111 21.6751962,13.3818536 21.6847885,13.7193291 C21.7057173,14.4160808 21.167675,14.9968525 20.4857478,15.0212693 L20.4857478,15.0212693 Z" id="形状" fill="#3D83FA"></path>
            <path d="M8.00177131,11.2017795 C8.00177131,12.8228826 9.2958633,14.1370313 10.8908055,14.1370313 C12.4857478,14.1370313 13.7780957,12.8228826 13.7780957,11.2017795 C13.7780957,9.58067635 12.4857478,8.26652768 10.8908055,8.26652768 C9.29499129,8.26652768 8.00177131,9.58067635 8.00177131,11.2017795 Z" id="路径" fill="#3DD20F"></path>
        </g>
    </g>
</svg>