<?xml version="1.0" encoding="UTF-8"?>
<svg width="124px" height="24px" viewBox="0 0 124 24" version="1.1" xmlns="http://www.w3.org/2000/svg" xmlns:xlink="http://www.w3.org/1999/xlink">
    <title>↳Icon 图标/iconfont/发现/Nginx服务器@1x</title>
    <g id="↳Icon-图标/iconfont/发现/Nginx服务器" stroke="none" stroke-width="1" fill="none" fill-rule="evenodd">
        <g id="Nginx" transform="translate(33.250000, 6.000000)" fill="#00AA4E" fill-rule="nonzero">
            <path d="M10.8493413,0 C10.1623301,0.000816899433 9.60583052,0.557978994 9.60583101,1.24499062 L9.60583101,7.72752798 L2.24543463,0.367131602 C1.88907879,0.0127756572 1.35462032,-0.0925851038 0.890440197,0.100014039 C0.426260073,0.292613181 0.123390398,0.745400889 0.122584985,1.24795135 L0.122584985,10.7326778 C0.122584985,11.1769412 0.359596692,11.5874575 0.744340106,11.8095892 C1.12908352,12.031721 1.60310695,12.031721 1.98785037,11.8095892 C2.37259378,11.5874575 2.60960549,11.1769412 2.60960549,10.7326778 L2.60960549,4.25014039 L9.97148224,11.6120171 C10.3268772,11.9670979 10.8611807,12.0731146 11.3252243,11.8806272 C11.7892679,11.6881398 12.0916556,11.2350599 12.0913747,10.7326778 L12.0913747,1.24795135 C12.0921572,0.917502988 11.9615392,0.600298149 11.7282932,0.366219069 C11.4950471,0.132139988 11.17831,0.000391992851 10.8478609,0 L10.8493413,0 Z M24.7411272,5.47736658 L19.6886266,5.49217027 C19.0181432,5.51530071 18.4865604,6.06553845 18.4865604,6.7364207 C18.4865604,7.40730296 19.0181432,7.95754069 19.6886266,7.98067114 L22.7352267,7.96438708 L21.9950421,9.47288344 L18.0720633,9.47288344 L16.1283384,6.04730878 L18.086867,2.49442235 L22.2555871,2.49442235 L23.2267094,4.48847986 L25.7329747,4.48847986 L24.1504598,0.715018391 L23.8084945,0.0148036989 L16.6094584,0.0148036989 L16.2689734,0.652842877 L13.6250338,5.45664141 L13.2830685,6.06951431 L13.6250338,6.67498538 L16.2689734,11.3233451 L16.6257425,11.9613843 L23.5435084,11.9613843 L23.8854737,11.250807 L25.8602864,7.27009385 L26.748508,5.46700399 L24.7411272,5.46700399 L24.7411272,5.47736658 Z M29.2103623,0 C28.5345688,0.0339094712 27.9993376,0.583344642 27.9831361,1.25979431 L27.9831361,4.50032282 L30.4701566,4.50032282 L30.4701566,1.25979431 C30.4515335,0.571890698 29.8982659,0.0186230851 29.2103623,0 Z M43.1569219,0.122870658 C42.6924545,-0.0693521188 42.1579389,0.0369668365 41.8023839,0.392297875 L34.4405072,7.75269427 L34.4405072,1.27163727 C34.4405072,0.584865518 33.8837687,0.028127015 33.1969969,0.028127015 C32.5102252,0.028127015 31.9534867,0.584865518 31.9534867,1.27163727 L31.9534867,10.7563637 C31.9534867,11.2593445 32.2564223,11.7128147 32.721114,11.905302 C33.1858057,12.0977894 33.7206933,11.9913824 34.0763363,11.6357031 L41.4367327,4.2738263 L41.4367327,10.7563637 C41.4598631,11.4268471 42.0101009,11.9584299 42.6809831,11.9584299 C43.3518654,11.9584299 43.9021031,11.4268471 43.9252336,10.7563637 L43.9252336,1.27163727 C43.9250858,0.768552467 43.6218242,0.315120907 43.1569219,0.122870658 L43.1569219,0.122870658 Z M53.1405327,6.00437807 L57.0116986,2.14801592 C57.4981619,1.66318777 57.4994875,0.875800457 57.0146593,0.389337138 C56.5298312,-0.0971261808 55.7424439,-0.0984517475 55.2559805,0.386376402 L51.3803736,4.24866003 L47.506247,0.386376402 C47.0279595,-0.107445166 46.2399094,-0.120038052 45.7460879,0.358249404 C45.2522663,0.836536861 45.2396734,1.62458694 45.7179608,2.11840853 L45.7490486,2.14801592 L49.6187341,6.00437807 L45.7608915,9.85333837 C45.2744283,10.3385753 45.2734341,11.126294 45.758671,11.6127573 C46.243908,12.0992206 47.0316266,12.1002148 47.51809,11.6149779 L51.3818539,7.76601758 L55.2456179,11.6149779 C55.5603045,11.9286067 56.0184059,12.0505284 56.4473597,11.9348162 C56.8763136,11.819104 57.2109515,11.4833374 57.3252188,11.0539965 C57.439486,10.6246555 57.3160226,10.1669672 57.001336,9.85333837 L53.1434935,6.00437807 L53.1405327,6.00437807 Z M27.9831361,5.49809175 L27.9831361,10.7045507 C27.974145,11.1488142 28.2028487,11.5641272 28.5830966,11.7940454 C28.9633444,12.0239636 29.4373679,12.0335569 29.8266068,11.8192117 C30.2158458,11.6048664 30.4611655,11.1991467 30.4701566,10.7548833 C30.4716373,10.7381385 30.4716373,10.7212956 30.4701566,10.7045507 L30.4701566,5.49809175 L27.9831361,5.49809175 Z" id="形状"></path>
        </g>
    </g>
</svg>