<?xml version="1.0" encoding="UTF-8"?>
<svg width="124px" height="24px" viewBox="0 0 124 24" version="1.1" xmlns="http://www.w3.org/2000/svg" xmlns:xlink="http://www.w3.org/1999/xlink">
    <title>↳Icon 图标/iconfont/发现/Oracle@1x</title>
    <g id="↳Icon-图标/iconfont/发现/Oracle" stroke="none" stroke-width="1" fill="none" fill-rule="evenodd">
        <path d="M69.9203641,14.7631913 L77.5045915,14.7631913 L76.2923458,16.9846162 L69.9219025,16.9846162 C66.9574387,17.0153838 64.531409,14.826265 64.4975645,12.0940971 C64.4637201,9.36346757 66.8374448,7.12665891 69.8019086,7.09435287 L77.3246007,7.09435287 L76.1138934,9.3157777 L70.0572801,9.3157777 C68.13584,9.28501005 67.0774326,10.204963 67.0343579,11.97718 C67.0005134,13.7478587 67.9989239,14.7247318 69.9219025,14.7631913 L69.9203641,14.7631913 Z M30.8838994,7.09589126 C33.843748,7.09589126 36.2543939,9.30808578 36.2436612,12.0464072 C36.2436612,14.7847287 33.843748,16.9984624 30.8808226,16.9984624 L24.6472954,16.9984624 C21.6751397,17 19.2752625,14.7801136 19.2752625,12.0464072 C19.2752625,9.30808578 21.68437,7.09742964 24.6472954,7.09742964 L30.882361,7.09742964 L30.8838994,7.09589126 Z M33.1622444,12.0464072 C33.1622444,10.5664829 31.8730796,9.36192918 30.2577776,9.36192918 L25.2703404,9.36192918 C23.6658071,9.39269683 22.3935645,10.6126344 22.4274089,12.0925587 C22.4520231,13.5263315 23.7073435,14.6831954 25.2703404,14.7155015 L30.2500857,14.7155015 C31.8561574,14.7155015 33.1622444,13.5263315 33.1622444,12.0464072 L33.1622444,12.0464072 Z M81.0259498,14.7631913 L90.1131773,14.7631913 L88.8993932,16.9846189 L79.4967973,16.9846189 C79.2159143,16.9852354 78.9449116,16.8810036 78.7368361,16.6923234 C78.5469915,16.5248992 78.4383898,16.283943 78.4383898,16.0308188 L78.4383898,7.09589126 L81.0259498,7.09589126 L81.0259498,14.7631913 L81.0259498,14.7631913 Z M104.613974,7.72508983 C104.681663,7.74816557 104.715507,7.81123927 104.724738,7.88200489 C104.724738,7.91277254 104.707815,7.9527705 104.690893,7.98507654 C104.629358,8.05584215 104.544747,8.06353406 104.460136,8.06353406 L104.289375,8.06353406 L104.289375,7.709706 L104.366294,7.709706 C104.48475,7.709706 104.553977,7.709706 104.612436,7.72508983 L104.613974,7.72508983 Z M92.3407556,13.2125014 C92.776118,14.5816622 94.13451,14.7631913 95.697507,14.7801136 L102.604846,14.7801136 L101.394139,17 L95.0221569,17 C92.1099982,16.9769243 89.7531957,14.8031893 89.7178129,12.1110193 C89.6839685,9.37885139 92.0592316,7.14204274 95.0221569,7.11127508 L102.435624,7.11127508 L101.214148,9.33116153 L95.6805848,9.33116153 C94.1175878,9.33116153 92.7499655,9.60807044 92.3315253,10.992615 L101.854115,10.992615 L100.641869,13.2125014 L92.3407556,13.2125014 L92.3407556,13.2125014 Z M49.9536931,10.3941841 C49.9875376,12.2371667 48.3814659,13.7555506 46.3754147,13.7786263 L45.4262324,13.7786263 L49.5690974,16.9846162 L46.0585078,16.9846162 L40.4311033,12.0310234 L45.7262171,12.0310234 C46.6907831,12.0310234 47.4599746,11.5987378 47.4599746,10.7172445 C47.4507443,9.8357511 46.6738609,9.3157777 45.7169868,9.3157777 L39.9357441,9.3157777 L39.9357441,16.9846162 L37.3466457,16.9846162 L37.3466457,7.09589126 L46.3754147,7.09589126 C48.3383912,7.118967 49.9198487,8.57581555 49.9536931,10.3941841 Z M57.8455971,7.00051152 C58.3578786,7.00051152 58.8270854,7.22050026 59.1086094,7.59125053 L65.6421214,16.9907697 L62.679196,16.9907697 L61.5346392,15.2462436 L56.9994866,15.2462436 L55.7780106,13.5063326 L60.2454744,13.5063326 L57.853289,9.66191384 L53.0366124,17 L50.0813789,17 L56.5733545,7.61586465 C56.872233,7.21701567 57.3458177,6.98767686 57.8440587,7.00051152 L57.8455971,7.00051152 Z" id="oracle-" fill="#4578F8" fill-rule="nonzero"></path>
    </g>
</svg>