<?xml version="1.0" encoding="UTF-8"?>
<svg width="124px" height="24px" viewBox="0 0 124 24" version="1.1" xmlns="http://www.w3.org/2000/svg" xmlns:xlink="http://www.w3.org/1999/xlink">
    <title>↳Icon 图标/发现/网络设备(路由器)@1x</title>
    <defs>
        <filter id="filter-1">
            <feColorMatrix in="SourceGraphic" type="matrix" values="0 0 0 0 0.458824 0 0 0 0 0.474510 0 0 0 0 0.529412 0 0 0 1.000000 0"></feColorMatrix>
        </filter>
    </defs>
    <g id="↳Icon-图标/发现/网络设备(路由器)" stroke="none" stroke-width="1" fill="none" fill-rule="evenodd">
        <g id="↳Icon-图标/资源/网络设备(路由器)" transform="translate(52.000000, 2.000000)" filter="url(#filter-1)">
            <g>
                <path d="M18.25,0 C19.2164983,-1.7754286e-16 20,0.783501688 20,1.75 L20,18.25 C20,19.2164983 19.2164983,20 18.25,20 L1.75,20 C0.783501688,20 1.18361906e-16,19.2164983 0,18.25 L0,1.75 C-1.18361906e-16,0.783501688 0.783501688,1.7754286e-16 1.75,0 L18.25,0 Z M11.1630617,11.9756046 L8.83735872,11.9756046 C8.80304034,11.9756046 8.77010975,11.9892438 8.74582128,12.0136581 C8.72153282,12.0380724 8.70787912,12.0712082 8.707868,12.1057661 L8.707868,14.578642 L7.68440981,14.578642 C7.61303118,14.5782186 7.55512934,14.6361434 7.55458193,14.7079566 C7.55448085,14.737762 7.56458685,14.7666914 7.58319722,14.7898685 L9.89964941,17.7050772 C9.95166435,17.7701791 10.0495971,17.7701791 10.1014649,17.7050984 L12.4169709,14.7898896 C12.4619216,14.7340185 12.4524605,14.6521489 12.3968293,14.6068846 C12.3737562,14.588522 12.3451884,14.5785674 12.3157794,14.578642 L11.2920479,14.578642 L11.2920479,12.1057661 C11.2920479,12.0340588 11.2345455,11.9756046 11.1630617,11.9756046 Z M15.0397731,7.53762573 C15.0104698,7.53754485 14.9820332,7.54763068 14.9592487,7.56618636 L12.0643878,9.89801883 C12.0375855,9.91957474 12.0204312,9.95100759 12.016729,9.98534682 C12.0130268,10.0196861 12.0230827,10.0540936 12.0446667,10.0809392 C12.0501121,10.0888149 12.0572394,10.0953992 12.0643878,10.1013272 L14.9592487,12.4333714 C15.0148589,12.4782335 15.0962242,12.4689604 15.1410908,12.4131528 C15.1594036,12.3900404 15.1693548,12.3613376 15.1693059,12.3317701 L15.1693059,11.3010011 L17.6246047,11.3010011 C17.658887,11.3010743 17.6917889,11.2874061 17.7160479,11.2630135 C17.740307,11.2386209 17.7539062,11.2055095 17.7539062,11.1709879 L17.7539062,8.82850629 C17.7539062,8.79397801 17.740293,8.7608623 17.716047,8.73644711 C17.691801,8.71203193 17.6589148,8.69831811 17.6246257,8.69832373 L15.1693059,8.69832373 L15.1693059,7.6675759 C15.1693059,7.59582623 15.111404,7.53762573 15.0397731,7.53762573 Z M4.85914045,7.58623562 C4.8404916,7.60982049 4.83037875,7.63876171 4.83105154,7.66857096 L4.83105154,8.69832373 L2.37562652,8.69832373 C2.30422686,8.69832373 2.24609375,8.75667194 2.24609375,8.82850629 L2.24609375,11.1709879 C2.24661937,11.2429705 2.30422686,11.3010435 2.37562652,11.3010435 L4.83105154,11.3010435 L4.83105154,12.3318125 C4.83105154,12.4036257 4.88899543,12.4615521 4.96039509,12.4615521 C4.98961646,12.4616988 5.01800623,12.4517611 5.04083534,12.4333926 L7.9354019,10.1013484 C7.9913064,10.0563169 8.00015778,9.9741298 7.95558555,9.91838566 C7.94962526,9.91087329 7.942856,9.9040497 7.9354019,9.89804001 L5.04083534,7.56616519 C4.98503596,7.52138781 4.9035655,7.53030094 4.85914045,7.58623562 Z M9.91934949,2.27483355 C9.91195199,2.2806177 9.90521131,2.28720662 9.89924994,2.29448055 L7.5833444,5.20960459 C7.53896139,5.26564513 7.54779174,5.34772641 7.60394854,5.39260965 C7.62691481,5.41136689 7.65561731,5.42154719 7.68518773,5.42142384 L8.70772083,5.42142384 L8.70772083,7.89347409 C8.70833054,7.96537196 8.76537037,8.02367783 8.83721155,8.02397423 L11.1630617,8.02397423 C11.2345245,8.02397423 11.2920479,7.96537196 11.2920479,7.89347409 L11.2920479,5.42127564 L12.3157794,5.42127564 C12.387158,5.42157204 12.4450599,5.36337203 12.4456256,5.29153767 C12.4461252,5.26170355 12.4360782,5.23265811 12.4172653,5.20960459 L10.1012336,2.29445938 C10.0562829,2.23869407 9.97498067,2.22980211 9.91934949,2.27483355 Z" id="路由器" fill="#999999" fill-rule="nonzero"></path>
            </g>
        </g>
    </g>
</svg>