<?xml version="1.0" encoding="UTF-8"?>
<svg width="124px" height="24px" viewBox="0 0 124 24" version="1.1" xmlns="http://www.w3.org/2000/svg" xmlns:xlink="http://www.w3.org/1999/xlink">
    <title>↳Icon 图标/iconfont/发现/锐捷防火墙@1x</title>
    <g id="↳Icon-图标/iconfont/发现/锐捷防火墙" stroke="none" stroke-width="1" fill="none" fill-rule="evenodd">
        <path d="M54.5818992,8.255 L54.5852101,8.28407948 C54.5864265,8.57449816 54.1843954,10.3930124 53.7445311,12.2170631 L53.6239046,12.7135249 C53.2810276,14.1140732 52.9353957,15.4352792 52.7556113,15.9746322 C52.1492798,18.2483755 50.481868,19.4610386 47.7533761,19.9157873 C46.6922958,20.0673702 46.8438787,20.0673702 46.9954616,19.4610386 C47.1470445,18.7031242 47.1470445,18.7031242 47.9049589,18.3999584 C49.5723707,17.7936269 50.1787023,16.5809638 51.5429482,10.2144825 L51.5429482,10.2144825 L51.846114,8.85023652 L52.6040284,8.69865364 L53.9682744,8.39548786 L53.9682744,8.39548786 L54.0237145,8.3842595 C54.1440685,8.35969746 54.4277601,8.30074856 54.5438157,8.2675898 L54.5818992,8.255 Z M32.8982531,17.9452098 C33.9593333,17.4904611 35.3235793,17.9452098 35.3235793,18.7031242 C35.0204135,20.0673702 31.9887558,20.5221188 31.9887558,19.1578728 C31.9887558,18.7031242 32.4435045,18.0967926 32.8982531,17.9452098 Z M20.7716221,17.1872953 C21.2263708,17.1872953 21.2263708,17.0357124 20.6200393,18.7031242 L20.6200393,18.7031242 L20.1652906,19.9157873 L19.2557933,19.9157873 L18.8010446,19.00629 C18.0431302,17.642044 18.1947131,17.642044 17.7399644,18.8547071 C17.4367986,19.7642044 17.2852157,19.9157873 16.98205,19.9157873 C16.5273013,20.0673702 16.5273013,20.0673702 17.1336329,18.3999584 C17.1336329,18.3999584 17.5883815,17.1872953 17.2852157,17.1872953 L17.2852157,17.1872953 L18.346296,17.1872953 L18.9526275,18.2483755 C19.2557933,18.7031242 19.4073762,19.3094557 19.5589591,19.1578728 C19.7105419,19.00629 19.8621248,18.5515413 20.0137077,18.0967926 C20.3168735,17.3388782 20.4684564,17.1872953 20.7716221,17.1872953 Z M28.5023494,18.5515413 C29.1086809,17.9452098 29.8665954,17.4904611 29.8665954,17.9452098 C29.8665954,18.0534832 29.8859299,18.2584295 29.9107886,18.4771861 L29.9423868,18.7410199 C29.9802825,19.0441857 30.0181783,19.3094557 30.0181783,19.3094557 C30.0181783,19.3094557 30.0282003,19.2994337 30.0464221,19.2803008 L30.1238649,19.1964804 C30.2386625,19.0689275 30.4315861,18.8409268 30.6245098,18.5515413 C31.2308414,17.9452098 31.3824242,17.7936269 31.68559,17.7936269 L31.68559,17.7936269 L31.9887558,17.7936269 L31.0792585,18.8547071 C29.7150125,20.2189531 29.2602638,20.2189531 29.2602638,19.00629 C29.2602638,18.3999584 29.1086809,18.3999584 28.5023494,19.1578728 C28.0476007,19.7642044 27.8960178,19.9157873 27.5928521,19.9157873 L27.5928521,19.9157873 L27.2896863,19.9157873 L27.1381034,19.1578728 C27.1381034,18.7031242 26.9865205,18.2483755 26.9865205,18.0967926 C26.9865205,17.7936269 26.9865205,17.7936269 27.2896863,17.7936269 L27.5928521,17.7936269 L27.744435,18.5515413 C27.744435,19.4610386 27.744435,19.4610386 28.5023494,18.5515413 Z M22.1358681,18.0967926 C22.8937826,17.642044 24.2580286,17.7936269 24.2580286,18.2483755 C24.3958312,18.799586 24.4083587,18.8496961 23.4984058,18.8542515 L23.1969483,18.8547071 C22.1358681,18.8547071 21.9842852,19.00629 22.1358681,19.3094557 C22.287451,19.4610386 22.4390339,19.6126215 23.0453655,19.6126215 C24.1064457,19.6126215 23.8032799,19.9157873 22.7421997,19.9157873 C21.0747879,19.9157873 20.7716221,18.8547071 22.1358681,18.0967926 Z M39.2033943,17.1875032 C39.4163173,17.1891667 39.4163173,17.2041379 39.4163173,17.3388782 C39.4163173,17.4904611 39.2647344,18.0967926 38.9615686,18.7031242 C38.5068199,19.7642044 38.5068199,19.9157873 38.2036542,19.9157873 C37.9004884,19.9157873 37.9004884,19.9157873 37.9004884,19.7642044 C37.9004884,19.6126215 38.0520713,19.1578728 38.3552371,18.3999584 L38.3552371,18.3999584 L38.6584028,17.1872953 Z M36.3846595,17.642044 C36.6878253,17.642044 36.8394082,17.642044 36.8394082,17.7936269 C36.8394082,17.9452098 36.8394082,17.9452098 36.9909911,17.7936269 C36.9909911,17.642044 37.2941568,17.642044 37.4457397,17.642044 C37.9004884,17.642044 37.7489055,18.0967926 37.2941568,18.0967926 C36.8394082,18.2483755 36.5362424,18.3999584 36.2330766,19.1578728 C35.9299109,19.6126215 35.9299109,19.7642044 35.6267451,19.7642044 C35.3235793,19.7642044 35.3235793,19.9157873 35.6267451,18.8547071 L35.6267451,18.8547071 L35.9299109,17.9452098 C36.0814937,17.9452098 36.2330766,17.7936269 36.3846595,17.642044 Z M41.9932263,17.9452098 C42.447975,17.7936269 43.6606381,17.7936269 43.812221,17.9452098 C43.812221,18.0967926 43.6606381,18.0967926 43.2058894,18.0967926 C42.447975,18.0967926 42.447975,18.2483755 42.9027237,18.7031242 C43.812221,19.3094557 43.2058894,19.7642044 41.5384777,19.7642044 C41.083729,19.7642044 41.083729,19.7642044 41.083729,19.6126215 C41.083729,19.4610386 41.2353119,19.4610386 41.5384777,19.4610386 C42.5995579,19.4610386 42.7511408,19.3094557 42.1448092,18.8547071 C41.6900606,18.5515413 41.6900606,18.2483755 41.9932263,17.9452098 Z M41.083729,17.642044 L40.4773975,18.0967926 C39.719483,18.7031242 39.719483,18.7031242 40.0226488,19.1578728 C40.4773975,19.7642044 40.4773975,19.7642044 40.0226488,19.7642044 C39.719483,19.7642044 39.5679002,19.7642044 39.2647344,19.3094557 C38.8099857,18.7031242 38.8099857,18.8547071 39.5679002,18.2483755 C40.0226488,17.9452098 40.3258146,17.7936269 40.6289804,17.642044 L40.6289804,17.642044 L41.083729,17.642044 Z M25.4706916,17.4904611 C25.9254403,17.3388782 26.0770232,17.3388782 25.9254403,17.4904611 C25.9254403,17.7936269 25.9254403,17.7936269 26.2286061,17.7936269 C26.6833547,17.7936269 26.5317719,18.0967926 26.0770232,18.0967926 C25.3191088,18.0967926 25.015943,19.3094557 25.6222745,19.4610386 C26.0770232,19.4610386 25.7738574,19.7642044 25.1675259,19.7642044 C24.4096114,19.7642044 24.2580286,19.7642044 24.5611943,19.00629 C24.8643601,18.0967926 25.015943,18.0967926 24.7127772,18.0967926 C24.5611943,18.0967926 24.5611943,17.7936269 24.8643601,17.7936269 L24.8643601,17.7936269 L25.1675259,17.642044 C25.1675259,17.642044 25.3191088,17.4904611 25.4706916,17.4904611 Z M34.2624991,18.2483755 C33.6561676,17.9452098 32.7466702,18.3999584 32.7466702,19.00629 C32.7466702,19.6126215 33.6561676,19.7642044 34.1109162,19.1578728 C34.5656649,18.8547071 34.5656649,18.3999584 34.2624991,18.2483755 Z M23.3485312,18.0967926 C23.0453655,18.0967926 23.0453655,18.0967926 22.5906168,18.2483755 C21.9842852,18.3999584 22.1358681,18.5515413 22.8937826,18.5515413 C23.651697,18.5515413 23.9548628,18.2483755 23.3485312,18.0967926 Z M84.2323912,7.18284787 C86.3878825,7.18344856 88.0800382,7.19966731 88.2260069,7.63757343 C88.5291727,7.48599054 88.074424,7.78915631 86.8617609,8.24390497 L86.8617609,8.24390497 L85.497515,8.85023652 L81.8595257,8.85023652 L81.7079428,9.75973385 L81.404777,10.6692312 L80.4952797,11.2755627 C79.4341995,11.8818943 79.4341995,11.8818943 80.4952797,11.5787285 C81.194893,11.2988832 81.3778688,11.2773566 83.1902399,11.2757007 L86.1038465,11.2755627 L86.4070123,10.5176483 C86.5585952,9.60815096 86.5585952,9.60815096 87.6196754,9.30498518 C88.8323385,9.00181941 88.6807556,8.85023652 88.3775898,10.3660654 C87.9228412,12.18506 87.6196754,12.4882258 86.2554294,12.4882258 L86.2554294,12.4882258 L85.1943492,12.4882258 L84.8911834,13.7008889 L84.5880176,14.913552 L87.6196754,14.913552 L87.4680925,15.2167178 C87.4680925,15.3683007 87.3165096,15.8230493 87.1649267,16.1262151 L87.1649267,16.1262151 L87.0133438,16.7325467 L84.6937589,16.732738 C81.8664873,16.7378614 82.0245826,16.8234964 82.6174401,14.1556376 C82.9206059,13.2461403 83.0721888,12.4882258 83.0721888,12.3366429 C83.0721888,12.2103239 82.4405934,12.1892707 81.528289,12.1857618 L80.9500283,12.18506 C79.7373652,12.18506 78.8278679,12.0334772 78.8278679,12.0334772 C78.8278679,12.0334772 78.9794508,11.1239798 79.2826166,10.2144825 C79.5857824,9.1534023 79.8889481,8.09232209 79.8889481,7.78915631 L79.8889481,7.78915631 L80.040531,7.18282476 Z M81.4149541,12.6398457 C82.1804551,12.6404008 82.3048004,12.6492826 82.1626914,12.7913916 C82.1626914,12.9429745 82.0111086,13.549306 81.7079428,14.1556376 C80.7984455,16.4293809 80.7984455,16.5809638 78.9794508,16.5809638 L77.7667877,16.5809638 L77.9183706,16.1262151 C78.0699535,14.7619691 78.0699535,14.7619691 78.8278679,14.7619691 L78.8278679,14.7619691 L79.4341995,14.7619691 L79.7373652,13.8524718 L80.1921139,12.7913916 C80.3436968,12.6398087 80.4952797,12.6398087 81.2531941,12.6398087 Z M102.456348,4.00007779 C103.08113,4.0037802 103.08113,4.0352507 103.08113,4.30274991 C102.929547,4.60591568 103.08113,4.75749857 103.990627,4.75749857 C104.748542,4.75749857 107.173868,5.06066434 107.325451,5.21224723 C107.45177,5.3385663 106.841228,5.35961948 106.107875,5.36312835 L105.174276,5.36396486 C103.060919,5.36585122 102.919441,5.3941467 102.777964,5.81857878 C102.777964,6.12174455 102.626381,6.27332744 102.626381,6.42491033 C102.626381,6.55582282 102.739442,6.57367453 103.746711,6.57610885 L104.690815,6.57674004 C105.607162,6.57859125 105.961205,6.5943265 105.961205,6.7280761 C105.961205,6.7280761 105.961205,7.18282476 105.809622,7.48599054 C105.506456,8.39548786 105.658039,8.54707075 105.961205,8.54707075 L105.961205,8.54707075 L106.415953,8.54707075 L106.26437,9.30498518 C105.961205,10.0628996 105.961205,10.0628996 105.658039,10.0628996 C105.354873,10.0628996 105.354873,10.0628996 105.20329,10.6692312 C104.900125,11.7303114 104.748542,11.8818943 102.929547,11.8818943 L102.739467,11.8819192 C101.400824,11.8824674 101.262135,11.8950754 101.262135,12.18506 C101.122679,12.7428851 101.111522,12.7875111 102.290988,12.7910811 L104.14221,12.7913916 L103.990627,13.0945574 C103.990627,13.2461403 103.839044,13.549306 103.839044,13.7008889 L103.839044,13.7008889 L103.839044,14.0040547 L100.807387,14.0040547 L100.807387,14.6103862 L105.051707,14.6103862 L104.900125,15.0651349 C104.748542,15.2167178 104.596959,15.6714664 104.596959,15.9746322 L104.596959,15.9746322 L104.445376,16.4293809 L97.9273117,16.4293809 L97.3209802,16.1262151 L96.7146486,15.8230493 C96.7146486,15.8230493 96.5630657,15.9746322 96.5630657,16.1262151 C96.5630657,16.4293809 96.4114828,16.4293809 95.5019855,16.4293809 L95.350742,16.4293192 C94.5924882,16.4283319 94.5924882,16.4115476 94.5924882,16.1262151 L94.5924882,16.1262151 L95.0472368,14.3072205 L95.3504026,12.7913916 L96.8639331,12.791922 C97.6224663,12.7964304 97.6081898,12.8392599 97.472563,13.2461403 C97.3209802,13.549306 97.7757288,14.1556376 98.2304775,14.4588033 C98.6852261,14.6103862 98.6852261,14.7619691 98.9883919,13.2461403 L98.9883919,13.2461403 L99.2915577,12.0334772 L97.472563,12.0334772 C96.4114828,12.0334772 95.6535684,11.8818943 95.6535684,11.8818943 C95.6535684,11.8818943 95.6535684,11.5787285 95.8051513,11.2755627 L95.8051513,11.2755627 L95.9567342,10.6692312 L99.5947235,10.6692312 C99.8978892,10.3660654 99.7463063,10.2144825 97.9273117,10.2144825 L97.9273117,10.2144825 L97.5009848,10.2141864 C96.5725397,10.212114 96.1083171,10.1955346 96.1083171,10.0628996 C96.1083171,10.0628996 96.1083171,9.75973385 96.2598999,9.45656807 L96.2598999,9.45656807 L96.4114828,9.00181941 L99.8978892,9.00181941 C100.049472,8.85023652 100.049472,8.69865364 100.049472,8.54707075 C100.049472,8.41443572 99.4691939,8.39785634 98.7148322,8.39578392 L98.0019254,8.39523925 C96.4129248,8.39188304 96.4323908,8.3432179 96.7146486,7.63757343 L96.7146486,7.63757343 L96.8662315,7.03124188 L98.8799435,7.03120337 C100.504221,7.03020221 100.504221,7.00317097 100.504221,6.27332744 L100.504221,5.97016167 L99.1399748,6.12174455 C98.3820604,6.27332744 97.1693973,6.42491033 96.5630657,6.57649322 L96.5630657,6.57649322 L95.5019855,6.7280761 L95.3504026,7.18282476 C95.1988197,7.63757343 93.8345738,12.7913916 93.3798251,14.6103862 C92.9510621,16.4683593 92.7918072,16.5745292 90.3609834,16.5805961 L87.9228412,16.5809638 L87.9228412,16.277798 C87.9228412,16.1262151 87.9228412,15.6714664 88.074424,15.3683007 L88.074424,15.3683007 L88.2260069,14.7619691 L91.1060818,14.7619691 L91.2576647,14.4588033 C91.4092476,14.3072205 91.5608304,13.7008889 91.7124133,12.9429745 C92.0155791,12.3366429 92.0155791,11.7303114 92.0155791,11.7303114 L92.0155791,11.7303114 L90.802916,12.0334772 C89.43867,12.4882258 89.43867,12.4882258 89.5902529,11.4271456 C89.8934187,10.3660654 89.7418358,10.5176483 91.5608304,9.91131673 L91.5608304,9.91131673 L92.4703278,9.60815096 L92.7734935,8.54707075 C93.0766593,7.18282476 93.2282422,7.18282476 91.2576647,7.78915631 C89.43867,8.24390497 89.43867,8.39548786 89.7418358,7.33440765 C90.0450016,6.27332744 89.8934187,6.42491033 91.8639962,5.97016167 C92.9250764,5.81857878 93.6829909,5.51541301 93.6829909,5.51541301 L93.6829909,5.51541301 L93.8345738,4.90908146 L94.2893224,4.15116702 L96.4114828,4.15116702 L96.2598999,4.4543328 C96.1083171,4.90908146 96.1083171,4.90908146 96.4114828,4.90908146 C96.4114828,4.90908146 97.6241459,4.90908146 98.836809,4.75749857 C100.958969,4.60591568 101.110552,4.60591568 101.110552,4.30274991 C101.110552,4.03747986 101.226608,4.0043211 101.864914,4.00017626 Z M78.5247021,8.39548786 L78.3731193,8.69865364 C78.3731193,8.85023652 78.2215364,9.1534023 78.2215364,9.45656807 L78.2215364,9.45656807 L78.0699535,9.91131673 L76.099376,9.91131673 L75.9477931,10.5176483 C75.7962102,11.4271456 75.7962102,11.4271456 76.8572904,11.4271456 L77.7667877,11.4271456 L77.6152048,11.8818943 C77.4636219,12.9429745 77.4636219,12.9429745 76.4025417,12.7913916 C75.4930444,12.6398087 75.4930444,12.6398087 75.1898786,13.8524718 C75.0382957,14.913552 74.8867129,14.7619691 76.2509588,14.7619691 C76.8572904,14.7619691 77.3120391,14.6103862 77.3120391,14.7619691 C77.3120391,14.913552 77.3120391,15.2167178 77.1604562,15.6714664 L77.1604562,15.6714664 L77.0088733,16.4293809 L75.1497632,16.4290098 C72.9083846,16.4196371 72.7768429,16.2163455 73.2193011,14.0040547 C73.5224669,12.4882258 73.5224669,12.6398087 72.4613867,12.6398087 L71.5518893,12.6398087 L71.7034722,12.18506 C71.8550551,11.1239798 71.8550551,11.1239798 72.9161353,11.1239798 L72.9161353,11.1239798 L73.8256326,11.1239798 L73.9772155,10.6692312 C74.1287984,9.75973385 74.1287984,9.75973385 73.2193011,9.75973385 L72.3098038,9.75973385 L72.4613867,9.30498518 C72.4613867,9.00181941 72.6129696,8.69865364 72.6129696,8.54707075 L72.6129696,8.54707075 L72.6129696,8.39548786 L78.5247021,8.39548786 Z M48.2081247,9.30498518 C49.4207878,9.00181941 49.7239536,9.00181941 49.5723707,9.1534023 L49.5723707,9.1534023 L49.5723707,9.30498518 C49.5723707,9.37847992 49.2516664,10.7704256 48.9039668,12.2196014 L48.7728877,12.7632616 C48.4448947,14.1168023 48.1254431,15.3820809 48.0565418,15.5198836 C48.0565418,15.6714664 45.7827985,15.8230493 45.3280499,15.6714664 C45.3280499,15.6714664 45.3280499,15.2167178 45.4796328,14.7619691 L45.4796328,14.7619691 L46.2375472,11.8818943 C46.8438787,9.30498518 46.6922958,9.60815096 48.2081247,9.30498518 Z M36.0814937,7.48599054 C36.2330766,7.33440765 38.9615686,7.48599054 38.9615686,7.63757343 C38.9615686,7.63757343 38.9065518,7.80262398 38.8220331,8.08169496 L38.7535112,8.31157969 C38.5947896,8.85252889 38.3750087,9.66087544 38.2036542,10.5176483 C37.2941568,14.0040547 37.2941568,14.1556376 38.8099857,14.1556376 C40.9321461,14.1556376 41.5384777,13.2461403 42.447975,7.9407392 L42.447975,7.9407392 L42.5995579,7.63757343 L44.4692275,7.63770437 C45.4796328,7.63894833 45.4796328,7.65200989 45.4796328,7.78915631 L45.4796328,7.78915631 L45.176467,9.30498518 C43.812221,15.3683007 43.812221,15.5198836 39.719483,15.6714664 C35.778328,15.8230493 34.5656649,15.3683007 34.5656649,14.1556376 C34.5656649,13.7008889 35.9299109,7.63757343 36.0814937,7.48599054 Z M28.3507665,15.6714664 L26.380189,13.7008889 L24.4096114,11.7303114 L25.1675259,11.5787285 C29.4118467,10.3660654 31.68559,8.69865364 30.6245098,7.48599054 C30.0788114,6.80386755 29.7786773,6.73565525 25.6354622,6.72883402 L19.1042104,6.7280761 L19.2557933,6.42491033 C19.2557933,6.27332744 19.4073762,5.81857878 19.5589591,5.51541301 L19.5589591,5.51541301 L19.7105419,4.90908146 L26.4895288,4.90964534 C33.0608095,4.92075173 33.2271109,5.10690997 33.9593333,6.42491033 C35.6267451,8.54707075 32.7466702,11.5787285 28.9570981,11.5787285 C28.3507665,11.5787285 28.3507665,11.4271456 29.8665954,12.6398087 C30.7760927,13.3977231 32.8982531,15.3683007 32.8982531,15.5198836 C32.8982531,15.6546239 32.0598688,15.6695951 31.0218691,15.6712585 L28.3507665,15.6714664 Z M59.0958425,7.69287682 C59.6410276,7.65161419 59.6822902,7.68370735 59.5768413,7.78915631 C59.5768413,7.92389666 59.0977645,9.85517492 58.2460724,13.2636066 L58.0820396,13.9199199 C58.0259238,14.1444092 57.9683784,14.3745906 57.9094295,14.6103862 C57.9094295,15.0651349 57.7578466,15.5198836 57.6062637,15.5198836 C57.4546808,15.5198836 55.1809375,15.6714664 55.0293546,15.5198836 C55.0293546,15.5198836 55.370588,13.9998441 55.7583532,12.3210055 L55.8820084,11.787155 C56.3178092,9.91131673 56.7725578,8.01653064 56.8483493,7.9407392 C56.9999322,7.9407392 57.4546808,7.78915631 58.0610124,7.78915631 C58.3905404,7.75620351 58.6555955,7.73041436 58.867079,7.71178887 Z M23.1430817,7.63770437 C24.3130246,7.63894833 24.5611943,7.65200989 24.5611943,7.78915631 L24.5611943,7.78915631 L23.1969483,11.7303114 L21.8327024,15.5198836 L18.0431302,15.5198836 L18.346296,14.7619691 C20.0137077,10.3660654 20.7716221,8.09232209 20.7716221,7.9407392 C20.7716221,7.78915631 21.3779537,7.78915631 22.7421997,7.63757343 L22.7421997,7.63757343 Z M64.8822423,7.48599054 C65.7917396,7.33440765 68.0654829,7.33440765 68.3686487,7.63757343 C70.4908091,8.54707075 70.642392,10.3660654 68.8233974,11.4271456 C68.8065548,11.4355669 68.7898292,11.4438712 68.7731459,11.4520715 L68.6729549,11.50013 C68.1181159,11.7587332 67.4465195,11.9324219 63.972745,12.4882258 C62.7600819,12.6398087 62.7600819,12.6398087 63.2148305,13.3977231 C63.8211621,14.3072205 66.0949054,14.0040547 68.3686487,12.9429745 C69.1265631,12.6398087 69.1265631,12.6398087 68.8233974,13.549306 C68.6718145,14.6103862 68.5202316,14.6103862 67.1559856,15.0651349 C65.336991,15.6714664 62.9116648,15.6714664 61.8505846,15.0651349 C58.0610124,13.2461403 60.0315899,8.54707075 64.8822423,7.48599054 Z M67.0044027,9.00181941 C66.2464883,8.69865364 64.8822423,9.30498518 63.972745,10.2144825 C63.5179963,10.8208141 62.9116648,11.8818943 63.0632477,11.8818943 C63.2148305,12.0334772 64.8822423,11.7303114 65.7917396,11.4271456 C67.3075685,10.9723969 68.0654829,9.45656807 67.0044027,9.00181941 Z M103.501899,10.366 L102.335865,10.3668059 C101.683315,10.3723595 101.565301,10.4195652 101.565301,10.8208141 C101.565301,11.2755627 103.232713,11.1239798 103.384296,10.6692312 C103.384296,10.6692312 103.438865,10.5055217 103.482521,10.4072959 L103.501899,10.366 Z M103.990627,8.09232209 L102.937497,8.09241191 C102.303678,8.09366949 102.171633,8.11253314 102.171633,8.39548786 C102.036006,8.93799504 102.021729,8.99510106 102.671686,9.00111222 L102.929547,9.00181941 C103.384296,9.00181941 103.839044,9.1534023 103.839044,9.00181941 C103.839044,8.85023652 103.990627,8.69865364 103.990627,8.54707075 L103.990627,8.54707075 L103.990627,8.09232209 Z M59.7284241,4.4543328 C60.6379215,4.4543328 66.5496541,4.60591568 67.7623172,4.75749857 L67.7623172,4.75749857 L68.8233974,4.90908146 L68.0186206,5.02416132 C68.0851782,5.04355559 68.1613584,5.06516516 68.2170658,5.06516516 L68.2170658,5.06516516 L67.9139,5.06516516 C67.9047132,5.05546819 67.8971967,5.04694661 67.8912156,5.03949357 L67.7623172,5.06066434 C67.1559856,5.06066434 65.9433225,5.21224723 65.1854081,5.21224723 C59.7284241,5.51541301 53.21036,6.7280761 48.3597076,8.24390497 C46.9954616,8.69865364 46.9954616,8.69865364 47.2986274,7.48599054 L47.2986274,7.48599054 L47.4502103,6.42491033 L48.0565418,6.12174455 C50.0271194,5.51541301 54.574606,4.90908146 57.6062637,4.60591568 C58.515761,4.60591568 59.4252584,4.4543328 59.7284241,4.4543328 Z M74.4514209,4.38720027 C74.569196,4.36463878 74.7118095,4.33773058 74.8867129,4.30274991 C75.9477931,4.30274991 75.9477931,4.30274991 75.6446273,4.90908146 C75.4930444,5.06066434 75.3414615,5.36383012 75.3414615,5.51541301 L75.3414615,5.51541301 L75.1898786,5.81857878 L79.1310337,5.81857878 L78.9794508,6.12174455 C78.9794508,6.27332744 78.8278679,6.57649322 78.8278679,6.87965899 L78.8278679,6.87965899 L78.676285,7.33440765 L74.9011197,7.33400988 C73.2540877,7.33152379 72.9161353,7.31349967 72.9161353,7.18282476 C72.9161353,7.18282476 73.0677182,6.57649322 73.370884,5.97016167 C73.5224669,5.36383012 73.8256326,4.75749857 73.8256326,4.60591568 C73.923333,4.5082153 74.0210334,4.47348617 74.2810824,4.42055402 C74.2860437,4.40361378 74.336421,4.3877225 74.4319642,4.3877225 Z M86.7101781,4.30274991 C87.3165096,4.30274991 87.7712583,4.4543328 87.7712583,4.4543328 C87.7712583,4.60591568 87.1649267,6.27332744 87.0133438,6.42491033 C86.8617609,6.57649322 85.1943492,6.7280761 85.0427663,6.57649322 L85.0427663,6.57649322 L85.0546964,6.54000104 C85.0932939,6.42069969 85.219613,6.0206893 85.3459321,5.51541301 C85.3459321,5.51541301 85.6490978,4.4543328 85.6490978,4.30274991 L85.6490978,4.30274991 Z M83.5405821,4.44985823 C84.1123877,4.45897309 84.0358228,4.59508833 83.6785203,5.66699589 L83.6785203,5.66699589 L83.3753545,6.57649322 L82.3435723,6.57641561 C81.4052621,6.57455296 81.4169036,6.52798669 81.7079428,5.36383012 C81.7079428,4.90908146 81.8595257,4.4543328 81.8595257,4.4543328 L81.8595257,4.4543328 L82.9206059,4.4543328 C83.0938435,4.4543328 83.2423328,4.45123927 83.3682836,4.44991347 Z" id="锐捷" fill="#C2182D" fill-rule="nonzero"></path>
    </g>
</svg>