<?xml version="1.0" encoding="UTF-8"?>
<svg width="124px" height="24px" viewBox="0 0 124 24" version="1.1" xmlns="http://www.w3.org/2000/svg" xmlns:xlink="http://www.w3.org/1999/xlink">
    <title>↳Icon 图标/iconfont/发现/网御神州防火墙@1x</title>
    <defs>
        <linearGradient x1="-0.108483402%" y1="50.0029183%" x2="99.8915166%" y2="50.0029183%" id="linearGradient-1">
            <stop stop-color="#F50600" offset="0%"></stop>
            <stop stop-color="#DA0000" offset="32%"></stop>
            <stop stop-color="#F70000" offset="57%"></stop>
            <stop stop-color="#EF0002" offset="71%"></stop>
            <stop stop-color="#F40102" offset="84%"></stop>
            <stop stop-color="#DE000A" offset="100%"></stop>
        </linearGradient>
    </defs>
    <g id="↳Icon-图标/iconfont/发现/网御神州防火墙" stroke="none" stroke-width="1" fill="none" fill-rule="evenodd">
        <g id="网御神州" transform="translate(39.600000, 4.000000)" fill-rule="nonzero">
            <path d="M0.0715083799,3.84357542 C1.00111732,5.98346369 2.55284916,6.25698324 4.54078212,6.07106145 C5.74145207,5.97993251 6.86887081,5.45843786 7.71575419,4.6024581 C7.81050279,4.5077095 7.91240223,4.42368715 8.0098324,4.32804469 C9.67240223,2.7772067 12.2699441,2.35173184 14.3124022,3.36089385 C15.716648,4.05363128 16.5005587,5.19061453 16.5059218,6.80581006 C16.5148603,9.65094972 16.535419,12.4960894 16.5506145,15.3412291 C16.5506145,15.3984358 16.5434637,15.4556425 16.5407821,15.4967598 C16.1582123,15.0024581 15.8176536,14.4634637 15.3787709,14.0174302 C13.2335196,11.8212291 10.0648045,12.2064804 8.1698324,13.5615642 C7.71128492,13.8896089 7.30368715,14.289162 6.86122905,14.6404469 C5.80916201,15.4753073 4.62122905,15.8560894 3.27865922,15.6576536 C2.50905028,15.5450279 1.88067039,15.150838 1.37743017,14.5734078 C0.591731844,13.6643575 0.0670391061,12.6641341 0.0893854749,11.3948603 C0.120670391,9.02793296 0.0804469274,6.65832402 0.0715083799,4.29050279 L0.0715083799,3.84357542 Z" id="路径" fill="url(#linearGradient-1)"></path>
            <path d="M19.7541899,0.522905028 L30.0058101,0.522905028 L30.0058101,1.02703911 C30.0058101,3.61743017 30.0058101,6.20782123 30.0058101,8.79821229 C30.0058101,9.61072626 29.7421229,9.94592179 28.9528492,10.0880447 C28.6002389,10.143923 28.244856,10.180625 27.8882682,10.1979888 C27.6388827,10.2140782 27.3877095,10.1979888 27.1678212,10.1979888 C27.0265922,9.75106145 26.8996648,9.33005587 26.7548603,8.88044693 C27.1124022,8.84916201 27.5065922,8.81519553 27.8972067,8.78301676 C28.1421229,8.7624581 28.2726257,8.64893855 28.2717318,8.3852514 C28.2717318,6.49743017 28.2717318,4.61050279 28.1823464,2.70122905 C28.0402235,3.10256983 27.9043575,3.50569832 27.7541899,3.90435754 C27.5602235,4.41832402 27.1767598,4.93765363 27.2035754,5.43731844 C27.2303911,5.93698324 27.6648045,6.41072626 27.9141899,6.8996648 C28.0089385,7.08379888 28.0867039,7.27597765 28.1894972,7.50122905 L26.7852514,8.08044693 C26.6458101,7.70592179 26.5081564,7.33944134 26.338324,6.89162011 C25.9280447,7.43418994 25.5481564,7.90078212 25.2093855,8.3950838 C24.9823464,8.72670391 24.7740782,8.80357542 24.4201117,8.56759777 C24.1787709,8.40581006 23.8784358,8.33072626 23.5637989,8.20022346 C23.8686034,7.86324022 24.1617877,7.54145251 24.4576536,7.21698324 L24.4147486,7.14547486 L23.8069274,7.38055866 L23.3501676,6.52692737 L21.8994413,8.36379888 L21.3300559,7.75776536 L21.3300559,10.0656983 L19.7541899,10.0656983 L19.7541899,0.522905028 Z M21.3631285,2.96044693 L22.178324,2.49653631 L23.138324,3.68893855 L23.5182123,2.1452514 L25.027933,2.48044693 C24.9617877,2.7101676 24.9081564,2.90055866 24.8375419,3.14815642 L25.3541899,2.94972067 L26.2426816,4.02234637 C26.4151955,3.3322905 26.5573184,2.76111732 26.7101676,2.15150838 L28.2386592,2.53139665 L28.2386592,1.74659218 L21.3675978,1.74659218 L21.3631285,2.96044693 Z M21.3255866,6.95865922 L21.4596648,7.02659218 C21.8172067,6.45094972 22.1693855,5.87709497 22.5179888,5.29877095 C22.5536652,5.23706539 22.5598943,5.16264361 22.5349721,5.09586592 C22.172067,4.54972067 21.8002235,4.01072626 21.4301676,3.46994413 L21.3255866,3.53162011 L21.3255866,6.95865922 Z M24.5532961,3.88290503 C24.4317318,4.17340782 24.3521788,4.3298324 24.2985475,4.4996648 C24.2332961,4.7052514 24.0867039,4.96536313 24.1573184,5.11731844 C24.3772067,5.5901676 24.682905,6.0227933 24.9546369,6.47061453 L25.1334078,6.48134078 C25.2612291,6.11128492 25.5687151,5.68581006 25.476648,5.3827933 C25.3273743,4.87150838 24.9179888,4.43798883 24.5577654,3.88290503 L24.5532961,3.88290503 Z" id="形状" fill="#000000"></path>
            <path d="M43.5539665,8.12424581 L41.932514,8.12424581 C41.92,7.9249162 41.9083799,7.75061453 41.8949721,7.54324022 L41.027933,7.54324022 L41.027933,10.2614525 L39.3510615,10.2614525 L39.3510615,7.54145251 L38.4822346,7.54145251 C38.4634637,7.75865922 38.4446927,7.97586592 38.4214525,8.23329609 L36.8902793,8.23329609 L36.8902793,6.59217877 L36.0589944,6.89162011 C35.8802235,6.54391061 35.7014525,6.19977654 35.5226816,5.85653631 L35.415419,5.87977654 L35.415419,6.44022346 C35.415419,7.54234637 35.4064804,8.64446927 35.421676,9.74748603 C35.4261453,10.0656983 35.3492737,10.2140782 34.9997765,10.1899441 C34.6172067,10.1622346 34.2319553,10.1836872 33.7903911,10.1836872 L33.7903911,6.40804469 L32.8688268,7.12312849 L31.8587709,6.14614525 C32.7526257,5.45430168 33.6393296,4.66055866 34.2605587,3.52089385 L31.9588827,3.52089385 L31.9588827,2.27932961 L36.5023464,2.27932961 C36.1313966,3.14994413 35.7872626,3.96156425 35.4037989,4.85899441 C35.9553073,4.67307263 36.5407821,4.30927374 36.7705028,5.25497207 L36.8643575,5.14324022 L36.8643575,2.0147486 L39.3296089,2.0147486 L39.3296089,0.286927374 L41.0547486,0.286927374 L41.0547486,1.99240223 L43.5575419,1.99240223 L43.5539665,8.12424581 Z M41.0458101,6.3249162 L41.8824581,6.3249162 L41.8824581,5.34167598 L41.0136313,5.34167598 C41.0136313,5.6 41.0136313,5.81988827 41.0136313,6.03977654 C41.0163128,6.12826816 41.0332961,6.2122905 41.0458101,6.3249162 Z M39.2965363,6.31865922 L39.2965363,5.32826816 L38.5251397,5.32826816 C38.2757542,6.26502793 38.3919553,6.41877095 39.2965363,6.31865922 L39.2965363,6.31865922 Z M39.3027933,4.1322905 L39.3027933,3.24379888 L38.4884916,3.24379888 L38.4884916,4.1322905 L39.3027933,4.1322905 Z M41.0324022,4.11798883 L41.8878212,4.11798883 L41.8878212,3.25094972 L41.0324022,3.25094972 L41.0324022,4.11798883 Z" id="形状" fill="#000000"></path>
            <path d="M16.4129609,4.28067039 C16.2967598,4.11083799 16.1760894,3.94368715 16.0652514,3.77027933 C15.236648,2.47865922 14.0496089,1.81899441 12.5237989,1.78234637 C11.927541,1.76506228 11.3307855,1.77968279 10.7360894,1.82614525 C9.53743017,1.92536313 8.57117318,2.48759777 7.77653631,3.38502793 C6.47150838,4.84916201 4.75620112,5.18435754 2.92558659,4.97698324 C1.34078212,4.79642458 0.262793296,3.59597765 0.0813407821,1.98435754 C0.0268156425,1.4972067 0.028603352,1.00469274 0,0.426368715 C0.0786592179,0.530055866 0.122458101,0.563128492 0.132290503,0.605139665 C0.665921788,2.95955307 2.43486034,3.87217877 4.80893855,3.39664804 C5.67829141,3.23095357 6.47827006,2.80917495 7.10614525,2.18547486 C7.30815642,1.98703911 7.51642458,1.79396648 7.70145251,1.58122905 C9.46502793,-0.439776536 12.8509497,-0.357541899 14.5340782,0.903687151 C15.6639106,1.75195531 16.3414525,2.84960894 16.4129609,4.28067039 Z" id="路径" fill="#2C292A"></path>
            <path d="M31.7121788,11.1731844 L19.9651397,11.1731844 C19.8759227,11.1829952 19.7858237,11.1814935 19.6969832,11.1687151 C19.5601766,11.1264696 19.4256241,11.0772431 19.2938547,11.0212291 C19.4288268,10.9684916 19.5620112,10.8701676 19.6978771,10.8701676 C27.7080074,10.861825 35.7181378,10.861825 43.7282682,10.8701676 C43.8560894,10.8701676 43.9830168,10.984581 44.1099441,11.0489385 C43.9821229,11.0918436 43.8543017,11.1713966 43.7264804,11.1713966 C39.7226071,11.1779516 35.7178399,11.1785475 31.7121788,11.1731844 Z" id="路径" fill="#E12123"></path>
            <path d="M31.4395531,13.1307263 C31.2259218,13.9012291 31.0185475,14.6735196 30.7941899,15.4413408 C30.7414525,15.6201117 30.756648,15.932067 30.4545251,15.8498324 C30.3115084,15.8113966 30.1631285,15.5986592 30.116648,15.4368715 C29.8484916,14.4974302 29.6071508,13.5490503 29.3568715,12.6024581 C29.6607821,12.4773184 29.7948603,12.5389944 29.858324,12.8420112 C30.0227933,13.6268156 30.2158659,14.4053631 30.4348603,15.3278212 C30.6136313,14.7155307 30.7548603,14.2292737 30.8943017,13.7412291 C30.9836872,13.427486 31.0498324,13.1039106 31.1696089,12.8008939 C31.23191,12.6729658 31.3514042,12.5823493 31.4913966,12.5568715 C31.632286,12.5775342 31.7536222,12.667028 31.8149721,12.7955307 C32.0536313,13.5705028 32.2618994,14.3535196 32.5202235,15.2741899 C32.7418994,14.3803352 32.9465922,13.612514 33.1182123,12.8384358 C33.1843575,12.5363128 33.316648,12.4746369 33.6143017,12.603352 C33.3363128,13.6205587 33.0636872,14.6377654 32.7713966,15.6487151 C32.744581,15.7381006 32.5729609,15.8650279 32.5032402,15.846257 C32.3771136,15.8048729 32.2759096,15.7095642 32.2270391,15.5861453 C31.9848045,14.775419 31.7649162,13.9584358 31.5387709,13.1432402 L31.4395531,13.1307263 Z" id="路径" fill="#000000"></path>
            <path d="M39.9642458,14.3410056 C40.3012291,14.830838 40.6256983,15.3010056 40.9644693,15.7917318 C40.6185475,15.9293855 40.4156425,15.8730726 40.2717318,15.5959777 C40.1760894,15.4118436 40.0357542,15.2509497 39.9392179,15.0677095 C39.6442458,14.5072626 39.2053631,14.2694972 38.5162011,14.4509497 L38.5162011,15.8060335 C38.2113966,15.9097207 38.0630168,15.8775419 38.0692737,15.5637989 C38.0782123,14.5805587 38.0692737,13.5973184 38.0692737,12.5130726 C38.7772067,12.5470391 39.4681564,12.5506145 40.1519553,12.6248045 C40.5202235,12.6641341 40.6784358,12.9894972 40.7267039,13.3345251 C40.7905931,13.6844271 40.6192119,14.0351608 40.3039106,14.1997765 C40.1945984,14.2557536 40.0810211,14.3029778 39.9642458,14.3410056 Z M38.5251397,13.9888268 C38.9604469,13.9888268 39.3734078,14.0102793 39.7818994,13.981676 C39.9193155,13.9807027 40.0502881,13.9232782 40.1441061,13.8228676 C40.2379241,13.7224569 40.2863356,13.587892 40.2779888,13.4507263 C40.2779888,13.132514 40.0715084,12.9483799 39.7756425,12.9278212 C39.3671508,12.8992179 38.9559777,12.9206704 38.5242458,12.9206704 L38.5251397,13.9888268 Z" id="形状" fill="#000000"></path>
            <path d="M41.6536313,15.8543017 L41.6536313,12.5139665 C42.2444693,12.5443575 42.8478212,12.5014525 43.4082682,12.6355307 C43.7157542,12.7088268 44.0420112,13.0332961 44.2002235,13.3300559 C44.4898324,13.8735196 44.4558659,14.4849162 44.2198883,15.0614525 C44.0241341,15.5423464 43.6648045,15.8328492 43.1311732,15.8498324 C42.6565363,15.8659218 42.1818994,15.8543017 41.6536313,15.8543017 Z M42.0853631,15.5048045 C42.7030168,15.4306145 43.3778771,15.7059218 43.7381006,15.0391061 C44.0402235,14.4786592 44.0688268,13.8458101 43.6916201,13.3023464 C43.2858101,12.7186592 42.6565363,12.9760894 42.0826816,12.9349721 L42.0853631,15.5048045 Z" id="形状" fill="#000000"></path>
            <path d="M35.7077095,15.930301 C34.756648,15.9347486 34.1121788,15.2464804 34.1130717,14.2239106 C34.1130717,13.1807821 34.7253631,12.4978771 35.6755307,12.48 C36.6256983,12.4621229 37.3050279,13.1834637 37.3005806,14.2167598 C37.2960894,15.2500559 36.6650279,15.9258101 35.7077095,15.930301 Z M36.8402235,14.2265922 C36.8402235,13.2254749 36.1394413,12.6283799 35.3063687,12.9251397 C34.7861453,13.1110615 34.5465922,13.557095 34.5626816,14.3088268 C34.5760894,14.9345251 34.8603352,15.3564246 35.3671508,15.5110615 C36.1805587,15.7586592 36.8375419,15.1848045 36.8402235,14.2265922 L36.8402235,14.2265922 Z" id="形状" fill="#000000"></path>
            <path d="M21.864581,13.5785475 C21.6607821,13.4516201 21.4882682,13.3997765 21.4105028,13.2853631 C21.1477095,12.8938547 20.516648,12.7168715 20.1224581,12.9868156 C20.0035754,13.0681564 19.8837989,13.2469274 19.8873743,13.3774302 C19.9121284,13.5328518 20.0089103,13.6674183 20.1483799,13.7403352 C20.4621229,13.8690503 20.8017877,13.9343017 21.1316201,14.0290503 C21.7403352,14.2078212 22.0084916,14.5251397 21.9682682,15.0185475 C21.9280447,15.5119553 21.5007821,15.8793296 20.9162011,15.9267039 C19.9848045,16.0017877 19.4413408,15.6362011 19.3403352,14.7226816 C19.5387709,14.8442458 19.7130726,14.8898324 19.7747486,14.9988827 C20.0598883,15.5039106 20.7758659,15.729162 21.2648045,15.4109497 C21.3944134,15.3260335 21.5329609,15.1284916 21.5258101,14.9926257 C21.496454,14.8107149 21.3907389,14.6500278 21.2353073,14.5510615 C21.0225698,14.4294972 20.7579888,14.3982123 20.5202235,14.3222346 C20.305866,14.2669752 20.0965566,14.1937169 19.8945251,14.1032402 C19.6971669,14.00718 19.5491889,13.832694 19.486648,13.622298 C19.424107,13.4119021 19.452746,13.184916 19.5655866,12.996648 C19.790838,12.5863687 20.3477095,12.4013408 20.9957542,12.5237989 C21.5365363,12.6283799 21.7769832,12.8822346 21.864581,13.5785475 Z" id="路径" fill="#000000"></path>
            <path d="M23.2330726,14.3356425 L23.2330726,15.4913966 C23.7872626,15.4913966 24.3307263,15.4806704 24.8732961,15.4994413 C25.0055866,15.4994413 25.1334078,15.6049162 25.2630168,15.6612291 C25.1316201,15.7300559 25.0011173,15.8551955 24.8670391,15.8587709 C24.1886034,15.8793296 23.5092737,15.8686034 22.8058101,15.8686034 L22.8058101,12.5738547 L25.1494972,12.5738547 C25.267486,12.8652514 25.1244693,12.9367598 24.8625698,12.9313966 C24.3307263,12.9251397 23.7979888,12.9313966 23.2411173,12.9313966 L23.2411173,13.9637989 C23.7434637,13.9637989 24.2440223,13.9530726 24.7427933,13.9718436 C24.8545251,13.9763128 24.9617877,14.0835754 25.070838,14.1434637 C24.9644693,14.2069274 24.8589944,14.3222346 24.7499441,14.3222346 C24.2627933,14.3472626 23.7765363,14.3356425 23.2330726,14.3356425 Z" id="路径" fill="#000000"></path>
            <path d="M28.7821229,13.4355307 C28.5738547,13.5615642 28.424581,13.557095 28.2976536,13.2987709 C28.1188827,12.9313966 27.7738547,12.842905 27.3903911,12.867933 C27.0069274,12.8929609 26.7021229,13.0869274 26.553743,13.4426816 C26.3474129,13.9278127 26.3454794,14.4756591 26.5483799,14.9622346 C26.7110615,15.3653631 27.0543017,15.5459218 27.4672626,15.5593296 C27.8802235,15.5727374 28.2011173,15.3939665 28.3530726,15.0051397 C28.4567598,14.7423464 28.5944134,14.6967598 28.8661453,14.8496089 C28.8131286,15.2620406 28.5517974,15.6182478 28.1743017,15.7926257 C27.2804469,16.2315084 26.276648,15.7577654 26.0290503,14.7932961 C25.717095,13.5758659 26.2864804,12.6015642 27.3805587,12.4835754 C27.9606704,12.424581 28.7177654,12.7562011 28.7821229,13.4355307 Z" id="路径" fill="#000000"></path>
            <path d="M33.766257,0.542569832 L35.4073743,0.113519553 C35.6281564,0.665027933 35.8417877,1.19597765 36.0732961,1.77430168 L34.4974302,2.16670391 C34.2534078,1.62502793 34.0236872,1.11553073 33.766257,0.542569832 Z" id="路径" fill="#000000"></path>
        </g>
    </g>
</svg>