<?xml version="1.0" encoding="UTF-8"?>
<svg width="124px" height="24px" viewBox="0 0 124 24" version="1.1" xmlns="http://www.w3.org/2000/svg" xmlns:xlink="http://www.w3.org/1999/xlink">
    <title>↳Icon 图标/iconfont/发现/深信服负载均衡@1x</title>
    <g id="↳Icon-图标/iconfont/发现/深信服负载均衡" stroke="none" stroke-width="1" fill="none" fill-rule="evenodd">
        <g id="深信服" transform="translate(51.329545, 2.000000)" fill-rule="nonzero">
            <path d="M2.16619318,15.7892401 C3.01846591,16.9256037 5.43323864,17.3517401 7.27982955,17.635831 C10.4048295,18.0619673 13.8139205,17.7778764 16.2286932,16.7835582 C17.5071023,16.2153764 18.359375,15.2210582 18.359375,15.2210582 C18.7855114,14.7949219 19.2116477,13.9426491 19.6377841,12.6642401 C19.4957386,12.6642401 19.2116477,13.2324219 18.359375,13.6585582 C17.9332386,13.8006037 17.6491477,14.0846946 17.2230114,14.2267401 C14.0980114,15.2210582 9.69460227,15.2210582 6.00142045,14.7949219 C5.29119318,14.6528764 3.72869318,14.3687855 3.01846591,14.2267401 C2.45028409,14.2267401 2.16619318,14.3687855 2.02414773,14.7949219 C2.02414773,15.0790128 2.16619318,15.5051491 2.16619318,15.7892401 M19.3536932,6.84037642 C19.0696023,6.41424006 18.6434659,5.84605824 18.0752841,5.56196733 C13.8139205,3.1471946 8.13210227,4.14151278 8.13210227,4.14151278 C7.56392045,4.28355824 7.13778409,4.7096946 6.99573864,5.27787642 C6.71164773,6.41424006 7.56392045,7.12446733 8.41619318,7.12446733 L11.3991477,7.12446733 C14.5241477,7.26651278 18.359375,7.40855824 19.921875,8.97105824 C19.921875,8.26083097 19.6377841,7.40855824 19.3536932,6.84037642 M18.359375,4.56764915 C17.3650568,2.86310369 15.9446023,1.72674006 14.2400568,1.01651278 C13.8139205,0.87446733 13.5298295,0.732421875 13.2457386,0.59037642 C12.9616477,0.448330966 12.8196023,0.448330966 12.6775568,0.448330966 C11.3991477,0.164240057 10.2627841,0.164240057 8.84232955,0.306285511 C8.27414773,0.306285511 7.70596591,0.59037642 7.27982955,0.732421875 C6.85369318,0.87446733 6.42755682,0.87446733 6.28551136,1.30060369 C6.14346591,1.44264915 6.14346591,1.72674006 6.14346591,1.86878551 C6.14346591,2.15287642 6.71164773,2.29492187 6.99573864,2.29492187 C7.56392045,2.29492187 7.99005682,2.15287642 8.55823864,2.15287642 C11.9673295,1.86878551 15.6605114,2.57901278 17.6491477,3.99946733 C17.7911932,3.99946733 18.0752841,4.42560369 18.359375,4.56764915" id="形状" fill="#52C41B"></path>
            <path d="M18.5014205,9.68128551 C13.8139205,8.40287642 10.1207386,8.97105824 9.26846591,10.2494673 C8.984375,10.6756037 8.984375,11.6699219 9.26846591,12.2381037 C9.55255682,12.948331 10.2627841,13.2324219 11.3991477,13.3744673 C15.3764205,13.8006037 18.359375,12.5221946 18.5014205,12.5221946 C19.0696023,12.2381037 19.7798295,11.6699219 20.0639205,11.385831 C20.2059659,10.9596946 20.3480114,10.6756037 20.0639205,10.3915128 C19.4957386,9.82333097 18.5014205,9.68128551 18.5014205,9.68128551 M9.55255682,18.6301491 C8.984375,18.6301491 8.13210227,18.7721946 8.13210227,19.198331 C8.13210227,19.7665128 8.84232955,19.9085582 9.41051136,19.9085582 L10.1207386,19.9085582 C12.8196023,19.9085582 15.234375,18.7721946 17.0809659,16.9256037 C15.234375,18.2040128 12.6775568,18.6301491 9.55255682,18.6301491" id="形状" fill="#52C41B"></path>
            <path d="M13.671875,17.9199219 C13.1036932,18.0619673 12.109375,18.3460582 11.6832386,18.3460582 C8.27414773,18.6301491 5.57528409,17.9199219 3.44460227,16.4994673 C3.30255682,16.3574219 2.45028409,15.7892401 2.30823864,15.5051491 C2.45028409,15.9312855 2.734375,16.3574219 3.01846591,16.7835582 C3.58664773,17.4937855 4.15482955,17.7778764 4.15482955,17.7778764 C5.43323864,18.7721946 7.421875,19.4824219 8.13210227,19.6244673 C9.41051136,19.9085582 10.4048295,19.9085582 11.9673295,19.7665128 C12.5355114,19.7665128 12.9616477,19.4824219 13.5298295,19.3403764 C13.9559659,19.198331 14.2400568,19.0562855 14.3821023,18.6301491 C14.5241477,18.4881037 14.5241477,18.2040128 14.5241477,18.0619673 C14.3821023,17.9199219 13.9559659,17.7778764 13.671875,17.9199219 M1.74005682,10.2494673 C6.42755682,11.5278764 10.1207386,10.9596946 10.9730114,9.68128551 C11.2571023,9.25514915 11.2571023,8.26083097 10.9730114,7.69264915 C10.6889205,7.12446733 9.97869318,6.69833097 8.84232955,6.55628551 C4.86505682,6.13014915 1.88210227,7.40855824 1.74005682,7.40855824 C1.171875,7.69264915 0.461647727,8.26083097 0.177556818,8.68696733 C0.0355113636,8.97105824 -0.106534091,9.25514915 0.177556818,9.68128551 C0.745738636,10.1074219 1.74005682,10.2494673 1.74005682,10.2494673" id="形状" fill="#1791FF"></path>
            <path d="M14.2400568,5.27787642 C15.0923295,5.41992188 16.6548295,5.70401278 17.2230114,5.84605824 C17.7911932,5.84605824 18.0752841,5.70401278 18.2173295,5.27787642 C18.359375,4.99378551 18.2173295,4.7096946 18.0752841,4.56764915 C17.9332386,4.28355824 17.6491477,3.99946733 17.5071023,3.85742188 C16.5127841,3.1471946 14.3821023,2.72105824 12.9616477,2.57901278 C9.83664773,2.15287642 6.42755682,2.29492187 3.87073864,3.43128551 C2.59232955,3.85742188 1.59801136,4.85174006 1.59801136,4.85174006 C1.171875,5.27787642 0.745738636,6.13014915 0.319602273,7.40855824 C0.461647727,7.40855824 0.745738636,6.84037642 1.59801136,6.41424006 C2.02414773,6.2721946 2.30823864,5.98810369 2.734375,5.84605824 C6.14346591,4.85174006 10.6889205,4.85174006 14.2400568,5.27787642 M3.30255682,3.00514915 C5.29119318,1.72674006 7.84801136,1.30060369 10.9730114,1.30060369 C11.5411932,1.30060369 12.3934659,1.15855824 12.3934659,0.732421875 C12.3934659,0.164240057 11.6832386,0.0221946023 11.1150568,0.0221946023 C7.421875,-0.119850852 4.58096591,1.86878551 3.58664773,2.72105824 C3.16051136,3.00514915 3.01846591,3.28924006 3.30255682,3.00514915 M14.2400568,12.6642401 L10.546875,12.6642401 C6.85369318,12.6642401 3.30255682,12.5221946 0.461647727,11.385831 C0.319602273,11.385831 0.319602273,11.5278764 0.319602273,11.6699219 C0.319602273,12.2381037 0.745738636,13.5165128 1.74005682,14.2267401 L2.02414773,14.510831 C7.421875,18.0619673 14.5241477,16.3574219 14.5241477,16.3574219 C15.234375,16.073331 15.8025568,15.6471946 15.9446023,15.0790128 C16.3707386,13.5165128 15.3764205,12.6642401 14.2400568,12.6642401" id="形状" fill="#1791FF"></path>
        </g>
    </g>
</svg>