<?xml version="1.0" encoding="UTF-8"?>
<svg width="124px" height="24px" viewBox="0 0 124 24" version="1.1" xmlns="http://www.w3.org/2000/svg" xmlns:xlink="http://www.w3.org/1999/xlink">
    <title>↳Icon 图标/发现/网络设备(交换机)@1x</title>
    <defs>
        <filter id="filter-1">
            <feColorMatrix in="SourceGraphic" type="matrix" values="0 0 0 0 0.458824 0 0 0 0 0.474510 0 0 0 0 0.529412 0 0 0 1.000000 0"></feColorMatrix>
        </filter>
    </defs>
    <g id="↳Icon-图标/发现/网络设备(交换机)" stroke="none" stroke-width="1" fill="none" fill-rule="evenodd">
        <g id="↳Icon-图标/资源/网络设备(交换机）" transform="translate(52.000000, 2.000000)" filter="url(#filter-1)">
            <g>
                <path d="M18.25,0 C19.2164983,-1.7754286e-16 20,0.783501688 20,1.75 L20,18.25 C20,19.2164983 19.2164983,20 18.25,20 L1.75,20 C0.783501688,20 1.18361906e-16,19.2164983 0,18.25 L0,1.75 C-1.18361906e-16,0.783501688 0.783501688,1.7754286e-16 1.75,0 L18.25,0 Z M5.4296875,4.140625 L2.24609375,6.66015625 L5.4296875,9.1796875 L5.4296875,7.5390625 L7.0629143,7.5390625 L12.1147017,15.46875 L17.6953125,15.46875 L17.6953125,13.515625 L13.1921757,13.515625 L8.1640625,5.5859375 L5.4296875,5.59870049 L5.4296875,4.140625 Z M8.30078125,11.8164062 L7.29640151,13.515625 L2.265625,13.515625 L2.265625,15.46875 L8.12026516,15.46875 L9.41258285,13.4498762 L8.30078125,11.8164062 Z M14.6993371,4.140625 L14.6993371,5.59870049 L11.8797348,5.59870049 L10.822384,7.16893564 L12.0996094,9.00390625 L13.0545691,7.54892481 L14.6993371,7.54892481 L14.6993371,9.0070003 L17.7539062,6.57381265 L14.6993371,4.140625 Z" id="交换机" fill="#999999"></path>
            </g>
        </g>
    </g>
</svg>