<?xml version="1.0" encoding="UTF-8"?>
<svg width="124px" height="24px" viewBox="0 0 124 24" version="1.1" xmlns="http://www.w3.org/2000/svg" xmlns:xlink="http://www.w3.org/1999/xlink">
    <title>↳Icon 图标/iconfont/发现/Tomcat服务器@1x</title>
    <g id="↳Icon-图标/iconfont/发现/Tomcat服务器" stroke="none" stroke-width="1" fill="none" fill-rule="evenodd">
        <g id="Tomcat" transform="translate(44.618644, 0.000000)" fill="#00C1DE" fill-rule="nonzero">
            <path d="M17.071798,4.45888506 C17.1204731,5.78871491 17.3015799,7.00722905 17.5938534,8.12824417 C17.5938534,8.12824417 20.2535876,14.4921958 25.3364589,16.149232 C26.8125372,15.1118619 28.0936176,13.7681036 29.0823126,12.1666322 L29.3330244,11.7487793 C29.4444146,11.553893 29.5488405,11.3588205 29.6464513,11.1639715 L29.848339,10.7461186 C30.7326081,8.83840787 31.2199914,6.64516436 31.1712046,4.24992138 L31.1782061,4.24992138 C31.1782061,3.59558312 30.9693914,0.817494538 30.5933983,0.0585068525 C29.5767719,0.448465638 27.717699,1.7015774 27.3000695,2.98288119 C25.2877466,2.68338271 23.0249354,2.71824103 21.0405439,3.05941307 C20.7063733,1.6809082 19.0421494,0.622459282 17.7890004,0.0306872352 C17.2597946,0.921995001 17.0230858,2.9968841 17.085652,4.465961 C17.0786505,4.45199533 17.071798,4.45895955 17.071798,4.45895955 L17.071798,4.45895955 L17.071798,4.45888506 Z" id="路径"></path>
            <path d="M33.1974187,22.4575071 C32.5568227,21.7402302 31.3035247,21.4060224 30.2591532,21.4269151 C29.7787341,20.8560729 27.5715249,18.4886495 26.2346936,17.0822878 L25.5453108,17.541777 L24.9465373,17.3467045 C19.3764317,15.5364183 16.5495564,8.89393538 16.431202,8.615553 L16.3963809,8.53190794 L16.3824153,8.47630595 C12.3928885,9.73664261 8.27778238,12.3059165 5.88268836,14.8053992 L5.4787639,15.2302163 C5.28387762,15.4390311 5.10277079,15.6408816 4.92185017,15.8429183 C2.08797338,18.997 0.0200857389,22.3947175 0.0200857389,22.9517057 L0.0200857389,23.2442399 L3.75201106,23.2442399 L3.68944485,22.8961409 C3.48063013,21.7820528 3.89825957,20.3894705 4.76163599,19.3521004 C5.3048075,18.697576 6.19589182,17.952554 7.60251423,17.6113819 C8.75842492,17.1937525 11.8010792,17.5278858 11.8010792,17.5278858 C17.8167083,18.0639442 23.5678835,20.4870812 30.0641924,23.877909 L33.6360898,23.877909 L33.6848765,23.6412002 C33.74748,23.3207718 33.5664849,22.8682841 33.1974932,22.4575444 L33.1974932,22.4575444 L33.1974187,22.4575071 Z" id="路径"></path>
            <path d="M14.5302693,20.2780431 C14.09171,19.9926592 13.4162184,19.9508367 12.7965522,20.1666529 C12.4137811,19.742022 12.1421767,19.2267446 11.9749611,18.6210069 C11.9193964,18.6140426 11.8566067,18.6070784 11.8010047,18.6001142 C11.8010047,18.6001142 9.93493032,18.3912995 8.5632407,18.5026524 C9.62854211,19.449525 10.8678744,20.4243288 12.2186714,21.3712013 L14.9899447,21.3712013 L14.9899447,21.078816 C14.9899447,20.7584249 14.8227663,20.4730783 14.5302693,20.2780058 L14.5302693,20.2780058 L14.5302693,20.2780431 Z" id="路径"></path>
            <path d="M4.78945561,14.2345198 L5.04709431,13.9629527 C5.09576933,13.9071273 5.15152029,13.8515625 5.20727125,13.8027385 C4.44832081,12.5772602 4.11418747,11.5399646 4.00257382,10.7184107 C3.82161596,9.40928727 4.13485666,8.20481329 4.90781002,7.23697365 C6.12628691,5.72603698 7.85303976,5.621611 9.62846762,5.92107223 C9.59375828,6.19967807 9.62846762,6.47105899 9.73985782,6.63823739 C10.2064975,7.33443541 12.7339115,7.57818293 14.2448855,6.90287755 C13.1307973,5.3433031 10.8818028,4.58431541 10.2551352,4.89055465 C10.0463205,4.99498063 9.8930333,5.17608746 9.78864456,5.39186639 C9.17594263,5.2804762 8.56316621,5.1969801 8.11767992,5.20394432 C6.55110401,5.21790999 5.3533708,5.76089529 4.45528502,6.87494621 C3.57798017,7.96802999 3.21587824,9.32582842 3.42469296,10.8019068 C3.57798017,11.8949906 4.03743214,13.043937 4.78941837,14.2345198 L4.78941837,14.2345198 L4.78945561,14.2345198 Z" id="路径"></path>
        </g>
    </g>
</svg>