<?xml version="1.0" encoding="UTF-8"?>
<svg width="124px" height="24px" viewBox="0 0 124 24" version="1.1" xmlns="http://www.w3.org/2000/svg" xmlns:xlink="http://www.w3.org/1999/xlink">
    <title>↳Icon 图标/iconfont/发现/天融信防火墙@1x</title>
    <g id="↳Icon-图标/iconfont/发现/天融信防火墙" stroke="none" stroke-width="1" fill="none" fill-rule="evenodd">
        <g id="天融信" transform="translate(34.535211, 2.000000)" fill-rule="nonzero">
            <path d="M18.8586796,0.19 C18.8752993,0.124647887 18.8699472,0.133943662 18.9347359,0.117042254 C18.9738908,0.0685915493 19.2569894,0.0350704225 19.3676937,0.0666197183 L19.3676937,0.09 C19.4240317,0.100422535 19.479243,0.106901408 19.5375528,0.117042254 C19.5902289,0.104084507 19.6552993,0.0407042254 19.7550176,0.0666197183 C19.8043134,0.0835211268 19.8845951,0.139577465 19.9705106,0.117042254 L19.9705106,0.09 C20.0860035,0.0573239437 20.1857218,0.0742253521 20.2860035,0.09 L20.2860035,0.262394366 C20.2071303,0.262394366 20.1772711,0.273661972 20.1175528,0.286619718 C20.0860035,0.418169014 20.0471303,0.391971831 19.947412,0.455352113 C19.940088,0.468309859 19.9341725,0.486901408 19.9223415,0.502112676 L19.7341725,0.502112676 L19.7341725,0.526056338 L19.6812148,0.526056338 L19.6812148,0.55028169 L19.6099472,0.55028169 L19.6099472,0.575352113 C19.520088,0.567183099 19.431919,0.560422535 19.3429049,0.55028169 C19.3381972,0.567541317 19.330159,0.583713472 19.319243,0.597887324 L19.2702289,0.597887324 L19.2702289,0.624084507 L19.2223415,0.624084507 L19.2223415,0.64915493 C19.1350176,0.678732394 19.0758627,0.603239437 19.0305106,0.597887324 L19.0045951,0.597887324 L19.0045951,0.624084507 L18.9350176,0.624084507 L18.9350176,0.64915493 L18.64375,0.64915493 C18.6342482,0.664465475 18.6263205,0.680698437 18.620088,0.697605634 L18.5710739,0.697605634 L18.5710739,0.719859155 C18.4741725,0.728309859 18.3764261,0.737605634 18.2806514,0.744084507 L18.2806514,0.719859155 L18.1110739,0.719859155 L18.1110739,0.744084507 L17.8927641,0.744084507 L17.8927641,0.767464789 C17.851919,0.776760563 17.8136092,0.784084507 17.7736092,0.794507042 C17.799243,0.820422535 17.7736092,0.803802817 17.8226232,0.817887324 C17.8857218,0.925211268 17.9809331,0.933661972 17.991919,1.10859155 C17.9626232,1.12915493 17.9885387,1.10408451 17.9679754,1.13 L17.7502289,1.13 L17.7502289,1.15704225 L17.6775528,1.15704225 L17.6775528,1.18042254 L17.6533275,1.18042254 C17.5564261,1.17028169 17.4589613,1.16183099 17.3620599,1.15704225 C17.3550176,1.17028169 17.3476937,1.18774648 17.3350176,1.20295775 L17.2645951,1.20295775 L17.2645951,1.22802817 L17.1958627,1.22802817 L17.1958627,1.25140845 L17.0710739,1.25140845 L17.0710739,1.27647887 L16.9496655,1.27647887 L16.9496655,1.3015493 L16.8541725,1.3015493 L16.8541725,1.32492958 L16.78375,1.32492958 L16.78375,1.34830986 L16.708257,1.34830986 L16.708257,1.37225352 L16.6612148,1.37225352 L16.6612148,1.3956338 L16.6130458,1.3956338 C16.6048768,1.41422535 16.5961444,1.43028169 16.5888204,1.44605634 C16.5077017,1.43845046 16.4266644,1.42999929 16.3457218,1.42070423 L16.3457218,1.44605634 C16.3214965,1.45338028 16.2986796,1.46211268 16.2761444,1.46943662 L16.2234683,1.51788732 L16.2234683,1.56746479 C16.1812148,1.62690141 16.1341725,1.60774648 16.1057218,1.71197183 C16.0671303,1.71957746 15.8829049,1.78746479 15.8634683,1.80887324 L15.8634683,1.85535211 C15.8400811,1.87360323 15.8156244,1.89044074 15.7902289,1.90577465 L15.7902289,1.95422535 C15.7573125,1.97674073 15.725624,2.00100074 15.6952993,2.02690141 L15.6952993,2.05 L15.5006514,2.05 C15.4361444,1.9756338 15.3736092,1.98211268 15.2823415,2.02690141 L15.2823415,2.05 L15.2330458,2.05 L15.2330458,2.07338028 C15.0733275,2.08915493 14.9147359,2.10492958 14.7522007,2.12380282 L14.7522007,2.14408451 C14.7009331,2.16352113 14.655581,2.17676056 14.6057218,2.19450704 L14.6057218,2.21873239 L14.5572711,2.21873239 C14.5505106,2.23647887 14.5409331,2.25028169 14.5338908,2.26802817 L14.4840317,2.26802817 C14.4779291,2.28448437 14.4702897,2.30032903 14.4612148,2.31535211 L14.4122007,2.31535211 C14.4040758,2.33149674 14.3965588,2.34794021 14.3896655,2.36464789 L14.1972711,2.36464789 L14.1972711,2.38887324 C14.0014965,2.40464789 13.807412,2.41788732 13.6161444,2.43732394 C13.528257,2.41309859 13.3989613,2.37647887 13.3012148,2.41309859 L13.3012148,2.43732394 L13.2293838,2.43732394 L13.2293838,2.45760563 L13.155581,2.45760563 C13.1500962,2.47518845 13.1419244,2.49181699 13.1313556,2.50690141 L13.0845951,2.50690141 C13.0186796,2.58070423 12.9547359,2.65338028 12.8893838,2.72492958 L12.791919,2.72492958 L12.791919,2.74830986 L12.3102289,2.74830986 L12.3102289,2.77450704 L12.2381162,2.77450704 L12.2381162,2.79873239 L11.9952993,2.79873239 L11.9952993,2.82380282 L11.9448768,2.82380282 C11.9398063,2.83760563 11.9302289,2.85647887 11.9243134,2.87225352 L11.8479754,2.87225352 L11.8479754,2.8956338 L11.3907923,2.8956338 C11.3747359,2.92098592 11.3569894,2.94239437 11.3431866,2.96859155 C11.3026232,2.97760563 11.2617782,2.98239437 11.2214965,2.99084507 L11.2214965,3.01816901 L10.9572711,3.01816901 L10.9572711,3.04042254 C10.8738908,3.08887324 10.7936092,3.13732394 10.7130458,3.18492958 L10.7130458,3.23535211 C10.7029049,3.25394366 10.6307923,3.37338028 10.6167077,3.38014085 L10.3231866,3.38014085 C10.1713556,3.20126761 10.0431866,3.51056338 9.8209331,3.45169014 L9.8209331,3.43028169 C9.72994718,3.41901408 9.64234155,3.41084507 9.55332746,3.4043662 L9.55332746,3.43028169 L9.50431338,3.43028169 C9.4809331,3.46183099 9.45586268,3.4928169 9.43445423,3.52464789 C9.38515845,3.53084507 9.33558099,3.54239437 9.2865669,3.54859155 L9.2865669,3.57197183 L8.56346831,3.57197183 L8.56346831,3.59788732 C8.53081891,3.60529973 8.4983239,3.61337652 8.46600352,3.62211268 C8.44966549,3.68267606 8.42825704,3.6984507 8.39501761,3.74239437 L8.36797535,3.74239437 C8.36205986,3.77394366 8.35360915,3.80690141 8.34544014,3.83929577 C8.32121479,3.85507042 8.29642606,3.8728169 8.27332746,3.88661972 L8.27332746,3.9128169 L8.22149648,3.9128169 C8.20515845,3.93338028 8.19079225,3.95760563 8.17417254,3.98183099 C8.11304577,4.01816901 7.76375,4.07028169 7.64234155,4.03112676 L7.64234155,4.0071831 C7.59670775,3.99957746 7.54684859,3.99225352 7.50036972,3.98183099 C7.47304577,4.05760563 7.45022887,4.12830986 7.42628521,4.20183099 C7.38008803,4.21873239 7.30684859,4.25676056 7.2552993,4.27535211 L7.13727113,4.27535211 L7.13727113,4.29985915 L7.03952465,4.29985915 L7.03952465,4.32126761 L6.94515845,4.32126761 L6.94515845,4.34633803 L6.87107394,4.34633803 L6.87107394,4.37140845 L6.7981162,4.37140845 L6.7981162,4.39647887 C6.72544014,4.40295775 6.65163732,4.41253521 6.5809331,4.41704225 L6.5809331,4.44408451 L6.53191901,4.44408451 C6.52242396,4.45939877 6.51449657,4.47563104 6.50825704,4.49253521 L6.45980634,4.49253521 L6.45980634,4.51309859 L6.38769366,4.51309859 L6.38769366,4.53901408 L6.33783451,4.53901408 C6.33079225,4.55676056 6.32149648,4.57 6.3152993,4.58859155 C6.28262324,4.59676056 6.24882042,4.6043662 6.21558099,4.61197183 C6.20853873,4.63535211 6.20065141,4.65929577 6.19360915,4.68746479 L6.16994718,4.68746479 C6.15360915,4.70802817 6.13839789,4.73309859 6.12149648,4.75647887 L6.07191901,4.75647887 L6.07191901,4.78070423 C5.87248239,4.80323944 5.67079225,4.83 5.46741197,4.85535211 L5.46741197,4.88042254 L5.39670775,4.88042254 C5.3622889,4.91802243 5.33012024,4.95762186 5.30036972,4.99901408 C5.20853873,5.0071831 5.12234155,5.01366197 5.03163732,5.02295775 L5.03163732,5.04549296 L4.96008803,5.04549296 L4.96008803,5.07056338 L4.8893838,5.07056338 L4.8893838,5.09591549 L4.79051056,5.09591549 L4.79051056,5.11929577 C4.7581162,5.13056338 4.72713028,5.13788732 4.69473592,5.14464789 L4.69473592,5.16690141 C4.64487676,5.17535211 4.59839789,5.18549296 4.54994718,5.19309859 L4.54994718,5.21619718 C4.47755282,5.20605634 4.40403169,5.20042254 4.33163732,5.19309859 L4.33163732,5.21619718 C4.30008803,5.22464789 4.26797535,5.23225352 4.23473592,5.24042254 L4.23473592,5.28802817 C4.16572183,5.30295775 4.15558099,5.31760563 4.13924296,5.38690141 C4.05051056,5.40295775 3.95896127,5.41760563 3.87079225,5.43535211 C3.86403169,5.44943662 3.85783451,5.46915493 3.84853873,5.48211268 L3.77727113,5.48211268 C3.7665669,5.49816901 3.7609331,5.51394366 3.75022887,5.53253521 L3.70487676,5.53253521 L3.70487676,5.55873239 L3.65417254,5.55873239 L3.65417254,5.58014085 C3.42966549,5.62859155 3.20431338,5.67704225 2.97896127,5.72464789 C2.95274035,5.75506082 2.92891329,5.78745809 2.90769366,5.8215493 L2.83248239,5.8215493 L2.83248239,5.84492958 L2.73558099,5.84492958 L2.73558099,5.87197183 L2.68713028,5.87197183 L2.68713028,5.89253521 L2.61614437,5.89253521 L2.61614437,5.91760563 C2.58376866,5.92674765 2.55117701,5.93510689 2.51839789,5.94267606 C2.51324201,5.95981474 2.50513965,5.97592414 2.49445423,5.99028169 L2.44769366,5.99028169 L2.44769366,6.01366197 C2.42346831,6.02408451 2.39783451,6.03140845 2.37473592,6.03901408 L2.37473592,6.08633803 L2.32713028,6.08633803 L2.32713028,6.11028169 L2.08487676,6.11028169 L2.08487676,6.13647887 C2.00375,6.12802817 1.92403169,6.11873239 1.83980634,6.11028169 L1.83980634,6.13647887 C1.68600352,6.17366197 1.4752993,6.12239437 1.38149648,6.08605634 L1.31079225,6.08605634 C1.30254602,6.07059865 1.29493405,6.05481086 1.28797535,6.03873239 L1.11698944,6.03873239 L1.11698944,6.01338028 L0.971919014,6.01338028 L0.971919014,5.99 L0.707975352,5.99 L0.707975352,5.96577465 C0.673045775,5.96014085 0.64290493,5.95084507 0.608257042,5.94239437 C0.600369718,5.91084507 0.593890845,5.87816901 0.584876761,5.84464789 L0.560369718,5.84464789 L0.560369718,5.74971831 L0.537834507,5.74971831 L0.537834507,5.70211268 L0.514172535,5.70211268 L0.514172535,5.62859155 L0.487411972,5.62859155 C0.455862676,5.58746479 0.42346831,5.54830986 0.391355634,5.50633803 L0.34290493,5.50633803 C0.319524648,5.47450704 0.294172535,5.44295775 0.271073944,5.40943662 C0.245440141,5.40295775 0.222623239,5.39450704 0.196989437,5.38690141 C0.157271127,5.33 0.115299296,5.27225352 0.0767077465,5.21619718 L0.0767077465,5.16690141 L0.0538908451,5.16690141 C0.0451584507,5.07929577 0.0389612676,4.99366197 0.0282570423,4.90126761 L0.0538908451,4.90126761 C0.0693838028,4.85535211 0.085721831,4.80323944 0.0992429577,4.75676056 L0.0767077465,4.75676056 L0.0767077465,4.24971831 L0.0767077465,4.05760563 L0.0992429577,4.05760563 L0.0992429577,4.0071831 L0.126003521,4.0071831 C0.16375,3.95788732 0.207693662,3.91309859 0.245440141,3.86352113 C0.271073944,3.85507042 0.293890845,3.84605634 0.319524648,3.83929577 L0.319524648,3.78971831 C0.336144366,3.78323944 0.350792254,3.77394366 0.366848592,3.76746479 L0.366848592,3.74239437 C0.414735915,3.73225352 0.46346831,3.72633803 0.513609155,3.71901408 C0.520088028,3.70126761 0.527975352,3.68746479 0.537271127,3.66943662 L0.58431338,3.66943662 C0.607693662,3.63704225 0.631637324,3.60521127 0.658961268,3.57169014 C0.699524648,3.54549296 0.809947183,3.54549296 0.850510563,3.5243662 C0.889383803,3.46633803 0.931637324,3.41056338 0.971073944,3.35450704 L1.0209331,3.35450704 L1.0209331,3.32943662 C1.12769366,3.28746479 1.23445423,3.3956338 1.28713028,3.37985915 C1.29304577,3.36492958 1.30149648,3.34802817 1.30994718,3.32943662 L1.38065141,3.32943662 C1.39074286,3.31474906 1.39933073,3.29908328 1.40628521,3.28267606 C1.48572183,3.26774648 1.56769366,3.25 1.64825704,3.23507042 L1.64825704,3.21 L1.71980634,3.21 L1.71980634,3.18464789 L1.79304577,3.18464789 L1.79304577,3.16070423 L1.98741197,3.16070423 L1.98741197,3.13732394 L2.03417254,3.13732394 C2.04290493,3.1215493 2.05389085,3.10464789 2.05980634,3.08887324 L2.10825704,3.08887324 L2.10825704,3.06380282 L2.1552993,3.06380282 L2.20459507,3.01816901 L2.25304577,3.01816901 C2.25882936,3.00085702 2.26667945,2.98430563 2.27642606,2.96887324 L2.32628521,2.96887324 C2.33445423,2.9528169 2.34121479,2.93704225 2.34882042,2.92126761 L2.39727113,2.92126761 C2.40628521,2.90352113 2.41558099,2.88859155 2.42290493,2.8728169 L2.49389085,2.8728169 L2.49389085,2.84774648 L2.8093838,2.84774648 C3.07332746,2.77507042 3.33867958,2.70239437 3.60741197,2.63056338 L3.60741197,2.60633803 C3.65417254,2.58887324 3.70487676,2.5728169 3.74994718,2.55788732 L3.74994718,2.5328169 L3.80121479,2.5328169 C3.81501761,2.50746479 3.83135563,2.48521127 3.84825704,2.45816901 L3.89614437,2.45816901 L3.89614437,2.43788732 L3.94431338,2.43788732 L3.94431338,2.41366197 L4.01670775,2.41366197 C4.0265669,2.39873239 4.03473592,2.37901408 4.04290493,2.36521127 L4.11332746,2.36521127 L4.11332746,2.34014085 L4.16375,2.34014085 L4.16375,2.31591549 C4.19276408,2.30661972 4.2265669,2.30014085 4.25924296,2.29253521 L4.25924296,2.26830986 L4.33135563,2.26830986 L4.33135563,2.24408451 L4.57389085,2.24408451 L4.57389085,2.21901408 L4.64459507,2.21901408 C4.65445423,2.20492958 4.65980634,2.18746479 4.66825704,2.17140845 C4.71248239,2.1443662 4.79360915,2.14239437 4.86346831,2.1443662 L4.88882042,2.17140845 L4.88882042,2.1443662 C4.91248239,2.13816901 4.93445423,2.12943662 4.95952465,2.12408451 C4.97022887,2.10549296 4.97614437,2.08943662 4.98515845,2.07366197 C5.04853873,2.08295775 5.11360915,2.08943662 5.17614437,2.09760563 L5.17614437,2.07366197 C5.21614437,2.06605634 5.25839789,2.05873239 5.29980634,2.05028169 C5.30628521,2.03732394 5.31501761,2.01957746 5.32318662,1.99985915 L5.3722007,1.99985915 C5.38065141,1.98605634 5.38713028,1.96661972 5.39586268,1.95422535 L5.4665669,1.95422535 L5.4665669,1.92915493 C5.53896127,1.93732394 5.61304577,1.94380282 5.68431338,1.95422535 L5.68431338,1.92915493 C5.73135563,1.91422535 5.78149648,1.89647887 5.8293838,1.88042254 L5.8293838,1.85535211 L6.0465669,1.85535211 L6.0465669,1.83309859 C6.09839789,1.81816901 6.13163732,1.82267606 6.1693838,1.80887324 C6.17783451,1.78464789 6.18572183,1.76126761 6.19304577,1.73619718 C6.28205986,1.71957746 6.35276408,1.66464789 6.4352993,1.64126761 C6.62882042,1.61422535 6.82205986,1.59084507 7.01360915,1.56774648 L7.01360915,1.5415493 L7.13642606,1.5415493 L7.13642606,1.51816901 L7.25445423,1.51816901 L7.25445423,1.49309859 L7.35332746,1.49309859 L7.35332746,1.46971831 L7.44966549,1.46971831 L7.44966549,1.44633803 L7.52346831,1.44633803 L7.52346831,1.42098592 C7.55360915,1.41450704 7.58600352,1.40633803 7.61614437,1.39591549 L7.61614437,1.37253521 C7.73952465,1.36521127 7.85924296,1.35647887 7.98290493,1.34859155 C8.00544014,1.31760563 8.02713028,1.28605634 8.05417254,1.25169014 L8.15079225,1.25169014 L8.15079225,1.22830986 L8.27276408,1.22830986 L8.27276408,1.20323944 L8.44149648,1.20323944 L8.44149648,1.18070423 C8.53022887,1.16211268 8.62008803,1.1471831 8.70825704,1.13028169 L8.70825704,1.10887324 L8.80459507,1.10887324 L8.80459507,1.08098592 L8.94910211,1.08098592 C9.16121479,1.01957746 9.43389085,0.998732394 9.64910211,0.936478873 L10.1567077,0.936478873 L10.1567077,0.915915493 L10.2552993,0.915915493 C10.2620599,0.898169014 10.2710739,0.882394366 10.2781162,0.866619718 C10.3178345,0.856478873 10.3598063,0.85084507 10.3998063,0.842394366 L10.3998063,0.818169014 L10.9567077,0.818169014 C10.9617782,0.801267606 10.9722007,0.784366197 10.9814965,0.767746479 C11.0676937,0.777042254 11.1567077,0.784366197 11.2471303,0.794788732 L11.2471303,0.767746479 L11.2913556,0.767746479 L11.2913556,0.744366197 C11.3662852,0.720140845 11.4406514,0.697605634 11.5113556,0.671690141 L11.5113556,0.64943662 L11.6079754,0.64943662 L11.6079754,0.624366197 C11.7930458,0.634507042 11.9775528,0.639014085 12.1648768,0.64943662 L12.1648768,0.624366197 L12.2375528,0.624366197 L12.2375528,0.598169014 L12.3096655,0.598169014 L12.3096655,0.575633803 L12.3803697,0.575633803 L12.3803697,0.55056338 L12.9122007,0.55056338 L12.9122007,0.526338028 L12.9629049,0.526338028 L12.9629049,0.502394366 L13.1307923,0.502394366 L13.1307923,0.479014085 L13.2775528,0.479014085 L13.2775528,0.455633803 L13.3958627,0.455633803 L13.3958627,0.431408451 L13.8814965,0.431408451 L13.8814965,0.405492958 L13.9522007,0.405492958 C13.967412,0.382112676 13.9843134,0.358169014 14.0006514,0.334788732 C14.1296655,0.342957746 14.259243,0.352535211 14.3885387,0.358169014 L14.3885387,0.334788732 L14.4347359,0.334788732 L14.4347359,0.308873239 L14.5088204,0.308873239 L14.5088204,0.287183099 L14.5558627,0.287183099 L14.5558627,0.262957746 L14.6798063,0.262957746 L14.6798063,0.237887324 L15.7634683,0.237887324 C15.7713556,0.237887324 15.7736092,0.273098592 15.8152993,0.262957746 L15.8152993,0.237887324 C15.8454401,0.23028169 15.8752993,0.222112676 15.9102289,0.211690141 L15.9102289,0.19028169 L16.175581,0.19028169 L16.175581,0.164084507 L16.2491021,0.164084507 L16.2491021,0.140140845 C16.3395246,0.14943662 16.4271303,0.157042254 16.5141725,0.164084507 L16.5141725,0.140140845 L16.611919,0.140140845 L16.611919,0.117605634 L16.6845951,0.117605634 L16.6845951,0.0905633803 L16.7552993,0.0905633803 L16.7552993,0.0671830986 C16.8586796,0.0356338028 16.9462852,0.100985915 16.9995246,0.117605634 L17.5310739,0.117605634 C17.5924824,0.128028169 17.6581162,0.133661972 17.7240317,0.140140845 L17.7240317,0.117605634 L17.8688204,0.117605634 L17.8688204,0.0905633803 C17.9243134,0.100985915 17.9798063,0.107464789 18.0367077,0.117605634 L18.0367077,0.0905633803 L18.1099472,0.0905633803 L18.1099472,0.0671830986 L18.5699472,0.0671830986 L18.5699472,0.0905633803 L18.6426232,0.0905633803 L18.6426232,0.117605634 C18.7158627,0.139859155 18.7879754,0.163802817 18.8586796,0.19 L18.8586796,0.19 Z" id="路径" fill="#DD1615"></path>
            <path d="M17.0705106,4.63619718 L17.0229049,4.63619718 C17.007412,4.66042254 16.9896655,4.68859155 16.9730458,4.70887324 L16.9262852,4.70887324 C16.9183979,4.73394366 16.9113556,4.75732394 16.9023415,4.7815493 L16.8536092,4.83084507 L16.8062852,4.83084507 C16.7821463,4.86363907 16.7573526,4.89594602 16.731919,4.92774648 L16.6854401,4.92774648 L16.6854401,4.95028169 C16.6127641,4.97535211 16.5417782,4.99985915 16.4662852,5.02380282 C16.4513556,5.04633803 16.4352993,5.07112676 16.4172711,5.09647887 L16.3693838,5.09647887 C16.3454401,5.13112676 16.3209331,5.16183099 16.2981162,5.19338028 L16.2496655,5.19338028 C16.2333275,5.21647887 16.2169894,5.24070423 16.2006514,5.2643662 C16.1212148,5.28267606 16.0409331,5.29760563 15.9586796,5.31450704 L15.9586796,5.33957746 C15.9203697,5.37028169 15.8758627,5.40295775 15.8398063,5.43535211 L15.8398063,5.48211268 C15.7893838,5.52323944 15.7423415,5.56239437 15.6944542,5.60549296 L15.6426232,5.60549296 L15.6426232,5.62887324 L15.5947359,5.62887324 C15.5888204,5.64633803 15.5798063,5.6584507 15.5722007,5.67732394 L15.5251585,5.67732394 C15.5075663,5.70061765 15.4912965,5.72488123 15.4764261,5.75 C15.3530458,5.76690141 15.2316373,5.78183099 15.1124824,5.79732394 C15.1045951,5.81338028 15.0972711,5.83 15.0902289,5.84492958 L15.0398063,5.84492958 C15.02375,5.87197183 15.0079754,5.89225352 14.9916373,5.91760563 C14.9598557,5.92718642 14.9277196,5.93554933 14.8952993,5.94267606 C14.8769894,5.96605634 14.8645951,5.99028169 14.8440317,6.01338028 L14.7972711,6.01338028 C14.7899472,6.03873239 14.7820599,6.06267606 14.7750176,6.08605634 L14.7271303,6.11 L14.7271303,6.16042254 L14.6995246,6.16042254 C14.6826232,6.18380282 14.6693838,6.20802817 14.6541725,6.23422535 C14.6291021,6.23985915 14.6043134,6.2471831 14.580088,6.2556338 C14.4989613,6.34492958 14.4186796,6.43366197 14.3395246,6.52014085 C14.2995246,6.52859155 14.2589613,6.53788732 14.2175528,6.54633803 L14.2175528,6.56943662 C14.1961444,6.57788732 14.1693838,6.58549296 14.1465669,6.59676056 C14.1088204,6.74323944 13.9722007,6.81676056 13.8809331,6.90887324 C13.8395246,6.95619718 13.8003697,7.00492958 13.7598063,7.05338028 C13.7369894,7.06830986 13.7116373,7.08774648 13.6865669,7.10380282 L13.6865669,7.15112676 L13.6629049,7.15112676 L13.6629049,7.19788732 C13.6448768,7.20521127 13.6293838,7.21535211 13.6150176,7.22295775 L13.6150176,7.27140845 L13.5893838,7.27140845 C13.56375,7.34521127 13.5414965,7.41873239 13.5169894,7.48971831 C13.4674233,7.52846729 13.4194047,7.56915619 13.3730458,7.61169014 C13.36375,7.65112676 13.3578345,7.69197183 13.3496655,7.73197183 L13.3217782,7.73197183 C13.2789613,7.78690141 13.2352993,7.83169014 13.1544542,7.85225352 C13.140088,7.90830986 13.1350176,7.90830986 13.1060035,7.9471831 L13.0834683,7.9471831 L13.0834683,8.02098592 C13.066551,8.02815821 13.0501708,8.03653659 13.0344542,8.04605634 C13.0240317,8.10211268 13.0172711,8.15704225 13.0093838,8.21507042 C12.991919,8.22323944 12.9761444,8.23084507 12.9623415,8.23647887 L12.9623415,8.31197183 L12.9352993,8.31197183 L12.9352993,8.38380282 C12.919243,8.39112676 12.9048768,8.39957746 12.888257,8.40774648 L12.888257,8.46014085 C12.8719254,8.46444892 12.8560704,8.47039455 12.8409331,8.47788732 L12.8409331,8.52830986 C12.8093838,8.55140845 12.7761444,8.57760563 12.7426232,8.60183099 C12.7214965,8.69788732 12.6936092,8.7956338 12.6716373,8.89084507 C12.655581,8.90126761 12.639243,8.90774648 12.6245951,8.91507042 L12.6245951,8.98859155 L12.5969894,8.98859155 C12.5905106,9.01929577 12.5795246,9.05394366 12.5727641,9.08549296 L12.5496655,9.08549296 L12.5496655,9.15929577 L12.5254401,9.15929577 L12.5254401,9.68971831 L12.5009331,9.68971831 C12.4944542,9.72126761 12.4848768,9.75197183 12.4789613,9.78464789 L12.4522007,9.78464789 C12.4234683,9.87028169 12.4522007,10.3150704 12.4789613,10.365493 C12.4944542,10.3728169 12.5122007,10.3829577 12.5257218,10.3897183 L12.5257218,10.438169 L12.5499472,10.438169 L12.5499472,10.485493 L12.5730458,10.485493 C12.6169894,10.6040845 12.5172711,10.7252113 12.5257218,10.774507 L12.5499472,10.774507 L12.5499472,10.8491549 L12.5730458,10.8491549 C12.580088,10.8826761 12.5907923,10.9142254 12.5972711,10.9452113 L12.6248768,10.9452113 L12.6248768,11.0187324 C12.639243,11.0252113 12.655581,11.0353521 12.671919,11.0460563 L12.671919,11.0914085 L12.6938908,11.0914085 C12.7130458,11.1801408 12.728257,11.2694366 12.7429049,11.3561972 C12.7913556,11.3978873 12.8412148,11.4364789 12.8888204,11.4784507 C12.8958627,11.5252113 12.9057218,11.5753521 12.9122007,11.6240845 C12.9541725,11.6564789 12.9927641,11.6874648 13.0352993,11.7221127 L13.0352993,11.7674648 C13.0522007,11.7739437 13.0671303,11.7846479 13.0843134,11.7928169 C13.0902289,11.858169 13.0986796,11.9215493 13.1068486,11.9857746 L13.1310739,11.9857746 C13.1409331,12.0026761 13.1479754,12.0173239 13.1552993,12.034507 L13.20375,12.034507 C13.2530458,12.0919718 13.3006514,12.15 13.3505106,12.2046479 C13.3809331,12.2105634 13.4136092,12.2207042 13.4454401,12.2288732 C13.487412,12.2598592 13.4679754,12.3474648 13.4930458,12.3967606 C13.5099472,12.4043662 13.5262852,12.414507 13.5420599,12.4201408 L13.5420599,12.4708451 C13.5812148,12.5023944 13.6226232,12.5350704 13.66375,12.5660563 C13.6710739,12.5843662 13.679243,12.598169 13.687412,12.6153521 L13.7378345,12.6153521 C13.7606514,12.6469014 13.7848768,12.6790141 13.8071303,12.7122535 L13.8575528,12.7122535 C13.867412,12.7767606 13.8930458,12.8305634 13.9296655,12.8829577 C13.9524824,12.8970423 13.9764261,12.9122535 14.0009331,12.9302817 L14.0009331,12.9778873 C14.0175528,12.9852113 14.0344542,12.9939437 14.0502289,13.0012676 L14.0502289,13.0252113 C14.0814965,13.0356338 14.1133275,13.0412676 14.1471303,13.0494366 C14.1648768,13.0756338 14.179243,13.0984507 14.1967077,13.1212676 L14.2181162,13.1212676 L14.2181162,13.1973239 L14.2417782,13.1973239 L14.2417782,13.2435211 C14.2595246,13.2508451 14.2750176,13.2595775 14.2916373,13.2688732 L14.2916373,13.3184507 C14.3254401,13.3404225 14.3536092,13.3646479 14.3888204,13.3874648 C14.3958627,13.4049296 14.4029049,13.4229577 14.4113556,13.4356338 L14.4603697,13.4356338 C14.4696655,13.4542254 14.4775528,13.4711268 14.4831866,13.4852113 L14.5091021,13.4852113 L14.5091021,13.534507 L14.5327641,13.534507 L14.5327641,13.6297183 L14.5561444,13.6297183 C14.5967077,13.7108451 14.5524824,13.7221127 14.6544542,13.7519718 L14.6544542,13.7987324 C14.7420599,13.8508451 14.8217782,13.9533803 14.8713556,14.0392958 C14.8772711,14.0716901 14.8876937,14.105493 14.895581,14.1390141 C14.9136092,14.1449296 14.9291021,14.1556338 14.9434683,14.1609859 L14.9434683,14.2347887 C14.9590392,14.2444693 14.9752236,14.2531261 14.991919,14.2607042 L14.991919,14.3085915 L15.0169894,14.3085915 L15.0169894,14.55 L14.991919,14.55 L14.991919,14.5976056 L14.9696655,14.5976056 L14.9696655,14.621831 L14.991919,14.621831 L14.991919,14.7902817 C14.9747359,14.7998592 14.9598063,14.81 14.9434683,14.8156338 L14.9434683,14.8874648 L14.919243,14.8874648 L14.919243,14.9604225 L14.895581,14.9604225 L14.895581,14.9843662 C14.8851585,15.0730986 14.9499472,15.1204225 14.9696655,15.1784507 C14.991919,15.2592958 14.9676937,15.5905634 14.9434683,15.6367606 C14.9282256,15.6465058 14.9122095,15.6549849 14.895581,15.6621127 L14.895581,15.7835211 L14.8713556,15.7835211 C14.8644987,15.88033 14.8554823,15.9769737 14.8443134,16.0733803 C14.7902289,16.1142254 14.735581,16.1561972 14.680088,16.1925352 C14.6620599,16.274507 14.6454401,16.3553521 14.6293838,16.4350704 L14.5561444,16.4843662 C14.485639,16.5649989 14.4431433,16.6662969 14.4350176,16.7730986 L14.2916373,16.8226761 C14.2831866,16.8367606 14.2747359,16.8553521 14.2668486,16.8683099 C14.2341677,16.8755688 14.2018338,16.8843103 14.1699472,16.894507 C14.1648768,16.9102817 14.1544542,16.9288732 14.1471303,16.9440845 L14.099243,16.9440845 C14.0902289,16.9598592 14.0817782,16.9761972 14.0736092,16.9914085 C14.0406514,16.9976056 14.0085387,17.0083099 13.9764261,17.0147887 L13.9764261,17.0409859 L13.9296655,17.0409859 L13.9296655,17.0623944 C13.8313556,17.0576056 13.7375528,17.0471831 13.6389613,17.0409859 L13.6389613,17.0623944 C13.590719,17.0802395 13.5420673,17.0969577 13.4930458,17.1125352 C13.4767077,17.1787324 13.487412,17.1669014 13.4214965,17.1860563 C13.3631866,17.2367606 13.2930458,17.2021127 13.2288204,17.2330986 C13.2181162,17.2505634 13.2113556,17.2666197 13.20375,17.2823944 L13.1552993,17.2823944 C13.1409331,17.3119718 13.1231866,17.3469014 13.1068486,17.3776056 L13.0589613,17.3776056 C13.0524824,17.3933803 13.0417782,17.4102817 13.035581,17.4277465 C13.0105106,17.433662 12.9848768,17.4438028 12.9634683,17.4494366 L12.9634683,17.4759155 L12.8893838,17.4759155 L12.8662852,17.5232394 L12.8189613,17.5232394 C12.8102289,17.5390141 12.800088,17.5567606 12.791919,17.5728169 L12.7434683,17.5728169 L12.7434683,17.5956338 C12.6944542,17.6128169 12.6468486,17.625493 12.5981162,17.6432394 L12.5981162,17.6705634 L12.4530458,17.6705634 C12.4472086,17.6530853 12.4391622,17.6364246 12.4291021,17.6209859 C12.3905106,17.6257746 12.3510739,17.6387324 12.3102289,17.6432394 C12.2203697,17.6387324 12.1322007,17.6257746 12.0426232,17.6209859 L12.0426232,17.6432394 L11.9952993,17.6432394 C11.9888204,17.6609859 11.9781162,17.6761972 11.9710739,17.6947887 C11.9398063,17.7021127 11.9062852,17.7066197 11.8769894,17.7178873 L11.8769894,17.7440845 C11.8122974,17.7339904 11.7474004,17.7252561 11.6823415,17.7178873 C11.6733275,17.7573239 11.6660035,17.7964789 11.6572711,17.8353521 C11.5285387,17.8539437 11.3983979,17.8708451 11.2724824,17.8880282 L11.2724824,17.9091549 C11.1769894,17.9043662 11.0772711,17.8933803 10.9826232,17.8880282 L10.9826232,17.9091549 L10.9296655,17.9091549 C10.9240317,17.9277465 10.9161444,17.9435211 10.9085387,17.9587324 C10.8262852,18.0133803 10.7944542,17.9643662 10.76375,18.0801408 C10.6680368,18.0967719 10.5710368,18.1048788 10.4738908,18.1043662 C10.4738908,17.981831 10.5014965,17.9502817 10.5243134,17.8621127 C10.3860035,17.8328169 10.3685387,17.7688732 10.1845951,17.7652113 C10.1583979,17.7967606 10.1333275,17.8012676 10.1093838,17.8356338 L10.0865669,17.8356338 L10.0865669,17.8621127 L10.1093838,17.8621127 L10.1093838,18.0330986 C10.0620599,18.0716901 10.0116373,18.1116901 9.96459507,18.1508451 L9.96459507,18.1759155 L9.84544014,18.1759155 C9.81417254,18.2170423 9.78065141,18.2561972 9.74797535,18.2973239 C9.6693838,18.3066197 9.58628521,18.3142254 9.50572183,18.3240845 L9.50572183,18.3449296 L9.45727113,18.3449296 L9.45727113,18.3702817 L9.36318662,18.3702817 L9.36318662,18.3964789 L9.28797535,18.3964789 L9.28797535,18.4207042 C9.23304577,18.4269014 9.17558099,18.4350704 9.11924296,18.441831 L9.11924296,18.4671831 C9.04769366,18.4742254 8.9722007,18.4832394 8.9009331,18.4933803 L8.9009331,18.5147887 C8.87163732,18.5257746 8.83642606,18.5322535 8.80684859,18.5395775 C8.79051056,18.5621127 8.77332746,18.5883099 8.75755282,18.613662 C8.71051056,18.6192958 8.66121479,18.6305634 8.61445423,18.6384507 L8.61445423,18.6612676 L8.56515845,18.6612676 L8.56515845,18.685493 L8.46769366,18.685493 C8.45839789,18.7012676 8.45135563,18.7170423 8.44375,18.7319718 L8.39670775,18.7319718 C8.37924296,18.7561972 8.36375,18.7812676 8.34741197,18.8066197 C8.31389085,18.8139437 8.28262324,18.8226761 8.24966549,18.83 C8.24121479,18.8457746 8.23276408,18.8615493 8.22346831,18.8773239 C8.12825704,18.9091549 8.02966549,18.9446479 7.93445423,18.9753521 C7.90431338,19.0147887 7.87135563,19.0553521 7.83980634,19.0956338 C7.80769366,19.1038028 7.77642606,19.1116901 7.74149648,19.1198592 C7.73191901,19.1350704 7.7265669,19.153662 7.7181162,19.1691549 L7.66769366,19.1691549 C7.63642606,19.2085915 7.60572183,19.2497183 7.57276408,19.2877465 C7.51924296,19.3052113 7.46121479,19.3212676 7.40290493,19.3384507 L7.40290493,19.3846479 C7.38799328,19.3946192 7.3721434,19.4031102 7.35558099,19.41 L7.35558099,19.4826761 C7.33956346,19.4919359 7.32290077,19.5000319 7.30572183,19.5069014 L7.30572183,19.5567606 C7.25079225,19.5956338 7.19304577,19.6347887 7.13867958,19.6750704 L7.08797535,19.6750704 C6.95107394,19.7505634 6.92375,19.8342254 6.70262324,19.8449296 L6.70262324,19.6750704 C6.75107394,19.653662 6.80036972,19.6021127 6.84797535,19.5798592 C6.88994718,19.5716901 6.92713028,19.5640845 6.97022887,19.5567606 L6.97022887,19.5322535 C7.01867958,19.4919718 7.0409331,19.4559155 7.11135563,19.4353521 L7.11135563,19.3846479 L7.16431338,19.3846479 C7.17614437,19.3271831 7.24036972,19.2238028 7.28403169,19.1925352 L7.33079225,19.1925352 C7.33924296,19.1767606 7.34684859,19.158169 7.3552993,19.146338 L7.3781162,19.146338 C7.40262324,19.0556338 7.42769366,18.9669014 7.45163732,18.8776056 C7.46741197,18.8694366 7.48572183,18.861831 7.50177817,18.8561972 L7.50177817,18.8069014 C7.53332746,18.7815493 7.56459507,18.7564789 7.5981162,18.7322535 L7.5981162,18.6857746 L7.76572183,18.5398592 C7.78346831,18.5150704 7.79839789,18.493662 7.8152993,18.4674648 L7.8609331,18.4674648 C7.87107394,18.4502817 7.8781162,18.4353521 7.88769366,18.4209859 C7.90375,18.4114085 7.91867958,18.4023944 7.93389085,18.3967606 C7.96600352,18.3556338 7.99783451,18.314507 8.02882042,18.2761972 L8.12769366,18.2761972 L8.12769366,18.2488732 L8.19896127,18.2488732 C8.23727113,18.07 8.29360915,18.0466197 8.41698944,17.9592958 C8.43389085,17.9367606 8.45051056,17.9097183 8.46684859,17.8885915 C8.49698944,17.8809859 8.53163732,17.8714085 8.56431338,17.8623944 C8.57135563,17.8471831 8.57980634,17.8294366 8.58797535,17.813662 C8.64375,17.765493 8.69755282,17.7184507 8.75670775,17.6711268 L8.75670775,17.6215493 C8.77248239,17.6133803 8.78994718,17.6038028 8.80600352,17.5961972 L8.80600352,17.5733803 C8.86713028,17.5080282 8.94544014,17.4829577 8.97163732,17.3784507 L9.02318662,17.3784507 L9.02318662,17.3316901 C9.05878324,17.3243862 9.09176376,17.3076527 9.11867958,17.2832394 L9.11867958,17.258169 C9.16882042,17.2421127 9.21727113,17.225493 9.26572183,17.2105634 C9.30346831,17.1604225 9.34177817,17.1133803 9.38600352,17.0635211 C9.4352993,17.0483099 9.48205986,17.0328169 9.53163732,17.0159155 L9.62882042,16.8956338 C9.64350718,16.8853839 9.65916999,16.8766089 9.67558099,16.8694366 L9.67558099,16.8238028 C9.70713028,16.7992958 9.74149648,16.7742254 9.77332746,16.7511268 L9.77332746,16.7035211 C9.78994718,16.6942254 9.80459507,16.6857746 9.82177817,16.6773239 L9.82177817,16.6550704 C9.83558099,16.6457746 9.85389085,16.6373239 9.86966549,16.63 L9.86966549,16.5804225 L9.8922007,16.5804225 C9.92515845,16.5392958 9.94769366,16.5215493 9.96431338,16.4587324 L10.0113556,16.4587324 C10.0617782,16.3770423 10.0905106,16.3880282 10.1581162,16.3404225 L10.1581162,16.3156338 C10.1978345,16.2826761 10.239243,16.2511268 10.279243,16.2204225 L10.279243,16.1697183 L10.3029049,16.1697183 C10.3364261,16.1353521 10.3136092,16.138169 10.3750176,16.1223944 L10.3750176,16.0739437 L10.4248768,16.0739437 C10.5219713,15.9613203 10.6181249,15.8478891 10.7133275,15.733662 L10.7631866,15.733662 C10.779243,15.7111268 10.7938908,15.6860563 10.8102289,15.6626761 L10.8586796,15.6626761 C10.8676937,15.6373239 10.8741725,15.6119718 10.8812148,15.5911268 L10.9079754,15.5911268 C10.9465669,15.5469014 10.959243,15.5322535 11.028257,15.5170423 C11.0423415,15.4640845 11.0468486,15.4576056 11.0767077,15.421831 L11.1012148,15.421831 L11.1012148,15.3716901 C11.115581,15.3623944 11.1330458,15.3576056 11.1505106,15.3474648 L11.1505106,15.2995775 C11.1761444,15.2838028 11.1981162,15.266338 11.2212148,15.2494366 C11.2316373,15.2178873 11.2375528,15.1869014 11.247412,15.154507 L11.2716373,15.154507 C11.2916373,15.0916901 11.2502289,15.0423944 11.247412,15.0097183 C11.2541725,14.8970423 11.2617782,14.7809859 11.2716373,14.6685915 L11.247412,14.6685915 C11.2541725,14.5978873 11.2617782,14.5269014 11.2716373,14.4533803 L11.247412,14.4533803 C11.2375528,14.4187324 11.2316373,14.3869014 11.2212148,14.3561972 C11.1761444,14.3142254 11.1248768,14.2787324 11.0764261,14.2347887 L11.0764261,14.1871831 C11.0603697,14.1790141 11.0460035,14.1722535 11.0279754,14.1609859 L11.0279754,14.0902817 L11.0043134,14.0902817 L11.0043134,14.0390141 L10.9820599,14.0390141 L10.9820599,13.9215493 L10.9572711,13.9215493 L10.9572711,13.8719718 C10.9288204,13.8550704 10.9076937,13.8404225 10.8809331,13.8226761 L10.8809331,13.7516901 L10.8583979,13.7516901 C10.8431866,13.6612676 10.827412,13.5747887 10.8099472,13.4852113 C10.7939133,13.4782527 10.7782153,13.4705447 10.7629049,13.4621127 L10.7629049,13.4128169 C10.7302289,13.3874648 10.6981162,13.3646479 10.6654401,13.3404225 L10.6654401,13.2902817 C10.6505106,13.2838028 10.6341725,13.278169 10.6167077,13.2688732 L10.6167077,13.2201408 L10.5927641,13.2201408 C10.5783979,13.13 10.5614965,13.0412676 10.5454401,12.9539437 L10.5234683,12.9539437 C10.5060035,12.9043662 10.4893838,12.8578873 10.4730458,12.8083099 L10.4502289,12.8083099 L10.4502289,12.7598592 L10.4245951,12.7598592 C10.4159722,12.7117836 10.4078966,12.6636114 10.4003697,12.6153521 L10.3747359,12.6153521 L10.3747359,12.5415493 L10.3507923,12.5415493 L10.3507923,12.4708451 L10.3234683,12.4708451 L10.3234683,12.3967606 L10.3026232,12.3967606 L10.3026232,12.3232394 L10.2789613,12.3232394 C10.2631866,12.114507 10.248257,11.9057746 10.2302289,11.6978873 L10.2076937,11.6978873 L10.2076937,11.6240845 L10.1840317,11.6240845 L10.1840317,11.5519718 L10.1578345,11.5519718 C10.1327641,11.4719718 10.1778345,11.4133803 10.1840317,11.3564789 C10.1747359,11.2150704 10.1657218,11.0674648 10.1578345,10.9221127 C10.1414965,10.8671831 10.0795246,10.786338 10.1088204,10.6809859 L10.1324824,10.6809859 L10.1324824,10.5361972 L10.1575528,10.5361972 L10.1575528,10.39 L10.18375,10.39 L10.18375,10.3209859 L10.207412,10.3209859 C10.2231866,10.2285915 10.2386796,10.1390141 10.2558627,10.0525352 L10.2786796,10.0525352 C10.2876937,9.96380282 10.295581,9.87535211 10.3023415,9.78492958 L10.3231866,9.78492958 L10.3231866,9.71309859 L10.3505106,9.71309859 L10.3505106,9.64126761 L10.3744542,9.64126761 L10.3744542,9.56859155 L10.400088,9.56859155 L10.400088,9.51929577 L10.4243134,9.51929577 L10.4243134,9.44746479 C10.4406514,9.43901408 10.4550176,9.43169014 10.4727641,9.4215493 L10.4727641,9.37591549 C10.4891021,9.36746479 10.5054401,9.35901408 10.5231866,9.35056338 L10.5231866,9.30408451 L10.5451585,9.30408451 C10.5522007,9.23028169 10.5614965,9.15957746 10.5699472,9.08605634 C10.58375,9.07676056 10.599243,9.07 10.6167077,9.06014085 L10.6167077,9.01450704 C10.6406514,8.99676056 10.6654401,8.98070423 10.6902289,8.96492958 L10.6902289,8.9156338 L10.7130458,8.9156338 L10.7130458,8.86802817 L10.7406514,8.86802817 L10.7406514,8.79619718 L10.7631866,8.79619718 L10.7631866,8.6984507 L10.7851585,8.6984507 C10.7938908,8.67338028 10.8043134,8.65112676 10.8102289,8.62577465 C10.8344542,8.61 10.8586796,8.59422535 10.8812148,8.5784507 L10.8812148,8.50577465 C10.898444,8.49921507 10.9145874,8.49009881 10.9291021,8.47873239 L10.9291021,8.43197183 C10.9964261,8.37788732 11.0609331,8.32014085 11.1251585,8.26323944 L11.1251585,8.21591549 C11.1412481,8.20580172 11.1584511,8.19757832 11.1764261,8.19140845 C11.1809331,8.12549296 11.1899472,8.06211268 11.1983979,7.99760563 C11.2772711,7.88492958 11.3572711,7.77197183 11.4412148,7.65929577 L11.5620599,7.65929577 C11.5691021,7.57985915 11.5761444,7.49704225 11.5860035,7.41957746 C11.6017782,7.40915493 11.619243,7.40211268 11.6307923,7.39450704 L11.6307923,7.34605634 L11.6569894,7.34605634 C11.6660035,7.31253521 11.6733275,7.27901408 11.6820599,7.24887324 L11.7076937,7.24887324 L11.7076937,7.19873239 L11.7271303,7.19873239 L11.7271303,7.15197183 L11.7783979,7.10464789 L11.7783979,7.05422535 C11.7933275,7.04690141 11.8085387,7.03929577 11.8251585,7.0328169 L11.8251585,6.98352113 C11.8420599,6.97591549 11.859243,6.96380282 11.8769894,6.95732394 L11.8769894,6.91 C11.9006514,6.89394366 11.9245951,6.87732394 11.9451585,6.86239437 C11.9564261,6.82802817 11.9629049,6.79619718 11.9713556,6.76464789 C11.9888204,6.76014085 12.0034683,6.74971831 12.0203697,6.74211268 C12.027412,6.70774648 12.0369894,6.67507042 12.0431866,6.64323944 C12.0848768,6.61366197 12.1240317,6.57873239 12.1660035,6.5471831 C12.1817782,6.52098592 12.1952993,6.49788732 12.2144542,6.47535211 L12.2386796,6.47535211 L12.2386796,6.42577465 C12.2871303,6.38661972 12.3350176,6.34577465 12.3817782,6.30549296 C12.4133275,6.21619718 12.4479754,6.12859155 12.4806514,6.03901408 L12.527412,6.03901408 L12.527412,5.99056338 C12.599243,5.95140845 12.6736092,5.91140845 12.7445951,5.87225352 C12.7634683,5.8071831 12.7843134,5.79 12.820088,5.75028169 L12.8431866,5.75028169 L12.8431866,5.70267606 L12.867412,5.70267606 C12.8905106,5.67 12.9138908,5.63450704 12.9378345,5.60577465 C12.9558627,5.59422535 12.9699472,5.58802817 12.9862852,5.58042254 L12.9862852,5.5328169 C13.020088,5.50690141 13.0538908,5.48239437 13.0860035,5.45929577 L13.0860035,5.41 C13.1003697,5.40352113 13.1186796,5.39507042 13.1327641,5.38746479 C13.171919,5.34014085 13.2133275,5.28859155 13.2550176,5.24098592 C13.3071303,5.22521127 13.3665669,5.20661972 13.4234683,5.19366197 L13.4234683,5.16746479 C13.4809331,5.12464789 13.511919,5.07028169 13.5922007,5.04633803 C13.6178345,4.96323944 13.6612148,4.97816901 13.7147359,4.92802817 C13.7629049,4.86267606 13.8093838,4.7984507 13.8598063,4.73422535 L13.907412,4.73422535 C13.915581,4.71816901 13.9240317,4.70239437 13.931919,4.68859155 L13.9786796,4.68859155 L13.9786796,4.66042254 L14.0276937,4.66042254 L14.0276937,4.63619718 L14.1240317,4.63619718 C14.1324824,4.62042254 14.1395246,4.60549296 14.1496655,4.58971831 L14.199243,4.58971831 L14.199243,4.56352113 C14.2336092,4.53197183 14.2293838,4.55225352 14.2443134,4.49338028 L14.2941725,4.49338028 C14.3183979,4.45169014 14.3426232,4.41338028 14.3662852,4.37225352 C14.4524824,4.30521127 14.520088,4.36380282 14.5586796,4.22577465 L14.6071303,4.22577465 L14.6071303,4.17929577 L14.6569894,4.17929577 L14.6569894,4.12887324 L14.7023415,4.12887324 C14.7381162,4.00774648 14.7969894,4.05253521 14.8468486,3.98239437 L14.8468486,3.93394366 C14.8981162,3.89478873 14.9460035,3.8556338 14.9944542,3.81366197 C15.0612148,3.72126761 15.1389613,3.57957746 15.259243,3.54887324 C15.2778345,3.47450704 15.3003697,3.4956338 15.3076937,3.47450704 C15.3243134,3.4043662 15.3406514,3.33 15.355581,3.25901408 C15.4468486,3.17873239 15.5350176,3.09591549 15.6240317,3.0184507 L15.6722007,3.0184507 C15.6783679,3.0010974 15.6865958,2.9845471 15.6967077,2.96915493 L15.8178345,2.96915493 L15.8178345,2.94295775 C15.928257,2.95338028 16.0429049,2.96267606 16.1541725,2.96915493 L16.1541725,2.99140845 C16.1781162,3.00183099 16.2029049,3.00915493 16.2251585,3.01873239 C16.235714,3.03292366 16.2446874,3.04822572 16.251919,3.0643662 C16.3231866,3.07450704 16.3969894,3.08014085 16.4685387,3.08943662 C16.4927641,3.13056338 16.5169894,3.16774648 16.5440317,3.21056338 C16.5812148,3.21985915 16.6226232,3.22746479 16.6629049,3.2356338 L16.6629049,3.25901408 L16.7099472,3.25901408 C16.7583979,3.29901408 16.8085387,3.34014085 16.8558627,3.38014085 L16.8558627,3.45169014 L16.8814965,3.45169014 C16.8902289,3.48352113 16.8952993,3.51619718 16.9045951,3.54859155 L16.9285387,3.54859155 C16.9513556,3.66042254 16.9752993,3.77422535 17.0026232,3.88690141 L17.0251585,3.88690141 L17.0251585,3.93366197 C17.0727641,3.97647887 17.1217782,4.0156338 17.1705106,4.05760563 L17.1705106,4.24971831 C17.0975528,4.31366197 17.0905106,4.52070423 17.0705106,4.63619718 L17.0705106,4.63619718 Z" id="路径" fill="#231815"></path>
            <path d="M30.0950176,9.96661972 L30.0950176,8.89084507 L26.1834683,8.89084507 L26.1834683,7.33591549 L30.0950176,7.33591549 L30.0950176,6.26126761 L20.787412,6.26126761 L20.787412,7.33591549 L24.6440317,7.33591549 L24.6440317,8.89084507 L20.787412,8.89084507 L20.787412,9.96661972 L24.0026232,9.96661972 L20.2603697,13.7342254 L22.2088204,13.7342254 L25.3688204,10.5240845 L28.5116373,13.7838028 L30.5307923,13.7838028 L26.8017782,9.96690141 L30.0950176,9.96690141 L30.0950176,9.96661972 Z M38.427412,6.10549296 L33.3223415,6.10549296 L33.3223415,6.98915493 L38.427412,6.98915493 L38.427412,6.10549296 Z M33.3223415,9.19478873 L38.427412,9.19478873 L38.427412,9.18633803 L38.4372711,9.18633803 L38.4372711,7.42830986 L37.5538908,7.42830986 L37.5538908,8.31 L34.1944542,8.31 L34.1944542,7.42830986 L33.3130458,7.42830986 L33.3130458,9.18633803 L33.3220599,9.18633803 L33.3220599,9.19478873 L33.3223415,9.19478873 Z M34.1944542,9.61225352 L33.3130458,9.61225352 L33.3130458,13.6342254 L34.1944542,13.6342254 L34.1944542,9.61225352 Z M38.3947359,13.6342254 L38.3947359,9.61225352 L37.5136092,9.61225352 L37.5136092,13.6342254 L38.3947359,13.6342254 Z M54.8479754,6.67225352 L52.3927641,6.67225352 L52.3927641,6.01901408 L51.0834683,6.01901408 L51.0834683,6.67225352 L48.7026232,6.67225352 L48.7026232,7.55394366 L54.8479754,7.55394366 L54.8479754,6.67225352 Z M54.8479754,8.18802817 L48.7026232,8.18802817 L48.7026232,9.16492958 L54.8479754,9.16492958 L54.8479754,8.18802817 Z M54.8479754,9.77 L48.7026232,9.77 L48.7026232,10.7494366 L54.8479754,10.7494366 L54.8479754,9.77 Z M54.8429049,11.3601408 L53.7372711,11.3601408 L53.7372711,12.7004225 L49.987412,12.7004225 L49.987412,11.3601408 L48.7023415,11.3601408 L48.7023415,13.6446479 L54.8429049,13.6446479 L54.8429049,11.3601408 Z M40.5088204,12.8074648 L38.8688204,12.8074648 L38.8688204,13.6902817 L43.227412,13.6902817 L43.227412,12.2342254 L42.3426232,12.2342254 L42.3426232,12.8074648 L41.3907923,12.8074648 L41.3907923,11.8130986 L43.1944542,11.8130986 L43.1944542,6.55028169 L41.3907923,6.55028169 L41.3907923,6.07478873 L40.5088204,6.07478873 L40.5088204,6.55028169 L38.8358627,6.55028169 L38.8358627,6.55507042 L38.8034683,6.55507042 L38.8034683,11.8133803 L40.5091021,11.8133803 L40.5091021,12.8074648 L40.5088204,12.8074648 Z M41.3907923,7.43225352 L42.3107923,7.43225352 L42.3107923,10.9314085 L41.3907923,10.9314085 L41.3907923,7.43225352 L41.3907923,7.43225352 Z M39.6865669,10.9314085 L39.6865669,7.43225352 L40.5088204,7.43225352 L40.5088204,10.9314085 L39.6865669,10.9314085 L39.6865669,10.9314085 Z M37.4229049,9.68126761 L36.548257,9.68126761 L35.8783979,10.7776056 L35.2403697,9.68126761 L34.3065669,9.68126761 L35.468257,11.4942254 L35.468257,11.718169 L34.4443134,11.718169 L34.4443134,12.5995775 L35.468257,12.5995775 L35.468257,13.7023944 L36.3505106,13.7023944 L36.3505106,12.5995775 L37.3057218,12.5995775 L37.3057218,11.718169 L36.3505106,11.718169 L36.3505106,11.51 L37.4229049,9.68126761 Z M46.6986796,10.726338 L46.6986796,13.593662 L47.8105106,13.593662 L47.8105106,8.83394366 L47.7226232,8.83394366 C48.1206514,7.81704225 48.3234683,6.80014085 48.3569894,6.06295775 L47.1189613,6.06295775 C46.8448768,8.42126761 45.6795246,10.7776056 45.408257,10.9491549 L46.5279754,10.9491549 C46.5871303,10.8761972 46.6434683,10.8015493 46.6986796,10.726338 L46.6986796,10.726338 Z" id="形状" fill="#DD1615"></path>
        </g>
    </g>
</svg>