<?xml version="1.0" encoding="UTF-8"?>
<svg width="124px" height="24px" viewBox="0 0 124 24" version="1.1" xmlns="http://www.w3.org/2000/svg" xmlns:xlink="http://www.w3.org/1999/xlink">
    <title>↳Icon 图标/iconfont/发现/启明星辰入侵防御@1x</title>
    <g id="↳Icon-图标/iconfont/发现/启明星辰入侵防御" stroke="none" stroke-width="1" fill="none" fill-rule="evenodd">
        <g id="启明星辰" transform="translate(16.116129, 4.000000)" fill-rule="nonzero">
            <path d="M7.4436129,3.92258065 C8.11458065,3.264 8.68232258,2.64567742 9.30787097,2.10477419 C10.816,0.813419355 12.5935484,0.316903226 14.564129,0.452129032 C16.4221935,0.58116129 18.0397419,1.28722581 19.3372903,2.60954839 C19.9298065,3.21445161 20.384,3.95974194 20.859871,4.67406452 C21.0467097,4.95277419 21.188129,5.00748387 21.5194839,4.91974194 C23.0750968,4.50683871 24.635871,4.10632258 26.2100645,3.776 C26.6766452,3.67793548 27.2134194,3.75225806 27.6851613,3.87922581 C28.8908387,4.18890323 29.3367742,5.09419355 28.923871,6.30709677 C28.4562581,7.67896774 27.5499355,8.76180645 26.5496774,9.75690323 C24.5883871,11.7027097 22.2544516,13.1210323 19.7367742,14.2172903 C18.3587097,14.8170323 16.955871,15.4725161 15.4972903,15.7594839 C10.8954839,16.6647742 7.15148387,13.6072258 6.46916129,9.54116129 C6.45401058,9.39816822 6.44608652,9.2545016 6.44541935,9.11070968 L9.82709677,11.4229677 L9.99741935,11.3042581 C9.50916129,9.92103226 9.03019355,8.54606452 8.53677419,7.13187097 C8.15793548,7.33832258 8.20748387,7.59225806 8.28593548,7.85445161 C8.50270968,8.58735484 8.71845161,9.32129032 8.97445161,10.1904516 L6.33187097,8.39329032 C6.36490323,8.00619355 6.37625806,7.38890323 6.47948387,6.78709677 C6.57135484,6.24825806 6.75303226,5.72387097 6.91612903,5.19948387 C7.04412903,4.78658065 7.32903226,4.62554839 7.77703226,4.62967742 C8.94658065,4.64103226 10.1171613,4.62967742 11.2867097,4.58012903 C11.5726452,4.56877419 11.8503226,4.384 12.132129,4.27870968 L12.0908387,4.07225806 C11.9206987,4.03612291 11.7482317,4.01197753 11.5747097,4 C10.3700645,4 9.16541935,3.99070968 7.96180645,4.04129032 C7.65212903,4.05367742 7.35793548,4.2756129 6.99148387,4.42941935" id="路径" fill="#DF4048"></path>
            <path d="M0.0216774194,4.27664516 L0.0216774194,4.27870968 L4.50064516,4.27870968 C4.512,4.71122581 4.25187097,4.73083871 3.94219355,4.73083871 C3.25574194,4.72877419 2.57032258,4.73909677 1.88387097,4.7483871 C1.76048116,4.76706751 1.63867407,4.79501758 1.51948387,4.832 C1.98193548,5.18606452 2.35458065,5.47096774 2.72412903,5.75896774 C2.84696774,5.85187097 2.97496774,5.93858065 3.09677419,6.03354839 C4.3076129,6.96258065 4.30245161,6.96258065 3.81935484,8.40774194 C3.57470968,9.15612903 3.37341935,9.92206452 3.09987097,10.6590968 C2.97909677,10.9790968 2.71793548,11.2464516 2.52077419,11.5375484 L2.52077419,11.5375484 L2.31432258,11.4167742 L2.31432258,11.4167742 L3.34658065,8.13419355 C3.38270968,8.0196129 3.41264516,7.90193548 3.45909677,7.79148387 C3.68309677,7.26709677 3.52619355,6.93987097 3.03793548,6.61780645 C1.99741935,5.92929032 1.00954839,5.16129032 0,4.42632258 L0,4.42632258 L0.0216774194,4.27664516 Z M6.06348387,0 C6.51974194,1.2996129 6.97703226,2.59819355 7.4436129,3.92258065 L7.4436129,3.92258065 L6.99148387,4.4283871 C6.74167742,3.70890323 6.47019355,2.93987097 6.208,2.16877419 C6.06451613,1.74658065 5.89522581,1.32851613 5.81677419,0.893935484 C5.76619355,0.609032258 5.85703226,0.299354839 5.88387097,0 L5.88387097,0 Z" id="形状结合" fill="#2970D0"></path>
            <path d="M41.6774194,2.63329032 C41.6774194,2.64774194 41.6877419,2.70554839 41.6774194,2.70554839 C40.4541935,3.17729032 40.0072258,4.31793548 39.4384516,5.33780645 C38.1687742,7.61393548 36.9424516,9.90967742 35.6913548,12.1940645 C35.6098065,12.3458065 35.4673548,12.4655484 35.2784516,12.6864516 C35.1669677,12.3571613 35.0792258,12.1424516 35.0193548,11.9194839 C34.3390968,9.38322581 33.6557419,6.84903226 32.992,4.30967742 C32.8061935,3.59845161 32.571871,2.96258065 31.675871,2.85935484 L31.675871,2.85935484 L31.7419355,2.70348387 L35.4105806,2.70348387 L35.4477419,2.75509677 L34.9243871,2.95535484 C34.5218065,3.10503226 34.2709677,3.39819355 34.3741935,3.8276129 C34.9089032,5.95303226 35.4704516,8.07225806 36.0258065,10.1935484 L36.0258065,10.1935484 L36.1682581,10.2203871 C36.4252903,9.77754839 36.6978065,9.34090323 36.9414194,8.88980645 C37.7885591,7.32283871 38.6301935,5.75277419 39.4663226,4.1796129 C39.5415842,4.00867312 39.6050447,3.8327773 39.6562581,3.65316129 C39.8069677,3.23819355 39.6583226,3.00283871 39.2350968,2.8996129 C39.1067609,2.85861004 39.0048614,2.76014541 38.9594839,2.63329032 L38.9594839,2.63329032 Z M58.7447742,5.48232258 C59.8193548,5.43277419 59.8255484,5.43380645 59.6738065,6.48154839 C59.483871,7.79148387 59.2825806,9.09729032 59.0864516,10.404129 C59.0781935,10.4536774 59.0668387,10.5063226 59.0606452,10.5569032 C58.971871,11.3465806 59.0689032,11.4580645 59.8864516,11.5375484 C59.227871,11.7832258 58.5723871,12.0381935 57.9065806,12.260129 C57.8611613,12.2756129 57.6547097,12.0557419 57.6547097,11.940129 C57.6433548,11.6913548 57.7135484,11.4384516 57.7744516,11.0172903 C57.3698065,11.3383226 57.1055484,11.6232258 56.7793548,11.7904516 C56.347871,12.0092903 55.8854194,12.2343226 55.4188387,12.2818065 C54.5259355,12.3716129 53.8683871,11.6077419 53.9922581,10.7034839 C54.180129,9.344 54.3865806,7.98864516 54.5930323,6.63225806 C54.6787097,6.07483871 54.5218065,5.87974194 53.7806452,5.59070968 L53.7806452,5.59070968 L55.904,5.59070968 C55.7976774,6.31948387 55.6872258,7.05651613 55.584,7.7956129 C55.4580645,8.69574194 55.3455484,9.59690323 55.2113548,10.496 C55.1070968,11.195871 55.6923871,11.6180645 56.4149677,11.4580645 C57.2287203,11.2614831 57.8414808,10.5903061 57.9633548,9.76206452 C58.1212903,8.72980645 58.304,7.69754839 58.464,6.66529032 C58.5816774,5.89832258 58.4701935,5.75587097 57.6990968,5.55767742 C57.8590968,5.54012903 58.0180645,5.5163871 58.1780645,5.50503226 C58.3669677,5.4916129 58.555871,5.49058065 58.7447742,5.48232258 Z M61.4792258,6.90270968 C61.8467097,5.68051613 63.3218065,4.94141935 64.3695484,5.35432258 C64.6926452,5.48232258 65.1096774,5.37393548 65.5896774,5.38322581 C65.5122581,5.96851613 65.4255484,6.6363871 65.3378065,7.30425806 L65.3378065,7.30425806 L65.1953548,7.32903226 C65.1489032,7.17006452 65.0952258,7.01212903 65.056,6.85109677 C64.7710968,5.66090323 63.6294194,5.37703226 62.6219355,6.0603871 C62.176,6.36490323 62.2007742,7.14941935 62.6787097,7.5003871 C63.2701935,7.93496774 63.9267097,8.27974194 64.5367742,8.69264516 C65.6392258,9.43380645 65.4585806,11.1607742 64.2745806,11.7894194 C63.3796129,12.2642581 62.4929032,12.3210323 61.5390968,12.0846452 C61.2923871,12.0227097 61.0178065,12.0753548 60.667871,12.0753548 C60.7700645,11.396129 60.8825806,10.6570323 60.9940645,9.91793548 L60.9940645,9.91793548 L61.1261935,9.91277419 C61.179871,10.1470968 61.2242581,10.3824516 61.2830968,10.6147097 C61.5029677,11.4952258 62.4485161,12.0536774 63.3135484,11.7935484 C63.8307097,11.6387097 64.0578065,11.2165161 64.1723871,10.7251613 C64.2694194,10.304 64.0990968,9.97677419 63.7594839,9.7476129 C63.1938065,9.36567742 62.6126452,9.02606452 62.0418065,8.63070968 C61.4709677,8.23535484 61.2789677,7.55922581 61.4792258,6.90270968 Z M48.6193548,5.3316129 C48.5873548,5.83535484 48.5636129,6.21625806 48.5305806,6.74064516 C48.9620645,6.41445161 49.2769032,6.1636129 49.604129,5.9323871 C49.7987701,5.79188291 50.0061245,5.66988939 50.2234839,5.568 C51.3372903,5.06219355 52.4170323,5.84051613 52.2663226,7.05754839 C52.1114839,8.29625806 51.9153548,9.53496774 51.7378065,10.7736774 C51.7254194,10.8583226 51.7171613,10.944 51.7058065,11.0286452 C51.6129032,11.7770323 51.6892903,11.9019355 52.356129,12.1424516 L52.356129,12.1424516 L49.4451613,12.1424516 C50.2472258,12.123871 50.4350968,11.5489032 50.5218065,10.9295484 C50.7045161,9.64129032 50.875871,8.34890323 51.0028387,7.05341935 C51.0627097,6.48670968 50.7096774,6.2276129 50.1336774,6.28025806 C49.4585806,6.34116129 48.9661935,6.74580645 48.4882581,7.16696774 C48.4149677,7.232 48.4036129,7.38167742 48.3850323,7.49522581 C48.1837419,8.71432258 47.9834839,9.93341935 47.7914839,11.1535484 C47.6944516,11.7594839 47.8637419,11.9659355 48.5708387,12.1723871 L48.5708387,12.1723871 L45.6670968,12.1723871 C46.4567742,12.0784516 46.5424516,11.4415484 46.6456774,10.8583226 C46.8418065,9.74348387 46.9945806,8.62245161 47.1618065,7.50348387 C47.3073548,6.52180645 47.2939355,6.50322581 46.2750968,6.28541935 L46.2750968,6.28541935 Z M42.1770323,5.26451613 C43.9277419,4.86812903 45.0931613,5.86632258 44.8887742,7.79045161 L44.8887742,7.79045161 L42.1016774,7.79045161 C41.6516129,7.79251613 41.2046452,7.79458065 40.7597419,7.8276129 C40.6348387,7.84103226 40.4304516,7.94116129 40.4087742,8.03406452 C40.1909677,8.9723871 40.5130323,10.2967742 41.3945806,10.7499355 C42.3814194,11.2578065 43.6541935,10.9264516 44.2188387,9.96335484 C44.3102522,9.80592615 44.4156218,9.65702679 44.5336774,9.51845161 C44.2023226,11.0131613 42.8717419,12.1352258 41.4369032,12.1610323 C40.5274839,12.1785806 39.7729032,11.6552258 39.424,10.6890323 C38.7705806,8.88567742 39.7914839,5.80025806 42.1770323,5.26451613 Z M69.5029677,5.26451613 C71.2536774,4.86812903 72.4190968,5.86632258 72.2157419,7.79045161 L72.2157419,7.79045161 L69.4286452,7.79045161 C68.9775484,7.79251613 68.5305806,7.79458065 68.0867097,7.8276129 C67.9607742,7.84103226 67.7563871,7.94116129 67.7347097,8.03406452 C67.5169032,8.9723871 67.8389677,10.2967742 68.7205161,10.7499355 C69.7083871,11.2578065 70.980129,10.9264516 71.5447742,9.96335484 C71.636544,9.80590361 71.7422583,9.65700538 71.8606452,9.51845161 C71.5282581,11.0131613 70.1976774,12.1352258 68.763871,12.1610323 C67.8544516,12.1785806 67.0988387,11.6552258 66.7499355,10.6890323 C66.0965161,8.88567742 67.1184516,5.80025806 69.5029677,5.26451613 Z M81.179871,6.08412903 C81.9045161,5.19845161 82.7829677,4.79174194 83.9504516,5.15509677 C84.2632258,5.25212903 84.6286452,5.16954839 85.0415484,5.16954839 C84.9496774,5.73006452 84.8371613,6.39896774 84.7256774,7.072 L84.7256774,7.072 L84.5842581,7.08645161 C84.5274839,6.86554839 84.4861935,6.64258065 84.4242581,6.42477419 C84.1548387,5.48645161 82.9016774,5.10451613 82.1605161,5.73316129 C81.8992725,5.93840285 81.755318,6.25873216 81.7752977,6.59035415 C81.7952775,6.92197614 81.9766497,7.22270502 82.2606452,7.39509677 C82.6632258,7.6603871 83.104,7.84825806 83.4993548,8.13522581 C83.8947097,8.42219355 84.347871,8.71329032 84.5883871,9.11380645 C85.0188387,9.83122581 84.5667097,11.0162581 83.8141935,11.4683871 C82.9305806,11.9989677 82.011871,12.1630968 81.0064516,11.8596129 C80.7494194,11.7821935 80.4500645,11.8482581 80.0836129,11.8482581 L80.0836129,11.8482581 L80.4129032,9.70322581 L80.6069677,9.68670968 C80.5774514,10.3006492 80.8423931,10.8918794 81.3202581,11.2784516 C81.7476129,11.6510968 82.6291613,11.712 83.0523871,11.3930323 C83.808,10.8232258 83.8059355,9.91483871 83.0265806,9.36567742 C82.5083871,9.00025806 81.9427097,8.69987097 81.4348387,8.32103226 C81.0965403,8.06367905 80.8780164,7.67933056 80.8298786,7.25700456 C80.7817409,6.83467856 80.9081652,6.41101202 81.179871,6.08412903 Z M87.3527742,5.89625806 C88.0505806,5.21703226 88.9228387,4.84645161 89.9334194,4.97341935 C91.1380645,5.12412903 91.8069677,6.01083871 91.6789677,7.21032258 C91.6356129,7.58916129 91.3765161,7.53341935 91.1545806,7.53341935 C90.0263226,7.55406452 88.8908387,7.57987097 87.7553548,7.55406452 C87.2175484,7.54167742 87.1019355,7.744 87.1019355,8.24877419 C87.1019355,9.17780645 87.2908387,10.0036129 88.1341935,10.5197419 C89.0549677,11.0843871 90.3163871,10.7127742 90.9987097,9.70425806 C91.0874839,9.57316129 91.168,9.43587097 91.2516129,9.30167742 L91.2516129,9.30167742 L91.3868387,9.38012903 C91.227871,9.68774194 91.1070968,10.0252903 90.9006452,10.2988387 C90.2152258,11.2082581 89.4647742,12.0030968 88.1620645,11.9205161 C87.2258065,11.8606452 86.2967742,11.2516129 86.1140645,10.3349677 C85.7806452,8.66270968 86.1006452,7.11948387 87.3527742,5.89625806 Z M75.3806452,5.02296774 C75.3569032,5.52051613 75.3372903,5.92929032 75.3156129,6.3803871 C75.8317419,6.00464516 76.2828387,5.65058065 76.7607742,5.34090323 C77.3130323,4.98580645 77.9354839,4.9476129 78.4629677,5.32232258 C78.9470968,5.66709677 79.1287742,6.22141935 79.0255484,6.8356129 C78.8469677,7.92051613 78.6694194,9.00335484 78.5011613,10.0882581 C78.453237,10.3747929 78.4294117,10.6648403 78.4299355,10.9553548 C78.4392258,11.5664516 78.5228387,11.6459355 79.1267097,11.7987097 L79.1267097,11.7987097 L76.2776774,11.7987097 C76.4830968,11.6851613 76.8196129,11.5994839 76.9899355,11.3754839 C77.1602581,11.1514839 77.1829677,10.8025806 77.2366452,10.5021935 C77.4152258,9.49058065 77.5793548,8.47690323 77.7465806,7.46322581 C77.8322581,6.96774194 77.9365161,6.40516129 77.4936774,6.06967742 C77.0508387,5.73419355 76.5574194,5.97470968 76.0898065,6.19767742 C75.4136774,6.52077419 75.0338065,6.96980645 74.9687742,7.75948387 C74.8882581,8.7483871 74.6477419,9.72283871 74.5331613,10.7096774 C74.4350968,11.5602581 74.5300645,11.6449032 75.3207742,11.8451613 L75.3207742,11.8451613 L72.4418065,11.8451613 C73.0508387,11.7243871 73.2335484,11.2743226 73.3202581,10.7375484 C73.5236129,9.48541935 73.7713548,8.23845161 73.9303226,6.98012903 C74.0376774,6.12232258 73.984,6.11612903 73.0694194,5.93135484 L73.0694194,5.93135484 Z M69.8694194,5.60722581 C69.0353548,5.51432258 67.9948387,6.42890323 67.9370323,7.3723871 L67.9370323,7.3723871 L69.7186332,7.37254002 L69.7186332,7.37254002 L70.5930323,7.36516129 C70.7034234,7.3511418 70.8008589,7.2861848 70.8562581,7.18967742 L70.8562581,7.18967742 C71.1112258,6.54554839 70.564129,5.67741935 69.8694194,5.60722581 Z M42.5434839,5.60516129 C41.7094194,5.51225806 40.6689032,6.42683871 40.6100645,7.37032258 L40.6100645,7.37032258 L42.3924301,7.37047551 L42.3924301,7.37047551 L43.2670968,7.36309677 C43.3774879,7.34907728 43.4749234,7.28412029 43.5303226,7.1876129 C43.7842581,6.54554839 43.2371613,5.67741935 42.5434839,5.60516129 Z M89.3532903,5.37290323 C88.5501935,5.21083871 87.5416774,6.04593548 87.3187097,7.11019355 L87.3187097,7.11019355 L90.2492903,7.11019355 C90.4258065,6.15535484 90.0872258,5.52154839 89.3532903,5.37290323 Z" id="形状结合" fill="#2970D0"></path>
            <path d="M27.6851613,3.87922581 C27.2134194,3.75741935 26.6766452,3.68309677 26.2100645,3.78116129 C24.635871,4.11148387 23.0750968,4.51303226 21.5194839,4.92490323 C21.188129,5.01264516 21.0467097,4.95896774 20.859871,4.67922581 L20.6740645,4.39948387 C22.7182578,8.2144578 21.3586142,12.9633777 17.6051613,15.1184516 C18.3215484,14.8407742 19.0276129,14.5218065 19.7274839,14.2172903 C22.2461935,13.1210323 24.5790968,11.7027097 26.5403871,9.75690323 C27.5447742,8.76180645 28.4510968,7.67896774 28.9145806,6.30812903 C29.3326452,5.09419355 28.8908387,4.18993548 27.6851613,3.87922581 Z" id="路径" fill="#2970D0"></path>
        </g>
    </g>
</svg>