<?xml version="1.0" encoding="UTF-8"?>
<svg width="124px" height="24px" viewBox="0 0 124 24" version="1.1" xmlns="http://www.w3.org/2000/svg" xmlns:xlink="http://www.w3.org/1999/xlink">
    <title>↳Icon 图标/iconfont/发现/中兴路由器@1x</title>
    <g id="↳Icon-图标/iconfont/发现/中兴路由器" stroke="none" stroke-width="1" fill="none" fill-rule="evenodd">
        <path d="M51.6031421,18.3555704 L56.5444676,5.767452 L56.5444676,2.03357094 L47.4443137,2.03357094 L47.4443137,5.6557764 L52.2627021,5.6557764 L47.0530651,19.4399925 C47.0307129,19.5069637 46.9971847,19.5740629 46.9748325,19.6411622 L46.9635711,19.6746478 L46.9635711,19.6859092 C46.9635711,19.7082614 46.9524377,19.7193948 46.9524376,19.7417897 C46.9413042,19.7753179 46.9300854,19.8200223 46.9300854,19.8536359 C46.9077333,19.9654395 46.8853384,20.0883338 46.8853384,20.2113988 C46.8853384,20.2561458 46.8965572,20.3119836 46.9076906,20.3567306 C46.9859232,21.2734261 47.7684629,21.9889093 48.7076812,21.9889092 L48.7299481,21.9889092 C48.7299481,22.0000426 48.7411668,21.9889092 48.7411668,21.9889092 L56.8351313,21.9889092 L56.8351313,18.355613 L51.6031421,18.355613 L51.6031421,18.3555704 Z M57.7071224,5.6557764 L60.7479152,5.6557764 L60.7590486,21.9889092 L64.3923875,21.9889092 L64.3700353,5.6557764 L67.3885185,5.6557764 L67.3885185,2.03357094 L57.7182559,2.03357094 L57.7071224,5.6557764 Z M77.114491,18.389056 L72.2515261,18.4002321 L72.2515261,13.514915 L76.8014751,13.514915 L76.8014751,9.92628047 L72.2515261,9.9374139 L72.2515261,5.6557764 L77.0921815,5.6557764 L77.0921815,2 L68.5959203,2 L68.5959203,20.4908011 C68.5959203,21.3180025 69.2890086,22 70.1498663,22 L77.1146616,22 L77.1146616,18.389056 L77.114491,18.389056 Z" id="中兴" fill="#33A4DD" fill-rule="nonzero"></path>
    </g>
</svg>