<?xml version="1.0" encoding="UTF-8"?>
<svg width="16px" height="16px" viewBox="0 0 16 16" version="1.1" xmlns="http://www.w3.org/2000/svg" xmlns:xlink="http://www.w3.org/1999/xlink">
    <title>↳Icon 图标/资源/操作系统(AIX)@1x</title>
    <g id="↳Icon-图标/资源/操作系统(AIX)" stroke="none" stroke-width="1" fill="none" fill-rule="evenodd">
        <path d="M14.1742282,0 C15.1821022,0 15.9980002,0.893983605 16,1.99831629 L16,10.997313 C15.9980002,12.1016457 15.1801025,12.9978205 14.1722285,12.9978205 L10.0527434,12.9978205 L10.0527434,14.9983279 L10.9646294,14.9983279 C11.1306087,14.9917545 11.2885889,15.0859733 11.3725784,15.2437352 C11.4585677,15.401497 11.4585677,15.5965081 11.3725784,15.7542699 C11.2865892,15.9120317 11.1306087,16.0062506 10.9646294,15.9996772 L5.48931384,15.9996772 C5.23734533,15.9996772 5.03337083,15.7761813 5.03337083,15.5000981 C5.03337083,15.2240149 5.23734533,15.000519 5.48931384,15.000519 L6.40119985,15.000519 L6.40119985,13.0000116 L1.82577178,13.0000116 C0.817897763,13.0000116 0,12.1038369 0,10.9995042 L0,1.99831629 C0,0.893983605 0.817897763,0 1.82577178,0 L14.1742282,0 Z M15.0861142,9.99815488 L0.911886014,9.99815488 L0.911886014,10.9995042 C0.911886014,11.5516705 1.31983502,11.9986623 1.82377203,11.9986623 L14.1722285,11.9986623 C14.6761655,11.9986623 15.0861142,11.5494794 15.0861142,10.9995042 L15.0861142,9.99815488 Z M14.25,3.50651266 C10.9625,-0.366220129 5.125,4.7719657 5.125,4.7719657 L5.125,4.7719657 L4.625,3.50690432 L3.125,3.50690432 L1.75,7.93657744 L3.5,7.93657744 L4.5,6.5442266 L4.75,7.93657744 L6.125,7.93657744 L5.375,5.53178584 L6.5,4.51934508 L6.75,4.51934508 L6.75,7.93657744 L8,7.93657744 L8,3.6330188 C10.4125,2.35464099 12.075,2.19014384 14.25,3.50690432 Z M10,3.63341046 L8.5,3.63341046 L9.75,5.53178584 L9.75,5.78479812 L8.25,7.93657744 L9.75,7.93657744 L10.5,6.67073274 L11.25,7.93657744 L12.75,7.93657744 L11.375,5.91169591 L11.375,5.53178584 L12.75,3.63341046 L11.25,3.63341046 L10.625,4.64585122 L10,3.63341046 Z" id="AIX" fill="#999999" fill-rule="nonzero"></path>
    </g>
</svg>