<?xml version="1.0" encoding="UTF-8"?>
<svg width="16px" height="16px" viewBox="0 0 16 16" version="1.1" xmlns="http://www.w3.org/2000/svg" xmlns:xlink="http://www.w3.org/1999/xlink">
    <title>↳Icon 图标/资源/数据库(Apache)@1x</title>
    <g id="↳Icon-图标/资源/数据库(Apache)" stroke="none" stroke-width="1" fill="none" fill-rule="evenodd">
        <path d="M1.75,0 L14.25,0 C15.2164983,-8.13921198e-16 16,0.783501688 16,1.75 L16,4.09258156 L16,4.09258156 L16,14.25 C16,15.2164983 15.2164983,16 14.25,16 L1.75,16 C0.783501688,16 1.18361906e-16,15.2164983 0,14.25 L0,1.75 C-1.18361906e-16,0.783501688 0.783501688,1.7754286e-16 1.75,0 Z M4.03626943,6.66320265 C4.09455959,6.60463361 4.12370466,6.60463361 4.18199481,6.60463361 C4.24028496,6.60463361 4.29857512,6.63391812 4.35686528,6.66320265 C4.41515544,6.7510562 4.8523316,7.10247041 5.75582901,7.71744526 C6.65932641,8.33242012 7.7376943,8.80097239 9.07836787,9.12310208 C10.0110104,9.29880918 10.8562176,9.44523177 11.6722798,9.53308532 C12.488342,9.62093888 13.1295337,9.67950791 13.625,9.73807694 C13.625,9.59165435 13.5375648,9.47451629 13.3626943,9.38666273 C13.1878238,9.29880918 12.8963731,9.15238659 12.4591969,8.94739498 C12.1968912,8.83025692 11.8762953,8.65454981 11.4974093,8.42027367 L10.3024611,7.68816075 C10.0401554,7.89315237 9.74870466,8.06885947 9.45725389,8.18599753 C9.16580312,8.30313559 8.99093265,8.39098915 8.90349741,8.42027367 C8.84520725,8.44955818 8.7869171,8.44955818 8.72862694,8.42027367 C8.67033678,8.39098916 8.64119171,8.36170463 8.61204663,8.30313561 C8.58290156,8.24456657 8.58290156,8.18599754 8.61204663,8.12742851 C8.64119171,8.06885947 8.67033679,8.03957496 8.72862694,8.01029043 L8.96178757,7.92243688 C9.10751296,7.86386784 9.25323834,7.77601429 9.45725389,7.68816075 C9.60297929,7.6003072 9.74870466,7.51245365 9.8361399,7.45388461 L9.22409327,7.10247041 C8.93264249,7.248893 8.64119171,7.36603106 8.34974093,7.48316912 C8.08743523,7.57102267 7.85427461,7.62959171 7.67940414,7.68816075 L7.38795337,7.7760143 C7.32966321,7.80529881 7.27137306,7.7760143 7.2130829,7.74672978 C7.15479274,7.71744526 7.12564767,7.65887622 7.09650259,7.6003072 C7.06735752,7.54173816 7.09650259,7.48316914 7.12564767,7.4246001 C7.15479274,7.36603106 7.2130829,7.33674655 7.27137306,7.30746202 C7.30051813,7.30746202 7.44624353,7.24889298 7.7376943,7.16103944 C8.02914507,7.07318591 8.34974093,6.95604783 8.72862694,6.80962524 C8.40803108,6.63391814 8.08743523,6.51678007 7.82512953,6.399642 C7.15479274,6.16536586 6.4261658,6.04822779 5.69753886,5.98965875 C4.96891192,5.96037424 4.3277202,6.04822779 3.83225388,6.22393489 L2.72474093,5.02326969 C2.69559586,4.99398518 2.6373057,4.96470067 2.60816061,4.96470067 C2.54987045,4.96470067 2.52072538,4.96470067 2.46243523,5.02326969 C2.40414507,5.02326969 2.375,5.08183873 2.375,5.14040777 C2.375,5.19897681 2.375,5.25754583 2.43329015,5.28683034 L3.51165803,6.54606459 C3.39507773,6.63391814 3.45336787,7.16103944 3.62823834,8.09814398 C3.83225388,9.03524853 4.82318653,9.855215 6.63018134,10.5580434 C8.34974093,11.0265957 9.8361399,11.1730183 11.0602332,10.9680267 C12.2843264,10.763035 13.0712435,10.4994744 13.4501295,10.1480602 C12.9255181,10.1187757 12.2843264,10.0602066 11.4974093,9.97235308 C10.7104922,9.88449953 9.86528497,9.73807694 8.96178757,9.56236984 C7.56282383,9.24024014 6.39702073,8.74240336 5.49352331,8.09814398 C4.59002589,7.4538846 4.09455958,7.10247041 4.00712434,6.98533234 C3.97797927,6.9267633 3.94883418,6.89747879 3.9488342,6.83890975 C3.94883421,6.78034071 3.97797927,6.72177169 4.03626943,6.66320265 Z" id="Apache" fill="#999999" fill-rule="nonzero"></path>
    </g>
</svg>