<?xml version="1.0" encoding="UTF-8"?>
<svg width="16px" height="16px" viewBox="0 0 16 16" version="1.1" xmlns="http://www.w3.org/2000/svg" xmlns:xlink="http://www.w3.org/1999/xlink">
    <title>↳Icon 图标/资源/数据库(ASM磁盘组)@1x</title>
    <g id="↳Icon-图标/资源/数据库(ASM磁盘组)" stroke="none" stroke-width="1" fill="none" fill-rule="evenodd">
        <path d="M14.25,0 C15.2164983,-1.7754286e-16 16,0.783501688 16,1.75 L16,14.25 C16,15.2164983 15.2164983,16 14.25,16 L1.75,16 C0.783501688,16 1.18361906e-16,15.2164983 0,14.25 L0,1.75 C-1.18361906e-16,0.783501688 0.783501688,1.7754286e-16 1.75,0 L14.25,0 Z M10.7382813,4.875 L6.2734375,4.875 L6.15787134,4.88173888 C5.66494561,4.93959694 5.28125,5.36289286 5.28125,5.875 L5.28125,5.875 L5.28125,12.625 L5.28793624,12.7414761 C5.34534228,13.2382832 5.76533119,13.625 6.2734375,13.625 L6.2734375,13.625 L12.2265625,13.625 L12.3421287,13.6182611 C12.8350544,13.5604031 13.21875,13.1371071 13.21875,12.625 L13.21875,12.625 L13.21875,7.375 L10.7382813,4.875 Z M9.25,9.84375 C9.95761484,9.84375 10.53125,10.4173852 10.53125,11.125 C10.53125,11.8326148 9.95761484,12.40625 9.25,12.40625 C8.54238516,12.40625 7.96875,11.8326148 7.96875,11.125 C7.96875,10.4173852 8.54238516,9.84375 9.25,9.84375 Z M9.6875,2.375 L3.78125,2.375 C3.22896525,2.375 2.78125,2.82271525 2.78125,3.375 L2.78125,10.4375 C2.78125,10.9897847 3.22896525,11.4375 3.78125,11.4375 L4.0005,11.437 L4.00028157,4.53214644 C4.00028157,4.0193106 4.38632176,3.59663928 4.88366044,3.53887418 L5.00028157,3.53214644 L10.6875,3.532 L10.6875,3.375 C10.6875,2.82271525 10.2397847,2.375 9.6875,2.375 Z M10.5625,6.375 L10.5625,8.5625 L6.8125,8.5625 L6.8125,6.375 L10.5625,6.375 Z" id="ASM磁盘组" fill="#999999"></path>
    </g>
</svg>