<?xml version="1.0" encoding="UTF-8"?>
<svg width="24px" height="24px" viewBox="0 0 24 24" version="1.1" xmlns="http://www.w3.org/2000/svg" xmlns:xlink="http://www.w3.org/1999/xlink">
    <title>操作系统@1x</title>
    <g id="页面-1" stroke="none" stroke-width="1" fill="none" fill-rule="evenodd">
        <g id="res_os" fill="#000000" fill-rule="nonzero">
            <path d="M22.5148982,0 C23.3398957,0 23.9998937,0.664497966 23.9998937,1.49549542 L23.9998937,17.8544454 C23.917394,18.6854428 23.257396,19.3499408 22.4323985,19.3499408 L12.8654278,19.3484408 L12.8654278,22.1729321 L19.1339086,22.1729321 C19.5464073,22.1729321 19.8764063,22.5044311 19.8764063,22.9199298 L19.8764063,23.2529288 C19.8764063,23.6684276 19.5464073,23.9999265 19.1339086,23.9999265 L4.70095277,23.9999265 C4.50324797,23.9999265 4.31370559,23.9210855 4.17433018,23.7808654 C4.03495476,23.6406453 3.95725683,23.45063 3.95845504,23.2529288 L3.95845504,22.9199298 C3.95845504,22.5044311 4.28845403,22.1729321 4.70095277,22.1729321 L11.0504568,22.1729321 L11.0504568,19.3484408 L1.48496261,19.3484408 C1.08942923,19.3488506 0.71010965,19.1912901 0.431271401,18.9107619 C0.152433152,18.6302337 -0.00283258551,18.249969 -7.0060083e-05,17.8544454 L-7.0060083e-05,1.49549542 C-7.0060083e-05,0.664497966 0.659965137,0 1.48496261,0 L22.5148982,0 Z M16.9064154,4.48498627 C15.8354187,4.48498627 14.9264215,4.73398551 14.2679235,5.31448373 C13.5254258,5.89648195 13.1954268,6.55947992 13.1954268,7.47447712 C13.1954268,8.13897509 13.3604263,8.63697356 13.6904253,9.05247229 C14.0204242,9.46647102 14.6804222,9.9659695 15.7529189,10.3799682 C16.6604162,10.7129672 17.2379144,11.0444662 17.5679134,11.2949654 C17.8979124,11.5439647 17.9789121,11.8754637 17.9789121,12.2909624 C17.9789121,13.2044596 17.3189141,13.7009581 15.9179184,13.7009581 C14.9279215,13.7009581 14.0204242,13.3709591 13.112927,12.7064611 L13.112927,14.6159553 C13.8554247,15.031454 14.6804222,15.1964535 15.7529189,15.1964535 C16.9079154,15.1964535 17.8139126,14.9474542 18.5579104,14.366956 C19.2989081,13.8689575 19.6289071,13.1219598 19.6289071,12.1244629 C19.6289071,11.4599649 19.4639076,10.8794667 19.0514088,10.463968 C18.6389101,10.0484692 17.9789121,9.54897077 16.9064154,9.13497204 C16.0814179,8.80347305 15.5054197,8.47047407 15.2564205,8.22147484 C14.9901182,7.95888436 14.8417987,7.59945319 14.8454217,7.22547788 C14.8454217,6.80997916 15.0104212,6.47698018 15.3404202,6.14548119 C15.6704192,5.89648195 16.1654177,5.72998246 16.7429159,5.72998246 C17.6489131,5.72998246 18.4739106,5.9789817 19.1339086,6.47698018 L19.1339086,4.81648526 C18.4739106,4.56748602 17.7314129,4.48498627 16.9064154,4.48498627 L16.9064154,4.48498627 Z M7.91694292,4.15198729 C6.76194646,4.15198729 5.93694898,4.64998577 5.27695101,5.64748271 C4.70095277,6.56097992 4.45345353,7.9724756 4.45345353,9.79947001 C4.45345353,11.4599649 4.70095277,12.7889609 5.278451,13.6199583 C5.85594923,14.5334555 6.68094671,15.029954 7.75344342,15.029954 C8.82444015,15.029954 9.73193737,14.5334555 10.3094356,13.5359586 C10.8869338,12.6224614 11.2169328,11.2109657 11.2169328,9.55047077 C11.1344331,5.98048169 10.0619364,4.15198729 7.91694292,4.15198729 Z M7.83444318,5.48098322 C8.90693989,5.48098322 9.40193838,6.80997916 9.40193838,9.38397128 C9.40193838,11.9579634 8.90693989,13.2044596 7.83444318,13.2044596 C6.76344646,13.2044596 6.18444823,11.9594634 6.18444823,9.46647102 C6.18444823,6.80997916 6.76344646,5.48098322 7.83444318,5.48098322 Z" id="操作系统"></path>
        </g>
    </g>
</svg>