<?xml version="1.0" encoding="UTF-8"?>
<svg width="16px" height="16px" viewBox="0 0 16 16" version="1.1" xmlns="http://www.w3.org/2000/svg" xmlns:xlink="http://www.w3.org/1999/xlink">
    <title>↳Icon 图标/资源/网络设备(通用网络设备)@1x</title>
    <g id="↳Icon-图标/资源/网络设备(通用网络设备)" stroke="none" stroke-width="1" fill="none" fill-rule="evenodd">
        <path d="M14.25,0 C15.2164983,-8.13921198e-16 16,0.783501688 16,1.75 L16,14.25 C16,15.2164983 15.2164983,16 14.25,16 L1.75,16 C0.783501688,16 1.18361906e-16,15.2164983 0,14.25 L0,1.75 C-1.18361906e-16,0.783501688 0.783501688,1.7754286e-16 1.75,0 L14.25,0 Z M13.71875,8.96875 L2.28125,8.96875 L2.28125,13.34375 L13.71875,13.34375 L13.71875,8.96875 Z M11.6875,10.375 C12.119025,10.375 12.46875,10.7244761 12.46875,11.15625 C12.46875,11.5880239 12.119025,11.9375 11.6875,11.9375 C11.255975,11.9375 10.90625,11.5880239 10.90625,11.15625 C10.90625,10.7244761 11.255975,10.375 11.6875,10.375 Z M9.1875,10.375 C9.61902504,10.375 9.96875,10.7244761 9.96875,11.15625 C9.96875,11.5880239 9.61902504,11.9375 9.1875,11.9375 C8.75597496,11.9375 8.40625,11.5880239 8.40625,11.15625 C8.40625,10.7244761 8.75597496,10.375 9.1875,10.375 Z M5.40625,10.375 L5.40625,11.9375 L3.84375,11.9375 L3.84375,10.375 L5.40625,10.375 Z M13.71875,2.65625 L2.28125,2.65625 L2.28125,7.03125 L13.71875,7.03125 L13.71875,2.65625 Z M11.6875,4.0625 C12.119025,4.0625 12.46875,4.41197607 12.46875,4.84374999 C12.46875,5.27552393 12.119025,5.625 11.6875,5.625 C11.255975,5.625 10.90625,5.27552391 10.90625,4.84374999 C10.90625,4.41197607 11.255975,4.0625 11.6875,4.0625 Z M9.1875,4.0625 C9.61902504,4.0625 9.96875,4.41197607 9.96875,4.84374999 C9.96875,5.27552393 9.61902504,5.625 9.1875,5.625 C8.75597496,5.625 8.40625,5.27552391 8.40625,4.84374999 C8.40625,4.41197607 8.75597496,4.0625 9.1875,4.0625 Z M5.40625,4.0625 L5.40625,5.625 L3.84375,5.625 L3.84375,4.0625 L5.40625,4.0625 Z" id="网络设备" fill="#999999" fill-rule="nonzero"></path>
    </g>
</svg>