<?xml version="1.0" encoding="UTF-8"?>
<svg width="16px" height="16px" viewBox="0 0 16 16" version="1.1" xmlns="http://www.w3.org/2000/svg" xmlns:xlink="http://www.w3.org/1999/xlink">
    <title>↳Icon 图标/资源/安全设备(入侵防御）@1x</title>
    <g id="↳Icon-图标/资源/安全设备(入侵防御）" stroke="none" stroke-width="1" fill="none" fill-rule="evenodd">
        <path d="M1.75,0 L14.25,0 C15.2164983,-1.7754286e-16 16,0.783501688 16,1.75 L16,14.25 C16,15.2164983 15.2164983,16 14.25,16 L1.75,16 C0.783501688,16 1.18361906e-16,15.2164983 0,14.25 L0,1.75 C-1.18361906e-16,0.783501688 0.783501688,1.7754286e-16 1.75,0 Z M8.0090625,2.28125 L12.2255099,3.18052344 C12.403898,3.21864844 12.53125,3.37591407 12.53125,3.55843751 L12.53125,9.07417188 C12.53125,9.42396876 12.4558882,9.77138282 12.3046875,10.1173672 C12.1534868,10.4638281 11.9560197,10.7988516 11.7113322,11.1238672 C11.4666447,11.4484063 11.1866612,11.7562656 10.8728125,12.0460156 C10.5584868,12.3367187 10.2398684,12.5950156 9.91695724,12.8218594 C9.59356908,13.0491797 9.27924342,13.2378984 8.97445724,13.3884922 C8.66919408,13.5386094 8.40208882,13.6410703 8.1721875,13.6977812 L8.0634375,13.71875 L7.96375,13.6977812 C7.728125,13.6415469 7.45481908,13.5386094 7.14335526,13.3880156 C6.80695967,13.2230515 6.48303301,13.0338325 6.17414474,12.8218594 C5.82751487,12.5861041 5.49747017,12.3268817 5.18633224,12.0460156 C4.87118292,11.7646675 4.58149082,11.4560885 4.320625,11.1238672 C4.07619982,10.8140057 3.86964186,10.4761187 3.70532895,10.1173672 C3.55186728,9.79082936 3.47115054,9.43490876 3.46875,9.07417188 L3.46875,3.55891406 C3.46875,3.37639062 3.59657895,3.21864844 3.77544408,3.18052344 L8.0090625,2.28125 Z M7.745,4.875 C6.01911016,4.875 4.62,6.27411016 4.62,8 C4.62,9.72588984 6.01911016,11.125 7.745,11.125 C9.47088984,11.125 10.87,9.72588984 10.87,8 C10.87,7.48834416 10.747035,7.00540834 10.5290447,6.57913234 L10.5290447,6.57913234 L9.76696951,6.81401421 C9.97147333,7.16191835 10.08875,7.56726346 10.08875,8 C10.08875,9.29441738 9.03941738,10.34375 7.745,10.34375 C6.45058262,10.34375 5.40125,9.29441738 5.40125,8 C5.40125,6.70558262 6.45058262,5.65625 7.745,5.65625 C8.04823764,5.65625 8.33802492,5.71383783 8.60402194,5.81867359 L8.60402194,5.81867359 L8.9225829,5.10447219 C8.55914872,4.95651771 8.1615941,4.875 7.745,4.875 Z M9.89981939,3.83984375 L8.5575,6.83984375 L11.5575,5.91484186 L10.245,5.34375 L9.89981939,3.83984375 Z" id="入侵防御" fill="#999999"></path>
    </g>
</svg>