<?xml version="1.0" standalone="no"?><!DOCTYPE svg PUBLIC "-//W3C//DTD SVG 1.1//EN" "http://www.w3.org/Graphics/SVG/1.1/DTD/svg11.dtd"><svg class="icon" width="200px" height="200.00px" viewBox="0 0 1024 1024" version="1.1" xmlns="http://www.w3.org/2000/svg"><path d="M888.22556445 254.71089778L674.62599111 41.11132445C657.63555555 24.12088889 638.21710222 16.83911111 613.94488889 16.83911111H196.45667555C150.33799111 14.41223111 111.50222222 53.248 111.50222222 99.36554667v825.26890666c0 46.11754667 38.83576889 84.95331555 84.95445333 84.95331556h631.0866489c46.11868445 0 84.95445333-38.83576889 84.95445333-84.95331556v-611.66933333c0-21.84533333-9.70865778-43.69066667-24.27221333-58.25422222z m-50.97244445 50.97244444c-2.42801778 2.42688-4.85489778 0-9.70979555 0H633.36334222c-7.28177778 0-12.13667555-4.85489778-12.13667555-12.13667555V99.36554667c0-2.42688 0-7.28177778-2.42688-9.70865778 0 0 2.42688 0 2.42688 2.42688l216.02645333 213.59957333z m-9.70979555 631.08664889H196.45667555c-7.28177778 0-12.13667555-4.85376-12.13667555-12.13553778V99.36554667c0-7.28177778 4.85489778-12.13553778 12.13667555-12.13553778h354.37909334c-2.42688 4.85376-2.42688 7.28177778-2.42688 12.13553778V293.54666667c0 46.11754667 38.83576889 84.95445333 84.95445333 84.95445333h194.17998223c4.85489778 0 7.28177778 0 12.13667555-2.42801778v548.56135111c0 7.28177778-4.85489778 12.13553778-12.13667555 12.13553778z"  /><path d="M657.63555555 718.31665778H317.81888c-19.41731555 0-36.40888889 16.99157333-36.40888889 36.40888889s16.99157333 36.40888889 36.40888889 36.40888888H657.63555555c19.41845333 0 36.40888889-16.99043555 36.4088889-36.40888888s-16.99043555-36.40888889-36.4088889-36.40888889z m0-194.17998223H317.81888c-19.41731555 0-36.40888889 16.99043555-36.40888889 36.4088889s16.99157333 36.40888889 36.40888889 36.40888888H657.63555555c19.41845333 0 36.40888889-16.99157333 36.4088889-36.40888888s-16.99043555-36.40888889-36.4088889-36.4088889zM317.81888 402.77333333h97.09112889c19.41731555 0 36.40888889-16.99043555 36.40888889-36.40888888s-16.99157333-36.40888889-36.40888889-36.4088889h-97.09112889c-19.41731555 0-36.40888889 16.99043555-36.40888889 36.4088889s16.99157333 36.40888889 36.40888889 36.40888888z"  /></svg>