<?xml version="1.0" encoding="UTF-8"?>
<svg width="16px" height="16px" viewBox="0 0 16 16" version="1.1" xmlns="http://www.w3.org/2000/svg" xmlns:xlink="http://www.w3.org/1999/xlink">
    <title>↳Icon 图标/资源/网络设备(交换机）@1x</title>
    <g id="↳Icon-图标/资源/网络设备(交换机）" stroke="none" stroke-width="1" fill="none" fill-rule="evenodd">
        <path d="M14.25,0 C15.2164983,-1.7754286e-16 16,0.783501688 16,1.75 L16,14.25 C16,15.2164983 15.2164983,16 14.25,16 L1.75,16 C0.783501688,16 1.18361906e-16,15.2164983 0,14.25 L0,1.75 C-1.18361906e-16,0.783501688 0.783501688,1.7754286e-16 1.75,0 L14.25,0 Z M4.34375,3.3125 L1.796875,5.328125 L4.34375,7.34375 L4.34375,6.03125 L5.65033144,6.03125 L9.69176137,12.375 L14.15625,12.375 L14.15625,10.8125 L10.5537405,10.8125 L6.53125,4.46875 L4.34375,4.47896039 L4.34375,3.3125 Z M6.640625,9.453125 L5.83712121,10.8125 L1.8125,10.8125 L1.8125,12.375 L6.49621213,12.375 L7.53006628,10.759901 L6.640625,9.453125 Z M11.7594697,3.3125 L11.7594697,4.47896039 L9.50378787,4.47896039 L8.6579072,5.73514851 L9.6796875,7.203125 L10.4436553,6.03913985 L11.7594697,6.03913985 L11.7594697,7.20560024 L14.203125,5.25905012 L11.7594697,3.3125 Z" id="交换机" fill="#999999"></path>
    </g>
</svg>