<?xml version="1.0" encoding="UTF-8"?>
<svg width="16px" height="16px" viewBox="0 0 16 16" version="1.1" xmlns="http://www.w3.org/2000/svg" xmlns:xlink="http://www.w3.org/1999/xlink">
    <title>↳Icon 图标/资源/操作系统(HPUX)@1x</title>
    <g id="↳Icon-图标/资源/操作系统(HPUX)" stroke="none" stroke-width="1" fill="none" fill-rule="evenodd">
        <path d="M14.1742282,0 C15.1821022,0 15.9980002,0.893983605 16,1.99831629 L16,10.997313 C15.9980002,12.1016457 15.1801025,12.9978205 14.1722285,12.9978205 L10.0527434,12.9978205 L10.0527434,14.9983279 L10.9646294,14.9983279 C11.1306087,14.9917545 11.2885889,15.0859733 11.3725784,15.2437352 C11.4585677,15.401497 11.4585677,15.5965081 11.3725784,15.7542699 C11.2865892,15.9120317 11.1306087,16.0062506 10.9646294,15.9996772 L5.48931384,15.9996772 C5.23734533,15.9996772 5.03337083,15.7761813 5.03337083,15.5000981 C5.03337083,15.2240149 5.23734533,15.000519 5.48931384,15.000519 L6.40119985,15.000519 L6.40119985,13.0000116 L1.82577178,13.0000116 C0.817897763,13.0000116 0,12.1038369 0,10.9995042 L0,1.99831629 C0,0.893983605 0.817897763,0 1.82577178,0 L14.1742282,0 Z M15.0861142,9.99815488 L0.911886014,9.99815488 L0.911886014,10.9995042 C0.911886014,11.5516705 1.31983502,11.9986623 1.82377203,11.9986623 L14.1722285,11.9986623 C14.6761655,11.9986623 15.0861142,11.5494794 15.0861142,10.9995042 L15.0861142,9.99815488 Z M7.99998257,1.09282744 C7.90838024,1.09282744 7.81675467,1.09615035 7.72683684,1.10198287 L6.99136942,3.17775639 L7.63932379,3.17775639 C8.10571153,3.17775639 8.29649068,3.54844683 8.1557472,3.96828382 L7.20124739,6.65958588 L6.24839723,6.65958588 L7.29786839,3.69754793 L6.80641054,3.69754793 L5.75779906,6.65958588 L4.79584094,6.65958588 L6.68820461,1.31938953 C5.1756334,1.85837494 4.09375,3.30269086 4.09375,4.99950152 C4.09375,6.83292331 5.35644491,8.37058281 7.05885426,8.79208125 L9.05026695,3.16275682 L10.6152321,3.16275682 C10.9384252,3.16275682 11.3357016,3.3801751 11.1683197,3.88667499 C11.0000549,4.39311679 10.3953749,6.07906408 10.2837792,6.40054988 C10.1721371,6.72205892 9.90398677,6.78627475 9.69071655,6.78627475 L8.73044294,6.78627475 L7.98081404,8.90532744 L7.99997096,8.90532744 C10.1571972,8.90532744 11.90625,7.15604733 11.90625,4.99871145 C11.9054368,2.84208432 10.1572088,1.09282744 7.99998257,1.09282744 Z M10.3221163,3.6358998 L9.85067502,3.6358998 C9.81318602,3.63844427 9.78822047,3.65089937 9.77322255,3.67341616 L8.83454548,6.32731804 L9.43420678,6.32731804 L10.3679233,3.68921741 C10.3704094,3.67841214 10.3704094,3.66927995 10.3670984,3.6608681 C10.3595937,3.64593824 10.342888,3.63753802 10.3221163,3.6358998 Z" id="HPUX操作系统" fill="#999999" fill-rule="nonzero"></path>
    </g>
</svg>