<?xml version="1.0" encoding="UTF-8"?>
<svg width="16px" height="16px" viewBox="0 0 16 16" version="1.1" xmlns="http://www.w3.org/2000/svg" xmlns:xlink="http://www.w3.org/1999/xlink">
    <title>↳Icon 图标/资源/存储设备(华为存储)@1x</title>
    <g id="↳Icon-图标/资源/存储设备(华为存储)" stroke="none" stroke-width="1" fill="none" fill-rule="evenodd">
        <path d="M14.25,0 C15.2164983,-8.13921198e-16 16,0.783501688 16,1.75 L16,14.25 C16,15.2164983 15.2164983,16 14.25,16 L1.75,16 C0.783501688,16 1.18361906e-16,15.2164983 0,14.25 L0,1.75 C-1.18361906e-16,0.783501688 0.783501688,1.7754286e-16 1.75,0 L14.25,0 Z M6.90473771,11.0281473 L3.32436298,11.1241767 L3.34497964,11.164259 C3.42717797,11.3179743 3.75355634,11.8733089 4.29513572,12.1159456 C4.92697833,12.3990217 5.91135629,11.7631028 6.18366084,11.5784618 C6.4369581,11.3845987 6.90473771,11.0281473 6.90473771,11.0281473 Z M9.0955789,11.0281473 C9.0955789,11.0281473 9.56335851,11.3845987 9.81605554,11.5784618 C10.0883601,11.7633033 11.0731382,12.3990217 11.7049808,12.1159456 C12.2465602,11.8733089 12.5729386,11.3179743 12.6551369,11.164259 L12.6757536,11.1241767 L12.6757536,11.1241767 L9.0955789,11.0281473 Z M2.37439823,8.17132376 C2.32277841,8.18535728 2.12430221,9.10395136 2.53646046,9.79620482 C2.94881879,10.4884583 3.75172707,10.7001639 4.1200685,10.7564985 C4.27074453,10.7780773 4.68870998,10.78831 5.15886916,10.7902332 L5.51791401,10.7901649 C6.24213288,10.7871022 6.96279636,10.767051 6.9539566,10.7402597 C6.93955107,10.6973572 5.02621642,9.53798806 4.38497021,9.21702143 L4.38517029,9.21702143 C3.74432423,8.89545336 2.42601805,8.15688928 2.37439823,8.17132376 Z M13.6255182,8.17132376 C13.5939728,8.16274772 13.0893747,8.43515949 12.5554241,8.72167597 L12.2639342,8.8777524 C12.0230449,9.00630826 11.792759,9.12775265 11.6147462,9.21702143 C10.9741002,9.53798806 9.06036539,10.6975577 9.04636,10.7402597 C9.03730198,10.767051 9.75786625,10.7871022 10.48204,10.7901975 L10.8410665,10.7902848 C11.3112065,10.7883912 11.7291719,10.7782049 11.879848,10.756699 C12.2481894,10.7001639 13.0510977,10.4884583 13.463456,9.79620482 C13.8760144,9.10395136 13.676938,8.18535728 13.6255182,8.17132376 Z M4.01442794,5.3664242 C3.90998784,5.37765101 3.1611003,6.12603856 3.09347433,6.85778634 C3.02564828,7.58953414 3.33816828,8.07629678 4.21090338,8.65888832 C5.0894407,9.28317945 7.17744242,10.4315223 7.21565709,10.3324857 C7.25407184,10.2338501 6.4067465,8.72504633 5.71308016,7.62782561 C5.0196139,6.53040439 4.11826781,5.35519739 4.01442794,5.3664242 Z M11.9860887,5.36622372 C11.8816486,5.35519739 10.9803026,6.53040439 10.2868363,7.62762513 C9.59337004,8.72504634 8.74584462,10.2338501 8.78425937,10.3324857 C8.82267412,10.4315223 10.9108759,9.28317945 11.7890131,8.65888832 C12.6617482,8.07649727 12.9746683,7.58953415 12.9068423,6.85778634 C12.8388162,6.12603855 12.0899286,5.37765101 11.9860887,5.36622372 Z M7.16983949,3.81291361 L7.13791887,3.81251788 C6.97116074,3.81347049 6.19199738,3.85499189 5.67446533,4.52521495 C5.0920417,5.27941638 5.52940964,6.43096688 5.80551565,7.02518619 C6.08162166,7.61920502 7.53898124,9.95057354 7.59240174,10.0018961 C7.64562217,10.0532187 7.70964676,10.0315676 7.71304807,9.98545685 C7.71497738,9.9609698 7.76261302,8.99054349 7.78628195,7.96803123 L7.79430615,7.55836717 C7.80606822,6.80999234 7.79994572,6.09769943 7.74846166,5.7739977 C7.61741134,4.95002963 7.22906223,3.90332956 7.16983949,3.81291361 Z M8.86218394,3.81251815 L8.83007696,3.81291361 L8.83007696,3.81291361 C8.77065414,3.90312909 8.38230504,4.95002963 8.25125472,5.77419817 C8.19977066,6.09789991 8.19370992,6.81016188 8.20554698,7.55849914 L8.21361311,7.96814219 C8.23738868,8.99060103 8.28513916,9.9609698 8.28706847,9.98545685 C8.29046978,10.0315676 8.3540942,10.0532187 8.40751471,10.0018961 C8.46073514,9.95057353 9.91829479,7.61920501 10.1944008,7.02518619 C10.4703067,6.43096688 10.9076747,5.27941638 10.325251,4.52521495 C9.807719,3.85501417 9.02887181,3.81347297 8.86218394,3.81251815 Z" id="华为存储" fill="#999999" fill-rule="nonzero"></path>
    </g>
</svg>