<?xml version="1.0" encoding="UTF-8"?>
<svg width="16px" height="16px" viewBox="0 0 16 16" version="1.1" xmlns="http://www.w3.org/2000/svg" xmlns:xlink="http://www.w3.org/1999/xlink">
    <title>↳Icon 图标/资源/操作系统(Linux)@1x</title>
    <g id="↳Icon-图标/资源/操作系统(Linux)" stroke="none" stroke-width="1" fill="none" fill-rule="evenodd">
        <path d="M14.1742282,0 C15.1821022,0 15.9980002,0.893983605 16,1.99831629 L16,10.997313 C15.9980002,12.1016457 15.1801025,12.9978205 14.1722285,12.9978205 L10.0527434,12.9978205 L10.0527434,14.9983279 L10.9646294,14.9983279 C11.1306087,14.9917545 11.2885889,15.0859733 11.3725784,15.2437352 C11.4585677,15.401497 11.4585677,15.5965081 11.3725784,15.7542699 C11.2865892,15.9120317 11.1306087,16.0062506 10.9646294,15.9996772 L5.48931384,15.9996772 C5.23734533,15.9996772 5.03337083,15.7761813 5.03337083,15.5000981 C5.03337083,15.2240149 5.23734533,15.000519 5.48931384,15.000519 L6.40119985,15.000519 L6.40119985,13.0000116 L1.82577178,13.0000116 C0.817897763,13.0000116 0,12.1038369 0,10.9995042 L0,1.99831629 C0,0.893983605 0.817897763,0 1.82577178,0 L14.1742282,0 Z M15.0861142,9.99815488 L0.911886014,9.99815488 L0.911886014,10.9995042 C0.911886014,11.5516705 1.31983502,11.9986623 1.82377203,11.9986623 L14.1722285,11.9986623 C14.6761655,11.9986623 15.0861142,11.5494794 15.0861142,10.9995042 L15.0861142,9.99815488 Z M7.86347862,1.24935155 C7.68548537,1.24935155 7.54313675,1.27864457 7.43643278,1.33723062 C7.21750568,1.45721485 7.07239748,1.60297694 7.00110819,1.77451689 C6.9298189,1.94605684 6.89693384,2.15735719 6.90245301,2.40841794 C6.91349135,2.96084533 6.93541473,3.39328849 6.96822313,3.70574742 C6.92989555,3.85072836 6.76018105,4.12272386 6.45907962,4.52173391 C6.40434785,4.57750783 6.35099586,4.65281043 6.29902367,4.74764171 C6.24705148,4.842473 6.20596432,4.92753994 6.17576219,5.00284255 C6.14556006,5.07814515 6.1051628,5.18695897 6.0545704,5.32928401 C6.003978,5.47160905 5.96772011,5.5720646 5.94579674,5.63065065 C5.92663295,5.68095654 5.89650748,5.73954258 5.85542032,5.8064088 C5.81433316,5.87327501 5.7814481,5.93881327 5.75676514,6.00302358 C5.73208218,6.06723389 5.71836091,6.13980247 5.71560133,6.22072934 C5.71284174,6.28212752 5.71560133,6.33516742 5.72388008,6.37984905 C5.73491842,6.44687149 5.755462,6.46780623 5.78551082,6.44265329 C5.9087723,6.347822 6.0634624,6.40359592 6.2495811,6.60997505 C6.38096803,6.75495599 6.61231327,7.09248975 6.94361683,7.62257632 C6.97105937,7.67007008 6.99842526,7.72100088 7.02571449,7.77536874 C7.05300373,7.82973659 7.07898982,7.90230518 7.10367278,7.9930745 C7.12835574,8.08384381 7.13862753,8.16547371 7.13448815,8.23796418 C7.13034877,8.31045465 7.0988435,8.37739898 7.03997235,8.43879716 C6.98110119,8.50019534 6.89279446,8.5392527 6.77505215,8.55596926 C6.71219493,8.56440565 6.63622968,8.5588595 6.54715639,8.53933082 C6.45808311,8.51980213 6.34517007,8.48769698 6.20841728,8.44301535 C6.0716645,8.39833373 5.97040304,8.36763464 5.90463293,8.35091808 C5.85672346,8.33974768 5.79871467,8.32701498 5.73060657,8.31271998 L5.49598432,8.26514811 C5.46066163,8.25818027 5.42777657,8.25157489 5.39732914,8.24533196 L5.2438962,8.21222381 C5.20250241,8.20263757 5.17085917,8.19450114 5.14896646,8.18781452 C5.05590711,8.16281781 5.00523805,8.12657257 4.9969593,8.07907882 C4.98868054,8.04002145 5.00784433,7.97307712 5.05445066,7.87824584 C5.10105699,7.78341455 5.12436015,7.71506416 5.12436015,7.67319467 C5.12696643,7.64257369 5.12558664,7.6118746 5.12022078,7.5810974 C5.11485492,7.55032019 5.1087225,7.52657331 5.10182354,7.50985676 C5.09492458,7.49314021 5.08327299,7.46806538 5.06686879,7.43463227 C5.05046459,7.40119917 5.0395029,7.37612434 5.03398373,7.35940779 C4.98477113,7.24223569 4.97794882,7.16271489 5.01351681,7.1208454 C5.03819977,7.08444393 5.09707092,7.07046139 5.19013027,7.07889778 C5.32979596,7.09280221 5.44339889,7.07186746 5.53093907,7.01609354 C5.67597061,6.92407438 5.7197407,6.7762032 5.66224934,6.57247997 C5.66224934,6.66731126 5.64584514,6.73847378 5.61303674,6.78596754 C5.58022833,6.8334613 5.52273697,6.882283 5.44056265,6.93243266 C5.39410963,6.96024151 5.31201196,6.97695806 5.19426965,6.98258232 C5.07652734,6.98820658 4.9984924,7.00773526 4.96016482,7.04116837 C4.93287559,7.06632131 4.91846442,7.10397261 4.91693132,7.15412227 C4.91539822,7.20427193 4.92153063,7.25520273 4.93532856,7.30691469 C4.94912648,7.35862664 4.96284775,7.41791572 4.97649237,7.48478193 C4.99013699,7.55164814 4.9955795,7.60742206 4.99281992,7.65210369 C4.99021364,7.68272466 4.96560734,7.7587303 4.91900101,7.88012059 C4.87239468,8.00151089 4.86281278,8.09431119 4.89025533,8.1585215 C4.90405325,8.1892987 4.92735642,8.21648263 4.96016482,8.24007328 C4.99297323,8.26366393 5.03881301,8.28389564 5.09768416,8.30076843 C5.15655532,8.31764121 5.2105972,8.33092071 5.2598098,8.34060694 C5.30902241,8.35029317 5.37747546,8.36286964 5.46516895,8.37833635 C5.55286244,8.39380307 5.62269528,8.40708258 5.67466748,8.41817487 C5.84990115,8.4544201 6.04974112,8.51441222 6.2741874,8.59815121 C6.49863368,8.6818902 6.65056419,8.72516577 6.72997892,8.7279779 C6.80648076,8.73079003 6.87968643,8.71477651 6.94959593,8.67993734 C7.01950542,8.64509817 7.07906648,8.60533777 7.12827908,8.56065614 C7.17749169,8.51597451 7.25069736,8.47410502 7.34789609,8.43504765 C7.44509482,8.39599028 7.55394513,8.37505554 7.67444702,8.37224341 C7.7291788,8.36943128 7.80859354,8.36591611 7.91269123,8.36169792 C8.01678892,8.35747972 8.09482387,8.35537062 8.14679606,8.35537062 C8.38212737,8.35537062 8.56004397,8.35677669 8.68054587,8.35958882 C8.76256688,8.36240095 8.82688055,8.37568045 8.87348688,8.39942733 C8.92009321,8.42317421 8.95021868,8.45035814 8.9638633,8.48097911 C8.97750792,8.51160009 9.00012119,8.54714229 9.03170311,8.58760572 C9.06328503,8.62806915 9.10368229,8.66087734 9.1528949,8.68603028 C9.25699259,8.73617994 9.37879763,8.75641166 9.51831,8.74672543 C9.65782237,8.73703921 9.75088172,8.70985528 9.79748806,8.66517365 C9.87414321,8.58987105 9.97747435,8.50058591 10.1074815,8.39731823 C10.2374886,8.29405056 10.354541,8.21593583 10.4586387,8.16297404 C10.4805621,8.15172552 10.5175099,8.1336029 10.5694821,8.10860618 C10.6214543,8.08360947 10.6652244,8.06197169 10.7007923,8.04369284 C10.7363603,8.02541399 10.7795172,8.00237015 10.8302629,7.9745613 C10.8810086,7.94675246 10.9220958,7.9209746 10.9535244,7.89722772 C10.984953,7.87348084 11.0171481,7.84629691 11.0501099,7.81567594 C11.0830716,7.78505496 11.1043051,7.75435587 11.1138103,7.72357867 C11.1233155,7.69280146 11.126765,7.66139934 11.1241587,7.6293723 C11.1215525,7.59734526 11.1051483,7.56383404 11.0749461,7.52883864 C11.044744,7.49384324 11.002277,7.45962899 10.9475453,7.42619588 L10.9475453,7.42619588 C10.9394965,7.42010293 10.9168832,7.40682343 10.8799354,7.38588868 C10.8429876,7.36495393 10.8135521,7.34683132 10.7916287,7.33152083 C10.7697053,7.31621034 10.7409596,7.28972945 10.7053917,7.25207815 C10.6698237,7.21442684 10.6417679,7.17466645 10.6212243,7.13279695 C10.6006807,7.09092745 10.580827,7.0344505 10.5616632,6.96336609 C10.5424995,6.89228169 10.5315378,6.81346392 10.5287782,6.7269128 C10.4904506,6.76034591 10.4692171,6.8265872 10.4650778,6.92563668 C10.4609384,7.02468616 10.481482,7.12584474 10.5267085,7.22911241 C10.571935,7.33238009 10.6396982,7.39932442 10.729998,7.42994539 C10.8178448,7.46056637 10.8883675,7.49337455 10.9415662,7.52836995 C10.9947648,7.56336535 11.028953,7.60312575 11.0441308,7.64765115 C11.0593085,7.69217655 11.0340123,7.74029522 10.9682422,7.79200717 C10.902472,7.84371913 10.7970712,7.89464993 10.6520397,7.94479959 C10.452123,8.01447793 10.3104643,8.07376701 10.2270635,8.12266684 C10.1436627,8.17156666 10.0211678,8.26436696 9.85957873,8.40106774 C9.75011517,8.4930869 9.63375266,8.54261164 9.51049117,8.54964196 C9.38722969,8.55667229 9.28727138,8.51066271 9.21061623,8.41161323 C9.13396108,8.31256375 9.10935478,8.17234781 9.13679732,7.9909654 C9.18876951,7.64226123 9.18738972,7.37026574 9.13265794,7.1749789 C9.08881119,7.02156157 9.0792293,6.88626685 9.10391226,6.76909476 C9.12859522,6.65192266 9.16692279,6.58357227 9.21889498,6.56404358 C9.27086718,6.5445149 9.32697875,6.5863844 9.38722969,6.68965207 C9.39290217,6.7035565 9.40524365,6.73074042 9.42425413,6.77120385 C9.44326461,6.81166728 9.45897891,6.84025728 9.47139705,6.85697383 C9.48381518,6.87369038 9.50228907,6.89532816 9.52681872,6.92188717 C9.55134837,6.94844618 9.58216374,6.96727183 9.61926483,6.97836412 C9.65636592,6.98945642 9.69952277,6.99640863 9.74873538,6.99922076 C9.84179473,7.00187666 9.92527219,6.98234797 9.99916775,6.94063471 C10.0730633,6.89892144 10.128485,6.85220883 10.1654328,6.80049688 C10.2023806,6.74878493 10.2393283,6.69926019 10.2762761,6.65192266 C10.3132239,6.60458513 10.3454191,6.57810424 10.3728616,6.57247997 C10.4030637,6.56685571 10.4304296,6.53615662 10.4549593,6.48038271 C10.4794889,6.42460879 10.4958931,6.34719709 10.5041719,6.24814761 C10.5124506,6.14909813 10.5056283,6.031223 10.483705,5.89452221 C10.4426178,5.65174163 10.3611334,5.38529227 10.2392517,5.09517416 C10.11737,4.80505604 9.98115379,4.57766406 9.83060308,4.4129982 C9.55955047,4.12006796 9.37749449,3.8159673 9.28443514,3.50069624 C9.1886162,3.16870863 9.14752904,2.87023224 9.16117366,2.60526707 C9.17481827,2.4156045 9.13442101,2.20985029 9.03998186,1.98800445 C8.94554272,1.76615861 8.82028821,1.59664965 8.66421832,1.47947755 C8.56579311,1.40417495 8.44398807,1.34629193 8.29880322,1.3058285 C8.15361837,1.26536507 8.00851017,1.24653942 7.86347862,1.24935155 Z M8.27787636,2.31280551 C8.3215698,2.3212419 8.35851758,2.33170928 8.38871971,2.34420763 C8.41892184,2.35670599 8.451117,2.37764074 8.4853052,2.40701188 C8.5194934,2.43638302 8.54823908,2.47895555 8.57154224,2.53472947 C8.59484541,2.59050338 8.6133193,2.66025984 8.62696392,2.74399883 L8.62696392,2.74399883 L8.62696392,2.89890035 C8.62696392,2.9882636 8.60917992,3.03849137 8.57361193,3.04958367 C8.51596726,3.06911235 8.4748801,3.06840932 8.45035045,3.04747457 C8.4258208,3.02653982 8.42858039,2.98959155 8.45862921,2.93662976 C8.48607175,2.86695142 8.48062924,2.78602456 8.44230166,2.69384917 C8.40397409,2.60167379 8.33414124,2.55980429 8.23280314,2.56824069 C8.16427343,2.57089659 8.11498417,2.60854789 8.08493535,2.68119459 C8.05488653,2.75384129 8.04392485,2.82500381 8.05205029,2.89468215 C8.06017574,2.96436049 8.07520015,3.00060573 8.09712352,3.00341786 C8.11352772,3.00638622 8.16212709,3.02872703 8.24292162,3.0704403 C8.32371614,3.11215357 8.38465699,3.1372284 8.42574415,3.14566479 C8.53260143,3.16784937 8.59354227,3.20268854 8.60856668,3.2501823 C8.62359109,3.29767606 8.61745868,3.36672948 8.59016945,3.45734257 C8.56288021,3.54795566 8.55467811,3.62255523 8.56556314,3.68114128 C8.57644817,3.74253946 8.59699175,3.79831337 8.62719388,3.84846303 C8.65739601,3.89861269 8.68959117,3.94462227 8.72377937,3.98649176 C8.75796757,4.02836126 8.79836483,4.10647599 8.84497116,4.22083596 C8.89157749,4.33519593 8.93404445,4.47884892 8.97237202,4.65179494 C8.97513161,4.65460707 8.9854034,4.66437141 9.00318739,4.68108796 C9.02097139,4.69780452 9.03875538,4.71873926 9.05653938,4.74389221 C9.07432337,4.76904515 9.09555685,4.8032594 9.12023981,4.84653497 C9.14492276,4.88981053 9.17159876,4.9533178 9.20026778,5.0370568 C9.22893681,5.12079579 9.2556128,5.21703314 9.28029576,5.32576885 C9.31034458,5.45403324 9.32605888,5.60331049 9.32743868,5.77360061 C9.32881847,5.94389072 9.33978016,6.06035979 9.36032374,6.12300781 C9.38086732,6.18565582 9.43360606,6.21143368 9.51853997,6.20034139 C9.62539724,6.19471713 9.69385029,6.13613108 9.72389911,6.02458324 C9.81435219,5.70103202 9.74045662,5.31327049 9.50221242,4.86129865 C9.41191265,4.6855405 9.33387771,4.56977447 9.26810759,4.51400055 C9.36407984,4.56977447 9.46265836,4.6743701 9.56384316,4.82778743 C9.66502796,4.98120476 9.72934163,5.12485776 9.75678417,5.25874641 C9.75923714,5.27265083 9.76674934,5.3095991 9.77932078,5.36959121 C9.79189223,5.42958333 9.79871454,5.4644225 9.79978771,5.47410872 C9.80086088,5.48379495 9.8063034,5.51238494 9.81611526,5.5598787 C9.82592712,5.60737246 9.83075639,5.63807155 9.83060308,5.65197597 C9.83044977,5.66588039 9.83182956,5.69306432 9.83474246,5.73352775 C9.83765535,5.77399118 9.83696546,5.8053933 9.83267277,5.82773412 C9.82838008,5.85007493 9.8242407,5.88007099 9.82025463,5.91772229 C9.81626857,5.95537359 9.80944626,5.99161883 9.79978771,6.026458 C9.79012916,6.06129717 9.77985737,6.0996515 9.76897234,6.141521 C9.91952305,6.20854344 9.99479841,6.26712949 9.99479841,6.31727914 L9.99479841,6.31727914 C9.93631053,6.26939481 9.85421287,6.23799269 9.74735559,6.22283843 C9.64049831,6.20768418 9.54122989,6.22236974 9.44955033,6.26689514 C9.35787077,6.31142054 9.3106512,6.38531708 9.30789161,6.48858475 C9.20931309,6.48858475 9.13948025,6.51365958 9.09839309,6.56380924 C9.03814214,6.63645594 9.00663687,6.73480239 9.00387729,6.85884858 C9.0011177,6.98289478 9.01138949,7.11818949 9.03469266,7.26473273 C9.05799582,7.41127597 9.06688782,7.51384061 9.06136865,7.57242666 C9.05584948,7.66163369 9.03737559,7.78716406 9.00594698,7.94901779 C8.97451837,8.11087151 8.95466468,8.21827927 8.94638593,8.27124106 C8.88889456,8.26842893 8.8560095,8.24679115 8.84773075,8.20632771 C8.83945199,8.16586428 8.84765409,8.11352741 8.87233705,8.0493171 C8.932588,7.86231043 8.96409327,7.73396793 8.96685285,7.66428959 C8.97221871,7.53586897 8.95849744,7.46330038 8.92568904,7.44658383 C8.89564022,7.42424302 8.84911054,7.46611251 8.78610001,7.57219232 C8.66559811,7.77310341 8.42329118,7.8944937 8.05917922,7.9363632 C7.73063525,7.98104483 7.50342939,7.93081705 7.37756163,7.78567988 C7.35011909,7.76599497 7.3227532,7.76247981 7.29546396,7.77513439 C7.26817473,7.78778898 7.25039074,7.80106848 7.24211198,7.81497291 C7.2395057,7.82059717 7.24226529,7.82895544 7.25039074,7.84004773 C7.25851618,7.85114003 7.27154756,7.86785658 7.28948486,7.89019739 C7.30742217,7.91253821 7.32183334,7.93487902 7.33271837,7.95721983 C7.43942234,8.1468824 7.42984044,8.27522491 7.30397269,8.34224735 C7.30397269,8.21382673 7.29439079,8.11548028 7.275227,8.047208 C7.25606322,7.97893573 7.21773564,7.90363313 7.16024428,7.8213002 C7.10275292,7.73896727 7.06304555,7.67686606 7.04112218,7.63499656 C7.1232965,7.62656017 7.18561713,7.59445502 7.22808409,7.5386811 C7.27055104,7.48290718 7.28971483,7.42291506 7.28557545,7.35870475 C7.28143607,7.29449444 7.25744301,7.24145454 7.21359626,7.19958505 C7.18891331,7.1744321 7.0615891,7.06772738 6.83162365,6.87947087 C6.6016582,6.69121437 6.45930959,6.56498096 6.40457781,6.50077065 C6.39353947,6.48967836 6.36065441,6.4617914 6.30592263,6.41710977 C6.25119086,6.37242815 6.21700266,6.33337078 6.20335804,6.29993767 C6.07733698,6.01825595 6.06361571,5.78672388 6.16219423,5.60534147 L6.16219423,5.60534147 L6.17852178,5.58448484 C6.19216639,5.58167271 6.19354618,5.60674754 6.18266115,5.65970933 C6.16625695,5.73782406 6.16081444,5.81593879 6.16633361,5.89405353 C6.17737195,6.06981167 6.22666121,6.20096631 6.31420139,6.28751743 C6.37169275,6.34610348 6.41140012,6.34188529 6.43332349,6.27486284 C6.4497277,6.25252203 6.4572399,6.1701891 6.45586011,6.02786406 L6.45547204,5.92976172 C6.45573075,5.84030083 6.4579298,5.77676425 6.46206917,5.73915201 C6.48399255,5.58011042 6.54899611,5.38341752 6.65707988,5.14907332 C6.76516364,4.91472913 6.85071078,4.78919875 6.91372132,4.7724822 C6.86450871,4.69171157 6.84879441,4.60383249 6.8665784,4.50884498 C6.8843624,4.41385746 6.91310808,4.3329306 6.95281544,4.26606439 C6.99252281,4.19919818 7.03292008,4.12178648 7.07400724,4.03382929 C7.1150944,3.9458721 7.13563798,3.86705434 7.13563798,3.797376 C7.13563798,3.77784731 7.13701777,3.76386478 7.13977735,3.75542839 C7.1479028,3.73027544 7.182091,3.76097453 7.24234195,3.84752566 C7.35732467,4.0206279 7.44356171,4.12248951 7.50105308,4.15311049 C7.56115071,4.18654359 7.62822397,4.18513753 7.70227284,4.14889229 C7.77632172,4.11264706 7.86738804,4.05265494 7.9754718,3.96891595 C8.08355556,3.88517696 8.17592502,3.82377878 8.25258017,3.78472141 C8.26085892,3.78206551 8.2738903,3.77581633 8.29167429,3.76597387 C8.30945829,3.75613142 8.32317956,3.74917921 8.33283811,3.74511724 L8.34933813,3.73738388 L8.34933813,3.73738388 L8.36986254,3.72636971 L8.36986254,3.72636971 L8.40481729,3.70551307 C8.41309605,3.70004504 8.42129815,3.69379586 8.4294236,3.68676554 C8.43754904,3.67973521 8.44299156,3.672783 8.44575114,3.6659089 C8.44851073,3.65903481 8.44989052,3.65278563 8.44989052,3.64716137 C8.44452466,3.62200842 8.43287308,3.60669794 8.41493577,3.6012299 C8.39699847,3.59576187 8.37300541,3.59927704 8.34295659,3.61177539 C8.31290777,3.62427375 8.27933281,3.6409903 8.24223172,3.66192505 C8.20513063,3.6828598 8.16404347,3.70660668 8.11897024,3.73316569 C8.07389701,3.7597247 8.02805723,3.78417461 7.9814509,3.80651542 C7.93484457,3.82885623 7.88555531,3.84838492 7.83358312,3.86510147 C7.78161092,3.88181802 7.73232166,3.89158236 7.68571533,3.89439449 C7.57073261,3.89720663 7.47905305,3.86650754 7.41067665,3.80229723 C7.36682991,3.76058396 7.34352674,3.73410306 7.34076716,3.72285454 C7.33800757,3.71160602 7.35034905,3.70879389 7.3777916,3.71441815 C7.52573603,3.73394683 7.63389645,3.73675897 7.70227284,3.72285454 C7.77340882,3.71160602 7.86922776,3.67950087 7.98972966,3.62653908 C8.01441261,3.61544679 8.07673325,3.58826286 8.17669157,3.5449873 C8.27664988,3.50171174 8.35399493,3.47171568 8.40872671,3.45499913 C8.44153511,3.44656273 8.46414838,3.43328323 8.47656651,3.41516061 C8.48898465,3.39703799 8.49312403,3.38032144 8.48898465,3.36501095 C8.48484527,3.34970047 8.47595327,3.33782703 8.46230866,3.32939064 C8.43225984,3.31267408 8.40489395,3.32384449 8.38021099,3.36290186 C8.36656637,3.38821103 8.33782069,3.41266094 8.29397395,3.43625159 C8.2501272,3.45984224 8.20972994,3.47796486 8.17278215,3.49061944 C8.13583437,3.50327403 8.0886148,3.5179596 8.03112344,3.53467615 C7.97363207,3.55139271 7.94212681,3.56115705 7.93660764,3.56396918 C7.78605692,3.61146293 7.6464679,3.63239768 7.51784055,3.62677342 C7.4574363,3.62396129 7.40883693,3.61489998 7.37204246,3.5995895 C7.33524799,3.58427901 7.30995179,3.56615639 7.29615386,3.54522164 C7.28235593,3.52428689 7.26043256,3.497806 7.23038374,3.46577896 C7.20033492,3.43375192 7.16614673,3.40656799 7.12781915,3.38422718 C7.10037661,3.37032276 7.09010482,3.34524793 7.09700378,3.30900269 C7.10390274,3.27275746 7.12513622,3.23510615 7.16070421,3.19604879 C7.1634638,3.19339289 7.19151958,3.1759733 7.24487157,3.14379003 C7.29822355,3.11160676 7.33586123,3.07879858 7.3577846,3.04536547 C7.38246756,3.0063081 7.42493451,2.96584467 7.48518546,2.92397518 C7.48809836,2.91272665 7.49016804,2.88202756 7.49139453,2.83187791 C7.49262101,2.78172825 7.47958963,2.7273604 7.4523004,2.66877435 C7.42501117,2.6101883 7.38806339,2.58089527 7.34145705,2.58089527 C7.27584025,2.57808314 7.22931057,2.59761182 7.20186803,2.63948132 C7.17442548,2.68135082 7.162084,2.73298466 7.16484359,2.79438284 C7.16760317,2.84734462 7.18063455,2.89405723 7.20393772,2.93452066 C7.22724088,2.9749841 7.24847436,2.99521581 7.26763814,2.99521581 C7.29768696,2.99240368 7.30726886,3.00357409 7.29638383,3.02872703 C7.27997962,3.05934801 7.25805625,3.07887669 7.23061371,3.08731308 C7.21129661,3.09293734 7.19006313,3.07411169 7.16691328,3.03083613 C7.14376342,2.98756057 7.12597943,2.9352237 7.11356129,2.87382552 C7.10114316,2.81242734 7.09631388,2.7607935 7.09907347,2.718924 C7.10459264,2.63237288 7.12720591,2.54933692 7.16691328,2.46981612 C7.20662065,2.39029533 7.26342211,2.35194099 7.33731768,2.35475312 C7.41397283,2.35756525 7.47560357,2.4049809 7.5222099,2.49700005 C7.56881623,2.5890192 7.5907396,2.71454958 7.58798002,2.87359117 C7.59625877,2.89311986 7.61749225,2.90007207 7.65168045,2.89444781 C7.68586864,2.88882355 7.73101853,2.88812051 7.7871301,2.89233871 C7.84324166,2.89655691 7.88363893,2.91124247 7.90832189,2.93639542 C7.91108147,2.93639542 7.91246127,2.91546067 7.91246127,2.87359117 C7.86309535,2.52207488 7.98490038,2.33514632 8.27787636,2.31280551 Z" id="linux" fill="#999999" fill-rule="nonzero"></path>
    </g>
</svg>