<?xml version="1.0" encoding="UTF-8"?>
<svg width="16px" height="16px" viewBox="0 0 16 16" version="1.1" xmlns="http://www.w3.org/2000/svg" xmlns:xlink="http://www.w3.org/1999/xlink">
    <title>↳Icon 图标/资源/WEB服务器(MongoDB)@1x</title>
    <g id="↳Icon-图标/资源/WEB服务器(MongoDB)" stroke="none" stroke-width="1" fill="none" fill-rule="evenodd">
        <path d="M14.25,0 C15.2164983,-1.7754286e-16 16,0.783501688 16,1.75 L16,14.25 C16,15.2164983 15.2164983,16 14.25,16 L1.75,16 C0.783501688,16 1.18361906e-16,15.2164983 0,14.25 L0,1.75 C-1.18361906e-16,0.783501688 0.783501688,1.7754286e-16 1.75,0 L14.25,0 Z M8.32948661,2.60328125 C8.35320906,3.60343617 8.46778347,5.26503685 8.53368443,6.95704906 L8.53368443,6.95704906 L8.5536573,7.52131386 C8.63370045,10.0577835 8.56934698,12.5049205 7.88969866,12.7329844 L7.88969866,12.7329844 L7.88969866,13.9301875 C7.88969866,14.103875 8.14985491,14.203125 8.29232143,14.203125 C8.43478795,14.203125 8.66397321,14.0976719 8.66397321,13.8805625 L8.66397321,13.8805625 L8.66397321,12.66475 C9.96475446,11.9513906 11.46375,10.7541875 11.46375,8.148875 C11.46375,5.5435625 8.74449777,3.44690625 8.32948661,2.60328125 Z M8.21799107,1.796875 C7.88969866,3.27942188 4.52625,4.52004688 4.52625,8.14267188 C4.52625,11.4179219 6.89243304,12.416625 7.38177455,12.5717031 C7.99623884,12.0802778 8.11979547,9.13371988 8.16555157,5.98305825 L8.16555157,5.98305825 L8.17354702,5.37130861 C8.18803869,4.14513 8.19486607,2.91012917 8.21799107,1.796875 Z" id="MongoDB" fill="#999999" fill-rule="nonzero"></path>
    </g>
</svg>