<?xml version="1.0" encoding="UTF-8"?>
<svg width="16px" height="16px" viewBox="0 0 16 16" version="1.1" xmlns="http://www.w3.org/2000/svg" xmlns:xlink="http://www.w3.org/1999/xlink">
    <title>↳Icon 图标/资源/数据库(MySQL)@1x</title>
    <g id="↳Icon-图标/资源/数据库(MySQL)" stroke="none" stroke-width="1" fill="none" fill-rule="evenodd">
        <path d="M14.25,0 C15.2164983,-1.7754286e-16 16,0.783501688 16,1.75 L16,14.25 C16,15.2164983 15.2164983,16 14.25,16 L1.75,16 C0.783501688,16 1.18361906e-16,15.2164983 0,14.25 L0,1.75 C-1.18361906e-16,0.783501688 0.783501688,1.7754286e-16 1.75,0 L14.25,0 Z M3.05805018,2.375 L2.84443013,2.375 C2.80382467,2.38029038 2.76233648,2.3838173 2.72261374,2.39263462 C2.49310459,2.44730191 2.3677573,2.60689514 2.30508364,2.82468258 C2.29537364,2.8573066 2.28919455,2.89257582 2.28125,2.92608159 L2.28125,2.92608159 L2.28125,3.09537386 L2.29978728,3.17561134 C2.34605587,3.35975886 2.43358732,3.53100615 2.55577825,3.67643429 C2.76369577,3.93028337 2.95646416,4.19614463 3.13308202,4.47263696 C3.19361639,4.56929282 3.23998847,4.674106 3.27078751,4.78388784 C3.29503075,4.87406689 3.32211452,4.96346 3.35199844,5.05193393 C3.50294483,5.49015401 3.64153306,5.93366447 3.89134493,6.33044322 C3.98491404,6.47857395 4.0670077,6.63199506 4.21265773,6.73780273 C4.25502865,6.76778157 4.25414593,6.80834117 4.22854683,6.8524277 C4.20178199,6.89729287 4.17988419,6.94488157 4.16322499,6.99438632 C4.12438498,7.12135551 4.08819315,7.24832471 4.05376678,7.37705737 C4.01316131,7.52871502 3.96372857,7.67860922 3.93901221,7.83291206 C3.88071646,8.2266251 3.88012174,8.62671888 3.93724676,9.0206031 C3.99992041,9.48086645 4.14380499,9.91203269 4.44658052,10.2788326 C4.56133509,10.4172643 4.68933058,10.5186633 4.87470335,10.5389431 C5.01240883,10.5530508 5.1368734,10.5389431 5.23220797,10.4243181 C5.30351709,10.3436507 5.35250565,10.2457842 5.37432711,10.1404009 C5.40610529,9.96229133 5.42993893,9.7824183 5.45553803,9.60254527 C5.46613076,9.53024336 5.4705444,9.45705973 5.48113713,9.38563955 C5.48378531,9.36535974 5.50055712,9.34684341 5.51026713,9.3292088 C5.52439078,9.34243475 5.54292805,9.35301552 5.55175533,9.36888667 C5.58169566,9.42296312 5.60995642,9.47795056 5.63649716,9.53377029 C5.70005353,9.66691159 5.75301718,9.80622502 5.82893175,9.93319422 C5.95654161,10.1521508 6.11565992,10.3511954 6.30119096,10.5239537 C6.53511374,10.7373325 6.7681538,10.9524747 7.0029593,11.1649718 C7.10748331,11.2590099 7.21432618,11.3504441 7.32338938,11.43919 C7.35075393,11.462115 7.38959394,11.4709323 7.42402031,11.4859217 L7.42402031,11.4859217 L7.44432305,11.4585881 C7.43019941,11.4524159 7.41431032,11.448889 7.40371758,11.4400717 C7.29602483,11.3439631 7.18215298,11.2540266 7.08240478,11.1499824 C6.76285744,10.8149248 6.52628647,10.4199095 6.29412914,10.0248942 C5.99223634,9.51349048 5.711529,8.99062426 5.53321805,8.4201446 C5.52880441,8.40427346 5.51732895,8.38928404 5.50673622,8.37164942 C5.4449453,8.44924172 5.39198165,8.52418881 5.33019073,8.59120033 C5.16688614,8.76930991 5.07419976,8.98445216 5.02388429,9.2137021 C4.98151337,9.40680109 4.96562428,9.60607219 4.93914245,9.80181637 C4.927667,9.88381732 4.91883973,9.96581825 4.90383336,10.0460557 C4.89059244,10.1183576 4.86764152,10.1262932 4.80320242,10.0954326 C4.72817059,10.0601634 4.66373148,10.0107865 4.62665692,9.93672114 C4.54721146,9.77624618 4.46511779,9.61577122 4.39891324,9.45000588 C4.31240594,9.23221844 4.29033776,9.00120504 4.2691523,8.76930991 C4.2435532,8.48715613 4.21000955,8.20764755 4.27180047,7.92549377 C4.31593685,7.72534093 4.34418414,7.52077944 4.42186415,7.32856219 C4.47306234,7.20247472 4.5101369,7.07021513 4.55692145,6.94236421 C4.62665692,6.75455561 4.58075509,6.59937103 4.44128416,6.45741241 C4.16499044,6.17525865 3.97608677,5.84020104 3.86486311,5.46105691 C3.86133219,5.45047613 3.86044947,5.43989537 3.85603583,5.41432518 C3.90988221,5.47340113 3.95578404,5.52101457 3.99815496,5.57039149 C4.25591139,5.87017988 4.52602599,6.16115095 4.76612787,6.4741653 C5.0786134,6.87799789 5.31694982,7.33120738 5.56940988,7.77295439 C5.88630904,8.32932636 6.20232548,8.88746179 6.57483647,9.40944628 C6.88555656,9.84502116 7.22893755,10.2497355 7.64646765,10.58832 C8.04016411,10.9083882 8.48152784,11.1517458 8.94054613,11.3633612 C9.50107809,11.6225899 10.0677891,11.8685928 10.6265556,12.1304667 C10.9743503,12.2935869 11.3097867,12.4813955 11.6549332,12.6489243 C12.1933969,12.9072713 12.7353916,13.1568011 13.2756208,13.4125029 C13.4106781,13.4768693 13.5422045,13.5474077 13.6763791,13.6144192 C13.6887373,13.6205913 13.7046264,13.6214731 13.71875,13.625 C13.7178673,13.48745 13.6419527,13.399277 13.55368,13.317276 C13.5077781,13.2740713 13.4609936,13.2308664 13.4168572,13.1841347 C13.3162263,13.0730367 13.2208917,12.9566482 13.1167299,12.8490771 C12.8324916,12.5554609 12.5226543,12.2944686 12.1554396,12.1057783 C11.9806596,12.0158418 11.8297132,11.890636 11.7052486,11.7380966 C11.6805322,11.7072361 11.6646431,11.6675582 11.6416922,11.6287621 C11.7308477,11.6146544 11.8049968,11.6040736 11.8782632,11.5908476 C12.1324887,11.5449977 12.3849488,11.4912121 12.640057,11.4541794 C12.8625043,11.4215554 13.0725935,11.3492535 13.2826826,11.2778333 C13.3400599,11.2584352 13.3444736,11.2319833 13.3118126,11.1923054 C13.2482563,11.1164766 13.1829344,11.0415295 13.1264399,10.961292 C13.0505253,10.8537209 12.9604871,10.7620209 12.8580907,10.6826652 C12.7195025,10.5742123 12.5773834,10.4684047 12.4414433,10.3564249 C11.9091587,9.9182048 11.338034,9.55052316 10.6724575,9.34419822 C10.5894811,9.31862804 10.5294556,9.25867036 10.4906156,9.17843288 C10.4226456,9.03911945 10.3493792,8.90245121 10.2822919,8.76137432 C10.0404246,8.25349754 9.79679178,7.74650247 9.55845537,7.23509876 C9.44370079,6.98556902 9.35189714,6.72545851 9.2318462,6.47857395 C9.0650107,6.1364625 8.83197065,5.83579239 8.59451696,5.54129439 C8.38354509,5.28030214 8.17080777,5.01842817 7.93070589,4.78565131 C7.45031712,4.32695333 6.91830558,3.92543645 6.34532733,3.58914296 C6.14406547,3.46834587 5.94280361,3.3537209 5.71505991,3.28494592 C5.36196891,3.17737479 4.99828519,3.15092288 4.63371874,3.12887961 C4.60811964,3.12711616 4.57898963,3.11565366 4.5586869,3.10066424 L4.5586869,3.10066424 L4.29033775,2.88640372 C4.09878589,2.73827298 3.87633856,2.64392782 3.66007032,2.5425288 C3.54178485,2.4878615 3.41555482,2.45082883 3.29020752,2.41379614 C3.21517568,2.39263462 3.1357302,2.38734423 3.05805018,2.375 L3.05805018,2.375 Z M4.62400874,4.26543029 C4.7546524,4.2081178 4.87470335,4.21869857 4.97886519,4.32715142 C5.09097158,4.44353986 5.19248524,4.56698213 5.23662162,4.72745709 C5.2781098,4.87735128 5.13510795,5.05017047 4.96738973,5.07133201 C4.95503155,5.07221373 4.93472881,5.05017047 4.92590154,5.03429932 C4.80496788,4.84296379 4.68579966,4.65074654 4.56574872,4.45941101 C4.54368055,4.42326005 4.51808145,4.38887256 4.49071689,4.34743122 C4.53573599,4.31921585 4.57722418,4.28571009 4.62400874,4.26543029 Z" id="mysql" fill="#999999" fill-rule="nonzero"></path>
    </g>
</svg>