<?xml version="1.0" encoding="UTF-8"?>
<svg width="16px" height="16px" viewBox="0 0 16 16" version="1.1" xmlns="http://www.w3.org/2000/svg" xmlns:xlink="http://www.w3.org/1999/xlink">
    <title>↳Icon 图标/资源/WEB服务器(Nginx)@1x</title>
    <g id="↳Icon-图标/资源/WEB服务器(Nginx)" stroke="none" stroke-width="1" fill="none" fill-rule="evenodd">
        <path d="M14.25,0 C15.2164983,-8.13921198e-16 16,0.783501688 16,1.75 L16,14.25 C16,15.2164983 15.2164983,16 14.25,16 L1.75,16 C0.783501688,16 1.18361906e-16,15.2164983 0,14.25 L0,1.75 C-1.18361906e-16,0.783501688 0.783501688,1.7754286e-16 1.75,0 L14.25,0 Z M10.7390406,2.9375 L5.14635523,2.9375 C4.97215682,2.9375 4.88964179,2.9375 4.79795842,3.11286462 C4.00948147,4.60807884 3.12932115,6.19559024 2.35001253,7.68157474 C2.25832916,7.85693938 2.25832916,7.94923654 2.35001253,8.12460117 C3.22100453,9.71211258 4.10116485,11.2073268 4.97215682,12.7948382 C5.05467185,12.9702028 5.14635521,13.0625 5.32055361,13.0625 L5.32055361,13.0625 L10.6565255,13.0625 C10.830724,13.0625 10.913239,12.9702028 11.0049224,12.7948382 C11.8759143,11.1242593 12.7560747,9.53674796 13.6270666,7.8661691 C13.6270666,7.78310164 13.71875,7.78310164 13.71875,7.69080446 L13.71875,7.69080446 L7.7684995,7.69080446 C7.59430112,7.69080446 7.32841936,7.78310164 7.15422096,7.78310164 C6.63162574,7.8661691 6.28322896,8.21689836 6.28322896,8.65992479 C6.19154561,9.18601868 6.45742736,9.53674794 6.98002255,9.71211258 C7.15422096,9.80440976 7.32841934,9.80440976 7.50261774,9.80440976 L7.50261774,9.80440976 L10.3906438,9.80440976 C10.3081288,9.88747722 10.3081288,9.97977438 10.4731588,9.79518003 C10.2989604,10.2382065 10.042247,10.5889357 9.77636523,11.0319622 C9.6938502,11.1150296 9.60216685,11.2073268 9.42796844,11.2073268 L9.42796844,11.2073268 L6.63162577,11.2073268 C6.45742736,11.2073268 6.37491233,11.2073268 6.28322896,11.0319622 L6.28322896,11.0319622 L4.70627507,8.12460117 C4.61459169,8.04153372 4.61459169,7.94923656 4.70627507,7.77387192 C5.22887026,6.88781905 5.66895042,5.91869872 6.19154561,5.04187557 C6.27406064,4.95880811 6.36574399,4.86651093 6.53994239,4.86651093 L6.53994239,4.86651093 L9.60216685,4.86651093 C9.77636523,4.86651093 9.85888026,4.95880809 9.95056363,5.13417273 L9.95056363,5.13417273 L10.7390406,6.45402234 C10.830724,6.53708977 10.913239,6.62938695 11.0049224,6.62938695 L11.0049224,6.62938695 L13.1869865,6.62938695 C13.0953031,6.54631952 13.0953031,6.45402234 13.0953031,6.45402234 C12.3985095,5.40183453 11.784231,4.25734958 11.0874374,3.11286462 C11.0049223,2.9375 10.913239,2.9375 10.7390406,2.9375 L10.7390406,2.9375 Z" id="Nginx" fill="#999999" fill-rule="nonzero"></path>
    </g>
</svg>