<?xml version="1.0" encoding="UTF-8"?>
<svg width="16px" height="16px" viewBox="0 0 16 16" version="1.1" xmlns="http://www.w3.org/2000/svg" xmlns:xlink="http://www.w3.org/1999/xlink">
    <title>↳Icon 图标/资源/数据库(ORACLE)@1x</title>
    <g id="↳Icon-图标/资源/数据库(ORACLE)" stroke="none" stroke-width="1" fill="none" fill-rule="evenodd">
        <path d="M14.25,0 C15.2164983,-1.7754286e-16 16,0.783501688 16,1.75 L16,14.25 C16,15.2164983 15.2164983,16 14.25,16 L1.75,16 C0.783501688,16 1.18361906e-16,15.2164983 0,14.25 L0,1.75 C-1.18361906e-16,0.783501688 0.783501688,1.7754286e-16 1.75,0 L14.25,0 Z M10.2167203,4.21474001 C9.48260346,4.20125677 8.74796304,4.21251462 8.01345352,4.21251462 C7.24137419,4.21264553 6.46916396,4.20505302 5.69721554,4.21460911 C4.82381552,4.22534334 4.0246388,4.47327794 3.337517,5.0005644 C1.99848691,6.02803992 1.477353,7.66042874 1.99233436,9.1575924 C2.53284225,10.7288485 3.96402966,11.7525277 5.70834249,11.7754361 C7.24281415,11.7955956 8.77820216,11.79913 10.3125429,11.7753052 C11.6066725,11.7552767 12.6797031,11.2355828 13.4271722,10.212558 C14.3347385,8.97065966 14.4605385,7.61631366 13.7286471,6.26118222 C12.9993737,4.91102519 11.7903326,4.24353917 10.2167203,4.21474001 Z M8.7287442,5.55457493 L10.207426,5.56502795 C11.6107306,5.58021297 12.6910918,6.67654467 12.6772159,8.03743594 C12.6638635,9.36141192 11.56727,10.4146758 10.1809831,10.4272427 C9.4463427,10.433788 8.71157137,10.4282899 7.97693095,10.4282899 C7.25171571,10.4282899 6.52636957,10.4330025 5.80115433,10.4272427 C4.40806036,10.4161157 3.30387434,9.34740505 3.29809184,8.0116476 C3.29235468,6.67314113 4.38515194,5.57838029 5.77117702,5.56476614 C7.24988304,5.55023566 8.72885087,5.54892661 10.207426,5.56502795 Z" id="Oracle" fill="#999999" fill-rule="nonzero"></path>
    </g>
</svg>