<?xml version="1.0" encoding="UTF-8"?>
<svg width="16px" height="16px" viewBox="0 0 16 16" version="1.1" xmlns="http://www.w3.org/2000/svg" xmlns:xlink="http://www.w3.org/1999/xlink">
    <title>↳Icon 图标/资源/数据库(PostgreSQL)@1x</title>
    <g id="↳Icon-图标/资源/数据库(PostgreSQL)" stroke="none" stroke-width="1" fill="none" fill-rule="evenodd">
        <path d="M14.25,0 C15.2164983,-1.7754286e-16 16,0.783501688 16,1.75 L16,14.25 C16,15.2164983 15.2164983,16 14.25,16 L1.75,16 C0.783501688,16 1.18361906e-16,15.2164983 0,14.25 L0,1.75 C-1.18361906e-16,0.783501688 0.783501688,1.7754286e-16 1.75,0 L14.25,0 Z M8.18410712,2.4975421 C8.08003936,2.50661027 7.97594586,2.51567845 7.8718781,2.52474662 C7.6773144,2.57914274 7.4826992,2.63355176 7.28814839,2.68793499 C6.40916088,3.0676243 5.88851307,4.14353754 5.83559072,5.33978784 C6.03600034,5.23988317 6.25271158,5.13185199 6.48720525,5.06780723 C7.67404379,4.74364917 7.83753651,5.50412424 7.99406308,6.41412737 C8.0534108,6.75919511 8.06423993,7.24806365 7.98049126,7.58366333 C7.9095547,7.86792403 7.79967965,8.1199753 7.69540588,8.35881774 C7.60490994,8.61717674 7.51438824,8.87561315 7.42390519,9.13397214 L7.42390519,9.13397214 L7.43747701,9.13397214 L7.52202521,9.12313274 C7.60623381,9.12283041 7.68759952,9.15061539 7.74970602,9.17477246 C8.23939877,9.36524273 8.18427453,9.84415305 8.18412001,10.5074968 C8.18408138,10.6634874 8.18157097,10.8267861 8.17930525,10.9934221 L8.17590493,11.3299671 C8.17151196,12.3458917 8.24112253,13.386654 8.97149133,13.5945315 C9.25093681,13.6740683 9.58163071,13.580381 9.7995781,13.5129309 C10.9832361,13.1466181 10.7495537,11.7315063 10.9806222,10.4531007 C11.040691,10.1208032 10.9694454,9.66721409 11.116379,9.41956146 C11.2186312,9.24720174 11.3744881,9.21945545 11.5372083,9.10678053 C11.0424036,8.33437367 10.4923073,7.50797055 10.2068356,6.53651542 C9.86316219,5.36701815 10.4699537,4.89859493 11.6186649,4.9725979 C11.0962917,3.61424276 10.0446305,2.50864836 8.18410712,2.4975421 Z M7.49177714,9.47395757 C7.30626562,9.67339281 7.12070259,9.87289256 6.93519107,10.0723278 C6.69608761,10.2280475 6.301771,10.2801605 5.99850402,10.3579171 L5.99850402,10.3579171 L6.01207584,10.3851216 L6.18280176,10.4390507 C6.74333655,10.5959535 7.21895134,10.5229512 7.62753393,10.1811329 C7.85064478,9.99445506 7.95686291,9.48950116 7.49177714,9.47395757 Z M4.69527493,2.52473372 L4.09796053,2.59272565 C3.53507785,2.73315975 3.07713853,3.05716302 2.86261628,3.54467713 C2.1958075,5.06001609 3.14203602,7.88073297 3.6499876,9.06598021 C3.82290593,9.46946864 4.15408912,10.2550456 4.58667465,10.3579042 C4.80960524,10.4109072 4.94438341,10.2455905 5.03466045,10.1539155 C5.3694877,9.77316849 5.70440508,9.39231824 6.03923233,9.01158409 C5.72422199,8.64062756 5.29896319,8.19243035 5.4283461,7.39327045 L5.4283461,7.39327045 L5.49621806,6.69970377 L5.4826398,6.06733757 L5.4826398,6.06733757 L5.46906155,5.43497137 C5.670218,4.12546568 5.8171387,3.68046749 6.46006162,2.83751464 L6.46006162,2.83751464 L6.46006162,2.82391883 L6.22448985,2.77775262 C5.75556047,2.67646676 5.29218832,2.53155558 4.69527493,2.52473372 L4.69527493,2.52473372 Z M11.7001087,9.43317017 C11.4688599,9.55692554 11.3636333,9.58015708 11.3743079,9.94993977 C11.9523075,10.232975 13.0566464,9.84256644 13.3155668,9.52836661 C12.9810486,9.56405881 12.5906078,9.68298985 12.2023946,9.60995433 C12.008346,9.57344946 11.8745593,9.45849139 11.7001087,9.43317017 Z M6.81301897,5.36697944 L6.29716121,5.50297619 L6.05959166,5.63216859 L6.05959166,5.63216859 L5.82203178,5.76136099 C5.83108395,6.10130773 5.84013613,6.44135766 5.84918829,6.78130439 C5.80131353,7.10867436 5.72011441,7.50701599 5.78131634,7.84204812 C5.89971562,8.49020945 6.33213375,9.04516082 7.08454541,9.0523844 C7.15241737,8.83935335 7.2203022,8.6262578 7.28817415,8.41321385 C7.40240145,8.13470623 7.54619317,7.86512488 7.62755967,7.54286301 C7.76905937,6.98223597 7.65827009,5.70163749 7.32887672,5.46217588 C7.20853309,5.37469319 7.02263528,5.36427061 6.81301897,5.36697944 L6.81301897,5.36697944 Z M10.3968796,2.37515406 C10.2023159,2.4068862 10.0077007,2.43861834 9.81314991,2.4703505 C9.82220207,2.47487813 9.83125425,2.47941867 9.84030642,2.48394631 C10.0582796,2.65034659 10.3292008,2.74632987 10.5462211,2.90551947 C11.1685287,3.3620109 11.8300453,4.18076476 12.0123506,5.05419853 C12.0923908,5.43768022 11.9502859,6.02810452 11.8901785,6.35973124 C11.7919695,6.90156408 12.0829652,7.35817161 11.985207,7.93724457 C11.9440022,8.18132411 11.7088647,8.76021648 11.7815782,8.82119122 L11.7815782,8.82119122 L11.7815782,8.79398671 L11.8746967,8.6814412 C11.9876756,8.5188979 12.0614177,8.31290416 12.1616792,8.14122035 C12.6644029,7.28040205 13.0250347,6.27093284 13.2748514,5.16297787 C13.3693004,4.74410065 13.4548517,4.02709604 13.2884232,3.62626486 C13.2039277,3.42274056 12.9914786,3.23980344 12.8268656,3.10949526 C12.1996004,2.61297746 11.5619183,2.36795628 10.3968796,2.37515406 Z M11.5244665,5.32120252 C11.1201801,5.30780815 10.7275387,5.31682975 10.5597672,5.57098103 C10.4263539,5.77309932 10.4738295,6.20559814 10.5461953,6.44133187 C10.7259253,7.02684157 11.0099806,7.534414 11.2928383,8.0188452 C11.3561778,8.15028852 11.419543,8.28178345 11.4828953,8.41322676 L11.4828953,8.41322676 L11.5100518,8.39963095 C11.5647897,8.10915283 11.692151,7.7947595 11.6322239,7.40689206 C11.6005606,7.07598769 11.5688716,6.74500592 11.5371954,6.41412736 L11.5371954,6.41412736 L11.6593675,5.32619203 Z M6.93607024,5.67282385 L7.03576785,5.68189352 C7.15857805,5.69992188 7.24435547,5.74178424 7.33446512,5.80858513 C7.32994546,5.84484492 7.32542582,5.88111761 7.32090617,5.91737738 C7.19512866,6.21449862 6.69746538,6.09109154 6.68286345,5.76778482 C6.68738309,5.75871665 6.69191562,5.74964848 6.69643527,5.74058031 L6.69643527,5.74058031 L6.81860736,5.67258838 L6.93607024,5.67282385 Z M11.0540954,5.56380905 C11.1898136,5.58625374 11.2341859,5.60847914 11.2984525,5.6998058 C11.2153605,5.85294565 11.1510682,5.85967906 10.9997953,5.9581777 C10.8422257,5.91513292 10.7793627,5.88247203 10.6875663,5.78139354 C10.6958587,5.70297903 10.7096108,5.70484941 10.7418664,5.65900549 C10.815404,5.63075614 10.8592484,5.57779184 11.0540954,5.56380905 Z" id="PostgreSQL" fill="#999999" fill-rule="nonzero"></path>
    </g>
</svg>