<?xml version="1.0" encoding="UTF-8"?>
<svg width="16px" height="16px" viewBox="0 0 16 16" version="1.1" xmlns="http://www.w3.org/2000/svg" xmlns:xlink="http://www.w3.org/1999/xlink">
    <title>↳Icon 图标/资源/网络设备(路由器)@1x</title>
    <g id="↳Icon-图标/资源/网络设备(路由器)" stroke="none" stroke-width="1" fill="none" fill-rule="evenodd">
        <path d="M14.25,0 C15.2164983,-1.7754286e-16 16,0.783501688 16,1.75 L16,14.25 C16,15.2164983 15.2164983,16 14.25,16 L1.75,16 C0.783501688,16 1.18361906e-16,15.2164983 0,14.25 L0,1.75 C-1.18361906e-16,0.783501688 0.783501688,1.7754286e-16 1.75,0 L14.25,0 Z M8.93044939,9.58048364 L7.06988698,9.58048364 C7.04243227,9.58048364 7.0160878,9.59139507 6.99665702,9.61092647 C6.97722625,9.63045788 6.9663033,9.65696657 6.9662944,9.68461287 L6.9662944,11.6629136 L6.14752785,11.6629136 C6.09042494,11.6625749 6.04410347,11.7089147 6.04366555,11.7663653 C6.04358468,11.7902096 6.05166948,11.8133531 6.06655778,11.8318948 L7.91971952,14.1640618 C7.96133148,14.2161433 8.03967768,14.2161433 8.0811719,14.1640787 L9.93357676,11.8319117 C9.96953729,11.7872148 9.96196842,11.7217191 9.91746348,11.6855077 C9.89900493,11.6708176 9.87615076,11.6628539 9.8526235,11.6629136 L9.0336383,11.6629136 L9.0336383,9.68461287 C9.0336383,9.62724701 8.9876364,9.58048364 8.93044939,9.58048364 Z M3.88731236,6.06898849 C3.87239328,6.08785639 3.864303,6.11100937 3.86484123,6.13485677 L3.86484123,6.95865898 L1.90050122,6.95865898 C1.84338149,6.95865898 1.796875,7.00533755 1.796875,7.06280503 L1.796875,8.93679036 C1.79729549,8.9943764 1.84338149,9.04083479 1.90050122,9.04083479 L3.86484123,9.04083479 L3.86484123,9.86544998 C3.86484123,9.92290053 3.91119635,9.96924167 3.96831607,9.96924167 C3.99169317,9.96935905 4.01440498,9.96140884 4.03266827,9.94671405 L6.34832152,8.0810787 C6.39304512,8.04505355 6.40012622,7.97930384 6.36446844,7.93470853 L6.34832152,7.918432 L6.34832152,7.918432 L4.03266827,6.05293215 C3.98802877,6.01711024 3.9228524,6.02424075 3.88731236,6.06898849 Z M12.0318185,6.03010059 C12.0083759,6.03003588 11.9856265,6.03810455 11.967399,6.05294909 L9.65151026,7.91841507 C9.63006841,7.93565979 9.61634494,7.96080607 9.61338318,7.98827746 C9.61042142,8.01574885 9.61846615,8.04327487 9.63573337,8.06475136 C9.64008968,8.07105195 9.64579156,8.07631938 9.65151026,8.08106176 L11.967399,9.94669711 C12.0118871,9.98258677 12.0769794,9.97516833 12.1128726,9.93052221 C12.1275229,9.91203235 12.1354838,9.88907006 12.1354447,9.86541611 L12.1354447,9.04080091 L14.0996838,9.04080091 C14.1271096,9.04085942 14.1534311,9.02992486 14.1728384,9.0104108 C14.1922456,8.99089674 14.203125,8.96440763 14.203125,8.93679036 L14.203125,7.06280503 C14.203125,7.0351824 14.1922344,7.00868984 14.1728376,6.98915769 C14.1534408,6.96962554 14.1271318,6.95865449 14.0997006,6.95865898 L12.1354447,6.95865898 L12.1354447,6.13406072 C12.1354447,6.07666099 12.0891232,6.03010059 12.0318185,6.03010059 Z M7.93547959,1.81986684 L7.91939995,1.83558444 L7.91939995,1.83558444 L6.06667552,4.16768367 C6.03116911,4.2125161 6.03823339,4.27818113 6.08315883,4.31408772 C6.10153185,4.32909351 6.12449385,4.33723775 6.14815018,4.33713907 L6.96617666,4.33713907 L6.96617666,6.31477927 C6.96666443,6.37229757 7.0122963,6.41894226 7.06976924,6.41917938 L8.93044939,6.41917938 C8.98761958,6.41917938 9.0336383,6.37229757 9.0336383,6.31477927 L9.0336383,4.33702051 L9.8526235,4.33702051 C9.90972641,4.33725763 9.95604789,4.29069762 9.9565005,4.23323014 C9.9569002,4.20936284 9.94886259,4.18612649 9.93381223,4.16768367 L8.08098688,1.8355675 C8.04502635,1.79095526 7.97998454,1.78384169 7.93547959,1.81986684 Z" id="路由器" fill="#999999" fill-rule="nonzero"></path>
    </g>
</svg>