<?xml version="1.0" encoding="UTF-8"?>
<svg width="16px" height="16px" viewBox="0 0 16 16" version="1.1" xmlns="http://www.w3.org/2000/svg" xmlns:xlink="http://www.w3.org/1999/xlink">
    <title>↳Icon 图标/资源/安全设备(防火墙)@1x</title>
    <g id="↳Icon-图标/资源/安全设备(防火墙)" stroke="none" stroke-width="1" fill="none" fill-rule="evenodd">
        <path d="M14.25,0 C15.2164983,-1.7754286e-16 16,0.783501688 16,1.75 L16,14.25 C16,15.2164983 15.2164983,16 14.25,16 L1.75,16 C0.783501688,16 1.18361906e-16,15.2164983 0,14.25 L0,1.75 C-1.18361906e-16,0.783501688 0.783501688,1.7754286e-16 1.75,0 L14.25,0 Z M10.4517863,3.65106091 C10.4517863,3.65106091 10.5339606,5.36403462 9.53680695,6.61527499 C8.69294002,7.6746015 7.78665223,8.91159084 8.11851001,10.2739892 C8.38024857,11.3707593 9.10635319,12.2181555 10.0259021,12.5 C9.82678744,11.6430381 9.64110511,10.9789401 10.2803264,10.063074 C10.9874995,9.04745065 11.2324422,8.04892853 11.2324422,8.04892853 C11.3367403,8.06127943 12.5764662,10.3604455 11.7373401,12.1988282 C12.6436279,11.697192 13.7830063,10.6540167 13.6068056,8.6161195 C13.3318377,5.46284176 10.4517863,3.65106091 10.4517863,3.65106091 Z M7.6515387,9.8664098 L6.78396765,9.8664098 L6.7232396,9.87428232 C6.58596318,9.90909964 6.48288738,10.0551429 6.4821351,10.2302861 L6.4821351,10.2302861 L6.4821351,12.1294732 L6.48829879,12.202391 C6.51658016,12.36751 6.63877987,12.4933495 6.78396765,12.4933495 L6.78396765,12.4933495 L9.08405812,12.4933495 L8.92272471,12.3691719 C8.34493546,11.8927708 7.92088281,11.188054 7.72660177,10.3737464 C7.68742937,10.2081069 7.66228054,10.0381309 7.6515387,9.8664098 L7.6515387,9.8664098 Z M5.68172574,9.86545973 L2.76769837,9.86545973 L2.70677889,9.87301119 C2.56904223,9.90722963 2.46545562,10.0536827 2.46507568,10.229336 L2.46507568,10.229336 L2.46507568,12.1285232 L2.47124092,12.2014409 C2.49953309,12.3665599 2.62181922,12.4923995 2.76769837,12.4923995 L2.76769837,12.4923995 L5.68172574,12.4923995 L5.74275224,12.4848627 C5.88076198,12.4507023 5.98479204,12.3044451 5.9859287,12.1285232 L5.9859287,12.1285232 L5.9859287,10.229336 L5.97947349,10.1559141 C5.95058225,9.98995494 5.82819326,9.86545973 5.68172574,9.86545973 L5.68172574,9.86545973 Z M8.81146066,6.68653014 L2.67762269,6.68653014 L2.6168091,6.69405514 C2.47929632,6.72815626 2.37575897,6.87412775 2.375,7.04945635 L2.375,7.04945635 L2.375,8.94959358 L2.38119764,9.0227433 C2.40963025,9.18813503 2.53243491,9.31251979 2.67762269,9.31251979 L2.67762269,9.31251979 L7.66734145,9.31251979 L7.66734145,9.31156972 L7.70736229,9.06222345 C7.88817393,8.15700544 8.4312728,7.35324079 8.92524047,6.71313206 C8.88899691,6.69592775 8.850425,6.68690957 8.81146066,6.68653014 L8.81146066,6.68653014 Z M9.98955578,3.5 L6.78396765,3.5 L6.72317063,3.50771614 C6.58573246,3.54224943 6.48251285,3.6885459 6.4821351,3.86387628 L6.4821351,3.86387628 L6.4821351,5.76116331 L6.48829879,5.83466744 C6.51658016,6.00087749 6.63877987,6.12598965 6.78396765,6.12598965 L6.78396765,6.12598965 L9.37324847,6.12598965 L9.47688655,5.96017652 C10.0319889,5.01044575 10.0501581,3.90903361 10.0479939,3.69682624 L10.0479939,3.69682624 L10.0472358,3.6605616 L10.0401246,3.51235089 L10.0151365,3.50475034 L10.0151365,3.50475034 L9.98955578,3.5 Z M5.68172574,3.5 L2.76769837,3.5 L2.70677889,3.50755146 C2.56904223,3.5417699 2.46545562,3.68822295 2.46507568,3.86387628 L2.46507568,3.86387628 L2.46507568,5.76116331 L2.47124092,5.83466744 C2.49953309,6.00087749 2.62181922,6.12598965 2.76769837,6.12598965 L2.76769837,6.12598965 L5.68172574,6.12598965 L5.7428578,6.11842605 C5.88109068,6.08414773 5.98516971,5.93741014 5.9859287,5.76116331 L5.9859287,5.76116331 L5.9859287,3.86387628 L5.97947349,3.79045438 C5.95058225,3.62449521 5.82819326,3.5 5.68172574,3.5 L5.68172574,3.5 Z" id="防火墙" fill="#999999" fill-rule="nonzero"></path>
    </g>
</svg>