<?xml version="1.0" encoding="UTF-8"?>
<svg width="16px" height="16px" viewBox="0 0 16 16" version="1.1" xmlns="http://www.w3.org/2000/svg" xmlns:xlink="http://www.w3.org/1999/xlink">
    <title>↳Icon 图标/资源/数据库(SQLServer)@1x</title>
    <g id="↳Icon-图标/资源/数据库(SQLServer)" stroke="none" stroke-width="1" fill="none" fill-rule="evenodd">
        <path d="M14.25,0 C15.2164983,-1.7754286e-16 16,0.783501688 16,1.75 L16,14.25 C16,15.2164983 15.2164983,16 14.25,16 L1.75,16 C0.783501688,16 1.18361906e-16,15.2164983 0,14.25 L0,1.75 C-1.18361906e-16,0.783501688 0.783501688,1.7754286e-16 1.75,0 L14.25,0 Z M6.98117922,2.28125 C6.91687956,2.29016215 6.85610613,2.31611845 6.80511338,2.35644761 L6.80454173,2.35644761 C6.74121172,2.40026133 6.66743473,2.42640892 6.5907475,2.43221926 C6.53903634,2.42656759 6.48740008,2.44350303 6.44898021,2.47871549 C6.40208844,2.51999099 6.34394094,2.54618656 6.28206064,2.55391311 C6.08338209,2.61175579 5.89167262,2.69145469 5.71041831,2.79156054 C5.66983171,2.81739178 5.53435248,2.88455301 5.40687623,2.94827008 C5.08016297,3.12982677 4.77488227,3.34780398 4.49682164,3.59806931 C4.49682164,3.61816028 4.80036372,3.93731963 5.16964467,4.31445576 C6.07626941,5.22830771 6.13343364,5.34426129 6.15515605,6.31609003 C6.1694471,6.87863708 6.16087247,7.05888175 6.09456196,7.18057559 C6.02825145,7.31374999 5.96765737,7.45036856 5.90706328,7.5864131 C5.73427719,7.94879604 5.51667011,8.2878512 5.25939251,8.59555363 C4.92336283,8.99519661 4.54883274,9.360522 4.14126011,9.68620608 C3.16089351,10.4783642 2.80133049,10.9714539 2.81276333,11.5230944 C2.81847976,11.8944903 3.01512472,12.1929846 3.48558636,12.5528999 C3.92912605,12.8921072 4.43585867,13.1386257 4.97585792,13.2778968 C5.91575658,13.5309504 6.880652,13.6788009 7.85293377,13.71875 C8.02394085,13.5665937 8.14143357,13.3630429 8.18791617,13.1384081 C8.19031278,13.1106164 8.21225945,13.0885782 8.23993563,13.0861716 C8.2719476,13.0861716 8.28909687,13.0511559 8.28909687,13.010974 C8.34099956,12.8015683 8.4195817,12.5997592 8.52289858,12.4105411 C8.557385,12.3470241 8.5816919,12.2784484 8.59492551,12.2073353 C8.60711856,12.1414872 8.62949241,12.0779593 8.66123602,12.0190543 C8.98890809,11.0704593 9.15491639,10.0731643 9.15227678,9.06912641 C9.1571488,8.73593979 9.10533778,8.40436337 8.99907664,8.08868726 C8.91847507,8.00143506 8.83730186,8.27696831 8.86645562,8.53528074 C8.90704223,8.90093632 8.85216456,8.96752352 8.63779869,8.81368413 C8.30281629,8.5760367 8.14104151,8.4887845 8.09759669,8.53528074 C8.0627265,8.5760367 8.33425661,8.81368413 8.42114625,8.82229454 C8.53547471,8.82229454 8.79957347,8.98474435 8.77956598,9.039851 C8.6253937,9.16669985 8.45554316,9.27300998 8.27423416,9.35614021 C8.08356829,9.44915745 7.89928232,9.55482094 7.72259931,9.67242941 C7.63480224,9.74286431 7.51455258,9.75647954 7.41334082,9.7074451 C7.39904976,9.68735414 7.41905724,9.60584221 7.45964385,9.52490432 C7.54932583,9.25694329 7.56900868,8.97035116 7.51680807,8.6925643 C7.45964384,8.63516153 7.38132885,8.76776191 7.38132885,8.92217534 C7.34915145,9.20709049 7.28115626,9.48676399 7.17896746,9.75451537 C7.15895998,9.78034661 7.05206286,9.68792817 6.94516575,9.55704987 C6.53472655,9.05534975 6.46841604,9.00311323 6.46841604,9.19139429 C6.53872879,9.40722093 6.67024977,9.59774455 6.84684326,9.73959065 C6.92172841,9.73959065 7.04063002,9.9485367 6.98861056,9.99503293 C6.87911148,10.0481998 6.76408052,10.0890136 6.64562516,10.1167268 C6.33397109,10.2024333 6.03115703,10.3177599 5.741287,10.4611434 C5.66640186,10.5219903 5.45546584,10.5133799 5.45546584,10.4410524 C5.47804679,10.3621846 5.51701184,10.2890159 5.5697943,10.2263661 C5.88476923,9.80847395 6.15629933,8.95317283 5.85561546,9.3331791 C5.61958601,9.6704946 5.40938064,10.0253051 5.2268089,10.3945561 C5.201085,10.4697538 5.16049839,10.5018993 5.0850416,10.4904188 C4.99243554,10.4789382 4.96385342,10.4209614 4.90325934,10.1305035 C4.8312324,9.78608688 4.73576813,9.68965025 4.67460241,9.9008924 C4.6186724,10.076016 4.63536323,10.2663819 4.72090544,10.4289978 C4.76747854,10.4985692 4.79344515,10.5799788 4.79579058,10.6637751 C4.79579058,10.7998196 4.78435774,10.8061339 4.56198887,10.8061339 C4.45007834,10.8046782 4.33873607,10.8223422 4.23272289,10.8583705 C4.13400354,10.904407 4.03019105,10.9385133 3.92346438,10.9599733 C3.69248232,10.9854691 3.47225786,11.0715903 3.28493989,11.2096753 C3.24435329,11.3313692 3.7616896,11.2561716 4.31046624,11.0529658 C4.52711869,10.9777682 4.79007416,10.9381603 4.79007416,10.995563 C4.75104775,11.0757934 4.69821686,11.1484718 4.6340158,11.2102494 C4.25844679,11.6224012 3.84572103,12.2601459 3.90631511,12.3267331 C4.16558439,12.1214875 4.39242734,11.8780218 4.57913814,11.6046063 C4.62074417,11.5304157 4.6778899,11.4661767 4.74662934,11.4163253 C4.77235324,11.4163253 4.79293237,11.3870499 4.79293237,11.3497381 C4.81793396,11.272166 4.85926549,11.2009044 4.91412054,11.140792 L5.02844901,10.9869526 L5.25081787,11.2165637 C5.39403742,11.3624034 5.54974186,11.4953236 5.71613474,11.6137908 C5.94993645,11.7705003 5.98480663,11.8721032 5.81159901,11.8721032 C5.71324737,11.8852113 5.61650741,11.9084873 5.52291963,11.9415605 C5.40859117,11.9823165 5.18507901,12.0563661 5.01758781,12.1040103 C4.88611165,12.1409134 4.75917491,12.1925161 4.63916059,12.2578497 C4.58073782,12.2997555 4.5134209,12.3274627 4.44251562,12.3387876 C4.38475611,12.3409404 4.33084444,12.3684283 4.2950319,12.4139852 C4.269308,12.5069777 4.48881865,12.4949231 4.80608014,12.3996346 C4.95356386,12.3588786 5.19594021,12.284829 5.34628215,12.2371847 C5.47680248,12.19994 5.60351194,12.1503517 5.72470937,12.0890856 C5.8344647,12.0167581 6.05397535,11.9960931 6.05397535,12.0632544 C6.00290643,12.169546 5.94000546,12.2696832 5.86647667,12.3617487 C5.75957956,12.5041076 5.61209583,12.7274043 5.53721069,12.8548384 C5.38401054,13.1131509 5.26282237,13.1504627 4.9770012,13.0172883 C4.88439514,12.9822726 4.68832183,12.8955944 4.53797989,12.8347475 C4.41700813,12.792982 4.30380107,12.7312925 4.20299749,12.6522067 C4.06532742,12.518156 3.90631698,12.4081498 3.73253584,12.3267331 C3.53333214,12.172107 3.36482479,11.9812828 3.23577865,11.764186 C3.14461675,11.625557 3.11097715,11.4566572 3.14202932,11.2934834 C3.13887275,11.1746002 3.16354308,11.0566323 3.21405625,10.9490668 C3.2461336,10.9183415 3.26756901,10.8781082 3.27522199,10.8342613 C3.27522199,10.6499602 3.96191432,10.0666257 4.53032361,9.74697987 L4.65002178,9.68276192 C4.75232231,9.63286677 4.8507329,9.57530101 4.94441759,9.51055363 C5.24397566,9.31010857 5.57146431,9.15535321 5.91620955,9.05133155 C6.00602522,9.03802577 6.09132292,9.00317361 6.16487397,8.94972866 C6.19659971,8.91043664 6.24191803,8.88460811 6.29177856,8.87740119 C6.38247711,8.85787418 6.46937528,8.82355161 6.54901762,8.7757983 C6.62545383,8.73228055 6.70683213,8.69816719 6.79139396,8.67419541 C6.88039004,8.6518377 6.9666582,8.61968903 7.04863301,8.5783328 C7.18598693,8.51520857 7.3279848,8.46281668 7.47336326,8.42162327 C7.59422456,8.38831344 7.71296301,8.34767424 7.82892479,8.29992941 C8.24887622,8.13410268 8.67931409,7.9964168 9.11740661,7.8877776 C9.3141524,7.83527272 9.50801571,7.77242578 9.69819521,7.69949654 C9.80500445,7.65810369 9.91516734,7.62603083 10.0274612,7.60363394 C10.1417897,7.5778027 10.3767347,7.52843633 10.5590886,7.48194009 C11.2610654,7.30973181 12.1025229,7.13752352 12.7078921,7.04395703 C13.0663118,6.98655426 13.1875,6.93374373 13.1875,6.82640056 C12.9036329,6.40086656 12.5535171,6.02390041 12.1505408,5.70991688 C11.4229647,5.20720638 10.6089248,4.84422558 9.74964303,4.63935539 C9.54156522,4.59285915 9.25860226,4.52454987 9.11683496,4.48551599 C8.95125572,4.43859894 8.78230659,4.40462973 8.61150314,4.3839131 C8.42494833,4.35445874 8.2391127,4.32058166 8.05415187,4.28231023 C7.87037913,4.24507148 7.68406329,4.22185272 7.4968006,4.21285288 C7.30282357,4.20266492 7.11083274,4.16854075 6.92515827,4.11125 C6.79855787,4.06398061 6.66464916,4.03949665 6.52958177,4.03892251 C6.4189549,4.03845606 6.30932999,4.01783994 6.20603221,3.97807559 C6.08966916,3.93450667 5.96603925,3.91384819 5.84189605,3.91722866 C5.73518883,3.92756055 5.62753438,3.91363068 5.52692112,3.8764727 C5.39735908,3.83562219 5.26520019,3.80359527 5.13134463,3.7806101 C4.96956985,3.74846455 4.88896828,3.67326694 4.88896828,3.5458328 C4.88896828,3.52000156 4.9958654,3.43848964 5.12276999,3.36329203 L5.35142693,3.22724749 L5.45260762,3.34894134 C5.54235547,3.46374686 5.5480719,3.46374686 5.51891813,3.36329203 C5.50176887,3.2358579 5.80759751,2.89029328 5.96079766,2.89029329 C6.00799984,2.89413588 6.05453108,2.87716388 6.08827389,2.84379705 C6.13493945,2.80182139 6.1934966,2.77553131 6.25576509,2.76859944 C6.37754328,2.7321182 6.49640216,2.68644866 6.61132663,2.63198086 C6.91486871,2.48388174 6.98689564,2.51717535 7.05606436,2.81452164 C7.08499432,2.94067945 7.12754772,3.06329038 7.18296896,3.18017723 C7.30987355,3.37764273 7.19726001,3.40978826 6.75252228,3.29498274 C6.42666704,3.18514411 6.07739347,3.1653176 5.741287,3.23757998 C5.72699594,3.26972553 5.79845124,3.30416718 5.90306178,3.31851788 C6.00767232,3.33286858 6.20660386,3.38510508 6.34208309,3.42586104 C6.52056923,3.47155378 6.70382141,3.49583244 6.88800151,3.49818852 C7.10465395,3.49818852 7.19154359,3.51827948 7.21155107,3.57338613 C7.23155855,3.61414209 7.26871531,3.64858375 7.30129892,3.64858375 C7.37880605,3.70259019 7.44470773,3.77169502 7.49508567,3.85178952 C7.56997081,3.96659504 7.66257687,4.05499529 7.69173064,4.05499529 C7.75804115,4.05499529 7.71745454,3.91895076 7.55910961,3.56764586 C7.43693555,3.30688204 7.33172332,3.03843966 7.24413469,2.76400721 C7.17439432,2.50454673 7.05320615,2.28125 6.98117922,2.28125 Z M8.8052899,9.2396126 C8.83410384,9.2441864 8.85886831,9.26262288 8.8716004,9.28897898 L8.87274369,9.28438676 C8.87966968,9.71833216 8.82520114,10.1510669 8.71096891,10.5696346 C8.67074976,10.6462535 8.65841741,10.7345643 8.67609873,10.8193366 C8.7081107,10.9151992 8.68181515,11.0225423 8.52289858,11.5443334 C8.28909687,12.2957356 8.26851774,12.3301772 8.18505796,12.3301772 C8.07323587,12.3585292 7.96812253,12.4088663 7.87579946,12.4782763 C7.75466082,12.5578664 7.62088034,12.6161057 7.48022297,12.6504846 C7.23064767,12.6941187 6.98527135,12.7592236 6.74680586,12.84508 C6.68964162,12.8651709 6.55016089,12.9116672 6.43183093,12.9409426 C6.13743513,13.0161402 6.16030082,13.094782 6.47241754,13.094782 C6.79800002,13.0735287 7.11702063,12.9930031 7.41391246,12.8571346 C7.48313135,12.826085 7.55589737,12.8037207 7.6305649,12.7905474 C7.71462476,12.7613819 7.79227075,12.7161593 7.85922184,12.657373 C7.95468611,12.5850455 8.0558668,12.5425674 8.08787877,12.5615103 C8.15704749,12.6080066 8.15418928,12.7991578 8.06787129,12.9185555 C8.02254756,12.9985969 7.98849635,13.0845631 7.96669059,13.1739978 C7.9405385,13.2725073 7.89760319,13.3657278 7.839786,13.449531 C7.74432173,13.5712249 7.7386053,13.5712249 7.40076469,13.510378 C6.99342088,13.4509101 6.58478122,13.4007653 6.17516353,13.3599827 C6.13457692,13.3542425 6.12314407,13.3134865 6.14315155,13.2239382 C6.17516353,13.1022443 6.16887545,13.0907638 6.05626193,13.116595 C5.72699594,13.1917926 5.55664653,13.2124576 5.55664653,13.1630913 C5.55735897,13.1337056 5.57257065,13.1065975 5.59723313,13.0907638 C5.85288589,12.8176124 6.07687563,12.5162369 6.26491138,12.1924106 C6.31407262,12.0592362 6.35465922,12.0357011 6.4935683,12.0357011 C6.57632933,12.0322181 6.65754956,12.0589287 6.72222524,12.1108987 C6.76808807,12.1565075 6.82923033,12.1833177 6.89371794,12.1860963 C6.97533541,12.1976632 7.05439774,12.223092 7.12751965,12.2612939 C7.26928696,12.3422318 7.88723231,12.3628968 7.8872323,12.2871252 C7.8872323,12.2612939 7.82663822,12.2262782 7.75175307,12.2119275 C7.62492516,12.1844915 7.49957277,12.1505798 7.37618406,12.1103246 C7.27357876,12.0760773 7.16818482,12.0509154 7.06120915,12.035127 C6.94688068,12.035127 6.62504605,11.8669369 6.62218783,11.805516 C6.62218783,11.7733704 6.76395514,11.7096534 6.94002096,11.6574169 C7.11608679,11.6051804 7.28929442,11.5426114 7.32988103,11.5213723 C7.51816045,11.4261832 7.71212763,11.3427897 7.91066964,11.2716703 C8.02804929,11.2122658 8.14096186,11.1443507 8.24851026,11.0684645 C8.48231197,10.9146251 8.53718964,10.8595185 8.47087913,10.8336873 C8.42133725,10.8164138 8.36656397,10.8238753 8.3233954,10.8537782 C8.22463309,10.9124729 8.11877648,10.9581947 8.00842049,10.9898228 C7.86665319,11.036319 7.66543509,11.1172569 7.55110662,11.1666233 C7.02519567,11.410011 6.77138648,11.5236684 6.75080735,11.5236684 C6.69021327,11.5236684 6.72508345,11.4088629 6.88342837,11.1264413 C6.99304493,10.9285726 7.08395248,10.7208228 7.15495848,10.5059175 C7.28186308,10.1287814 7.33674074,10.1086904 7.65171567,10.3233767 C7.93464752,10.477559 8.23827657,10.5898891 8.55319563,10.6568868 C8.64580169,10.6568868 8.5852076,10.5610241 8.45773136,10.5087876 C8.1963327,10.3902315 7.9382337,10.2644718 7.68372764,10.1316515 C7.48994089,10.0357889 7.53052749,9.94911072 7.81063224,9.82684285 C8.09811013,9.71130682 8.36259413,9.54487711 8.59149566,9.33547521 C8.59149566,9.30045953 8.67209723,9.2602776 8.8052899,9.2396126 Z M7.01294453,10.2677948 L7.02,10.288 L7.02062254,10.2895091 C6.81199864,10.7678773 6.55962589,11.2290009 6.26719794,11.6643052 C5.89021986,11.4519155 5.55303899,11.1751011 5.27082535,10.8463159 C5.35474266,10.7763438 5.45694279,10.7321047 5.56522116,10.7188817 C5.94493113,10.6335401 6.31540777,10.5110706 6.67134907,10.3532262 C6.82961234,10.2685981 6.97779603,10.2354216 7.01294453,10.2677948 Z M6.83941192,7.70925501 C6.87371045,7.70925501 6.94059261,7.80224748 6.99261206,7.90959065 L6.99089714,7.91131273 C7.12637637,8.18684598 7.09207783,8.27696831 6.81940444,8.37053481 C6.52302141,8.48581165 6.23280707,8.61648362 5.94993645,8.76202164 C5.65554065,8.91873117 5.72756758,8.74767095 6.07112462,8.46639742 C6.26141297,8.30622502 6.43914663,8.13158791 6.60275199,7.9440323 C6.69821626,7.81659817 6.80511338,7.70925501 6.83941192,7.70925501 Z M6.29292185,7.96641938 C6.09393984,8.25522057 5.84650666,8.51009196 5.5617913,8.71782151 C5.2673955,8.89462201 5.44060313,8.58177697 5.79044824,8.28557873 C5.92306926,8.17823556 6.06483656,8.05596769 6.10828137,8.00717534 C6.20946206,7.91131273 6.25290688,7.90270231 6.29292185,7.96641938 Z M8.34168796,6.79081085 L8.34168796,6.79482904 C8.12747371,7.11530956 7.88896318,7.4187219 7.62827833,7.70236669 C7.58520369,7.74567572 7.55255156,7.79829419 7.53281407,7.85620608 C7.50622699,7.91187683 7.47218484,7.96363595 7.43163337,8.01004548 C7.31730491,8.14609002 7.22927199,8.11738864 7.22927199,7.95264272 C7.2244616,7.87001333 7.19652338,7.79042525 7.14867042,7.72303168 C7.0160494,7.53130645 7.07664349,7.39813205 7.35674823,7.25003293 C7.59982469,7.12926286 7.83608137,6.99511928 8.06444143,6.84821361 C8.23193263,6.74374058 8.34168796,6.72077948 8.34168796,6.79081085 Z M8.79442869,6.58875314 L9.01108113,6.74546266 C9.12941109,6.83271486 9.3374889,7.00090495 9.47296813,7.1225988 L9.47353978,7.12432088 C9.7222042,7.34187734 9.7479281,7.46070106 9.54842493,7.46070107 C9.04245991,7.56415368 8.54802268,7.71798802 8.07244442,7.91992314 C7.6562888,8.08811323 7.51223494,8.06802226 7.73746202,7.87342691 C8.06707659,7.55260394 8.3667263,7.20213031 8.63265391,6.82640056 L8.79442869,6.58875314 Z M6.37752491,7.25806932 C6.43028718,7.26487273 6.48129513,7.28162174 6.52786685,7.30743569 L6.52786685,7.30800971 C6.57702809,7.34015526 6.62333111,7.39526191 6.62333111,7.42970358 C6.53070152,7.57705838 6.39717062,7.69398638 6.23918746,7.76608375 C6.21917998,7.76608375 6.17859338,7.80109944 6.1437232,7.85333594 C6.05397535,7.98077007 6.01110218,7.85333594 6.09742017,7.6966264 C6.13037296,7.63041824 6.15458613,7.56017721 6.1694471,7.48768036 C6.19395342,7.37982087 6.27289391,7.2927111 6.37752491,7.25806932 Z M11.1987563,5.67891938 L11.1953265,5.67891938 C11.2210504,5.71967535 11.0478428,5.9745436 10.9209382,6.0910712 C10.9066471,6.10542188 10.767738,6.27361197 10.6173961,6.47107747 C10.4670541,6.66854297 10.3081376,6.85682402 10.2744107,6.89183971 C10.2222545,6.95972105 10.1768762,7.03259091 10.1389314,7.10939617 C10.0377508,7.30399153 9.94514469,7.29767722 9.80394904,7.08930521 C9.65381258,6.8858084 9.47243798,6.70755211 9.26660526,6.56119981 C9.03280355,6.40736041 9.11912154,6.32642252 9.69705193,6.14330771 C9.99430594,6.0474451 10.3355764,5.92862138 10.4510482,5.87925502 C10.5410326,5.8331773 10.6373709,5.80086604 10.7368693,5.78339241 C10.7897274,5.77598754 10.8379864,5.74920139 10.8723486,5.70819478 C10.9443755,5.62381272 11.1581697,5.60946203 11.1987563,5.67891938 Z M11.928172,5.93378764 C12.139108,6.09623745 12.4306456,6.34249529 12.5838457,6.48485414 L12.584989,6.48255802 C12.7324727,6.62491687 12.8393698,6.76096141 12.8216489,6.79310696 C12.6911739,6.844152 12.5506093,6.86381093 12.4112097,6.85050972 C12.2125505,6.84774358 12.0141252,6.86524556 11.8189883,6.90274623 C11.6978001,6.92857747 11.3193729,7.01755175 10.9695278,7.10021172 C10.7562597,7.15578052 10.5402713,7.20023141 10.3224286,7.23338614 C10.3989942,7.11922029 10.4892263,7.01492405 10.5911005,6.9228372 C10.8925997,6.61675308 11.1405474,6.26181261 11.3245176,5.87294071 C11.338543,5.8087513 11.3768769,5.75255447 11.4314148,5.71623117 C11.5325955,5.64677384 11.5640358,5.65882841 11.928172,5.93378764 Z M7.38190048,6.20587673 L7.38247213,6.20587673 C7.27593734,6.55867387 7.12208786,6.89527211 6.92515827,7.20640684 C6.87656866,7.23281211 6.78453425,7.19205615 6.64791174,7.07036229 L6.44555035,6.89815401 L6.80111188,6.5818648 C6.99489864,6.40965652 7.18525553,6.22481963 7.22584214,6.18004548 C7.30072728,6.08992314 7.38190049,6.10484786 7.38190048,6.20587673 Z M7.70830826,6.04055678 C7.84089383,6.06856551 7.96913447,6.11432242 8.08959369,6.17660131 L8.09016534,6.17660131 C8.42800596,6.33331085 8.49031497,6.47222553 8.25765654,6.52733218 C8.02873009,6.60673599 7.81117239,6.71596875 7.61055742,6.8522318 C7.54632546,6.89810133 7.47365154,6.93068739 7.39676319,6.94809441 C7.33045268,6.95383469 7.36475122,6.77129391 7.46593191,6.62319479 C7.50714851,6.54857767 7.5298914,6.46510161 7.53224242,6.37980709 C7.53224242,6.19726631 7.61284398,6.04055678 7.70830826,6.04055678 Z M6.35408757,5.57616844 L6.5015713,5.60831399 C6.58217286,5.62840495 6.77595962,5.67777133 6.92630155,5.72311951 L6.92630155,5.72541562 C7.03585522,5.75274085 7.14234996,5.79120815 7.24413469,5.84022114 C7.26985859,5.85457183 7.17782418,5.96191499 7.0417733,6.06983218 C6.90572243,6.17774936 6.73823122,6.33388487 6.66334608,6.41424874 C6.49585488,6.59104924 6.44669363,6.56234786 6.44097721,6.2782042 C6.43762651,6.12414356 6.42214387,5.97059052 6.39467418,5.81898212 L6.35408757,5.57616844 Z M9.21630073,5.08365276 C9.19684573,5.18564901 9.16479883,5.28488866 9.1214081,5.37927697 C9.02509932,5.57157586 8.94201685,5.77027149 8.87274369,5.97396957 C8.85722379,6.03562557 8.81284291,6.08586753 8.7537333,6.10869686 C8.69462369,6.13152619 8.62815379,6.12409704 8.57548967,6.08877509 C8.45331221,6.01384381 8.3269631,5.94599756 8.19706246,5.88556932 C8.08869409,5.83830142 7.98512682,5.78063076 7.88780395,5.71336104 C8.04160172,5.59521843 8.20381046,5.4885466 8.37312829,5.39420169 L8.56968394,5.27242711 C8.76223808,5.15293071 8.93276614,5.04691499 8.99107365,5.01419541 C9.20200967,4.88102101 9.25117092,4.8953717 9.21630073,5.08365276 Z M9.77879678,4.97343946 L9.77708185,4.97343946 C10.2016155,5.0821639 10.6147264,5.23171972 11.010686,5.42003294 C11.0249771,5.47226945 10.7563052,5.58248275 10.6151095,5.58248275 C10.1642612,5.67377467 9.7272467,5.82391361 9.31519485,6.02907622 C9.22258879,6.07557246 9.13912901,6.09566343 9.11854989,6.07557245 C9.12863248,5.95929515 9.16797289,5.84749726 9.23287836,5.75067284 C9.32239593,5.58086731 9.37555359,5.3941369 9.38893671,5.20247647 C9.39465313,5.06643194 9.40036955,4.94416405 9.40322778,4.9326835 C9.41180241,4.90053795 9.63702949,4.92694322 9.77879678,4.97343946 Z M7.35217508,4.55554736 L7.35046016,4.55554736 C7.3983917,4.71551457 7.43657194,4.87826596 7.46478862,5.0428968 C7.52538271,5.34770546 7.53395734,5.50211888 7.49965881,5.53598651 C7.46536027,5.56985414 7.31787655,5.54459693 7.0229091,5.45504861 L6.53758477,5.29833907 C6.4163966,5.26619353 6.47127426,5.19099591 6.7919656,4.94129391 C6.92879767,4.84191232 7.05555166,4.72924196 7.17039282,4.60491374 C7.24241976,4.50905113 7.31216013,4.49010822 7.35217508,4.55554736 Z M8.31825063,4.6479658 L8.31825063,4.64853984 C8.48004673,4.68414148 8.64412916,4.70830988 8.80929139,4.72086731 C9.03794832,4.72086731 9.0173692,4.81385979 8.76298836,4.92407309 C8.48851688,5.03607861 8.23014422,5.18433619 7.99470107,5.36492629 C7.8735129,5.45791876 7.75804115,5.51876569 7.73174559,5.50097083 C7.69065219,5.39393859 7.67480373,5.27880343 7.68544256,5.16459065 C7.7042214,5.02536385 7.67583296,4.88384027 7.604841,4.76277133 C7.55866974,4.71850597 7.53987491,4.65266903 7.55567976,4.59056305 C7.58483352,4.50618099 7.61913206,4.50618099 8.31825063,4.6479658 Z M6.63590724,4.34315715 L6.63705053,4.34373118 C6.77575554,4.36949247 6.9112662,4.41029605 7.04120165,4.46542503 C7.06692556,4.48551599 6.97489115,4.57276819 6.83884028,4.65370608 C6.7025562,4.74143962 6.57230837,4.83828656 6.44898021,4.94359002 C6.27291437,5.1117801 6.19459937,5.09168914 6.17459189,4.8683924 C6.16519648,4.77954261 6.13545786,4.69408024 6.08770225,4.6186904 C6.02196373,4.5262017 5.99319877,4.41230062 6.00710069,4.29953105 C6.02139174,4.24212829 6.24376061,4.25590495 6.63590724,4.34315715 Z M5.75500641,4.20424246 L5.75329148,4.20424246 C5.8329506,4.27377465 5.87531642,4.37694043 5.86761995,4.48264585 C5.86761995,4.58424874 5.8561871,4.66518663 5.84189605,4.66518663 C5.66845345,4.51010508 5.51067754,4.33821161 5.37086277,4.15200595 C5.33599259,4.06762389 5.6481093,4.10837985 5.75500641,4.20424246 Z" id="SQLServer" fill="#999999" fill-rule="nonzero"></path>
    </g>
</svg>