<?xml version="1.0" encoding="UTF-8"?>
<svg width="16px" height="16px" viewBox="0 0 16 16" version="1.1" xmlns="http://www.w3.org/2000/svg" xmlns:xlink="http://www.w3.org/1999/xlink">
    <title>↳Icon 图标/资源/应用服务器(Tomcat)@1x</title>
    <g id="↳Icon-图标/资源/应用服务器(Tomcat)" stroke="none" stroke-width="1" fill="none" fill-rule="evenodd">
        <path d="M15.125,0 C15.6082492,-8.87714298e-17 16,0.391750844 16,0.875 L16,15.125 C16,15.6082492 15.6082492,16 15.125,16 L0.875,16 C0.391750844,16 5.91809532e-17,15.6082492 0,15.125 L0,0.875 C-5.91809532e-17,0.391750844 0.391750844,8.87714298e-17 0.875,0 L15.125,0 Z M7.80411184,6.86168982 C6.36759868,7.1869213 4.86578947,8.09756945 3.95164474,9.0082176 L3.95164474,9.0082176 L3.82105263,9.20335649 L3.62516447,9.39849538 L3.47774952,9.56608037 C2.50758033,10.6846716 1.796875,11.8145007 1.796875,12.0003472 L1.796875,12.0003472 L1.796875,12.1304398 L3.16809211,12.1304398 L3.16809211,12.0003472 L3.15358187,11.8657933 C3.13423489,11.4960377 3.26966375,11.0463349 3.55986842,10.6994213 C3.75575658,10.4392361 4.08223684,10.1790509 4.60460526,10.0489583 C5.06167763,9.91886574 6.17171052,10.0489583 6.17171052,10.0489583 C8.39177632,10.2440972 10.48125,11.1547454 12.8972039,12.390625 L12.8972039,12.390625 L14.203125,12.390625 L14.203125,12.3255787 L14.1952895,12.2157806 C14.1743947,12.0784028 14.1117105,11.9743287 14.0072368,11.8702546 C13.7460526,11.6100694 13.2889803,11.4799769 12.8972039,11.4799769 C12.7013158,11.284838 11.9177632,10.3741898 11.3953947,9.91886574 L11.3953947,9.91886574 L11.1342105,10.1140046 L10.9383224,10.0489583 L10.7251941,9.97248923 C8.84076996,9.22501092 7.8670759,6.92441303 7.80411184,6.86168982 Z M4.93108553,10.3091435 C5.32286184,10.634375 5.77993422,11.0246528 6.30230263,11.3498843 L6.30230263,11.3498843 L7.34703947,11.3498843 L7.34703947,11.2197917 L7.34159813,11.209854 C7.32346034,11.1782343 7.25997806,11.078858 7.15115131,11.0246528 C7.02055921,10.8945602 6.759375,10.8945602 6.49819079,10.9596065 C6.36759869,10.8295139 6.23700658,10.634375 6.17171052,10.3741898 L6.17171052,10.3741898 L6.10641448,10.3741898 L6.05898048,10.3700449 C5.89159433,10.3557151 5.31783907,10.3091435 4.93108553,10.3091435 Z M8.32648026,3.609375 C8.1305921,3.93460648 8.06529606,4.71516203 8.06529606,5.23553241 C8.06529606,5.69085649 8.13059211,6.14618056 8.26118421,6.60150463 C8.26118421,6.60150463 9.240625,8.9431713 11.1342105,9.52858797 C11.6565789,9.13831019 12.1789474,8.68298611 12.5054276,8.09756944 L12.5054276,8.09756944 L12.5707237,7.96747686 L12.6190911,7.90243056 C12.6432749,7.85906636 12.6577851,7.81570217 12.7013158,7.77233797 L12.7013158,7.77233797 L12.7666118,7.64224538 L12.8704227,7.40124394 C13.1333983,6.75167325 13.2817251,6.04499744 13.2236842,5.23553241 C13.2236842,4.97534722 13.1583882,3.99965278 13.0277961,3.6744213 C12.6360197,3.80451389 11.9830592,4.25983797 11.7871711,4.71516204 C11.0689145,4.58506945 10.2200658,4.65011574 9.50180921,4.71516204 C9.37121711,4.19479168 8.78355263,3.8045139 8.32648026,3.609375 Z M7.02055921,6.14618056 C6.62878289,5.56076389 5.77993421,5.3005787 5.58404605,5.4306713 C5.51874999,5.4306713 5.45345395,5.4957176 5.38815789,5.56076389 C5.19226973,5.56076389 4.93108552,5.49571759 4.80049342,5.4957176 C4.21282894,5.4957176 3.75575657,5.75590279 3.42927631,6.14618056 C3.10279605,6.53645832 2.97220394,7.0568287 3.03749999,7.57719908 C3.10279605,7.96747686 3.29868421,8.42280093 3.55986842,8.81307871 L3.55986842,8.81307871 L3.62516447,8.68298611 L3.69046052,8.61793982 L3.58651987,8.45086756 C3.39462943,8.11748158 3.29868421,7.79092262 3.29868421,7.51215278 C3.23338815,7.0568287 3.29868421,6.60150463 3.62516447,6.27627315 C4.08223684,5.69085649 4.66990131,5.69085649 5.32286184,5.75590278 C5.32286184,5.88599537 5.32286184,5.95104167 5.38815789,6.01608797 C5.58404605,6.27627315 6.49819078,6.40636574 7.02055921,6.14618056 Z" id="Tomcat应用服务器" fill="#999999" fill-rule="nonzero"></path>
    </g>
</svg>