<?xml version="1.0" encoding="UTF-8"?>
<svg width="16px" height="16px" viewBox="0 0 16 16" version="1.1" xmlns="http://www.w3.org/2000/svg" xmlns:xlink="http://www.w3.org/1999/xlink">
    <title>↳Icon 图标/资源/WEB服务器(TongWeb)@1x</title>
    <g id="↳Icon-图标/资源/WEB服务器(TongWeb)" stroke="none" stroke-width="1" fill="none" fill-rule="evenodd">
        <path d="M14.25,0 C15.2164983,-8.13921198e-16 16,0.783501688 16,1.75 L16,14.25 C16,15.2164983 15.2164983,16 14.25,16 L1.75,16 C0.783501688,16 1.18361906e-16,15.2164983 0,14.25 L0,1.75 C-1.18361906e-16,0.783501688 0.783501688,1.7754286e-16 1.75,0 L14.25,0 Z M12.48939,6.51953754 C12.182384,6.51953754 11.8959978,6.63404357 11.6302314,6.85847539 C11.364465,7.08519733 11.1559759,7.41268458 11.0070551,7.84322725 C10.876463,8.22109715 10.8466788,8.52339306 10.9131204,8.75240512 C11.0093461,9.07531213 11.2247086,9.23562057 11.5592076,9.23562057 C11.7310394,9.23562057 11.9051622,9.19210828 12.0838672,9.10508369 C12.1961305,9.0501208 12.3221405,8.9608061 12.4596058,8.83713959 L12.4596058,8.83713959 L12.3152672,9.25623165 C12.2465345,9.45776227 12.1617642,9.59974974 12.0655384,9.68219408 C11.9693127,9.7623483 11.850176,9.80357048 11.7127106,9.80357048 C11.6073205,9.80357048 11.5271324,9.77608903 11.4744373,9.72341625 C11.4377799,9.68677433 11.4240334,9.62265095 11.4331977,9.52646588 L11.4331977,9.52646588 L10.5396728,9.40966973 C10.5167619,9.46692275 10.4984332,9.51501528 10.4869777,9.54936709 C10.3884609,9.8287618 10.4067896,10.0509035 10.5373817,10.2180823 C10.6679738,10.3852611 10.9841442,10.4677054 11.4881839,10.4677054 C11.7081285,10.4677054 11.9120354,10.4470944 12.0976137,10.4035821 C12.2831919,10.3600698 12.4481504,10.289076 12.592489,10.192891 C12.7368277,10.0944158 12.8697109,9.96845916 12.9911386,9.81044084 C13.1125664,9.65242252 13.2042099,9.48753383 13.2637783,9.31348467 L13.2637783,9.31348467 L13.3027268,9.19210828 L14.203125,6.5813708 L13.3027268,6.5813708 L13.1652614,6.99130239 C13.1125664,6.82183346 13.0346693,6.70274719 12.9338614,6.62946333 C12.8330534,6.55617947 12.6841326,6.51953754 12.48939,6.51953754 Z M6.44091355,6.51953754 C6.00102435,6.51953754 5.60466586,6.65694478 5.25183807,6.92946913 C4.89901027,7.20199348 4.6515726,7.55009181 4.50494287,7.971474 C4.34914878,8.42491788 4.37435076,8.79133717 4.585131,9.07073189 C4.75696272,9.29745382 5.04334892,9.40966973 5.44658068,9.40966973 C5.89792532,9.40966973 6.298866,9.2722625 6.64711161,8.99973815 C6.99764831,8.72950392 7.24508599,8.38140559 7.39171572,7.95544316 C7.52230783,7.57757326 7.52918109,7.2592465 7.41233553,7.00046287 C7.26799688,6.67984599 6.94266217,6.51953754 6.44091355,6.51953754 Z M5.3755569,5.53020545 L2.12220972,5.53020545 L1.796875,6.47144501 L2.88743363,6.47144501 L1.89539185,9.34554636 L2.96762177,9.34554636 L3.95966355,6.47144501 L5.05022218,6.47144501 L5.3755569,5.53020545 Z M10.1547697,6.51953754 C9.95773603,6.51953754 9.77903105,6.56075971 9.6140726,6.63862382 C9.44911415,6.71648792 9.26811807,6.84931491 9.07108437,7.03252456 L9.07108437,7.03252456 L9.22687846,6.5813708 L8.33106244,6.5813708 L7.373387,9.34554636 L8.33564462,9.34554636 L8.79386253,8.01727641 C8.88092394,7.76765327 8.9771497,7.59131398 9.08253982,7.49512892 C9.19022103,7.39665373 9.30019333,7.3485612 9.4170389,7.3485612 C9.52242902,7.3485612 9.5911617,7.38520313 9.62552805,7.45619687 C9.65989439,7.52948073 9.64614785,7.65085712 9.58657952,7.82490628 L9.58657952,7.82490628 L9.06192001,9.34554636 L10.0287598,9.34554636 L10.6358985,7.58902386 C10.7619085,7.22489469 10.7779461,6.95466046 10.6885936,6.78061129 C10.5992411,6.60656213 10.4205361,6.51953754 10.1547697,6.51953754 Z M6.20264024,7.24779589 C6.33552343,7.24779589 6.42487592,7.30733903 6.47527989,7.42413518 C6.52339277,7.54322145 6.50735515,7.71956074 6.42487592,7.9600234 C6.33552343,8.2165169 6.22555113,8.40201667 6.09725012,8.51881282 C5.9689491,8.63560897 5.83377482,8.69286199 5.69630944,8.69286199 C5.56113516,8.69286199 5.46720048,8.63560897 5.41679651,8.5165227 C5.36639254,8.39743643 5.38472126,8.2165169 5.46949157,7.96918388 C5.55426189,7.7264311 5.6619431,7.54551157 5.79482629,7.4264253 C5.9254184,7.30733903 6.06288377,7.24779589 6.20264024,7.24779589 Z M12.5581227,7.28901806 C12.6818415,7.28901806 12.7666118,7.34169084 12.8147247,7.44932651 C12.8628376,7.55696217 12.8513822,7.71040025 12.7826495,7.91193087 C12.7139168,8.11346148 12.6199821,8.26231932 12.5054276,8.36308462 C12.3908732,8.46155981 12.2717365,8.51194246 12.1525998,8.51194246 C12.0265899,8.51194246 11.9418196,8.46384993 11.8982889,8.36766486 C11.8524671,8.2714798 11.8662136,8.12262196 11.9349463,7.92338147 C12.0128434,7.69436941 12.106778,7.53177085 12.2121682,7.43558578 C12.3198494,7.3371106 12.4344039,7.28901806 12.5581227,7.28901806 Z" id="TongWeb服务器" fill="#999999" fill-rule="nonzero"></path>
    </g>
</svg>