<?xml version="1.0" encoding="UTF-8"?>
<svg width="16px" height="16px" viewBox="0 0 16 16" version="1.1" xmlns="http://www.w3.org/2000/svg" xmlns:xlink="http://www.w3.org/1999/xlink">
    <title>↳Icon 图标/资源/安全设备(VPN)@1x</title>
    <g id="↳Icon-图标/资源/安全设备(VPN)" stroke="none" stroke-width="1" fill="none" fill-rule="evenodd">
        <path d="M1.75,0 L14.25,0 C15.2164983,-1.7754286e-16 16,0.783501688 16,1.75 L16,14.25 C16,15.2164983 15.2164983,16 14.25,16 L1.75,16 C0.783501688,16 1.18361906e-16,15.2164983 0,14.25 L0,1.75 C-1.18361906e-16,0.783501688 0.783501688,1.7754286e-16 1.75,0 Z M7.46774214,3.16620935 C8.42173159,3.16620935 9.31521225,3.43546462 10.0791358,3.88080894 L10.0791358,3.88080894 L9.96348589,3.88080894 C9.65508624,3.88080893 9.32253186,4.05762965 9.16760007,4.20713462 C8.99583317,4.37298027 8.78649226,4.73564565 8.78649226,5.0812387 L8.78649226,5.0812387 L8.78649226,7.39332202 C8.78520358,7.69660291 8.90059792,7.98877312 9.10879917,8.20938012 C9.21940299,8.32660922 9.2849203,8.47919212 9.29374138,8.640091 L9.29374138,8.640091 L9.29454896,8.76282864 C9.25852406,9.5716807 8.37549604,9.40416714 8.42417146,8.793986 C8.47565273,8.15474862 7.83591863,7.89915121 7.46725417,7.43917346 C7.0985897,6.97919571 5.96966153,6.66701568 5.94819066,5.89705291 C5.91452044,4.69052588 4.8602523,5.01953436 4.45303788,5.48195102 C4.4152199,5.52487578 4.30810957,5.65706451 4.20514702,5.79071659 C4.11691122,5.90488989 4.08088748,6.05094337 4.10591709,6.19303123 C4.1309467,6.3351191 4.21471255,6.46008761 4.33665605,6.53726586 C4.51183877,6.64847998 4.53696944,6.62238368 4.84341721,6.92822255 C5.22696488,7.31113087 4.92027313,7.56672827 5.1247343,8.41058991 C5.32919546,9.25396375 5.1247343,10.2514765 5.96892956,9.97051447 C6.81288083,9.68906466 7.6307255,10.0980693 7.09370995,10.6863335 C6.74724831,11.0655835 8.38928131,11.4309317 9.25641136,11.5940945 C9.60430466,11.6596426 9.96282369,11.5584484 10.22504,11.3206931 C10.9850598,10.6309703 11.4879171,9.65857834 11.5708727,8.5905812 L11.5708727,8.5905812 L12.5507248,8.5905812 C12.3877414,11.2319169 10.1703869,13.359375 7.46749815,13.359375 C4.65920696,13.359375 2.375,11.068754 2.375,8.26157271 C2.375,5.4539036 4.65920696,3.16645324 7.46774214,3.16620935 Z M11.6194261,2.640625 C12.2594042,2.640625 12.7654334,3.16913604 12.7654334,3.8088612 L12.7654334,3.8088612 L12.7654334,4.61370033 L13.1724038,4.61370033 C13.4224906,4.61370033 13.6249999,4.81612956 13.6249999,5.06587358 L13.6249999,5.06587358 L13.6249999,7.37478633 C13.6250646,7.49481707 13.5774091,7.6099538 13.4925239,7.69485123 C13.4076386,7.77974866 13.2924821,7.82744737 13.1724038,7.82744737 L13.1724038,7.82744737 L9.97104949,7.82744737 C9.72120673,7.82744737 9.51869746,7.62477424 9.51869746,7.37478633 L9.51869746,7.37478633 L9.51869746,5.06587358 C9.51869746,4.81612957 9.72120673,4.61370033 9.97104949,4.61370033 L9.97104949,4.61370033 L10.3460576,4.61370033 L10.3460576,3.8088612 C10.3460576,3.16913603 10.8569665,2.640625 11.4969446,2.640625 L11.4969446,2.640625 Z M11.6194261,3.37229694 L11.4969446,3.37229694 C11.2614971,3.37229694 11.0785068,3.57301894 11.0785068,3.8088612 L11.0785068,3.8088612 L11.0785068,4.61370033 L12.0334722,4.61370033 L12.0334722,3.8088612 C12.0334722,3.57301894 11.8553617,3.37229694 11.6194261,3.37229694 L11.6194261,3.37229694 Z" id="VPN" fill="#999999"></path>
    </g>
</svg>