<?xml version="1.0" encoding="UTF-8"?>
<svg width="16px" height="16px" viewBox="0 0 16 16" version="1.1" xmlns="http://www.w3.org/2000/svg" xmlns:xlink="http://www.w3.org/1999/xlink">
    <title>↳Icon 图标/资源/应用服务器(Weblogic)@1x</title>
    <g id="↳Icon-图标/资源/应用服务器(Weblogic)" stroke="none" stroke-width="1" fill="none" fill-rule="evenodd">
        <path d="M15.125,0 C15.6082492,-8.87714298e-17 16,0.391750844 16,0.875 L16,15.125 C16,15.6082492 15.6082492,16 15.125,16 L0.875,16 C0.391750844,16 5.91809532e-17,15.6082492 0,15.125 L0,0.875 C-5.91809532e-17,0.391750844 0.391750844,8.87714298e-17 0.875,0 L15.125,0 Z M7.77341482,2.28125 C4.61550311,2.28125 2.05550987,4.84124324 2.05550987,7.99915495 C2.05550987,11.1570666 4.61550311,13.7170599 7.77341482,13.7170599 C10.9313265,13.7170599 13.4913198,11.1570666 13.4913198,7.99915495 C13.4913198,7.50728736 13.4292135,7.02992547 13.3124152,6.57448339 L13.3124152,6.57448339 L8.80677113,11.443676 L8.80677113,8.34360705 L5.29335966,11.6503473 L5.29335966,8.13693579 L3.91555124,8.13693579 L3.91555124,6.96579864 L6.53338724,6.96579864 L6.53338724,8.68805916 L9.84012745,5.38131895 L9.84012745,8.48138789 L12.8857745,5.43547372 C11.945894,3.56487437 10.0095577,2.28125 7.77341482,2.28125 Z" id="Weblogic" fill="#999999" fill-rule="nonzero"></path>
    </g>
</svg>