<?xml version="1.0" encoding="UTF-8"?>
<svg width="16px" height="16px" viewBox="0 0 16 16" version="1.1" xmlns="http://www.w3.org/2000/svg" xmlns:xlink="http://www.w3.org/1999/xlink">
    <title>↳Icon 图标/资源/操作系统(Windows操作系统）@1x</title>
    <g id="↳Icon-图标/资源/操作系统(Windows操作系统）" stroke="none" stroke-width="1" fill="none" fill-rule="evenodd">
        <path d="M14.1722285,12.9978205 L10.0527434,12.9978205 L10.0527434,14.9983279 L10.9646294,14.9983279 C11.1306087,14.9917545 11.2885889,15.0859733 11.3725784,15.2437352 C11.4585677,15.401497 11.4585677,15.5965081 11.3725784,15.7542699 C11.2865892,15.9120317 11.1306087,16.0062506 10.9646294,15.9996772 L5.48931384,15.9996772 C5.23734533,15.9996772 5.03337083,15.7761813 5.03337083,15.5000981 C5.03337083,15.2240149 5.23734533,15.000519 5.48931384,15.000519 L6.40119985,15.000519 L6.40119985,13.0000116 L1.82577178,13.0000116 C0.817897763,13.0000116 0,12.1038369 0,10.9995042 L0,1.99831629 C0,0.893983605 0.817897763,0 1.82577178,0 L14.1742282,0 C15.1821022,0 15.9980002,0.893983605 16,1.99831629 L16,10.997313 C15.9980002,12.1016457 15.1801025,12.9978205 14.1722285,12.9978205 Z M0.911886014,9.99815488 L0.911886014,10.9995042 C0.911886014,11.5516705 1.31983502,11.9986623 1.82377203,11.9986623 L14.1722285,11.9986623 C14.6761655,11.9986623 15.0861142,11.5494794 15.0861142,10.9995042 L15.0861142,9.99815488 L0.911886014,9.99815488 Z M7.26924149,5.00075061 C6.92038483,4.82088447 6.57905745,4.7305331 6.2603179,4.7305331 C6.21514222,4.7305331 6.17414947,4.7305331 6.12897379,4.73387945 C5.78011712,4.76734292 5.43544339,4.84263572 5.10499163,4.95892128 C5.04141104,4.98150912 4.97783045,5.00744331 4.91006693,5.03421408 L4.25,7.31809584 C4.70343001,7.14910533 5.1008087,7.07046617 5.46890686,7.07046617 C6.06121026,7.07046617 6.48870608,7.29132507 6.84509202,7.52054983 C7.01408254,6.95083427 7.41899052,5.57046617 7.53862242,5.16221185 C7.44910764,5.10197761 7.36293921,5.05010923 7.26924149,5.00075061 L7.26924149,5.00075061 Z M8.1200502,5.58217839 L7.45663692,7.88111871 C7.65156163,7.99322133 8.3149749,8.34960728 8.82194646,8.34960728 C9.23103737,8.34960728 9.68781372,8.24419735 10.2207195,8.02752139 L10.8540156,5.8147495 C10.4599833,5.94609361 10.0441997,6.01720349 9.62757948,6.02473277 C8.92233687,6.02473277 8.43126046,5.79969094 8.1200502,5.58217839 L8.1200502,5.58217839 Z M6.39500837,3.95083427 C6.96137758,3.95836355 7.37716118,4.17169317 7.7226715,4.39338865 L8.40114334,2.06851414 C8.25892359,1.98569205 7.88329615,1.78323806 7.60973229,1.71212819 C7.42568321,1.67113544 7.23494144,1.6485476 7.04336308,1.6485476 C6.66857223,1.65607688 6.25195204,1.75395753 5.77928054,1.94135296 L5.13092582,4.21770544 C5.60778026,4.04118564 6.01687117,3.95083427 6.39500837,3.95083427 L6.39500837,3.95083427 Z M11.75,2.70264688 C11.3526213,2.86410811 10.9251255,2.95027655 10.4976297,2.95362289 C9.96556051,2.95696924 9.44771333,2.79969094 9.00934189,2.49600996 L8.33839933,4.82841375 C8.76924149,5.11368982 9.27203012,5.26343885 9.7898773,5.26678519 C10.2064975,5.26678519 10.6373397,5.1655582 11.0757111,4.97063349 L11.0757111,4.95222858 L11.1016453,4.9446993 L11.75,2.70264688 L11.75,2.70264688 Z" id="windows" fill="#999999" fill-rule="nonzero"></path>
    </g>
</svg>