<?xml version="1.0" encoding="UTF-8"?>
<svg width="48px" height="50px" viewBox="0 0 48 50" version="1.1" xmlns="http://www.w3.org/2000/svg" xmlns:xlink="http://www.w3.org/1999/xlink">
    <title>Feedback/Empty 空数据/最小@1x</title>
    <g id="Feedback/Empty-空数据/最小" stroke="none" stroke-width="1" fill="none" fill-rule="evenodd">
        <g id="暂无数据" fill-rule="nonzero">
            <path d="M23.8224548,48.4753267 L23.8224135,48.3197981 C24.1360832,48.3197217 24.4544931,48.3133419 24.7688973,48.3009656 L24.7752146,48.4563424 C24.4587394,48.4688705 24.138208,48.4752512 23.8224548,48.4753267 Z M22.8699625,48.4573305 C22.5545981,48.4451782 22.2346111,48.4265747 21.9189328,48.4020461 L21.9313368,48.2469729 C22.2449711,48.2714252 22.5628416,48.2898819 22.8761258,48.3019537 L22.8699625,48.4573305 Z M25.7262477,48.3999952 L25.7136897,48.2449221 C26.0267425,48.2202425 26.3435762,48.1888786 26.6553196,48.1517414 L26.6742723,48.3062072 C26.3604125,48.3435668 26.0414632,48.3750825 25.7262477,48.3999903 L25.7262477,48.3999952 Z M20.9708005,48.3093174 C20.6562405,48.2721802 20.3387975,48.2283603 20.0272048,48.1790758 L20.0522391,48.0255217 C20.3617121,48.0745018 20.6770765,48.1180188 20.9895184,48.1548516 L20.9708005,48.3093174 Z M27.6176324,48.1748986 L27.5924441,48.0213445 C27.9018405,47.972055 28.2150843,47.9156307 28.5234835,47.8538146 L28.5549117,48.0061533 C28.2444752,48.068502 27.9291141,48.1252341 27.6176375,48.1748986 L27.6176324,48.1748986 Z M19.0897345,48.011394 C18.7792592,47.9494254 18.4664379,47.8803966 18.1598513,47.8064241 L18.1973662,47.6553008 C18.5019121,47.7288884 18.8126549,47.7973903 19.1210087,47.8589035 L19.0897345,48.011394 Z M29.484603,47.8001248 L29.4468566,47.6491533 C29.7523282,47.5750323 30.0599119,47.493852 30.3611001,47.407811 L30.4050098,47.5572634 C30.1017371,47.6438354 29.792074,47.7255475 29.4846038,47.8001248 L29.484603,47.8001248 Z M17.2391399,47.5644745 C16.9349415,47.4779017 16.6287858,47.3841891 16.3291696,47.2859195 L16.3790069,47.1382897 C16.6766153,47.2359521 16.9807362,47.3290566 17.2828905,47.4150221 L17.2391399,47.5644745 Z M31.3145955,47.2775644 L31.2646042,47.1300815 C31.5624078,47.0319644 31.8622917,46.9264787 32.1560122,46.8164417 L32.2120894,46.9617916 C31.916361,47.0725936 31.6144019,47.1788392 31.3145955,47.2775644 Z M15.4289441,46.9702239 C15.1329893,46.8596493 14.8348777,46.7414844 14.5428528,46.6188388 L14.6046725,46.4757612 C14.8947358,46.5975714 15.1908799,46.7149821 15.4848723,46.8247155 L15.4289441,46.9702239 Z M33.0933218,46.6115522 L33.031386,46.4684746 C33.3197898,46.3470443 33.6093499,46.2183217 33.891981,46.0858019 L33.9597695,46.2262969 C33.6752165,46.3596521 33.3836527,46.4892807 33.0933218,46.6115522 L33.0933218,46.6115522 Z M13.6721318,46.2324485 C13.3855768,46.0983333 13.0982871,45.9567806 12.8182808,45.8116522 L12.8916924,45.6740434 C13.1698145,45.8181033 13.4551368,45.9587501 13.7397655,46.0919535 L13.6721318,46.2324485 Z M34.8101199,45.8067151 L34.73663,45.6691063 C35.0144845,45.5249652 35.292796,45.3734619 35.5637939,45.2189206 L35.6428302,45.3534912 C35.3699836,45.5090961 35.0898232,45.6615866 34.8101249,45.8067151 L34.8101199,45.8067151 Z M11.9826436,45.3572884 C11.7077192,45.2006199 11.433139,45.0367362 11.1664968,44.8701944 L11.2509214,44.7388136 C11.5157551,44.9042164 11.7885252,45.0670374 12.0615974,45.2227178 L11.9826436,45.3572884 Z M36.456662,44.86746 L36.3722382,44.7360792 C36.6366866,44.5709013 36.9019057,44.3978345 37.1604996,44.2215703 L37.2501626,44.3494567 C36.9898807,44.5269362 36.7228825,44.7012168 36.456667,44.86746 L36.456662,44.86746 Z M10.3711036,44.3512794 C10.1102402,44.1735741 9.85002299,43.9885782 9.59766984,43.8013812 L9.69249561,43.6771402 C9.94319434,43.8630454 10.2016696,44.0468243 10.4607666,44.223393 L10.3711036,44.3512794 Z M38.0222382,43.800394 L37.9273459,43.676153 C38.1774648,43.4907032 38.4278968,43.2971256 38.6716984,43.1007389 L38.7715313,43.2211819 C38.5261021,43.4188603 38.2739795,43.6137288 38.0222424,43.800394 L38.0222382,43.800394 Z M8.84739048,43.2213338 C8.60246963,43.0240353 8.35824218,42.8191458 8.12148743,42.6122769 L8.22609755,42.4959355 C8.46131064,42.7013609 8.70392068,42.9049587 8.9472233,43.1008908 L8.84739048,43.2213338 Z M39.4968486,42.6126568 L39.3922393,42.4963147 C39.6272631,42.2909647 39.8612795,42.0781017 40.0877551,41.8637172 L40.1969844,41.9759577 C39.9690538,42.1917128 39.7334906,42.4059447 39.4968545,42.6126568 L39.4968486,42.6126568 Z M7.42100667,41.9752783 C7.19345982,41.7597555 6.96671241,41.5363331 6.74713896,41.3112406 L6.86083412,41.2034004 C7.07898541,41.4270502 7.30422397,41.6490291 7.53031078,41.8630336 L7.42100667,41.9752783 Z M40.8709354,41.3118479 L40.7572352,41.2040085 C40.974693,40.9810416 41.1907683,40.7504047 41.3995206,40.5183998 L41.5175303,40.6216821 C41.3073919,40.8551313 41.0898625,41.0873586 40.8709354,41.3118479 L40.8709354,41.3118479 Z M6.10084196,40.6213834 C5.89050839,40.3876314 5.68271705,40.1471253 5.48316671,39.9065372 L5.60533681,39.8081157 C5.80350033,40.0471085 6.00993935,40.28602 6.21885159,40.5181012 L6.10084196,40.6213834 Z M42.135713,39.9063853 L42.0135429,39.8079639 C42.2128988,39.5676802 42.4096376,39.3205654 42.5983635,39.0735269 L42.7243844,39.1670876 C42.5344257,39.4157928 42.3363026,39.664503 42.1357113,39.9063853 L42.135713,39.9063853 Z M4.89518868,39.1682267 C4.70507682,38.9193655 4.51754254,38.6634401 4.3378285,38.4074384 L4.46754955,38.3188911 C4.64606948,38.5732211 4.83233223,38.8274757 5.02121126,39.074666 L4.89518868,39.1682267 Z M43.2826324,38.4048558 L43.1529113,38.3164603 C43.3320834,38.0609912 43.5081789,37.7989896 43.6761849,37.5377472 L43.8094496,37.6209783 C43.6402865,37.8839629 43.4630407,38.1477117 43.2826307,38.4048558 L43.2826324,38.4048558 Z M3.81198153,37.6253836 C3.64293627,37.3626221 3.47693562,37.0928021 3.31855746,36.8233572 L3.4550578,36.7454382 C3.61235461,37.0130604 3.77727559,37.2810577 3.94516965,37.542072 L3.81198153,37.6253836 Z M44.3040737,36.8166729 L44.1675734,36.7387539 C44.325487,36.4696889 44.4796247,36.1944001 44.6257554,35.9206304 L44.7653374,35.9930805 C44.6182768,36.268673 44.4630636,36.5457903 44.3040686,36.8166729 L44.3040737,36.8166729 Z M2.85845252,36.0024909 C2.71147695,35.727354 2.56812243,35.4453767 2.43239124,35.1643918 L2.57482177,35.0975615 C2.70966515,35.3766466 2.85205697,35.6567273 2.99803114,35.9300408 L2.85845252,36.0024909 Z M45.1926189,35.15156 L45.0501093,35.0847305 C45.1851454,34.8046573 45.3163298,34.517899 45.4398867,34.2323568 L45.585016,34.2934171 C45.4606117,34.5808541 45.3285773,34.8695869 45.1926189,35.15156 L45.1926189,35.15156 Z M2.04110239,34.3104982 C1.91685204,34.0240443 1.79714591,33.731818 1.68525665,33.4418706 L1.83269085,33.3865861 C1.9438463,33.6744827 2.06274458,33.9648109 2.18614751,34.2492895 L2.04110239,34.3104982 Z M45.9419793,33.4199245 L45.794461,33.3647919 C45.9063073,33.0738573 46.0135371,32.7773011 46.1129845,32.4834835 L46.2625822,32.5326918 C46.162523,32.8285594 46.0546007,33.1270179 45.9419785,33.4199245 L45.9419793,33.4199245 Z M1.36450142,32.5572967 C1.26405262,32.2616523 1.16845686,31.9599367 1.08037334,31.6606469 L1.23189143,31.617358 C1.31940019,31.914597 1.41434041,32.2142617 1.51409665,32.5079317 L1.36450142,32.5572967 Z M46.5457527,31.6355865 L46.3941571,31.5924452 C46.4812005,31.2956617 46.5633951,30.9924271 46.6385024,30.6910102 L46.7916387,30.7280711 C46.7160694,31.031538 46.6333355,31.336904 46.545751,31.6355865 L46.5457527,31.6355865 Z M0.833408426,30.7533646 C0.75761109,30.450505 0.687164975,30.1422569 0.623922267,29.8370461 L0.778525372,29.8059095 C0.84130272,30.1090736 0.911289365,30.4153505 0.98654897,30.7161552 L0.833408426,30.7533646 Z M47.0000806,29.8116065 L46.8454034,29.7806185 C46.9077987,29.4776825 46.9647999,29.1688271 47.0148736,28.8627062 L47.1706296,28.8874622 C47.1202495,29.1956372 47.0628646,29.5065434 47.0000823,29.8116065 L47.0000806,29.8116065 Z M0.452259039,28.9130569 C0.401683723,28.6060201 0.356701986,28.2931386 0.318570217,27.9830686 L0.475176979,27.9643839 C0.51307733,28.2724088 0.557755279,28.5831623 0.608018392,28.8881441 L0.452259039,28.9130569 Z M47.3032792,27.9570973 L47.1465984,27.9385643 C47.1841133,27.6306913 47.2157712,27.3183449 47.2405759,27.010208 L47.3978735,27.0225105 C47.3728341,27.3327355 47.3410205,27.6471734 47.3032792,27.9570973 L47.3032792,27.9570973 Z M0.222936585,27.0485955 C0.197476415,26.7379531 0.17806677,26.4224898 0.165241172,26.1109382 L0.322845977,26.1046331 C0.335594154,26.4140982 0.354891036,26.7274733 0.380153449,27.0360648 L0.222936585,27.0485955 Z M47.45456,26.0850017 L47.2969552,26.0788501 C47.3092817,25.7689287 47.315594,25.4550566 47.315594,25.1459391 L47.3155174,25.094412 L47.4732762,25.094412 L47.4733536,25.1455998 C47.4733587,25.4570734 47.4670464,25.7729946 47.454565,26.0850017 L47.45456,26.0850017 Z M0.30308121,25.1717204 L0.145322408,25.1717204 L0.145360276,25.1455973 C0.145360276,24.8422083 0.151335064,24.5349458 0.163155046,24.2327341 L0.32075985,24.238734 C0.309051791,24.5389745 0.30311992,24.8441828 0.30311992,25.1459391 L0.30308121,25.1717204 Z M47.2947192,24.1617267 C47.2816984,23.852907 47.2621348,23.5395319 47.236407,23.2303704 L47.3937046,23.2176888 C47.419509,23.5289368 47.4392308,23.8443644 47.452324,24.1552706 L47.2947192,24.1617267 Z M0.376040943,23.307264 L0.218744135,23.2951142 C0.243547078,22.9836737 0.275055248,22.6691977 0.312337082,22.3603399 L0.469017057,22.3787185 C0.43196075,22.685523 0.400685681,22.9979507 0.376040943,23.307264 Z M47.1404342,22.302131 C47.1023799,21.9954004 47.0573965,21.6846427 47.0065535,21.3785201 L47.1623095,21.3534224 C47.2133788,21.6615966 47.2587527,21.9744391 47.296961,22.2832969 L47.1404342,22.302131 Z M0.599657896,21.4546513 L0.443899385,21.4300447 C0.493893212,21.1220986 0.550935605,20.8110788 0.613523612,20.5057145 L0.768124192,20.5364711 C0.706000704,20.8398219 0.649343727,21.1487179 0.599657896,21.4546513 Z M46.8349273,20.460909 C46.771608,20.1569883 46.7012772,19.8508649 46.6258619,19.5509313 L46.7789991,19.5134913 C46.854953,19.8154375 46.9257458,20.1236872 46.9894505,20.4296206 L46.8349273,20.460909 Z M0.97407092,19.6258106 L0.820816771,19.5889023 C0.895846642,19.2861962 0.978270102,18.9807564 1.0657755,18.6810136 L1.21737438,18.7240337 C1.13044122,19.0217671 1.04860009,19.3251561 0.974068396,19.6258106 L0.97407092,19.6258106 Z M46.3795972,18.6500289 C46.2917829,18.3529824 46.1965667,18.0534263 46.0964318,17.7597215 L46.2460245,17.7102063 C46.3467821,18.0058839 46.4426876,18.3074518 46.5310387,18.6065151 L46.3795972,18.6500289 Z M1.49753386,17.8328138 L1.34782756,17.7837548 C1.44766037,17.4876168 1.55519477,17.1889749 1.66747029,16.8961413 L1.8150627,16.9511245 C1.70351509,17.242021 1.59667411,17.5386519 1.49753386,17.8328138 Z M45.7767503,16.8814462 C45.6646675,16.5921442 45.5454251,16.302006 45.4223301,16.0190465 L45.5673054,15.9577614 C45.6912478,16.2426199 45.8113376,16.5346945 45.9241938,16.8259336 L45.7767503,16.8814462 Z M2.16859258,16.0831415 L2.0233884,16.0222364 C2.14736946,15.7349089 2.27909333,15.4460251 2.41486323,15.1637077 L2.55740905,15.2303099 C2.42252527,15.5107631 2.29172622,15.797713 2.16859342,16.0831415 L2.16859258,16.0831415 Z M45.0327066,15.1711511 C44.8976697,14.8923663 44.7550111,14.6124449 44.608649,14.3391662 L44.748077,14.2665286 C44.8955112,14.5416681 45.0391779,14.8234545 45.175064,15.1041723 L45.0327066,15.1711511 Z M2.98092725,14.3939214 L2.84119127,14.3216994 C2.98824426,14.0453827 3.14315284,13.7681169 3.30156971,13.4975727 L3.43822405,13.5753374 C3.28084477,13.8440614 3.12697631,14.1195012 2.98092473,14.3939214 L2.98092725,14.3939214 Z M44.1506184,13.5244583 C43.9928596,13.2567248 43.8277039,12.9888744 43.6596213,12.7282783 L43.7927312,12.6448182 C43.96197,12.9071624 44.1282046,13.1768322 44.2870397,13.4463169 L44.1506184,13.5244583 Z M3.92856142,12.775858 L3.79522014,12.6927007 C3.96445896,12.4289146 4.14143722,12.1649776 4.32118997,11.9082557 L4.45098761,11.9966106 C4.27242645,12.2516267 4.09668017,12.5137784 3.92856142,12.775858 L3.92856142,12.775858 Z M43.1363477,11.9519594 C42.9574062,11.6977431 42.7708329,11.4436412 42.5818764,11.1968275 L42.707745,11.103115 C42.8980126,11.351597 43.0858119,11.6073706 43.2659139,11.8633366 L43.1363477,11.9519594 Z M5.00468803,11.2388637 L4.87858634,11.1454548 C5.0686982,10.8959872 5.26647714,10.6470455 5.46641206,10.4054734 L5.58865958,10.5038186 C5.3900366,10.7437555 5.19356622,10.9910603 5.0046855,11.2388637 L5.00468803,11.2388637 Z M41.9969784,10.4639859 C41.7980062,10.2246538 41.5912524,9.9860053 41.3826549,9.75468403 L41.5005105,9.65132877 C41.7105773,9.88420393 41.9186355,10.1244478 42.1189945,10.3654126 L41.9969784,10.4639859 Z M6.20194883,9.79254553 L6.08385925,9.68949391 C6.2933067,9.45619731 6.51057439,9.2237436 6.72964966,8.99857066 L6.84350724,9.10625572 C6.62589032,9.32990298 6.41005069,9.5608418 6.20195135,9.79254553 L6.20194883,9.79254553 Z M40.7399108,9.06995474 C40.5216055,8.84664679 40.2961355,8.62497238 40.0696641,8.41104166 L40.1788193,8.29872316 C40.4067541,8.51409327 40.6337657,8.73725271 40.853457,8.96204154 L40.7399108,9.06995474 Z M7.51221559,8.44589993 L7.40282985,8.33380874 C7.63046085,8.11786619 7.86582457,7.903407 8.10231172,7.69631238 L8.20706995,7.81257822 C7.97212362,8.01830563 7.73833775,8.23140009 7.51221054,8.44589993 L7.51221559,8.44589993 Z M39.3732227,7.77893784 C39.1375055,7.57347675 38.8946287,7.37017765 38.6514389,7.17474254 L38.7511177,7.05418506 C38.9959157,7.25095254 39.24042,7.4555782 39.477678,7.66244468 L39.3732227,7.77893784 Z M8.92693258,7.20732184 L8.82694577,7.08702651 C9.07171263,6.88938627 9.32360379,6.69425232 9.57557659,6.50698071 L9.67055552,6.63114705 C9.42023631,6.81716677 9.17004081,7.01104716 8.92692753,7.20732184 L8.92693258,7.20732184 Z M37.9053915,6.59944218 C37.6537318,6.41323083 37.3949839,6.22971657 37.136544,6.05398668 L37.2260531,5.92594765 C37.4862652,6.10285561 37.7467079,6.28758526 38.000139,6.47504935 L37.9053915,6.59944218 Z M10.4369357,6.08478062 L10.3470412,5.95697057 C10.6070985,5.7793035 10.8738946,5.60475001 11.1400386,5.43813186 L11.2246172,5.56943628 C10.9602505,5.73491038 10.6952173,5.90828747 10.4369357,6.08478062 L10.4369357,6.08478062 Z M36.3458204,5.53928778 C36.0798304,5.37365771 35.8069114,5.21117938 35.5345275,5.05637091 L35.6134099,4.92164927 C35.8874928,5.07748315 36.1622573,5.24106239 36.4300961,5.4077942 L36.3458204,5.53928778 Z M12.032448,5.08587479 L11.9532989,4.9513058 C12.2260682,4.79535743 12.5060745,4.64256163 12.7854649,4.49724736 L12.8591079,4.63477893 C12.581526,4.77913996 12.3034047,4.93091035 12.032448,5.08587479 L12.032448,5.08587479 Z M34.7040514,4.60595783 C34.4254319,4.46204729 34.1399498,4.32174395 33.855475,4.18895948 L33.9229548,4.04839066 C34.2093558,4.18204872 34.4968357,4.32330032 34.7772324,4.46819895 L34.7040514,4.60595783 Z M13.7032133,4.21713099 L13.6353119,4.07671316 C13.9197867,3.94301693 14.2111637,3.81307973 14.5013726,3.69050958 L14.5634591,3.83347103 C14.2752092,3.95519995 13.9857619,4.08426605 13.7032133,4.21713099 L13.7032133,4.21713099 Z M32.9901818,3.80609348 C32.7002363,3.68469973 32.4039735,3.56763496 32.1095604,3.45804924 L32.1653287,3.31254416 C32.4616689,3.42285082 32.760012,3.54075103 33.0518063,3.66294204 L32.9901818,3.80609348 Z M15.4384566,3.48451587 L15.3822608,3.33916593 C15.6774448,3.22821299 15.9792549,3.121667 16.2792877,3.02244825 L16.3294321,3.16992866 C16.0314442,3.26845468 15.7316731,3.37431871 15.4384566,3.48451089 L15.4384566,3.48451587 Z M31.2149933,3.14547137 C30.9168816,3.04799898 30.6126833,2.95523884 30.3108017,2.86976196 L30.3544033,2.7203087 C30.6582937,2.80635056 30.9644898,2.89972213 31.2646042,2.99783997 L31.2149933,3.14547137 Z M17.232746,2.89114051 L17.1886824,2.74183742 C17.4920686,2.65480997 17.8016602,2.57271546 18.1088216,2.49779803 L18.1467219,2.64877115 C17.8415996,2.72318832 17.5340958,2.80475187 17.2327477,2.89113553 L17.232746,2.89114051 Z M29.3960196,2.63046801 C29.0914359,2.55722309 28.7805761,2.48906458 28.4721457,2.42789234 L28.503266,2.27540018 C28.8137765,2.33698972 29.1267166,2.40564102 29.4333805,2.47934306 L29.3960196,2.63046801 Z M19.0698191,2.44322875 L19.0381594,2.29088841 C19.3474372,2.2284626 19.6627301,2.17135551 19.9752847,2.12111935 L20.0007036,2.27459959 C19.6901939,2.32452879 19.3770233,2.3812584 19.0698199,2.44322875 L19.0698191,2.44322875 Z M27.540752,2.26233444 C27.2305082,2.21357916 26.9151026,2.17036825 26.6032826,2.13399178 L26.6218448,1.97952511 C26.935745,2.01616707 27.2532722,2.05964429 27.565555,2.10878037 L27.540752,2.26233444 Z M20.9376337,2.14314252 L20.9185312,1.98874969 C21.2323548,1.95108481 21.5512696,1.91914433 21.8664018,1.89393623 L21.8791929,2.04893469 C21.5661401,2.07403493 21.2493484,2.10570329 20.9376404,2.14314252 L20.9376337,2.14314252 Z M25.6614187,2.04286102 C25.3486731,2.01882518 25.0307614,2.00067469 24.7165532,1.98894216 L24.7225624,1.83348825 C25.0388509,1.84533526 25.3588353,1.86360356 25.6736679,1.88778624 L25.6614187,2.04286102 Z M22.8239356,1.99194125 L22.8174635,1.83656449 C23.1329054,1.82373022 23.4533997,1.81697046 23.770034,1.81644033 L23.7702646,1.97196891 C23.4557526,1.9725007 23.1373427,1.97922147 22.8239407,1.99194125 L22.8239356,1.99194125 Z" id="形状" fill="#CCCCCC"></path>
            <ellipse id="椭圆形" fill="#AEE0FF" cx="15.4531672" cy="24.6966618" rx="15.2238385" ry="15.0086205"></ellipse>
            <ellipse id="椭圆形" fill="#FFFFFF" cx="10.0498881" cy="24.6966618" rx="8.08520153" ry="10.9648467"></ellipse>
            <ellipse id="椭圆形" fill="#4374BB" cx="7.36972195" cy="27.019606" rx="2.25647287" ry="3.49942004"></ellipse>
            <ellipse id="椭圆形" fill="#4274BB" cx="45.3635887" cy="16.314929" rx="1.49871998" ry="1.47753272"></ellipse>
            <ellipse id="椭圆形" fill="#AEE0FF" cx="28.0514416" cy="2.17741673" rx="2.20864006" ry="2.17741673"></ellipse>
            <ellipse id="椭圆形" fill="#AEE0FF" cx="26.5882303" cy="48.2302054" rx="1.49871998" ry="1.47753272"></ellipse>
        </g>
    </g>
</svg>