<?xml version="1.0" encoding="UTF-8"?>
<svg width="320px" height="240px" viewBox="0 0 320 240" version="1.1" xmlns="http://www.w3.org/2000/svg" xmlns:xlink="http://www.w3.org/1999/xlink">
    <title>编组 8</title>
    <g id="告警详情" stroke="none" stroke-width="1" fill="none" fill-rule="evenodd">
        <g id="模块构建中" transform="translate(-680.000000, -240.000000)" fill-rule="nonzero">
            <g id="编组-8" transform="translate(680.000000, 240.000000)">
                <g id="undraw_building_websites_i78t" transform="translate(7.000000, 5.938426)">
                    <path d="M173.360425,11.2502378 C175.883264,16.8091693 170.537362,18.3837405 164.413573,21.3632562 C158.289784,24.342772 153.707053,27.5989527 151.184217,22.0400246 C148.661381,16.4810966 146.614405,5.44762977 155.277568,1.23258387 C164.239188,-3.12766702 170.837589,5.69130628 173.360425,11.2502378 Z" id="路径" fill="#2F2E41"></path>
                    <circle id="椭圆形" fill="#FFB8B8" cx="160" cy="13.0615735" r="8"></circle>
                    <path d="M204.149272,51.4138699 C203.855153,51.0572265 203.56103,50.7070092 203.263527,50.3664309 C202.879531,49.9230364 202.49317,49.493565 202.104443,49.0780166 C197.70004,44.3581148 193.015389,41.3860869 187.856845,41.0679996 L187.849925,41.0679996 L187.773736,41.0615735 L177.49449,50.3664309 L174,53.528026 L174.07619,53.7015282 L175.961713,58.0615735 L209,58.0615735 C207.511303,55.7672839 205.892101,53.5482409 204.149272,51.4138699 L204.149272,51.4138699 Z" id="路径" fill="#2F2E41"></path>
                    <path d="M151.778164,16.0615735 L151.778164,16.0615735 L154.542798,14.69111 L154.157673,10.4838503 L156.006343,13.9656146 L157.32773,13.3105889 L157.103087,10.8563505 L158.181512,12.8873595 L168,8.0202343 L168,8.0202343 C166.079678,3.70924725 161.210122,1.85670572 157.12353,3.8824624 L155.700545,4.58784921 C151.613956,6.61362167 149.857847,11.7505795 151.778164,16.0615735 L151.778164,16.0615735 Z" id="路径" fill="#2F2E41"></path>
                    <path d="M223.317,170.061574 L46.6829996,170.061574 C43.5458346,170.057999 41.0035437,167.493397 41,164.328701 L41,57.2616426 C41.0025547,54.9431433 42.8650325,53.0642447 45.1633621,53.0615735 L224.764574,53.0615735 C227.102666,53.0642542 228.997388,54.9756416 229,57.3342521 L229,164.328701 C228.996454,167.493396 226.454165,170.057997 223.317,170.061574 L223.317,170.061574 Z" id="路径" fill="#F2F2F2"></path>
                    <path d="M51.4910074,166.061574 L216.508993,166.061574 C219.541592,166.061574 222,163.596872 222,160.556509 L222,70.5666386 C222,67.5262751 219.541592,65.0615735 216.508993,65.0615735 L51.4910074,65.0615735 C48.4584078,65.0615735 46,67.5262751 46,70.5666386 L46,160.556509 C46,163.596872 48.4584078,166.061574 51.4910074,166.061574 Z" id="路径" fill="#FFFFFF"></path>
                    <path d="M229,58.0615735 L41,58.0615735 L41,55.3680822 C41.0045493,52.4378502 43.5560748,50.0639926 46.7036666,50.0615735 L223.296333,50.0615735 C226.443931,50.0639785 228.995466,52.4378444 229,55.3680822 L229,58.0615735 Z" id="路径" fill="#7E8287"></path>
                    <circle id="椭圆形" fill="#FFFFFF" cx="50.5" cy="54.5615735" r="1.5"></circle>
                    <circle id="椭圆形" fill="#FFFFFF" cx="55.5" cy="54.5615735" r="1.5"></circle>
                    <circle id="椭圆形" fill="#FFFFFF" cx="62.5" cy="54.5615735" r="1.5"></circle>
                    <path d="M140.782258,146.061574 L126.217742,146.061574 C124.441469,146.059556 123.002018,144.620105 123,142.843832 L123,128.279315 C123.002018,126.503042 124.441469,125.063591 126.217742,125.061574 L140.782258,125.061574 C142.558531,125.063591 143.997982,126.503042 144,128.279315 L144,142.843832 C143.997982,144.620105 142.558531,146.059556 140.782258,146.061574 L140.782258,146.061574 Z M126.217742,125.738993 C124.815407,125.740552 123.678978,126.87698 123.677419,128.279315 L123.677419,142.843832 C123.67898,144.246166 124.815407,145.382594 126.217742,145.384154 L140.782258,145.384154 C142.184593,145.382594 143.32102,144.246166 143.322581,142.843832 L143.322581,128.279315 C143.321022,126.87698 142.184593,125.740552 140.782258,125.738993 L126.217742,125.738993 Z" id="形状" fill="#CCCCCC"></path>
                    <path d="M138.062495,142.061574 L129.9375,142.061574 C129.419967,142.061003 129.000565,141.637186 129,141.114205 L129,131.008942 C129.000565,130.485961 129.419967,130.062144 129.9375,130.061574 L135.824793,130.061574 C136.03837,130.061755 136.245516,130.135446 136.412105,130.270506 L138.649654,132.087527 C138.87169,132.266861 139.000673,132.538729 139,132.825963 L139,141.114205 C138.99943,141.637186 138.580028,142.061003 138.062495,142.061574 L138.062495,142.061574 Z M129.9375,130.693152 C129.765003,130.693379 129.625223,130.83463 129.625,131.008942 L129.625,141.114205 C129.625223,141.288517 129.765003,141.429768 129.9375,141.429995 L138.062495,141.429995 C138.234991,141.429768 138.374771,141.288517 138.374996,141.114205 L138.374996,132.825963 C138.375227,132.730243 138.332251,132.639641 138.258264,132.579871 L136.020412,130.762692 C135.964912,130.717733 135.895919,130.693152 135.824787,130.693152 L129.9375,130.693152 Z" id="形状" fill="#CCCCCC"></path>
                    <path d="M136.666667,133.061574 L131.333333,133.061574 C131.149238,133.061574 131,132.837716 131,132.561574 C131,132.285431 131.149238,132.061574 131.333333,132.061574 L136.666667,132.061574 C136.850762,132.061574 137,132.285431 137,132.561574 C137,132.837716 136.850762,133.061574 136.666667,133.061574 Z" id="路径" fill="#CCCCCC"></path>
                    <path d="M136.666667,136.061574 L131.333333,136.061574 C131.149238,136.061574 131,135.837716 131,135.561574 C131,135.285431 131.149238,135.061574 131.333333,135.061574 L136.666667,135.061574 C136.850762,135.061574 137,135.285431 137,135.561574 C137,135.837716 136.850762,136.061574 136.666667,136.061574 Z" id="路径" fill="#CCCCCC"></path>
                    <path d="M136.666667,138.061574 L131.333333,138.061574 C131.149238,138.061574 131,137.837716 131,137.561574 C131,137.285431 131.149238,137.061574 131.333333,137.061574 L136.666667,137.061574 C136.850762,137.061574 137,137.285431 137,137.561574 C137,137.837716 136.850762,138.061574 136.666667,138.061574 Z" id="路径" fill="#CCCCCC"></path>
                    <path d="M173.782258,146.061574 L159.217742,146.061574 C157.441469,146.059556 156.002018,144.620105 156,142.843832 L156,128.279315 C156.002018,126.503042 157.441469,125.063591 159.217742,125.061574 L173.782258,125.061574 C175.558531,125.063591 176.997982,126.503042 177,128.279315 L177,142.843832 C176.997982,144.620105 175.558531,146.059556 173.782258,146.061574 L173.782258,146.061574 Z M159.217742,125.738993 C157.815407,125.740552 156.678978,126.87698 156.677419,128.279315 L156.677419,142.843832 C156.67898,144.246166 157.815407,145.382594 159.217742,145.384154 L173.782258,145.384154 C175.184593,145.382594 176.32102,144.246166 176.322581,142.843832 L176.322581,128.279315 C176.321022,126.87698 175.184593,125.740552 173.782258,125.738993 L159.217742,125.738993 Z" id="形状" fill="#CCCCCC"></path>
                    <path d="M170.029412,139.061574 L160.970588,139.061574 C160.43479,139.060998 160.000585,138.633971 160,138.107028 L160,133.016119 C160.000585,132.489177 160.43479,132.062149 160.970588,132.061574 L170.029412,132.061574 C170.56521,132.062149 170.999415,132.489177 171,133.016119 L171,138.107028 C170.999415,138.633971 170.56521,139.060998 170.029412,139.061574 Z M160.970588,132.697937 C160.791982,132.698113 160.647237,132.840465 160.647059,133.016119 L160.647059,138.107028 C160.647237,138.282682 160.791982,138.425035 160.970588,138.42521 L170.029412,138.42521 C170.208018,138.425035 170.352763,138.282682 170.352941,138.107028 L170.352941,133.016119 C170.352763,132.840465 170.208018,132.698113 170.029412,132.697937 L160.970588,132.697937 Z" id="形状" fill="#CCCCCC"></path>
                    <path d="M165.5,137.061574 C165.318211,137.061845 165.139994,137.007944 164.985602,136.905993 L160.151574,133.696589 C160.000412,133.595753 159.954638,133.383944 160.049263,133.223165 C160.143887,133.062386 160.343182,133.013344 160.494715,133.113549 L165.328743,136.322953 C165.43375,136.3921 165.566564,136.3921 165.671571,136.322953 L170.505285,133.113549 C170.656818,133.013344 170.856113,133.062386 170.950737,133.223165 C171.045362,133.383944 170.999588,133.595753 170.848426,133.696589 L166.014715,136.905993 C165.860225,137.00799 165.681895,137.061892 165.5,137.061574 Z" id="路径" fill="#CCCCCC"></path>
                    <path d="M103.782258,146.061574 L89.2177419,146.061574 C87.4414686,146.059556 86.0020178,144.620105 86,142.843832 L86,128.279315 C86.0020178,126.503042 87.4414686,125.063591 89.2177419,125.061574 L103.782258,125.061574 C105.558531,125.063591 106.997982,126.503042 107,128.279315 L107,142.843832 C106.997982,144.620105 105.558531,146.059556 103.782258,146.061574 L103.782258,146.061574 Z M89.2177419,125.738993 C87.8154066,125.740552 86.678978,126.87698 86.6774194,128.279315 L86.6774194,142.843832 C86.6789799,144.246166 87.8154074,145.382594 89.2177419,145.384154 L103.782258,145.384154 C105.184593,145.382594 106.32102,144.246166 106.322581,142.843832 L106.322581,128.279315 C106.321022,126.87698 105.184593,125.740552 103.782258,125.738993 L89.2177419,125.738993 Z" id="形状" fill="#CCCCCC"></path>
                    <path d="M101.029412,139.061574 L91.9705882,139.061574 C91.4347896,139.060998 91.0005848,138.633971 91,138.107028 L91,133.016119 C91.0005848,132.489177 91.4347896,132.062149 91.9705882,132.061574 L101.029412,132.061574 C101.56521,132.062149 101.999415,132.489177 102,133.016119 L102,138.107028 C101.999415,138.633971 101.56521,139.060998 101.029412,139.061574 Z M91.9705882,132.697937 C91.7919818,132.698113 91.6472372,132.840465 91.6470588,133.016119 L91.6470588,138.107028 C91.6472372,138.282682 91.7919818,138.425035 91.9705882,138.42521 L101.029412,138.42521 C101.208018,138.425035 101.352763,138.282682 101.352941,138.107028 L101.352941,133.016119 C101.352763,132.840465 101.208018,132.698113 101.029412,132.697937 L91.9705882,132.697937 Z" id="形状" fill="#CCCCCC"></path>
                    <path d="M100.336671,139.061574 L93.6632913,139.061574 C93.4263136,139.061648 93.2073108,138.93021 93.0888276,138.7168 C92.9703444,138.50339 92.9703939,138.240451 93.0889575,138.027089 L95.0990397,134.406399 C95.2175324,134.193018 95.4364932,134.061574 95.6734514,134.061574 C95.9104096,134.061574 96.1293705,134.193018 96.2478632,134.406399 L97.5461281,136.744761 L98.2982496,135.390034 C98.4167423,135.176653 98.6357032,135.045208 98.8726614,135.045208 C99.1096196,135.045208 99.3285804,135.176653 99.4470731,135.390034 L100.911145,138.027089 C101.029629,138.240489 101.029618,138.503411 100.911114,138.716799 C100.79261,138.930188 100.573621,139.061574 100.336652,139.061574 L100.336671,139.061574 Z M100.336671,138.371917 L100.336671,138.371917 L98.8726,135.734861 L97.8333945,137.60683 C97.7741541,137.713548 97.6646465,137.779278 97.546148,137.779244 L97.546148,137.779244 C97.4276495,137.779278 97.3181419,137.713548 97.2589015,137.60683 L95.6735393,134.751227 L93.6633012,138.371917 L100.336671,138.371917 Z" id="形状" fill="#CCCCCC"></path>
                    <circle id="椭圆形" fill="#CCCCCC" cx="100.5" cy="132.561574" r="1"></circle>
                    <polygon id="路径" fill="#FFB8B8" points="263.999337 224.061574 259.933901 224.061256 258 209.061574 264 209.061891"></polygon>
                    <path d="M264.99975,228.061574 L252,228.061114 L252,227.90376 C252,226.619514 252.533076,225.387865 253.481997,224.479774 C254.430917,223.571682 255.71793,223.061574 257.059896,223.061574 L257.060225,223.061574 L265,223.061888 L264.99975,228.061574 Z" id="路径" fill="#2F2E41"></path>
                    <polygon id="路径" fill="#FFB8B8" points="282.999337 224.061574 278.933901 224.061256 277 209.061574 283 209.061891"></polygon>
                    <path d="M282.99975,228.061574 L270,228.061114 L270,227.90376 C270,226.619514 270.533076,225.387865 271.481997,224.479774 C272.430917,223.571682 273.71793,223.061574 275.059896,223.061574 L275.060225,223.061574 L283,223.061888 L282.99975,228.061574 Z" id="路径" fill="#2F2E41"></path>
                    <path d="M282.240558,217.992531 L278.31742,216.777596 C277.719568,216.593159 277.288545,216.061894 277.223601,215.429388 L273.566008,180.140952 C273.56009,180.052422 273.487842,179.983676 273.400676,179.983635 C273.313311,179.975116 273.235143,180.038898 273.224291,180.127558 L267.097979,214.316126 C267.022822,214.735186 266.784925,215.105722 266.438053,215.34399 C266.091181,215.582258 265.664615,215.668146 265.254761,215.582242 L260.240852,214.530809 C259.480652,214.36888 258.953158,213.662454 259.003292,212.873452 L262.729801,156.837342 L288,154.061574 L284.244979,216.574591 C284.194488,217.408637 283.516407,218.059396 282.695565,218.061574 C282.541382,218.061574 282.388054,218.038254 282.240558,217.992531 Z" id="路径" fill="#2F2E41"></path>
                    <circle id="椭圆形" fill="#FFB8B8" cx="282" cy="100.061574" r="8"></circle>
                    <path d="M263,156.295421 L268.394793,121.260837 C268.975129,117.492621 271.098532,114.16375 274.223925,112.122472 C277.349318,110.081194 281.174868,109.524645 284.725766,110.594642 L284.725766,110.594642 C291.085271,112.491686 295.003873,119.064669 293.775202,125.773984 L288.131076,157.061574 L263,156.295421 Z" id="路径" fill="#3B96F9"></path>
                    <path d="M285.109167,162.500705 C285.915488,161.962857 286.444568,161.091845 286.554043,160.122039 C286.663518,159.152232 286.342143,158.183251 285.676393,157.475826 L291,147.061574 L285.004726,147.707881 L280.868478,157.498346 C279.741423,158.734076 279.707422,160.626072 280.789334,161.902311 C281.871247,163.178551 283.727096,163.435634 285.109161,162.500718 L285.109167,162.500705 Z" id="路径" fill="#FFB8B8"></path>
                    <path d="M286.2996,155.045864 C286.004535,155.000558 285.729175,154.858496 285.510226,154.638616 L283.469454,152.587345 C283.017854,152.131255 282.876016,151.417002 283.114283,150.798808 L287.192892,140.282336 L286.614292,119.502948 C286.840594,117.685659 287.941493,116.138004 289.501841,115.443601 C291.062189,114.749198 292.844626,115.01368 294.176996,116.137311 C295.509366,117.260942 296.18899,119.072795 295.959581,120.889622 L296.94886,133.951896 C297.249637,137.916327 296.216386,141.864646 294.041306,145.062404 L287.680752,154.416103 C287.433241,154.77968 287.055376,155.011739 286.641332,155.054445 C286.527509,155.06626 286.4128,155.06338 286.2996,155.045864 L286.2996,155.045864 Z" id="路径" fill="#3B96F9"></path>
                    <path d="M233.056657,95.890472 C233.224986,96.8228473 233.787397,97.6308751 234.592555,98.0971297 C235.397713,98.5633843 236.36291,98.6399703 237.228427,98.3062798 L244.326885,107.061574 L246,101.398988 L239.002679,93.9529489 C238.345224,92.4664116 236.707446,91.7190767 235.190455,92.2133914 C233.673463,92.707706 232.756758,94.2874243 233.056657,95.890472 L233.056657,95.890472 Z" id="路径" fill="#FFB8B8"></path>
                    <path d="M238.218292,99.0207359 C238.378838,98.7507506 238.617066,98.5365896 238.901221,98.4067996 L241.551377,97.1977739 C242.139746,96.9310501 242.830444,97.0635679 243.280928,97.5296069 L250.93406,105.482284 L269.580426,112.790159 C271.098613,113.698542 272.02099,115.356276 271.999637,117.138066 C271.978285,118.919855 271.016452,120.554567 269.476942,121.425588 C267.937431,122.29661 266.054509,122.271399 264.538412,121.359465 L252.561738,117.374378 C248.926569,116.165411 245.85004,113.664311 243.904431,110.336319 L238.212664,100.603359 C237.991537,100.224771 237.940128,99.769143 238.071248,99.3500316 C238.107226,99.2347933 238.156584,99.1242593 238.218292,99.0207359 L238.218292,99.0207359 Z" id="路径" fill="#3B96F9"></path>
                    <polygon id="路径" fill="#000000" opacity="0.1" points="289 130.061574 288.691072 141.059683 283 152.061574 287.751931 139.801087"></polygon>
                    <path d="M281.735815,101.517874 C280.665314,101.653407 279.657033,100.99642 279.37684,99.9807879 C279.110621,98.8290355 278.213564,97.9145105 277.044633,97.6031654 C275.532889,97.2666417 273.685232,97.9598872 272.577509,96.8440364 C272.096387,96.3272679 271.899692,95.6166294 272.048914,94.9342697 C272.252942,93.849937 273.049138,93.0307595 273.915572,92.3755861 C275.738932,91.0032593 277.945478,90.1998821 280.245773,90.0708358 C281.436466,90.0372581 282.628024,90.0950082 283.809417,90.2435514 C285.046411,90.3196047 286.269893,90.537437 287.454541,90.8925401 C290.197354,91.9009052 292.222022,94.2035563 292.823645,96.9988094 C293.371706,99.7913681 292.628129,102.677285 290.79129,104.886628 C289.70491,106.204562 288.304108,107.243599 286.71101,107.913155 C286.331531,108.087682 285.896664,108.10917 285.501007,107.972945 C284.508721,107.588585 284.670868,106.391098 285.123301,105.592403 C285.607475,104.737674 286.352476,103.910128 285.963096,102.869922 C285.767939,102.387569 285.393262,101.994645 284.913837,101.769565 C283.927397,101.279475 282.824067,101.395427 281.763598,101.514736 L281.735815,101.517874 Z" id="路径" fill="#2F2E41"></path>
                    <path d="M228.271513,107.061574 L122.728487,107.061574 C119.566212,107.058004 117.003572,104.497152 117,101.337084 L117,78.7860633 C117.003574,75.6259955 119.566212,73.0651451 122.728487,73.0615735 L228.271513,73.0615735 C231.433762,73.0652061 233.996365,75.6260208 234,78.7860633 L234,101.337084 C233.996365,104.497126 231.433762,107.057941 228.271513,107.061574 Z" id="路径" fill="#FFFFFF"></path>
                    <path d="M230.065089,107.061574 L123.934911,107.061574 C120.658679,107.057945 118.003688,104.446136 118,101.22319 L118,78.8999574 C118.003686,75.6770103 120.658678,73.0651999 123.934911,73.0615735 L230.065089,73.0615735 C233.341322,73.0651999 235.996314,75.6770103 236,78.8999574 L236,101.22319 C235.996312,104.446136 233.341321,107.057945 230.065089,107.061574 Z M123.934911,73.7484422 C121.044125,73.7516597 118.701496,76.0561879 118.698225,78.8999574 L118.698225,101.22319 C118.701496,104.066959 121.044125,106.371487 123.934911,106.374705 L230.065089,106.374705 C232.955875,106.371487 235.298504,104.066959 235.301775,101.22319 L235.301775,78.8999574 C235.298504,76.0561879 232.955875,73.7516597 230.065089,73.7484422 L123.934911,73.7484422 Z" id="形状" fill="#3F3D56"></path>
                    <path d="M218.290875,101.061574 L138.709125,101.061574 C135.557539,101.057886 133.003562,98.4138473 133,95.1511258 L133,82.9720213 C133.00356,79.709299 135.557538,77.0652591 138.709125,77.0615735 L218.290875,77.0615735 C221.442462,77.0652571 223.996442,79.7092982 224,82.9720213 L224,95.1511258 C223.99644,98.4138481 221.442462,101.057888 218.290875,101.061574 L218.290875,101.061574 Z" id="路径" fill="#F2F2F2"></path>
                    <circle id="椭圆形" fill="#FF6584" cx="154.5" cy="87.5615735" r="6.5"></circle>
                    <path d="M212.87614,99.4047879 L203.230443,91.7003919 L193.751309,84.1290173 C193.234842,83.716533 192.481598,83.7179252 191.966817,84.1323155 L182.518286,91.7384164 L180.210436,93.5963688 L176.730565,90.8168874 L166.155166,82.3700229 C165.638773,81.9575283 164.885571,81.9589052 164.370844,82.3732848 L153.829769,90.8588994 L143.12281,99.4781423 C143.011674,99.5675733 142.97109,99.713627 143.021229,99.8437044 C143.071369,99.9737819 143.201538,100.060138 143.347033,100.059849 L165.298679,100.019568 L172.247103,100.006824 L172.179125,100.061574 L192.891282,100.023566 L212.654292,99.9873122 C212.799793,99.9870785 212.929622,99.900243 212.979233,99.7699758 C213.028843,99.6397085 212.987653,99.4937999 212.87614,99.4047879 L212.87614,99.4047879 Z" id="路径" fill="#3F3D56"></path>
                    <path d="M302.654639,229.061574 L236.345361,229.061574 C236.154623,229.061574 236,228.837716 236,228.561574 C236,228.285431 236.154623,228.061574 236.345361,228.061574 L302.654639,228.061574 C302.845377,228.061574 303,228.285431 303,228.561574 C303,228.837716 302.845377,229.061574 302.654639,229.061574 Z" id="路径" fill="#CCCCCC"></path>
                    <path d="M209.417288,44.1458299 C208.865235,43.2476094 207.968762,42.6161072 206.938004,42.399349 C206.751078,42.3600085 206.561267,42.3359579 206.370447,42.327435 L180.315596,18.999929 C179.803804,18.4731686 179.121135,18.1465294 178.390346,18.0787459 C178.246206,18.062159 178.10094,18.0575773 177.956044,18.065048 C176.727656,18.1209454 175.648692,18.8994089 175.206874,20.04855 C174.765057,21.1976911 175.044113,22.4997397 175.917902,23.3661313 L185.893143,32.0745646 L202.273477,46.371737 C202.286963,46.641012 202.327067,46.9082857 202.393201,47.169639 C202.79463,48.719716 204.110545,49.8603232 205.700024,50.0359224 C206.40813,50.1187467 207.12521,50.0000613 207.769043,49.6934752 C208.279481,49.4544031 208.732132,49.1074207 209.095846,48.6764069 C209.133418,48.6318888 209.16766,48.5907951 209.201877,48.5428525 C210.181036,47.2651017 210.266849,45.5134174 209.417281,44.1458299 L209.417288,44.1458299 Z" id="路径" fill="#FFB8B8"></path>
                    <path d="M162.784627,69.1128028 L162.550782,58.9099339 L162.353132,50.4428961 L162.218045,44.5177373 L161.951243,32.96792 C161.843424,31.7043591 161.049828,30.6287373 159.928671,30.2265727 C158.807515,29.824408 157.57089,30.1717793 156.77699,31.1118887 C156.685519,31.2170073 156.602859,31.3305764 156.52997,31.4512773 C156.124501,32.0746363 155.942068,32.8340421 156.016148,33.5901323 L156.602498,50.4428961 L156.895675,58.9099339 L157.271031,69.7102681 C157.162752,69.8689649 157.064846,70.0355226 156.978015,70.2087451 C156.504609,71.1721403 156.420081,72.3018006 156.744169,73.3339482 C157.082605,74.4173457 157.836658,75.2935866 158.816015,75.741518 C159.795372,76.1894493 160.906469,76.1662774 161.868877,75.6778505 C162.99122,75.1082571 163.7751,73.9755107 163.958922,72.6576277 C164.142744,71.3397448 163.702305,70.0102443 162.784588,69.1128028 L162.784627,69.1128028 Z" id="路径" fill="#FFB8B8"></path>
                    <path d="M186.601338,39.0543517 L184.150195,32.4324226 L180.184185,21.7059347 C179.604518,20.1249876 178.335003,18.8931107 176.73464,18.3586619 C176.672345,18.3379144 176.606496,18.3171668 176.544035,18.2998599 C174.995318,17.8309859 173.318494,18.0608996 171.954065,18.9292025 L158.596352,27.3803747 C156.053394,28.9855914 155.245051,32.3131836 156.769343,34.9013647 C158.439814,37.7824333 160.260059,40.5744804 162.222635,43.2660888 C163.779313,45.3788819 166.677517,45.6036471 167.180274,49.0615735 L177.029367,49.0615735 L187,40.1332075 L186.601338,39.0543517 Z" id="路径" fill="#CCCCCC"></path>
                    <circle id="椭圆形" fill="#A0616A" cx="34.5" cy="112.561574" r="7.5"></circle>
                    <path d="M55.656901,107.833666 C55.7350029,107.896126 55.8107048,107.962334 55.8840066,108.03229 C56.6204444,108.729314 57.0259535,109.708896 56.9987105,110.725062 C56.9714675,111.741228 56.5140601,112.697455 55.7413434,113.353635 C55.6522856,113.428744 55.5593683,113.499109 55.4629744,113.564439 L55.9993911,131.760294 C56.030752,132.983464 55.2597928,134.082456 54.1027111,134.463987 L54.0700349,134.471039 L39.3656549,136.044383 C38.2778132,136.160621 37.211563,135.681357 36.5727849,134.78903 C35.9340069,133.896703 35.8209694,132.728586 36.2767017,131.729336 C36.7324339,130.730087 37.6868266,130.053428 38.7765793,129.956938 L49.2585221,129.0294 L51.0712693,113.271552 C50.9526957,113.166105 50.8416482,113.052412 50.7389483,112.931313 C49.5614837,111.531137 49.6318117,109.462244 50.9016141,108.146048 C52.1714165,106.829853 54.2273513,106.694798 55.6569078,107.833673 L55.656901,107.833666 Z" id="路径" fill="#A0616A"></path>
                    <polygon id="路径" fill="#A0616A" points="49.0005858 225.061574 52.3884951 225.061574 54 211.061574 49 211.061574"></polygon>
                    <path d="M48,224.061884 L55.3290234,224.061574 L55.3293194,224.061574 C56.5680588,224.061574 57.7560733,224.571683 58.6320011,225.479774 C59.5079288,226.387865 60,227.619513 60,228.903757 L60,229.06111 L48.0002091,229.061574 L48,224.061884 Z" id="路径" fill="#2F2E41"></path>
                    <polygon id="路径" fill="#A0616A" points="8 219.189528 11.1809234 221.061574 20 209.824557 15.3051132 207.061574"></polygon>
                    <path d="M7.4568715,218.061574 L13.7280815,221.707934 L13.7283347,221.708081 C14.7882744,222.324395 15.5540885,223.326669 15.8572988,224.494402 C16.1605092,225.662135 15.976277,226.899668 15.3451331,227.934746 L15.2678021,228.061574 L5,222.091367 L7.4568715,218.061574 Z" id="路径" fill="#2F2E41"></path>
                    <path d="M53.5769358,220.061574 L48.9775584,220.061574 C48.2061339,220.06278 47.558702,219.492378 47.4784316,218.740808 L42.8415892,176.044659 C42.8175385,175.823722 42.6454119,175.645938 42.4214582,175.610719 C42.1975045,175.5755 41.9772188,175.691573 41.8837793,175.894033 L33.5188342,194.038272 L18.7091448,217.694076 C18.3129132,218.320952 17.5069097,218.567753 16.8167533,218.273534 L10.9004032,215.723677 C10.5046852,215.553009 10.2027819,215.224169 10.0713585,214.820665 C9.93993511,214.41716 9.99163449,213.977806 10.2133281,213.614173 L23.8275094,191.283939 L28.0028654,172.469544 C26.689657,164.31035 32.3193239,152.179919 32.3764091,152.058117 L32.4043036,151.998827 L47.9114198,146.061574 L47.9891906,146.154836 C54.104737,165.814049 57.8312843,186.970705 55.079731,218.708457 C55.0094148,219.471365 54.3589029,220.057085 53.5769358,220.061574 Z" id="路径" fill="#2F2E41"></path>
                    <path d="M31.3346825,154.061574 L31.2676217,153.912069 C31.2355766,153.840536 28.0341028,146.678435 25.566183,139.023675 C24.6072441,136.030844 24.8749683,132.748688 26.3042773,129.975031 C27.7521716,127.17268 30.2412877,125.142456 33.1665219,124.377907 L33.1665219,124.377907 C38.3578689,123.058087 43.6776132,125.969533 45.6718851,131.221976 C47.629478,136.414403 47.0055839,141.956682 46.4184564,146.31523 L46.4067614,146.402546 L46.3318797,146.440568 L31.3346825,154.061574 Z" id="路径" fill="#3F3D56"></path>
                    <path d="M46,108.061574 L34,108.061574 L34,103.137067 C36.6338655,102.151948 39.2112401,101.314158 40.7692305,103.137067 C43.6580955,103.137082 46,105.341846 46,108.061574 L46,108.061574 Z" id="路径" fill="#2F2E41"></path>
                    <path d="M31.0000751,102.061574 C23.9682221,102.061574 22,110.852345 22,115.811663 C22,118.577417 23.2541313,119.566627 25.2248501,119.901344 L25.9208338,116.199307 L27.5509328,120.060649 C28.1045088,120.063404 28.686067,120.052716 29.2889771,120.041554 L29.8416709,118.906532 L31.0741498,120.021193 C36.010392,120.028526 40,120.746175 40,115.811663 C40,110.852345 38.2738863,102.061574 31.0000751,102.061574 Z" id="路径" fill="#2F2E41"></path>
                    <path d="M66.6546392,229.061574 L0.345360825,229.061574 C0.154623308,229.061574 0,228.837716 0,228.561574 C0,228.285431 0.154623308,228.061574 0.345360825,228.061574 L66.6546392,228.061574 C66.8453767,228.061574 67,228.285431 67,228.561574 C67,228.837716 66.8453767,229.061574 66.6546392,229.061574 Z" id="路径" fill="#CCCCCC"></path>
                    <path d="M67.7822581,114.061574 L53.2177419,114.061574 C51.4414686,114.059556 50.0020178,112.620105 50,110.843832 L50,96.2793155 C50.0020178,94.5030421 51.4414686,93.0635913 53.2177419,93.0615735 L67.7822581,93.0615735 C69.5585314,93.0635913 70.9979822,94.5030421 71,96.2793155 L71,110.843832 C70.9979822,112.620105 69.5585314,114.059556 67.7822581,114.061574 L67.7822581,114.061574 Z" id="路径" fill="#FFFFFF"></path>
                    <path d="M67.7822581,114.061574 L53.2177419,114.061574 C51.4414686,114.059556 50.0020178,112.620105 50,110.843832 L50,96.2793155 C50.0020178,94.5030421 51.4414686,93.0635913 53.2177419,93.0615735 L67.7822581,93.0615735 C69.5585314,93.0635913 70.9979822,94.5030421 71,96.2793155 L71,110.843832 C70.9979822,112.620105 69.5585314,114.059556 67.7822581,114.061574 L67.7822581,114.061574 Z M53.2177419,93.7389929 C51.8154074,93.7405534 50.6789799,94.876981 50.6774194,96.2793155 L50.6774194,110.843832 C50.6789799,112.246166 51.8154074,113.382594 53.2177419,113.384154 L67.7822581,113.384154 C69.1845926,113.382594 70.3210201,112.246166 70.3225806,110.843832 L70.3225806,96.2793155 C70.3210201,94.876981 69.1845926,93.7405534 67.7822581,93.7389929 L53.2177419,93.7389929 Z" id="形状" fill="#3F3D56"></path>
                    <path d="M66.0294118,108.061574 L56.9705882,108.061574 C56.4347896,108.060971 56.0005848,107.613609 56,107.061574 L56,100.061574 C56.0005848,99.5095451 56.4347896,99.0621829 56.9705882,99.0615735 L59.5207506,99.0615735 C59.8581004,99.0602953 60.1715846,99.2407033 60.3474265,99.5373267 L61.0586218,100.728246 L66.0294118,100.728246 C66.5652104,100.728848 66.9994152,101.17621 67,101.728245 L67,107.061574 C66.9994152,107.613609 66.5652104,108.060971 66.0294118,108.061574 L66.0294118,108.061574 Z" id="路径" fill="#3B96F9"></path>
                    <path d="M66.5560534,112.927633 C66.6047266,113.016336 66.649682,113.107577 66.6909194,113.201357 C67.1074532,114.138148 67.1027861,115.207359 66.67809,116.14051 C66.2533939,117.073661 65.4490094,117.782116 64.4669178,118.087981 C64.3539322,118.122754 64.2391921,118.151603 64.1231706,118.174408 L57.4785243,135.286225 C57.0274476,136.434677 55.8730614,137.152534 54.6385526,137.052266 L54.6051544,137.045976 L40.2033619,132.729609 C39.1378518,132.410227 38.3264826,131.546097 38.0781517,130.466201 C37.8298208,129.386306 38.182737,128.256801 39.002541,127.507702 C39.822345,126.758602 40.9829,126.505167 42.0423696,126.843881 L52.2324057,130.100981 L60.1214713,116.176732 C60.0517413,116.032199 59.9923048,115.882964 59.9436016,115.73013 C59.38995,113.966957 60.2685649,112.073004 61.9758327,111.349428 C63.6831005,110.625852 65.6633149,111.308174 66.5560569,112.927633 L66.5560534,112.927633 Z" id="路径" fill="#A0616A"></path>
                </g>
            </g>
        </g>
    </g>
</svg>