<?xml version="1.0" encoding="UTF-8"?>
<svg width="320px" height="240px" viewBox="0 0 320 240" version="1.1" xmlns="http://www.w3.org/2000/svg" xmlns:xlink="http://www.w3.org/1999/xlink">
    <title>编组 4</title>
    <defs>
        <circle id="path-1" cx="137.408759" cy="153.832117" r="23.540146"></circle>
        <mask id="mask-2" maskContentUnits="userSpaceOnUse" maskUnits="objectBoundingBox" x="0" y="0" width="47.080292" height="47.080292" fill="white">
            <use xlink:href="#path-1"></use>
        </mask>
        <path d="M120.953537,127.007299 C114.219707,127.007299 108.116375,123.040371 105.376711,116.881943 L67.6376899,31.7956005 C64.2313025,24.1156498 65.3588306,15.1780581 70.5655598,8.58721445 C75.7722891,1.9963708 84.1997154,-1.16100292 92.4491914,0.388412039 C100.698667,1.93782699 107.40999,7.93855755 109.876589,15.9706042 L137.204202,104.958103 C138.790773,110.123404 137.836081,115.735955 134.631234,120.084353 C131.426388,124.432751 126.351323,127.00149 120.953552,127.007299 L120.953537,127.007299 Z" id="path-3"></path>
        <mask id="mask-4" maskContentUnits="userSpaceOnUse" maskUnits="objectBoundingBox" x="0" y="0" width="72.2627737" height="127.007299" fill="white">
            <use xlink:href="#path-3"></use>
        </mask>
    </defs>
    <g id="数据仓库" stroke="none" stroke-width="1" fill="none" fill-rule="evenodd">
        <g id="画板" transform="translate(-255.000000, -395.000000)">
            <g id="编组-4" transform="translate(255.000000, 395.000000)">
                <rect id="矩形" fill="#FAFAFA" opacity="0" x="0" y="0" width="320" height="240"></rect>
                <g id="undraw_Notify_re_65on" transform="translate(10.000000, 23.000000)" fill-rule="nonzero">
                    <path d="M273.48022,193.79562 L264.963504,168.234907 C264.963504,168.234907 274.331324,177.551429 274.331324,185.195753 L272.649922,167.518248 C272.649922,167.518248 277.453932,173.968149 276.973529,183.762443 C276.493127,193.556737 273.48022,193.79562 273.48022,193.79562 Z" id="路径" fill="#E6E6E6"></path>
                    <path d="M89.5386154,170.80292 L81.0218978,145.242204 C81.0218978,145.242204 90.3897174,154.558726 90.3897174,162.203055 L88.7083169,144.525547 C88.7083169,144.525547 93.5123278,150.975449 93.0319233,160.769741 C92.5515187,170.564033 89.5386154,170.80292 89.5386154,170.80292 Z" id="路径" fill="#E6E6E6"></path>
                    <path d="M220.072993,181.335309 C220.087282,198.131898 187.240648,192.965292 147.028677,193.000492 C106.816707,193.035691 74.4668531,198.259355 74.4525547,181.462793 C74.4382657,164.666231 107.272882,160.984361 147.484853,160.948905 C187.696824,160.913955 220.058694,164.53872 220.072993,181.335309 Z" id="路径" fill="#E6E6E6"></path>
                    <rect id="矩形" fill="#3F3D56" x="0" y="192.70073" width="300" height="1.09489051"></rect>
                    <polygon id="路径" fill="#F5D0D5" points="191.605839 159.854015 186.412901 159.854015 183.941606 140.145985 191.605839 140.145985"></polygon>
                    <path d="M182.042287,158.759124 L192.70073,158.759124 L192.70073,165.328467 L176.277372,165.328467 L176.277372,164.727504 C176.277372,161.431255 178.858419,158.759124 182.042287,158.759124 L182.042287,158.759124 Z" id="路径" fill="#2F2E41"></path>
                    <polygon id="路径" fill="#F5D0D5" points="231.021898 189.416058 225.82896 189.416058 223.357664 169.708029 231.021898 169.708029"></polygon>
                    <path d="M220.363455,188.321168 L231.021898,188.321168 L231.021898,194.890511 L214.59854,194.890511 L214.59854,194.289548 C214.59854,190.993298 217.179587,188.321168 220.363455,188.321168 L220.363455,188.321168 Z" id="路径" fill="#2F2E41"></path>
                    <path d="M255.31586,128.846315 C256.048035,127.956258 256.349314,126.786818 256.138629,125.652673 C255.927944,124.518528 255.226937,123.536184 254.224238,122.969975 L242.074802,73.3576642 L234.306569,76.7080581 L248.757433,124.678954 C247.901403,126.469861 248.516906,128.619546 250.19013,129.682748 C251.863355,130.745949 254.065425,130.386609 255.31586,128.846315 Z" id="路径" fill="#F5D0D5"></path>
                    <path d="M245.148507,27.7056155 C244.280946,26.7163747 243.056226,26.197087 241.803894,26.2874817 C240.551561,26.3778764 239.400257,27.0686679 238.659774,28.1739789 L220.072993,30.5014661 L222.900431,38.3211679 L239.804005,34.8704978 C241.6289,36.1319533 244.030387,35.7052745 245.393911,33.877324 C246.757434,32.0493736 246.652006,29.3979371 245.148507,27.7056155 L245.148507,27.7056155 Z" id="路径" fill="#F5D0D5"></path>
                    <path d="M214.59854,123.956671 L222.690521,186.131387 L232.762095,184.008588 C232.762095,184.008588 231.280962,138.728203 236.316771,133.269526 C241.35258,127.810849 229.839699,118.248175 229.839699,118.248175 L214.59854,123.956671 Z" id="路径" fill="#4274BB"></path>
                    <path d="M218.193442,107.081685 L214.396384,112.82456 C214.396384,112.82456 185.159034,100.573365 185.159034,120.098869 C185.159034,139.624373 183.485932,152.875157 182.880799,153.790403 C182.275665,154.705649 189.881671,157.080592 193.512562,156.470412 C193.512562,156.470412 197.991903,124.992242 197.689327,123.161735 C197.689327,123.161735 226.369857,137.340263 231.816194,136.119925 C237.262531,134.899587 238.549259,130.579581 239.456969,128.138894 C240.364679,125.698206 239.077263,106.315968 239.077263,106.315968 L220.923527,100.729927 L218.193442,107.081685 Z" id="路径" fill="#4274BB"></path>
                    <path d="M217.561843,72.2627737 L216.481569,70.9707372 C216.481569,70.9707372 204.382497,43.8379851 209.135701,36.5164485 C213.888905,29.1949119 234.63018,28.1182167 235.278351,28.5488917 C235.926522,28.9795668 233.730178,34.5712108 235.242551,37.1552952 C235.242551,37.1552952 219.175192,40.6272324 218.094907,41.0579112 C217.014623,41.4885901 226.420095,57.4043517 226.420095,57.4043517 L225.339825,67.0946163 L217.561843,72.2627737 Z" id="路径" fill="#AEE0FF"></path>
                    <path d="M239.519401,59.5245623 C239.519401,59.5245623 228.308876,60.8063194 227.877685,60.8063194 C227.446495,60.8063194 227.230933,58.0291971 227.230933,58.0291971 L217.313905,71.487555 C217.313905,71.487555 212.428108,110.531893 213.721633,109.891017 C215.015158,109.25014 238.872645,112.930759 239.088238,111.221763 C239.303831,109.512767 238.872645,100.967774 239.519416,100.54052 C240.166188,100.113267 250.729927,73.6238081 250.729927,73.6238081 C250.729927,73.6238081 249.651992,68.0695635 245.987006,66.1469372 C242.322021,64.2243109 239.519401,59.5245623 239.519401,59.5245623 Z" id="路径" fill="#AEE0FF"></path>
                    <path d="M247.068543,70.0729927 L250.693353,73.7350727 C250.693353,73.7350727 256.079094,115.815846 253.133937,117.108347 C250.18878,118.400848 244.390837,118.241991 244.390837,118.241991 L238.686131,98.2925654 L247.068543,70.0729927 Z" id="路径" fill="#AEE0FF"></path>
                    <circle id="椭圆形" fill="#F5D0D5" cx="228.832117" cy="47.080292" r="9.8540146"></circle>
                    <path d="M225.817844,48.3246584 C225.681333,46.2121154 223.035746,46.1397307 220.934371,46.1197284 C218.832997,46.0997261 216.320678,46.1752964 215.131646,44.4297444 C214.345863,43.2761678 214.495955,41.6746945 215.145127,40.4378997 C215.794298,39.2011049 216.862102,38.2498679 217.912597,37.3347591 C220.624722,34.9721814 223.419905,32.6283527 226.67604,31.1161468 C229.932174,29.6039409 233.747916,28.9929139 237.124859,30.2068273 C241.27316,31.6980065 246.725424,37.146894 247.362882,41.5458912 C248.005319,45.9792428 250.3524,47.6346772 252.703627,50.9470535 C252.902713,51.5507098 251.83393,51.3180634 249.497277,50.2491144 C251.595408,53.0340723 251.483227,54.4695432 249.160732,54.5555272 C245.504665,54.6908829 243.83791,55.2178451 243.150674,55.9858004 C240.2015,59.2813667 233.451394,57.9516921 229.203438,59.1240876 C231.785958,55.4419392 230.083707,48.7513732 225.946556,47.0319037 L225.817844,48.3246584 Z" id="路径" fill="#2F2E41"></path>
                    <use id="椭圆形" stroke="#2E8DE6" mask="url(#mask-2)" stroke-width="4" fill-opacity="0.1" fill="#096DD9" opacity="0.448032924" stroke-dasharray="3" xlink:href="#path-1"></use>
                    <use id="路径" stroke="#2E8DE6" mask="url(#mask-4)" stroke-width="4" fill-opacity="0.1" fill="#096DD9" opacity="0.448032924" stroke-dasharray="3" xlink:href="#path-3"></use>
                </g>
            </g>
        </g>
    </g>
</svg>