<?xml version="1.0" encoding="UTF-8"?>
<svg width="320px" height="240px" viewBox="0 0 320 240" version="1.1" xmlns="http://www.w3.org/2000/svg" xmlns:xlink="http://www.w3.org/1999/xlink">
    <title>编组</title>
    <g id="数据仓库" stroke="none" stroke-width="1" fill="none" fill-rule="evenodd">
        <g id="画板" transform="translate(-255.000000, -81.000000)">
            <g id="编组" transform="translate(255.000000, 81.000000)">
                <rect id="矩形" fill="#FAFAFA" opacity="0" x="0" y="0" width="320" height="240"></rect>
                <g id="undraw_Surveillance_re_8tkl" transform="translate(10.000000, 12.000000)" fill-rule="nonzero">
                    <rect id="矩形" fill="#3F3D56" x="0" y="212.890087" width="141.991844" height="1"></rect>
                    <polygon id="路径" fill="#FFB8B8" points="36.0945115 210.73831 40.1315038 210.73831 42.05236 195.165971 36.0938529 195.165971"></polygon>
                    <path d="M35.229324,209.584595 L47.917819,209.584595 L47.917819,214.486967 L40.1316895,214.486967 C37.4241878,214.486967 35.229324,212.292103 35.229324,209.584595 L35.229324,209.584595 L35.229324,209.584595 Z" id="路径" fill="#2F2E41" transform="translate(41.573571, 212.035781) rotate(179.997380) translate(-41.573571, -212.035781) "></path>
                    <polygon id="路径" fill="#FFB8B8" points="14.6143798 209.96213 18.6164654 210.495609 22.5787047 195.313831 16.6725576 194.526454"></polygon>
                    <path d="M13.5298027,209.521348 L26.2182978,209.521348 L26.2182978,214.42372 L18.4321715,214.42372 C15.724668,214.42372 13.5298027,212.228855 13.5298027,209.521348 L13.5298027,209.521348 L13.5298027,209.521348 Z" id="路径" fill="#2F2E41" transform="translate(19.874050, 211.972534) rotate(-172.405540) translate(-19.874050, -211.972534) "></path>
                    <polygon id="路径" fill="#4374BB" points="20.3499451 146.42371 43.0722283 147.411636 42.084303 205.040615 36.1567508 204.381998 31.5464325 165.194292 20.6792536 207.016465 14.7517014 206.02854"></polygon>
                    <path d="M35.4982426,112.175473 L27.5948397,110.56092 L22.655213,146.752861 C22.655213,146.752861 37.1447849,156.302806 41.7551032,146.423552 L35.4982426,112.175473 Z" id="路径" fill="#FFFFFF"></path>
                    <circle id="椭圆形" fill="#FFB8B8" cx="32.0508738" cy="99.8367761" r="8.08815477"></circle>
                    <path d="M27.5948397,110.199622 L16.0690439,113.822015 C16.0690439,113.822015 21.6672876,141.813234 12.4466509,156.302806 C12.4466509,156.302806 23.9724468,168.487218 28.9120735,141.154617 C28.9120735,141.154617 32.863775,119.090951 27.5948397,110.199622 Z" id="路径" fill="#4374BB"></path>
                    <path d="M35.4982426,112.175473 L44.0602623,117.444408 C44.0602623,117.444408 48.6705807,155.973497 44.0602623,159.59589 C39.449944,163.218283 35.4982426,112.175473 35.4982426,112.175473 Z" id="路径" fill="#4374BB"></path>
                    <path d="M47.6200011,165.183323 C46.9096322,164.508204 46.5347831,163.553112 46.5963176,162.575042 C46.6578521,161.596971 47.1494493,160.696391 47.938831,160.115628 L44.4578266,148.87448 L50.3302689,150.580235 L52.7355807,160.993508 C53.6432523,162.415511 53.3438969,164.291663 52.038776,165.360597 C50.7336551,166.42953 48.8352977,166.353371 47.6200011,165.183323 Z" id="路径" fill="#FFB8B8"></path>
                    <path d="M18.0401658,161.932258 C17.2492132,161.353632 16.7551809,160.454383 16.6910036,159.476479 C16.6268263,158.498576 16.9990965,157.542473 17.7076432,156.865439 L12.8162634,146.162394 L18.8587442,147.102362 L22.5772953,157.122053 C23.6595429,158.416161 23.602827,160.315205 22.4452788,161.542421 C21.2877306,162.769637 19.3952358,162.937117 18.0401559,161.932261 L18.0401658,161.932258 Z" id="路径" fill="#FFB8B8"></path>
                    <polygon id="路径" fill="#4374BB" points="19.0327113 114.151482 16.0689352 113.822173 8.49484083 138.520307 16.0689352 155.644347 21.9964874 152.021954 15.4103183 137.86169 20.6792536 122.713502"></polygon>
                    <polygon id="路径" fill="#4374BB" points="42.4136114 117.115258 44.0601537 117.444566 51.9635565 155.973655 46.6946213 157.620198 40.4377607 134.897914"></polygon>
                    <path d="M26.4930362,103.157951 C26.7148264,101.541134 27.7712265,100.160398 29.2737662,99.5234819 C30.8306378,98.8851306 32.5868529,99.1547684 34.2650779,99.2768628 C35.943303,99.3989572 37.8117003,99.2929232 39.0227881,98.1247574 C40.1291658,97.0575873 40.3779715,95.2866191 39.8436915,93.8452722 C39.3094116,92.4039254 38.0996443,91.284899 36.7253249,90.596315 C35.3248373,89.9540258 33.8242895,89.5574627 32.2893359,89.4239769 C30.046416,89.1529956 27.7431965,89.1184577 25.5571482,89.6887805 C23.3710999,90.2591032 23.9347442,91.481562 22.6536981,93.3424577 C21.372652,95.2033535 20.9888858,97.7386729 21.9655785,99.7758639 C22.6191043,101.13899 23.7902371,102.170789 24.9306718,103.163078" id="路径" fill="#2F2E41"></path>
                    <path d="M207.410967,192.41675 L207.410806,191.799398 C208.638277,191.799095 209.884297,191.773772 211.114643,191.724645 L211.139364,192.341394 C209.900914,192.391123 208.646592,192.41645 207.410967,192.41675 Z M203.683617,192.345316 C202.449514,192.297079 201.197322,192.223235 199.96199,192.125872 L200.01053,191.510328 C201.237863,191.607389 202.481773,191.68065 203.707735,191.728568 L203.683617,192.345316 Z M214.861004,192.117731 L214.811862,191.502188 C216.036919,191.404225 217.276772,191.27973 218.496705,191.132318 L218.570872,191.745451 C217.342656,191.893745 216.094525,192.018843 214.861004,192.117711 L214.861004,192.117731 Z M196.251701,191.757797 C195.020746,191.610385 193.778509,191.436448 192.559166,191.240819 L192.657132,190.631305 C193.86818,190.825726 195.102283,190.998461 196.32495,191.144664 L196.251701,191.757797 Z M222.262485,191.224238 L222.163917,190.614724 C223.374665,190.419076 224.60047,190.195106 225.807316,189.949735 L225.930303,190.554425 C224.715484,190.80191 223.481394,191.027101 222.262505,191.224238 L222.262485,191.224238 Z M188.8906,190.575227 C187.67563,190.32925 186.451479,190.055249 185.251726,189.761625 L185.398531,189.16176 C186.590299,189.453856 187.806316,189.725766 189.012985,189.969935 L188.8906,190.575227 Z M229.568427,189.73662 L229.420716,189.137358 C230.616105,188.843144 231.819761,188.520909 232.998389,188.17938 L233.170218,188.772613 C231.983434,189.116249 230.771641,189.440595 229.56843,189.73662 L229.568427,189.73662 Z M181.648742,188.801236 C180.458335,188.457596 179.260268,188.085616 178.087791,187.695547 L178.282818,187.109549 C179.447437,187.497207 180.637541,187.866774 181.81995,188.208003 L181.648742,188.801236 Z M236.729664,187.662382 L236.534035,187.076967 C237.699418,186.687504 238.872942,186.268791 240.022347,185.832013 L240.241791,186.408962 C239.084529,186.848776 237.902885,187.270505 236.729664,187.662382 Z M174.564975,186.442432 C173.406827,186.00352 172.240238,185.53448 171.097469,185.047653 L171.339385,184.479724 C172.474479,184.963235 173.633368,185.429282 174.783836,185.864855 L174.564975,186.442432 Z M243.690283,185.01873 L243.447912,184.450801 C244.576512,183.968799 245.709636,183.457851 246.815644,182.93183 L247.080919,183.489507 C245.967389,184.018844 244.826424,184.533389 243.690283,185.01873 L243.690283,185.01873 Z M167.690111,183.513925 C166.568746,182.981572 165.444507,182.419696 164.348769,181.843627 L164.636048,181.297406 C165.724413,181.869234 166.840953,182.427514 167.954779,182.956248 L167.690111,183.513925 Z M250.408561,181.82403 L250.120976,181.277809 C251.208293,180.705659 252.297398,180.104285 253.357884,179.490853 L253.667173,180.025014 C252.599453,180.642668 251.503113,181.24796 250.408581,181.82403 L250.408561,181.82403 Z M161.078704,180.040087 C160.002853,179.418211 158.928349,178.767695 157.884909,178.106628 L158.215284,177.585128 C159.251648,178.241674 160.319068,178.887971 161.387671,179.505925 L161.078704,180.040087 Z M256.851909,178.095774 L256.521537,177.574274 C257.556392,176.918621 258.594263,176.231654 259.606209,175.531996 L259.957083,176.039625 C258.938532,176.744108 257.893699,177.435892 256.851929,178.095774 L256.851909,178.095774 Z M154.772328,176.046859 C153.751502,175.341481 152.733204,174.607162 151.745681,173.864108 L152.116759,173.370948 C153.097808,174.108876 154.109289,174.838363 155.123203,175.539231 L154.772328,176.046859 Z M262.978416,173.860189 L262.607078,173.36703 C263.585858,172.63091 264.565864,171.862528 265.519923,171.082996 L265.910595,171.561079 C264.950167,172.345739 263.963546,173.119245 262.978432,173.860189 L262.978416,173.860189 Z M148.809642,171.561682 C147.851203,170.77853 146.895477,169.965247 145.968995,169.144106 L146.378361,168.682304 C147.298811,169.497715 148.248207,170.30587 149.200314,171.083598 L148.809642,171.561682 Z M268.748951,169.145615 L268.339587,168.683809 C269.259296,167.868698 270.175064,167.023765 271.061322,166.172793 L271.488764,166.618317 C270.596812,167.47473 269.674992,168.325097 268.748974,169.145615 L268.748951,169.145615 Z M143.227831,166.61562 C142.337381,165.76013 141.450059,164.873282 140.590811,163.979806 L141.03573,163.551748 C141.889413,164.439497 142.77083,165.320615 143.655566,166.170079 L143.227831,166.61562 Z M274.12611,163.982216 L273.681171,163.554161 C274.532141,162.669122 275.377699,161.753638 276.194602,160.832723 L276.656404,161.242689 C275.834078,162.169337 274.982829,163.091134 274.12611,163.982216 L274.12611,163.982216 Z M138.061683,161.241504 C137.238593,160.313654 136.425451,159.358996 135.644559,158.404011 L136.122642,158.013339 C136.898108,158.961991 137.705957,159.910321 138.523485,160.831538 L138.061683,161.241504 Z M279.075514,158.403408 L278.59743,158.012737 C279.377562,157.05896 280.147452,156.078069 280.885986,155.097481 L281.379138,155.468858 C280.63578,156.456063 279.860473,157.443286 279.075507,158.403408 L279.075514,158.403408 Z M133.343648,155.47338 C132.59969,154.485557 131.86582,153.469693 131.162552,152.453526 L131.670184,152.102048 C132.368779,153.11158 133.097674,154.120811 133.836807,155.102002 L133.343648,155.47338 Z M283.563708,152.443274 L283.056076,152.0924 C283.757223,151.078347 284.44633,150.038364 285.103782,149.001395 L285.625281,149.331771 C284.963302,150.375655 284.269693,151.422573 283.563701,152.443274 L283.563708,152.443274 Z M129.104776,149.349257 C128.443258,148.306258 127.793654,147.235241 127.173879,146.165714 L127.708041,145.856424 C128.323584,146.918717 128.968963,147.982498 129.625976,149.018562 L129.104776,149.349257 Z M287.560874,146.139181 L287.026712,145.829891 C287.64467,144.761872 288.247851,143.669147 288.819698,142.582452 L289.365919,142.870034 C288.790432,143.963964 288.183043,145.063946 287.560854,146.139181 L287.560874,146.139181 Z M125.373369,142.907387 C124.798215,141.815266 124.237232,140.695992 123.70608,139.580658 L124.263448,139.315383 C124.791125,140.423177 125.348341,141.534922 125.919576,142.619806 L125.373369,142.907387 Z M291.037982,139.529723 L290.480305,139.264452 C291.008737,138.152737 291.522095,137.014485 292.005606,135.881061 L292.573535,136.123432 C292.086708,137.264378 291.570023,138.410467 291.037982,139.529723 L291.037982,139.529723 Z M122.174865,136.191234 C121.688641,135.054191 121.2202,133.894235 120.782348,132.743325 L121.359296,132.52388 C121.794277,133.66665 122.259557,134.819071 122.742464,135.948273 L122.174865,136.191234 Z M293.970425,132.656213 L293.393147,132.437371 C293.830831,131.282542 294.250449,130.1054 294.639613,128.939127 L295.225027,129.134453 C294.83347,130.308863 294.411142,131.493557 293.970422,132.656213 L293.970425,132.656213 Z M119.527149,129.23212 C119.134067,128.058596 118.759976,126.860974 118.415282,125.67298 L119.008212,125.50115 C119.350656,126.681003 119.722182,127.870485 120.112554,129.036171 L119.527149,129.23212 Z M296.333147,125.573506 L295.739914,125.402262 C296.080538,124.224217 296.402187,123.020565 296.696101,121.824128 L297.295363,121.971237 C296.999641,123.175811 296.675881,124.387923 296.333141,125.573506 L296.333147,125.573506 Z M117.448844,122.071637 C117.152229,120.869473 116.876555,119.645921 116.62907,118.434425 L117.234072,118.310832 C117.479737,119.514204 117.753613,120.729932 118.048123,121.923939 L117.448844,122.071637 Z M298.11105,118.333446 L297.505759,118.210442 C297.749928,117.007976 297.972988,115.782013 298.16894,114.566905 L298.778453,114.66517 C298.581303,115.888432 298.356741,117.122536 298.111057,118.333446 L298.11105,118.333446 Z M115.957307,114.766765 C115.759393,113.548021 115.583368,112.306077 115.434148,111.075293 L116.046991,111.001126 C116.195305,112.223793 116.370142,113.45729 116.566834,114.667877 L115.957307,114.766765 Z M299.297546,110.972203 L298.684413,110.898639 C298.831218,109.676575 298.955104,108.436755 299.052171,107.213644 L299.667718,107.262477 C299.569732,108.493877 299.445237,109.741999 299.297546,110.972203 L299.297546,110.972203 Z M115.059909,107.366019 C114.960277,106.132963 114.884322,104.880771 114.834132,103.644105 L115.45088,103.619078 C115.500767,104.847461 115.576281,106.091364 115.675139,107.31628 L115.059909,107.366019 Z M299.889547,103.541154 L299.272798,103.516735 C299.321035,102.286541 299.345737,101.040665 299.345737,99.8136619 L299.345437,99.6091317 L299.962788,99.6091317 L299.963091,99.812315 C299.963111,101.048671 299.938409,102.302681 299.889566,103.541154 L299.889547,103.541154 Z M115.373536,99.9159978 L114.756184,99.9159978 L114.756333,99.8123052 C114.756333,98.6080406 114.779714,97.3884007 114.825968,96.188809 L115.442717,96.2126246 C115.3969,97.4043919 115.373687,98.6158782 115.373687,99.8136619 L115.373536,99.9159978 Z M299.264048,95.9069539 C299.213094,94.6811328 299.136537,93.4372294 299.035857,92.2100516 L299.651404,92.1597135 C299.752383,93.3951734 299.82956,94.6472239 299.880797,95.8813271 L299.264048,95.9069539 Z M115.659046,92.5152711 L115.043503,92.4670439 C115.140563,91.23082 115.263863,89.9825467 115.409756,88.7565741 L116.022886,88.8295258 C115.877875,90.047348 115.755487,91.2874907 115.659046,92.5152711 Z M298.660291,88.5255214 C298.511374,87.3079923 298.335342,86.0744786 298.136381,84.8593633 L298.745895,84.7597409 C298.945742,85.983 299.123302,87.2247892 299.272821,88.4507618 L298.660291,88.5255214 Z M116.534117,85.1615565 L115.924594,85.0638836 C116.120233,83.8415302 116.343454,82.6069759 116.588378,81.3948705 L117.19337,81.516955 C116.950265,82.7210681 116.728551,83.9471921 116.534117,85.1615565 Z M297.464763,81.2170209 C297.216978,80.0106454 296.941755,78.7955269 296.646636,77.604978 L297.245901,77.4563644 C297.543128,78.6549023 297.820159,79.878461 298.069452,81.0928255 L297.464763,81.2170209 Z M117.999293,77.902202 L117.39957,77.7556992 C117.693181,76.5541449 118.015726,75.3417398 118.358157,74.1519484 L118.951403,74.3227113 C118.611211,75.5045269 118.290945,76.7087914 117.999283,77.902202 L117.999293,77.902202 Z M295.682937,74.0289583 C295.339297,72.8498694 294.966692,71.6608189 294.574838,70.4949945 L295.160233,70.2984501 C295.554524,71.4721054 295.929827,72.6691416 296.275568,73.856236 L295.682937,74.0289583 Z M120.04774,70.7851251 L119.4619,70.5903919 C119.852572,69.4149089 120.273382,68.2294874 120.712745,67.0671207 L121.290313,67.2853699 C120.853798,68.4400472 120.435701,69.6174863 120.04774,70.7851251 Z M293.323841,67.0087903 C292.885232,65.8604424 292.418605,64.708775 291.936902,63.5856026 L292.504228,63.3423392 C292.989247,64.4730494 293.45919,65.6324029 293.900825,66.7884402 L293.323841,67.0087903 Z M122.673767,63.8400198 L122.105546,63.5982645 C122.590716,62.4577541 123.106186,61.3110659 123.637488,60.1904424 L124.195307,60.4548112 C123.667472,61.5680351 123.155621,62.7070472 122.673771,63.8400198 L122.673767,63.8400198 Z M290.412204,60.2199879 C289.883769,59.1133864 289.325509,58.0022733 288.752756,56.917528 L289.298374,56.629202 C289.875323,57.7213337 290.437528,58.8398496 290.969285,59.954124 L290.412204,60.2199879 Z M125.852644,57.1348716 L125.305821,56.8481954 C125.881278,55.7513908 126.487475,54.6508189 127.107402,53.5769276 L127.642166,53.8856048 C127.0263,54.9522711 126.424172,56.045595 125.852634,57.1348716 L125.852644,57.1348716 Z M286.960363,53.6836465 C286.343012,52.6209122 285.696715,51.5577135 285.038964,50.5233095 L285.559857,50.1920252 C286.222133,51.2333677 286.872652,52.3037881 287.494215,53.3734742 L286.960363,53.6836465 Z M129.560984,50.7121712 L129.039184,50.3820889 C129.70146,49.3350231 130.394022,48.2873578 131.097441,47.2683326 L131.605373,47.6190461 C130.906617,48.6313008 130.218876,49.6718793 129.560984,50.7121712 L129.560984,50.7121712 Z M282.991258,47.441809 C282.291013,46.4327289 281.560903,45.4241032 280.821468,44.4444072 L281.314024,44.072427 C282.058591,45.0587453 282.793498,46.0740066 283.498284,47.0900318 L282.991258,47.441809 Z M133.772147,44.6112645 L133.278678,44.2404896 C134.022636,43.2502591 134.796596,42.2621164 135.578993,41.3032261 L136.05738,41.693595 C135.280116,42.6459945 134.511277,43.62764 133.772137,44.6112645 L133.772147,44.6112645 Z M278.532609,41.5354841 C277.753979,40.5854852 276.944898,39.6381998 276.128602,38.7199989 L276.589801,38.3097431 C277.411847,39.234112 278.226033,40.18773 279.01009,41.1442097 L278.532609,41.5354841 Z M138.45734,38.8702854 L137.995225,38.4612349 C138.814847,37.5351932 139.665072,36.6124973 140.522371,35.7187014 L140.967925,36.1461438 C140.116334,37.0338836 139.271697,37.9505664 138.45735,38.8702854 L138.45734,38.8702854 Z M273.613377,36.0020516 C272.759091,35.1156586 271.876768,34.2357497 270.990527,33.3865785 L271.417679,32.9407442 C272.309648,33.795629 273.198003,34.6814325 274.057712,35.5737036 L273.613377,36.0020516 Z M143.584755,33.524944 L143.1567,33.0800121 C144.04748,32.2228551 144.968519,31.3715862 145.893955,30.5495499 L146.303901,31.0110527 C145.384495,31.8276619 144.46963,32.6735137 143.584735,33.524944 L143.584755,33.524944 Z M268.26517,30.8775214 C267.342748,30.0619693 266.392307,29.2549989 265.440642,28.4792437 L265.830711,28.0007058 C266.78867,28.7817497 267.745479,29.5939857 268.673931,30.4151164 L268.26517,30.8775214 Z M149.120911,28.6085631 L148.729637,28.1310659 C149.687473,27.3465576 150.673189,26.5719978 151.659224,25.8286465 L152.030901,26.3215093 C151.051337,27.0598913 150.072257,27.8294753 149.120891,28.6085631 L149.120911,28.6085631 Z M262.521165,26.1956608 C261.536355,25.4565181 260.523807,24.7280812 259.512464,24.0305434 L259.862737,23.5223085 C260.881014,24.2245225 261.900194,24.9577838 262.891936,25.701899 L262.521165,26.1956608 Z M155.029946,24.1527761 L154.678166,23.6454501 C155.695838,22.9402228 156.73988,22.2473546 157.781371,21.5859846 L158.112349,22.1071811 C157.077813,22.7640099 156.04067,23.4522086 155.029946,24.1527761 L155.029946,24.1527761 Z M256.418157,21.9875104 C255.377269,21.3300626 254.309266,20.6851251 253.243357,20.0706323 L253.552044,19.5358716 C254.624602,20.1544347 255.699827,20.803742 256.74795,21.4655631 L256.418157,21.9875104 Z M161.273602,20.1877442 L160.96387,19.6535895 C162.031288,19.0345719 163.127025,18.4280681 164.220352,17.8512613 L164.508537,18.3971756 C163.422286,18.9701987 162.333925,19.5726323 161.273602,20.1877442 L161.273602,20.1877442 Z M249.993487,18.2827739 C248.903177,17.711539 247.786011,17.1546224 246.672787,16.627551 L246.936853,16.0695807 C248.057615,16.6001196 249.182598,17.1608002 250.279864,17.7359572 L249.993487,18.2827739 Z M167.811741,16.7393743 L167.546025,16.1820033 C168.659249,15.6513128 169.799483,15.1355434 170.935146,14.6490165 L171.178106,15.2164841 C170.05011,15.6996718 168.917427,16.2119835 167.811741,16.7393743 L167.811741,16.7393743 Z M243.28667,15.1078123 C242.152037,14.625955 240.992684,14.161281 239.840569,13.7262942 L240.058805,13.14873 C241.218461,13.5865785 242.385955,14.0545686 243.527822,14.5395906 L243.28667,15.1078123 Z M174.6022,13.8313502 L174.382291,13.2544018 C175.537423,12.8139879 176.718484,12.391067 177.892591,11.9972305 L178.088819,12.5826356 C176.922715,12.9737223 175.749632,13.3939363 174.6022,13.8313304 L174.6022,13.8313502 Z M236.339895,12.4855554 C235.173306,12.0986509 233.982899,11.7304512 232.801558,11.3911614 L232.972182,10.7979254 C234.161384,11.1394577 235.359609,11.5100845 236.534035,11.899551 L236.339895,12.4855554 Z M181.623721,11.4760209 L181.451289,10.8833809 C182.638518,10.5379363 183.850031,10.2120724 185.052033,9.91469704 L185.200347,10.513966 C184.006324,10.8093557 182.802981,11.133112 181.623728,11.4760011 L181.623721,11.4760209 Z M229.221777,10.4413139 C228.029862,10.1505774 226.813386,9.88003074 225.606418,9.63721515 L225.7282,9.03191658 C226.943308,9.27638858 228.167924,9.54889133 229.36798,9.84144237 L229.221777,10.4413139 Z M188.812666,9.69809111 L188.688774,9.09339517 C189.899058,8.84560373 191.132881,8.61892426 192.355989,8.41951811 L192.45546,9.02873875 C191.240355,9.22692645 190.014836,9.45210757 188.81267,9.69809111 L188.812666,9.69809111 Z M221.961632,8.98005379 C220.747568,8.7865258 219.513303,8.61500549 218.29307,8.47061361 L218.365709,7.8574775 C219.594082,8.00292316 220.836649,8.17550055 222.058693,8.37054007 L221.961632,8.98005379 Z M196.121911,8.50693633 L196.047158,7.8940933 C197.275232,7.74458727 198.523228,7.61780351 199.756423,7.51774314 L199.806477,8.13299012 C198.58142,8.23262239 197.341732,8.35832602 196.121937,8.50693633 L196.121911,8.50693633 Z M214.607312,8.10888145 C213.383457,8.0134742 212.139385,7.9414281 210.909807,7.8948573 L210.933323,7.27780241 C212.171042,7.32482766 213.423224,7.39734138 214.655246,7.4933315 L214.607312,8.10888145 Z M203.503502,7.9067618 L203.478175,7.29001317 C204.712581,7.23906915 205.966759,7.2122371 207.205831,7.21013282 L207.206733,7.82748408 C205.975966,7.82959495 204.729945,7.85627223 203.503521,7.9067618 L203.503502,7.9067618 Z" id="形状" fill="#CCCCCC"></path>
                    <circle id="椭圆形" fill="#AEE0FF" cx="174.659766" cy="98.0303117" r="59.574843"></circle>
                    <ellipse id="椭圆形" fill="#FFFFFF" cx="153.515328" cy="98.0303117" rx="31.6394984" ry="43.5235884"></ellipse>
                    <ellipse id="椭圆形" fill="#4374BB" cx="143.027141" cy="107.250948" rx="8.83016575" ry="13.8905104"></ellipse>
                    <circle id="椭圆形" fill="#4274BB" cx="291.707032" cy="64.7600714" r="5.86488145"></circle>
                    <circle id="椭圆形" fill="#AEE0FF" cx="223.960093" cy="8.64298353" r="8.64298353"></circle>
                    <circle id="椭圆形" fill="#AEE0FF" cx="218.234167" cy="191.443772" r="5.86488145"></circle>
                </g>
            </g>
        </g>
    </g>
</svg>