<?xml version="1.0" encoding="UTF-8"?>
<svg width="1024px" height="1024px" viewBox="0 0 1024 1024" version="1.1" xmlns="http://www.w3.org/2000/svg" xmlns:xlink="http://www.w3.org/1999/xlink">
    <title>数据库集群@1x</title>
    <defs>
        <linearGradient x1="0%" y1="51.0612026%" x2="100%" y2="51.0575372%" id="linearGradient-1">
            <stop stop-color="#97C1FF" offset="0.0965465199%"></stop>
            <stop stop-color="#A9C5FF" offset="15.5293839%"></stop>
            <stop stop-color="#C9DBFF" offset="29.593359%"></stop>
            <stop stop-color="#A9C5FF" offset="88.3433012%"></stop>
            <stop stop-color="#97C1FF" offset="100%"></stop>
        </linearGradient>
        <linearGradient x1="0%" y1="50.5969265%" x2="100%" y2="50.5948647%" id="linearGradient-2">
            <stop stop-color="#97C1FF" offset="0.0965465199%"></stop>
            <stop stop-color="#A9C5FF" offset="15.5293839%"></stop>
            <stop stop-color="#C9DBFF" offset="29.593359%"></stop>
            <stop stop-color="#A9C5FF" offset="88.3433012%"></stop>
            <stop stop-color="#97C1FF" offset="100%"></stop>
        </linearGradient>
        <linearGradient x1="50%" y1="76.5106782%" x2="50%" y2="24.2725953%" id="linearGradient-3">
            <stop stop-color="#AFCBFC" offset="0%"></stop>
            <stop stop-color="#9FC5FB" offset="100%"></stop>
        </linearGradient>
        <linearGradient x1="54.8290115%" y1="59.2819003%" x2="54.8290115%" y2="110.725813%" id="linearGradient-4">
            <stop stop-color="#9FC5FB" offset="0%"></stop>
            <stop stop-color="#E2EFFF" offset="100%"></stop>
        </linearGradient>
    </defs>
    <g id="数据库集群" stroke="none" stroke-width="1" fill="none" fill-rule="evenodd">
        <g transform="translate(96.000000, 94.080000)" id="数据库">
            <g transform="translate(320.000000, 153.600000)">
                <g id="下" transform="translate(0.000000, 323.840000)">
                    <path d="M169.682016,351.851764 C306.708261,371.846619 453.855994,344.513426 498.345678,290.801367 C542.835362,237.089308 475.030759,178.317207 346.899859,159.530204 C218.768959,140.743202 71.6212255,168.076395 18.2361975,220.580601 C-35.1488305,273.084806 32.6557722,331.856908 169.682016,351.851764 Z" fill="url(#linearGradient-1)"></path>
                    <polygon id="路径" fill="url(#linearGradient-2)" points="0 102.4 0 256 512 256 512 102.4"></polygon>
                    <path d="M20.3397992,69.119493 C73.3212049,17.0122502 219.4395,-9.72640505 346.464642,8.8984674 C409.793792,18.1840099 458.286228,37.2421749 485.390541,60.7358227 C498.696737,72.2694515 506.795316,84.8366862 508.61157,97.8481239 C510.338815,110.221912 506.303164,122.891377 496.035305,135.287686 C451.905932,188.564744 305.773418,215.078436 170.115189,195.283201 C102.359948,185.396363 51.6370476,166.045092 24.5198264,142.540255 C11.3102784,131.0904 3.76414518,118.694864 3.05478978,105.911634 C2.3754049,93.6684999 8.02223617,81.2338234 20.3397992,69.119493 Z" id="上" stroke="url(#linearGradient-4)" stroke-width="6" fill="url(#linearGradient-3)"></path>
                </g>
                <g id="中" transform="translate(0.000000, 162.560000)">
                    <path d="M169.682016,351.851764 C306.708261,371.846619 453.855994,344.513426 498.345678,290.801367 C542.835362,237.089308 475.030759,178.317207 346.899859,159.530204 C218.768959,140.743202 71.6212255,168.076395 18.2361975,220.580601 C-35.1488305,273.084806 32.6557722,331.856908 169.682016,351.851764 Z" id="下" fill="url(#linearGradient-1)"></path>
                    <polygon id="路径" fill="url(#linearGradient-2)" points="0 102.4 0 256 512 256 512 102.4"></polygon>
                    <path d="M20.3397992,69.119493 C73.3212049,17.0122502 219.4395,-9.72640505 346.464642,8.8984674 C409.793792,18.1840099 458.286228,37.2421749 485.390541,60.7358227 C498.696737,72.2694515 506.795316,84.8366862 508.61157,97.8481239 C510.338815,110.221912 506.303164,122.891377 496.035305,135.287686 C451.905932,188.564744 305.773418,215.078436 170.115189,195.283201 C102.359948,185.396363 51.6370476,166.045092 24.5198264,142.540255 C11.3102784,131.0904 3.76414518,118.694864 3.05478978,105.911634 C2.3754049,93.6684999 8.02223617,81.2338234 20.3397992,69.119493 Z" id="上" stroke="url(#linearGradient-4)" stroke-width="6" fill="url(#linearGradient-3)"></path>
                </g>
                <g id="上">
                    <path d="M169.682016,351.851764 C306.708261,371.846619 453.855994,344.513426 498.345678,290.801367 C542.835362,237.089308 475.030759,178.317207 346.899859,159.530204 C218.768959,140.743202 71.6212255,168.076395 18.2361975,220.580601 C-35.1488305,273.084806 32.6557722,331.856908 169.682016,351.851764 Z" id="下" fill="url(#linearGradient-1)"></path>
                    <polygon id="路径" fill="url(#linearGradient-2)" points="0 102.4 0 256 512 256 512 102.4"></polygon>
                    <path d="M20.3397992,69.119493 C73.3212049,17.0122502 219.4395,-9.72640505 346.464642,8.8984674 C409.793792,18.1840099 458.286228,37.2421749 485.390541,60.7358227 C498.696737,72.2694515 506.795316,84.8366862 508.61157,97.8481239 C510.338815,110.221912 506.303164,122.891377 496.035305,135.287686 C451.905932,188.564744 305.773418,215.078436 170.115189,195.283201 C102.359948,185.396363 51.6370476,166.045092 24.5198264,142.540255 C11.3102784,131.0904 3.76414518,118.694864 3.05478978,105.911634 C2.3754049,93.6684999 8.02223617,81.2338234 20.3397992,69.119493 Z" stroke="url(#linearGradient-4)" stroke-width="6" fill="#9FC5FB"></path>
                </g>
            </g>
            <g>
                <g id="下" transform="translate(0.000000, 426.240000)">
                    <path d="M169.682016,403.051764 C306.708261,423.046619 453.855994,395.713426 498.345678,342.001367 C542.835362,288.289308 475.030759,229.517207 346.899859,210.730204 C218.768959,191.943202 71.6212255,219.276395 18.2361975,271.780601 C-35.1488305,324.284806 32.6557722,383.056908 169.682016,403.051764 Z" fill="url(#linearGradient-1)"></path>
                    <polygon id="路径" fill="url(#linearGradient-1)" points="0 102.4 0 307.2 512 307.2 512 102.4"></polygon>
                    <path d="M20.3397992,69.119493 C73.3212049,17.0122502 219.4395,-9.72640505 346.464642,8.8984674 C409.793792,18.1840099 458.286228,37.2421749 485.390541,60.7358227 C498.696737,72.2694515 506.795316,84.8366862 508.61157,97.8481239 C510.338815,110.221912 506.303164,122.891377 496.035305,135.287686 C451.905932,188.564744 305.773418,215.078436 170.115189,195.283201 C102.359948,185.396363 51.6370476,166.045092 24.5198264,142.540255 C11.3102784,131.0904 3.76414518,118.694864 3.05478978,105.911634 C2.3754049,93.6684999 8.02223617,81.2338234 20.3397992,69.119493 Z" id="上" stroke="url(#linearGradient-4)" stroke-width="6" fill="url(#linearGradient-3)"></path>
                </g>
                <g id="中" transform="translate(0.000000, 213.760000)">
                    <path d="M169.682016,403.051764 C306.708261,423.046619 453.855994,395.713426 498.345678,342.001367 C542.835362,288.289308 475.030759,229.517207 346.899859,210.730204 C218.768959,191.943202 71.6212255,219.276395 18.2361975,271.780601 C-35.1488305,324.284806 32.6557722,383.056908 169.682016,403.051764 Z" id="下" fill="url(#linearGradient-1)"></path>
                    <polygon id="路径" fill="url(#linearGradient-1)" points="0 102.4 0 307.2 512 307.2 512 102.4"></polygon>
                    <path d="M20.3397992,69.119493 C73.3212049,17.0122502 219.4395,-9.72640505 346.464642,8.8984674 C409.793792,18.1840099 458.286228,37.2421749 485.390541,60.7358227 C498.696737,72.2694515 506.795316,84.8366862 508.61157,97.8481239 C510.338815,110.221912 506.303164,122.891377 496.035305,135.287686 C451.905932,188.564744 305.773418,215.078436 170.115189,195.283201 C102.359948,185.396363 51.6370476,166.045092 24.5198264,142.540255 C11.3102784,131.0904 3.76414518,118.694864 3.05478978,105.911634 C2.3754049,93.6684999 8.02223617,81.2338234 20.3397992,69.119493 Z" id="上" stroke="url(#linearGradient-4)" stroke-width="6" fill="url(#linearGradient-3)"></path>
                </g>
                <g id="上">
                    <path d="M169.682016,403.051764 C306.708261,423.046619 453.855994,395.713426 498.345678,342.001367 C542.835362,288.289308 475.030759,229.517207 346.899859,210.730204 C218.768959,191.943202 71.6212255,219.276395 18.2361975,271.780601 C-35.1488305,324.284806 32.6557722,383.056908 169.682016,403.051764 Z" id="下" fill="url(#linearGradient-1)"></path>
                    <polygon id="路径" fill="url(#linearGradient-1)" points="0 102.4 0 307.2 512 307.2 512 102.4"></polygon>
                    <path d="M20.3397992,69.119493 C73.3212049,17.0122502 219.4395,-9.72640505 346.464642,8.8984674 C409.793792,18.1840099 458.286228,37.2421749 485.390541,60.7358227 C498.696737,72.2694515 506.795316,84.8366862 508.61157,97.8481239 C510.338815,110.221912 506.303164,122.891377 496.035305,135.287686 C451.905932,188.564744 305.773418,215.078436 170.115189,195.283201 C102.359948,185.396363 51.6370476,166.045092 24.5198264,142.540255 C11.3102784,131.0904 3.76414518,118.694864 3.05478978,105.911634 C2.3754049,93.6684999 8.02223617,81.2338234 20.3397992,69.119493 Z" stroke="url(#linearGradient-4)" stroke-width="6" fill="#9FC5FB"></path>
                </g>
            </g>
        </g>
    </g>
</svg>