<?xml version="1.0" encoding="UTF-8"?>
<svg width="1024px" height="1024px" viewBox="0 0 1024 1024" version="1.1" xmlns="http://www.w3.org/2000/svg" xmlns:xlink="http://www.w3.org/1999/xlink">
    <title>数据库@1x</title>
    <defs>
        <linearGradient x1="0%" y1="50.4951265%" x2="100%" y2="50.4934163%" id="linearGradient-1">
            <stop stop-color="#97C1FF" offset="0.0965465199%"></stop>
            <stop stop-color="#A9C5FF" offset="15.5293839%"></stop>
            <stop stop-color="#C9DBFF" offset="29.593359%"></stop>
            <stop stop-color="#A9C5FF" offset="88.3433012%"></stop>
            <stop stop-color="#97C1FF" offset="100%"></stop>
        </linearGradient>
        <linearGradient x1="54.8290115%" y1="59.2819003%" x2="54.8290115%" y2="110.725813%" id="linearGradient-2">
            <stop stop-color="#9FC5FB" offset="0%"></stop>
            <stop stop-color="#E2EFFF" offset="100%"></stop>
        </linearGradient>
    </defs>
    <g id="数据库" stroke="none" stroke-width="1" fill="none" fill-rule="evenodd">
        <g transform="translate(146.000000, 105.500000)">
            <g id="下" transform="translate(0.000000, 412.000000)">
                <path d="M242.592258,394.105238 C438.496966,413.631464 648.872242,386.938892 712.478586,334.48571 C776.084931,282.032528 679.145538,224.637897 495.958392,206.291215 C312.771246,187.944533 102.395971,214.637105 26.0720636,265.910743 C-50.2518436,317.184381 46.6875494,374.579012 242.592258,394.105238 Z" fill="url(#linearGradient-1)"></path>
                <polygon id="路径" fill="url(#linearGradient-1)" points="0 100.5 0 300.5 732 300.5 732 100.5"></polygon>
                <path d="M27.7449865,68.4009898 C103.75263,17.3398142 313.300067,-8.98749607 495.65943,9.27628152 C586.671236,18.3913572 656.296795,37.1243963 695.237645,60.1799943 C714.196983,71.4051957 725.868006,83.5461766 728.464229,96.2504441 C729.661657,102.109897 728.848868,108.044817 725.954039,113.985319 C722.985227,120.07764 717.875135,126.146922 710.569915,132.171196 C647.256875,184.382504 437.75307,210.542453 242.8898,191.12003 C145.534263,181.416402 72.7262195,162.393637 33.774833,139.331801 C15.0249574,128.230615 4.08781883,116.315034 3.07506971,103.848735 C2.60503664,98.0629266 4.35546066,92.2343648 8.3207438,86.4084795 C12.4380637,80.3592184 18.8898901,74.3497551 27.7449865,68.4009898 Z" id="上" stroke="url(#linearGradient-2)" stroke-width="6" fill="#9FC5FB"></path>
            </g>
            <g id="中" transform="translate(0.000000, 206.000000)">
                <path d="M242.592258,394.105238 C438.496966,413.631464 648.872242,386.938892 712.478586,334.48571 C776.084931,282.032528 679.145538,224.637897 495.958392,206.291215 C312.771246,187.944533 102.395971,214.637105 26.0720636,265.910743 C-50.2518436,317.184381 46.6875494,374.579012 242.592258,394.105238 Z" id="下" fill="url(#linearGradient-1)"></path>
                <polygon id="路径" fill="url(#linearGradient-1)" points="0 100.5 0 300.5 732 300.5 732 100.5"></polygon>
                <path d="M27.7449865,68.4009898 C103.75263,17.3398142 313.300067,-8.98749607 495.65943,9.27628152 C586.671236,18.3913572 656.296795,37.1243963 695.237645,60.1799943 C714.196983,71.4051957 725.868006,83.5461766 728.464229,96.2504441 C729.661657,102.109897 728.848868,108.044817 725.954039,113.985319 C722.985227,120.07764 717.875135,126.146922 710.569915,132.171196 C647.256875,184.382504 437.75307,210.542453 242.8898,191.12003 C145.534263,181.416402 72.7262195,162.393637 33.774833,139.331801 C15.0249574,128.230615 4.08781883,116.315034 3.07506971,103.848735 C2.60503664,98.0629266 4.35546066,92.2343648 8.3207438,86.4084795 C12.4380637,80.3592184 18.8898901,74.3497551 27.7449865,68.4009898 Z" id="上" stroke="url(#linearGradient-2)" stroke-width="6" fill="#9FC5FB"></path>
            </g>
            <g id="上">
                <path d="M242.592258,394.105238 C438.496966,413.631464 648.872242,386.938892 712.478586,334.48571 C776.084931,282.032528 679.145538,224.637897 495.958392,206.291215 C312.771246,187.944533 102.395971,214.637105 26.0720636,265.910743 C-50.2518436,317.184381 46.6875494,374.579012 242.592258,394.105238 Z" id="下" fill="url(#linearGradient-1)"></path>
                <polygon id="路径" fill="url(#linearGradient-1)" points="0 100.5 0 300.5 732 300.5 732 100.5"></polygon>
                <path d="M27.7449865,68.4009898 C103.75263,17.3398142 313.300067,-8.98749607 495.65943,9.27628152 C586.671236,18.3913572 656.296795,37.1243963 695.237645,60.1799943 C714.196983,71.4051957 725.868006,83.5461766 728.464229,96.2504441 C729.661657,102.109897 728.848868,108.044817 725.954039,113.985319 C722.985227,120.07764 717.875135,126.146922 710.569915,132.171196 C647.256875,184.382504 437.75307,210.542453 242.8898,191.12003 C145.534263,181.416402 72.7262195,162.393637 33.774833,139.331801 C15.0249574,128.230615 4.08781883,116.315034 3.07506971,103.848735 C2.60503664,98.0629266 4.35546066,92.2343648 8.3207438,86.4084795 C12.4380637,80.3592184 18.8898901,74.3497551 27.7449865,68.4009898 Z" stroke="url(#linearGradient-2)" stroke-width="6" fill="#9FC5FB"></path>
            </g>
        </g>
    </g>
</svg>