<?xml version="1.0" encoding="UTF-8"?>
<svg width="1024px" height="1024px" viewBox="0 0 1024 1024" version="1.1" xmlns="http://www.w3.org/2000/svg" xmlns:xlink="http://www.w3.org/1999/xlink">
    <title>库@1x</title>
    <defs>
        <linearGradient x1="0%" y1="51.0612026%" x2="100%" y2="51.0575372%" id="linearGradient-1">
            <stop stop-color="#97C1FF" offset="0.0965465199%"></stop>
            <stop stop-color="#A9C5FF" offset="15.5293839%"></stop>
            <stop stop-color="#C9DBFF" offset="29.593359%"></stop>
            <stop stop-color="#A9C5FF" offset="88.3433012%"></stop>
            <stop stop-color="#97C1FF" offset="100%"></stop>
        </linearGradient>
        <linearGradient x1="50%" y1="76.5106782%" x2="50%" y2="24.2725953%" id="linearGradient-2">
            <stop stop-color="#AFCBFC" offset="0%"></stop>
            <stop stop-color="#9FC5FB" offset="100%"></stop>
        </linearGradient>
        <linearGradient x1="54.8290115%" y1="59.2819003%" x2="54.8290115%" y2="110.725813%" id="linearGradient-3">
            <stop stop-color="#9FC5FB" offset="0%"></stop>
            <stop stop-color="#E2EFFF" offset="100%"></stop>
        </linearGradient>
        <linearGradient x1="50%" y1="45.9106782%" x2="50%" y2="98.9065501%" id="linearGradient-4">
            <stop stop-color="#9FC5FB" offset="0%"></stop>
            <stop stop-color="#E2EFFF" offset="100%"></stop>
        </linearGradient>
    </defs>
    <g id="库" stroke="none" stroke-width="1" fill="none" fill-rule="evenodd">
        <g id="数据库" transform="translate(257.512821, 115.000000)">
            <g id="中" transform="translate(0.000000, 271.995897)">
                <path d="M215.909489,512.857533 C390.266601,538.299705 577.502659,503.519968 634.11293,435.174816 C690.723201,366.829665 604.44619,292.045933 441.407833,268.140677 C278.369477,244.23542 91.1334184,279.015157 23.2043924,345.823393 C-44.7246337,412.631629 41.5523768,487.41536 215.909489,512.857533 Z" id="下" fill="url(#linearGradient-1)"></path>
                <polygon id="路径" fill="url(#linearGradient-1)" points="0 130.297436 0 390.892308 651.487179 390.892308 651.487179 130.297436"></polygon>
                <path d="M26.0091946,88.0803772 C93.4000575,21.801425 279.263532,-12.185594 440.827544,11.503489 C521.364989,23.3121721 583.038577,47.5422712 617.508688,77.4204914 C634.399957,92.0616121 644.68883,108.011863 646.994682,124.530722 C649.18617,140.230294 644.05844,156.302169 631.032432,172.028369 C574.902576,239.79352 389.020143,273.480589 216.487052,248.304578 C130.319004,235.730945 65.8068889,211.128426 31.3195675,181.235287 C14.5571631,166.705865 4.9697305,150.979772 4.06943586,134.755643 C3.20740634,119.221086 10.3831032,103.448647 26.0091946,88.0803772 Z" id="上" stroke="url(#linearGradient-3)" stroke-width="8" fill="url(#linearGradient-2)"></path>
            </g>
            <g id="上">
                <path d="M215.909489,512.857533 C390.266601,538.299705 577.502659,503.519968 634.11293,435.174816 C690.723201,366.829665 604.44619,292.045933 441.407833,268.140677 C278.369477,244.23542 91.1334184,279.015157 23.2043924,345.823393 C-44.7246337,412.631629 41.5523768,487.41536 215.909489,512.857533 Z" id="下" fill="url(#linearGradient-1)"></path>
                <polygon id="路径" fill="url(#linearGradient-1)" points="0 130.297436 0 390.892308 651.487179 390.892308 651.487179 130.297436"></polygon>
                <path d="M26.0091946,88.0803772 C93.4000575,21.801425 279.263532,-12.185594 440.827544,11.503489 C521.364989,23.3121721 583.038577,47.5422712 617.508688,77.4204914 C634.399957,92.0616121 644.68883,108.011863 646.994682,124.530722 C649.18617,140.230294 644.05844,156.302169 631.032432,172.028369 C574.902576,239.79352 389.020143,273.480589 216.487052,248.304578 C130.319004,235.730945 65.8068889,211.128426 31.3195675,181.235287 C14.5571631,166.705865 4.9697305,150.979772 4.06943586,134.755643 C3.20740634,119.221086 10.3831032,103.448647 26.0091946,88.0803772 Z" stroke="url(#linearGradient-3)" stroke-width="8" fill="#9FC5FB"></path>
            </g>
        </g>
        <g transform="translate(113.000000, 515.826923)">
            <polygon id="右" fill="#85B7FF" points="200 220.192308 200 415.384615 399.038462 306.730769 399.038462 111.538462"></polygon>
            <polygon id="前" fill="#8FB8FF" points="0 306.730769 200 415.384615 200 220.192308 0 111.536652"></polygon>
            <path d="M200,2.28999625 L395.866509,111.523241 L200,218.873155 L4.13349144,111.523241 L200,2.28999625 Z" id="上" stroke="url(#linearGradient-4)" stroke-width="4" fill="#96C1FF"></path>
        </g>
    </g>
</svg>