<?xml version="1.0" encoding="UTF-8"?>
<svg width="1024px" height="1024px" viewBox="0 0 1024 1024" version="1.1" xmlns="http://www.w3.org/2000/svg" xmlns:xlink="http://www.w3.org/1999/xlink">
    <title>event@1x</title>
    <defs>
        <linearGradient x1="0%" y1="51.0612026%" x2="100%" y2="51.0575372%" id="linearGradient-1">
            <stop stop-color="#97C1FF" offset="0.0965465199%"></stop>
            <stop stop-color="#A9C5FF" offset="15.5293839%"></stop>
            <stop stop-color="#C9DBFF" offset="29.593359%"></stop>
            <stop stop-color="#A9C5FF" offset="88.3433012%"></stop>
            <stop stop-color="#97C1FF" offset="100%"></stop>
        </linearGradient>
        <linearGradient x1="50%" y1="76.5106782%" x2="50%" y2="24.2725953%" id="linearGradient-2">
            <stop stop-color="#AFCBFC" offset="0%"></stop>
            <stop stop-color="#9FC5FB" offset="100%"></stop>
        </linearGradient>
        <linearGradient x1="54.8290115%" y1="59.2819003%" x2="54.8290115%" y2="110.725813%" id="linearGradient-3">
            <stop stop-color="#9FC5FB" offset="0%"></stop>
            <stop stop-color="#E2EFFF" offset="100%"></stop>
        </linearGradient>
    </defs>
    <g id="event" stroke="none" stroke-width="1" fill="none" fill-rule="evenodd">
        <g id="数据库" transform="translate(257.512821, 115.000000)">
            <g id="中" transform="translate(0.000000, 271.995897)">
                <path d="M215.909489,512.857533 C390.266601,538.299705 577.502659,503.519968 634.11293,435.174816 C690.723201,366.829665 604.44619,292.045933 441.407833,268.140677 C278.369477,244.23542 91.1334184,279.015157 23.2043924,345.823393 C-44.7246337,412.631629 41.5523768,487.41536 215.909489,512.857533 Z" id="下" fill="url(#linearGradient-1)"></path>
                <polygon id="路径" fill="url(#linearGradient-1)" points="0 130.297436 0 390.892308 651.487179 390.892308 651.487179 130.297436"></polygon>
                <path d="M26.0091946,88.0803772 C93.4000575,21.801425 279.263532,-12.185594 440.827544,11.503489 C521.364989,23.3121721 583.038577,47.5422712 617.508688,77.4204914 C634.399957,92.0616121 644.68883,108.011863 646.994682,124.530722 C649.18617,140.230294 644.05844,156.302169 631.032432,172.028369 C574.902576,239.79352 389.020143,273.480589 216.487052,248.304578 C130.319004,235.730945 65.8068889,211.128426 31.3195675,181.235287 C14.5571631,166.705865 4.9697305,150.979772 4.06943586,134.755643 C3.20740634,119.221086 10.3831032,103.448647 26.0091946,88.0803772 Z" id="上" stroke="url(#linearGradient-3)" stroke-width="8" fill="url(#linearGradient-2)"></path>
            </g>
            <g id="上">
                <path d="M215.909489,512.857533 C390.266601,538.299705 577.502659,503.519968 634.11293,435.174816 C690.723201,366.829665 604.44619,292.045933 441.407833,268.140677 C278.369477,244.23542 91.1334184,279.015157 23.2043924,345.823393 C-44.7246337,412.631629 41.5523768,487.41536 215.909489,512.857533 Z" id="下" fill="url(#linearGradient-1)"></path>
                <polygon id="路径" fill="url(#linearGradient-1)" points="0 130.297436 0 390.892308 651.487179 390.892308 651.487179 130.297436"></polygon>
                <path d="M26.0091946,88.0803772 C93.4000575,21.801425 279.263532,-12.185594 440.827544,11.503489 C521.364989,23.3121721 583.038577,47.5422712 617.508688,77.4204914 C634.399957,92.0616121 644.68883,108.011863 646.994682,124.530722 C649.18617,140.230294 644.05844,156.302169 631.032432,172.028369 C574.902576,239.79352 389.020143,273.480589 216.487052,248.304578 C130.319004,235.730945 65.8068889,211.128426 31.3195675,181.235287 C14.5571631,166.705865 4.9697305,150.979772 4.06943586,134.755643 C3.20740634,119.221086 10.3831032,103.448647 26.0091946,88.0803772 Z" stroke="url(#linearGradient-3)" stroke-width="8" fill="#9FC5FB"></path>
            </g>
        </g>
        <g id="表" transform="translate(115.000000, 473.826923)">
            <g id="表头" transform="translate(0.208416, 0.000000)">
                <polygon id="前" fill="#196DEB" points="9.24813522e-13 69.611019 260.103448 219.670701 260.311865 173.402299 9.24813522e-13 22.9257847"></polygon>
                <polygon id="右" fill="#0043A6" points="260.103448 219.670701 299.494115 196.328084 299.494115 150.059682 260.103448 173.402299"></polygon>
                <polygon id="上" fill="#0559D6" points="260.311865 173.402299 299.910947 150.059682 39.3906664 0 7.58213808e-13 22.9257847"></polygon>
            </g>
            <polygon id="右" fill="#9BBFF3" points="260.311865 434.756244 299.702531 411.413627 299.702531 195.911251 260.311865 219.253868"></polygon>
            <polygon id="前" fill="#AFCBFC" points="0.208416225 285.113395 260.311865 435.173077 260.520281 219.670701 0.208416225 69.1941866"></polygon>
            <polygon id="路径" fill="#8BACE5" points="136.660286 300.507405 175.4196 324.817497 175.209793 355.752902 136.660286 331.830454"></polygon>
            <polygon id="路径" fill="#8BACE5" points="85.3090965 268.387957 124.068411 292.698048 123.858603 323.633453 85.3090965 299.711005"></polygon>
            <polygon id="路径" fill="#8BACE5" points="188.011476 273.25191 226.77079 297.562001 226.560983 328.497406 188.011476 304.574958"></polygon>
            <polygon id="路径" fill="#8BACE5" points="33.9579066 235.756655 72.7172206 260.066747 72.5074134 291.002152 33.9579066 267.079703"></polygon>
            <polygon id="路径" fill="#8BACE5" points="136.660286 241.132461 175.4196 265.442552 175.209793 296.377958 136.660286 272.455509"></polygon>
            <polygon id="路径" fill="#196DEB" points="188.011476 212.853259 226.77079 237.163351 226.560983 268.098756 188.011476 244.176307"></polygon>
            <polygon id="路径" fill="#8BACE5" points="33.9579066 176.38171 72.7172206 200.691802 72.5074134 231.627207 33.9579066 207.704759"></polygon>
            <polygon id="路径" fill="#8BACE5" points="136.660286 180.73381 175.4196 205.043902 175.209793 235.979307 136.660286 212.056859"></polygon>
            <polygon id="路径" fill="#8BACE5" points="85.3090965 148.614361 124.068411 172.924453 123.858603 203.859858 85.3090965 179.93741"></polygon>
            <polygon id="路径" fill="#196DEB" points="85.3090965 208.501159 124.068411 232.811251 123.858603 263.746656 85.3090965 239.824207"></polygon>
        </g>
    </g>
</svg>