<?xml version="1.0" encoding="UTF-8"?>
<svg width="1024px" height="1024px" viewBox="0 0 1024 1024" version="1.1" xmlns="http://www.w3.org/2000/svg" xmlns:xlink="http://www.w3.org/1999/xlink">
    <title>网络插口@1x</title>
    <defs>
        <linearGradient x1="50%" y1="45.9106782%" x2="50%" y2="98.9065501%" id="linearGradient-1">
            <stop stop-color="#9FC5FB" offset="0%"></stop>
            <stop stop-color="#E2EFFF" offset="100%"></stop>
        </linearGradient>
    </defs>
    <g id="网络插口" stroke="none" stroke-width="1" fill="none" fill-rule="evenodd">
        <g id="网络接口" transform="translate(96.000000, 80.000000)">
            <polygon id="右" fill="#9BBFF3" points="416 458 416 864 830 638 830 232"></polygon>
            <polygon id="前" fill="#AFCBFC" points="0 638 416 864 416 458 0 231.996236"></polygon>
            <path d="M416,2.28999625 L827.866509,231.98478 L416,457.719309 L4.13349144,231.98478 L416,2.28999625 Z" id="上" stroke="url(#linearGradient-1)" stroke-width="4" fill="#9FC5FB"></path>
            <path d="M44.2764867,343.115522 L371.905572,510.586943 C371.972455,510.621131 372.014543,510.689912 372.014543,510.765026 L372.014543,707.03401 C372.014543,707.144467 371.925,707.23401 371.814543,707.23401 C371.782893,707.23401 371.751695,707.226498 371.723513,707.212093 L282.552065,661.631069 L282.552065,661.631069 L282.552065,701.43996 L252.731239,686.196698 L252.731239,721.029477 L163.268761,675.29969 L163.268761,640.466911 L133.447935,625.223648 L133.447935,585.414757 L43.9854574,539.68497 L43.9854574,343.293605 C43.9854574,343.183148 44.0750004,343.093605 44.1854574,343.093605 C44.2171072,343.093605 44.2483052,343.101116 44.2764867,343.115522 Z" id="接口" fill="#003A8F"></path>
            <path d="M54.2764867,353.115522 L381.905572,520.586943 C381.972455,520.621131 382.014543,520.689912 382.014543,520.765026 L382.014543,717.03401 C382.014543,717.144467 381.925,717.23401 381.814543,717.23401 C381.782893,717.23401 381.751695,717.226498 381.723513,717.212093 L292.552065,671.631069 L292.552065,671.631069 L292.552065,711.43996 L262.731239,696.196698 L262.731239,731.029477 L173.268761,685.29969 L173.268761,650.466911 L143.447935,635.223648 L143.447935,595.414757 L53.9854574,549.68497 L53.9854574,353.293605 C53.9854574,353.183148 54.0750004,353.093605 54.1854574,353.093605 C54.2171072,353.093605 54.2483052,353.101116 54.2764867,353.115522 Z" id="接口" fill="#0559D6"></path>
            <path d="M303.686172,510.150192 C303.719904,510.150192 303.753087,510.158724 303.782636,510.174993 L328.55656,523.815413 C328.620425,523.850577 328.660096,523.917706 328.660096,523.990612 L328.660096,586.544442 C328.660096,586.654899 328.570553,586.744442 328.460096,586.744442 C328.426365,586.744442 328.393181,586.73591 328.363633,586.719641 L303.589708,573.079221 C303.525844,573.044057 303.486172,572.976927 303.486172,572.904022 L303.486172,510.350192 C303.486172,510.239735 303.575715,510.150192 303.686172,510.150192 Z M249.914599,479.903533 C249.948331,479.903533 249.981515,479.912065 250.011063,479.928334 L274.784987,493.568754 C274.848852,493.603918 274.888524,493.671047 274.888524,493.743953 L274.888524,556.297783 C274.888524,556.40824 274.79898,556.497783 274.688524,556.497783 C274.654792,556.497783 274.621608,556.489251 274.59206,556.472982 L249.818135,542.832562 C249.754271,542.797398 249.714599,542.730268 249.714599,542.657363 L249.714599,480.103533 C249.714599,479.993076 249.804142,479.903533 249.914599,479.903533 Z M196.143026,454.700993 C196.176758,454.700993 196.209942,454.709525 196.23949,454.725794 L221.013414,468.366214 C221.077279,468.401378 221.116951,468.468508 221.116951,468.541413 L221.116951,531.095243 C221.116951,531.2057 221.027408,531.295243 220.916951,531.295243 C220.883219,531.295243 220.850035,531.286711 220.820487,531.270442 L196.046563,517.630022 C195.982698,517.594858 195.943026,517.527729 195.943026,517.454823 L195.943026,454.900993 C195.943026,454.790536 196.032569,454.700993 196.143026,454.700993 Z M142.371453,426.976394 C142.405185,426.976394 142.438369,426.984925 142.467917,427.001195 L167.241842,440.641615 C167.305706,440.676778 167.345378,440.743908 167.345378,440.816814 L167.345378,503.370643 C167.345378,503.4811 167.255835,503.570643 167.145378,503.570643 C167.111646,503.570643 167.078462,503.562112 167.048914,503.545843 L142.27499,489.905423 C142.211125,489.870259 142.171453,489.803129 142.171453,489.730224 L142.171453,427.176394 C142.171453,427.065937 142.260997,426.976394 142.371453,426.976394 Z M88.5998806,399.251795 C88.6336121,399.251795 88.6667957,399.260326 88.6963444,399.276595 L113.470269,412.917015 C113.534133,412.952179 113.573805,413.019309 113.573805,413.092214 L113.573805,475.646044 C113.573805,475.756501 113.484262,475.846044 113.373805,475.846044 C113.340073,475.846044 113.30689,475.837513 113.277341,475.821243 L88.5034167,462.180823 C88.4395518,462.14566 88.3998806,462.07853 88.3998806,462.005624 L88.3998806,399.451795 C88.3998806,399.341338 88.4894236,399.251795 88.5998806,399.251795 Z" id="磁片" fill="#BDD9FC"></path>
        </g>
    </g>
</svg>