<?xml version="1.0" encoding="UTF-8"?>
<svg width="1024px" height="1024px" viewBox="0 0 1024 1024" version="1.1" xmlns="http://www.w3.org/2000/svg" xmlns:xlink="http://www.w3.org/1999/xlink">
    <title>负载均衡@1x</title>
    <defs>
        <polygon id="path-1" points="0.499442586 476 449.99777 216 895.500557 476 449.99777 732"></polygon>
        <filter x="-0.4%" y="-0.5%" width="100.8%" height="101.4%" filterUnits="objectBoundingBox" id="filter-2">
            <feOffset dx="0" dy="1" in="SourceAlpha" result="shadowOffsetOuter1"></feOffset>
            <feGaussianBlur stdDeviation="1" in="shadowOffsetOuter1" result="shadowBlurOuter1"></feGaussianBlur>
            <feColorMatrix values="0 0 0 0 0   0 0 0 0 0   0 0 0 0 0  0 0 0 0.08 0" type="matrix" in="shadowBlurOuter1"></feColorMatrix>
        </filter>
        <linearGradient x1="91.6280964%" y1="2.66901401%" x2="12.2125652%" y2="89.8067654%" id="linearGradient-3">
            <stop stop-color="#A8CAF8" offset="0%"></stop>
            <stop stop-color="#91B7F0" offset="100%"></stop>
        </linearGradient>
        <linearGradient x1="50%" y1="45.9106782%" x2="50%" y2="98.9065501%" id="linearGradient-4">
            <stop stop-color="#9FC5FB" offset="0%"></stop>
            <stop stop-color="#E2EFFF" offset="100%"></stop>
        </linearGradient>
    </defs>
    <g id="负载均衡" stroke="none" stroke-width="1" fill="none" fill-rule="evenodd">
        <g transform="translate(64.000000, 146.000000)">
            <g id="下">
                <use fill="black" fill-opacity="1" filter="url(#filter-2)" xlink:href="#path-1"></use>
                <use fill="#BFDCFD" fill-rule="evenodd" xlink:href="#path-1"></use>
            </g>
            <polygon id="左" fill="url(#linearGradient-3)" points="0.499442586 258 0.499442586 476 448 218 448 0"></polygon>
            <polygon id="后" fill="#AFCBFC" points="448 218 895.500557 476 895.500557 258 448 0"></polygon>
            <polygon id="右" fill="#9BBFF3" points="448 516 448 732 895.500557 476 895.500557 258"></polygon>
            <polygon id="前" fill="#AFCBFC" points="0.499442586 476 448 732 448 516 0.499442586 258"></polygon>
            <path d="M448,2.30858683 L891.496318,258 L448,513.691413 L4.50368249,258 L448,2.30858683 Z" id="上" stroke="url(#linearGradient-4)" stroke-width="4" fill="#9FC5FB"></path>
            <path d="M453.246252,327.175016 L343.362106,263.675374 C341.501765,265.039624 339.517401,266.403874 337.284991,267.768124 C335.052582,269.008351 332.820173,270.124556 330.463741,271.240761 L440.347887,334.740403 C442.084205,333.376153 444.068569,332.011903 446.300979,330.771675 C448.533388,329.407425 450.765797,328.29122 453.246252,327.175016 M557.30133,236.018303 C551.224215,235.646235 545.271124,234.654053 539.566078,233.289803 L500.002824,319.981697 C506.079939,320.353765 512.03303,321.345947 517.738076,322.710197 L557.30133,236.018303 M453.246252,327.175016 C466.888753,321.221924 483.755846,318.865492 500.002824,319.981697 C506.079939,320.353765 512.03303,321.345947 517.738076,322.710197 C525.17944,324.570538 532.124714,327.299039 538.201828,330.771675 C563.626489,345.406358 563.874535,369.218724 538.573896,383.97743 C513.149235,398.736136 472.097708,398.612113 446.673047,383.97743 C423.356772,370.458952 421.248385,349.375086 440.347887,334.61638 C442.208228,333.25213 444.068569,331.88788 446.300979,330.647652 C448.533388,329.407425 450.765797,328.29122 453.246252,327.175016 Z M245.012074,214.562369 C270.436735,199.803663 311.364239,199.803663 336.912923,214.562369 C342.990037,218.035006 347.702901,222.127756 350.80347,226.344529 C353.283925,229.569121 354.89622,233.041757 355.640357,236.514394 C357.624721,245.940122 353.53197,255.737918 343.238083,263.675374 C341.377742,265.163647 339.393378,266.527897 337.160969,267.768124 C335.052582,269.008351 332.69615,270.248579 330.339718,271.240761 C304.915057,282.402807 268.576394,281.286603 245.260119,267.768124 C219.835458,253.009418 219.587413,229.321075 245.012074,214.562369 Z M518.730258,172.02257 C544.154919,157.263864 585.206446,157.387887 610.631107,172.02257 C636.179791,186.657253 636.427837,210.593642 611.003175,225.47637 C596.368492,233.909916 576.400831,237.506576 557.177307,236.142326 C551.100193,235.770258 545.147101,234.778076 539.442055,233.413826 C532.000691,231.553484 525.055418,228.824984 518.978303,225.352348 C512.901189,221.755688 508.312348,217.78696 505.087757,213.446165 C505.069756,213.420585 505.051799,213.394998 505.033885,213.369404 L355.764379,236.514394 C355.020243,233.041757 353.407947,229.569121 350.927493,226.344529 L350.927493,226.344529 L500.378147,203.171 L500.374893,203.152277 C498.044355,192.235551 503.96303,180.712264 518.250896,172.301762 Z" fill="#0559D6" fill-rule="nonzero"></path>
        </g>
    </g>
</svg>