<?xml version="1.0" encoding="UTF-8"?>
<svg width="1024px" height="1024px" viewBox="0 0 1024 1024" version="1.1" xmlns="http://www.w3.org/2000/svg" xmlns:xlink="http://www.w3.org/1999/xlink">
    <title>网络适配器@1x</title>
    <defs>
        <linearGradient x1="50%" y1="45.9106782%" x2="50%" y2="98.9065501%" id="linearGradient-1">
            <stop stop-color="#9FC5FB" offset="0%"></stop>
            <stop stop-color="#E2EFFF" offset="100%"></stop>
        </linearGradient>
    </defs>
    <g id="网络适配器" stroke="none" stroke-width="1" fill="none" fill-rule="evenodd">
        <g transform="translate(62.000000, 209.500000)">
            <g id="适配器">
                <polygon id="右" fill="#9BBFF3" points="595.3125 517.96875 595.3125 604.6875 900 431.25 900 342.1875"></polygon>
                <polygon id="前" fill="#AFCBFC" points="0 262.5 595.3125 604.6875 595.3125 517.96875 0 173.4375"></polygon>
                <path d="M300.006775,2.30625942 L895.980451,342.197497 L595.314073,515.658868 L3.9943881,173.438421 L300.006775,2.30625942 Z" id="上" stroke="url(#linearGradient-1)" stroke-width="4" fill="#9FC5FB"></path>
            </g>
            <g id="接口" transform="translate(36.985457, 212.553283)" fill="#0559D6">
                <path d="M0.2,0.000478430812 C0.231649836,0.00265048431 0.262847812,0.0123029189 0.291029347,0.0286422704 L62.3833617,36.029111 C62.4502447,36.0678891 62.4923323,36.1395583 62.4923323,36.2146727 L62.4923323,73.2419381 C62.4923323,73.3523951 62.4027893,73.435793 62.2923323,73.4282126 C62.2606825,73.4260405 62.2294845,73.4163881 62.201303,73.4000487 L45.448969,63.687225 L45.448969,71.2711576 L39.7678478,67.9773044 L39.7678478,74.6132454 L22.7244845,64.731686 L22.7244845,58.095745 L17.0433634,54.8018919 L17.0433634,47.2179594 L-7.10542736e-15,37.3364 L-7.10542736e-15,0.186752903 C-7.10542736e-15,0.076295953 0.08954305,-0.0071019689 0.2,0.000478430812 Z M49.5361273,35.7949769 C49.4256703,35.7882801 49.3361273,35.8723943 49.3361273,35.9828513 L49.3361273,35.9828513 L49.3361273,47.5302554 C49.3361273,47.6031609 49.3757985,47.672696 49.4396634,47.7117317 L49.4396634,47.7117317 L53.8355102,50.3985797 C53.8650589,50.4166406 53.8982425,50.427184 53.9319741,50.4292291 C54.042431,50.4359259 54.1319741,50.3518117 54.1319741,50.2413548 L54.1319741,50.2413548 L54.1319741,38.6939506 C54.1319741,38.6210452 54.0923028,38.5515101 54.0284379,38.5124743 L54.0284379,38.5124743 L49.6325912,35.8256263 C49.6030425,35.8075654 49.5698588,35.797022 49.5361273,35.7949769 Z M39.292185,29.4116575 C39.1817281,29.4049606 39.092185,29.4890748 39.092185,29.5995318 L39.092185,29.5995318 L39.092185,41.146936 C39.092185,41.2198414 39.1318563,41.2893765 39.1957211,41.3284123 L39.1957211,41.3284123 L43.5915679,44.0152603 C43.6211166,44.0333212 43.6543002,44.0438646 43.6880318,44.0459096 C43.7984888,44.0526065 43.8880318,43.9684923 43.8880318,43.8580353 L43.8880318,43.8580353 L43.8880318,32.3106312 C43.8880318,32.2377257 43.8483606,32.1681906 43.7844957,32.1291549 L43.7844957,32.1291549 L39.3886489,29.4423068 C39.3591002,29.424246 39.3259166,29.4137026 39.292185,29.4116575 Z M29.0482428,23.9892857 C28.9377858,23.9825888 28.8482428,24.066703 28.8482428,24.17716 L28.8482428,24.17716 L28.8482428,35.7245641 C28.8482428,35.7974696 28.887914,35.8670047 28.9517789,35.9060404 L28.9517789,35.9060404 L33.3476257,38.5928885 C33.3771744,38.6109493 33.410358,38.6214927 33.4440896,38.6235378 C33.5545465,38.6302347 33.6440896,38.5461205 33.6440896,38.4356635 L33.6440896,38.4356635 L33.6440896,26.8882594 C33.6440896,26.8153539 33.6044183,26.7458188 33.5405534,26.706783 L33.5405534,26.706783 L29.1447067,24.019935 C29.115158,24.0018741 29.0819743,23.9913307 29.0482428,23.9892857 Z M18.8043005,18.08644 C18.6938436,18.0797432 18.6043005,18.1638574 18.6043005,18.2743143 L18.6043005,18.2743143 L18.6043005,29.8217185 C18.6043005,29.894624 18.6439718,29.9641591 18.7078366,30.0031948 L18.7078366,30.0031948 L23.1036834,32.6900428 C23.1332321,32.7081037 23.1664157,32.7186471 23.2001473,32.7206922 C23.3106043,32.727389 23.4001473,32.6432748 23.4001473,32.5328179 L23.4001473,32.5328179 L23.4001473,20.9854137 C23.4001473,20.9125082 23.3604761,20.8429732 23.2966112,20.8039374 L23.2966112,20.8039374 L18.9007644,18.1170894 C18.8712157,18.0990285 18.8380321,18.0884851 18.8043005,18.08644 Z M8.56035827,12.1835944 C8.44990132,12.1768975 8.36035827,12.2610117 8.36035827,12.3714687 L8.36035827,12.3714687 L8.36035827,23.9188729 C8.36035827,23.9917783 8.40002952,24.0613134 8.46389439,24.1003492 L8.46389439,24.1003492 L12.8597412,26.7871972 C12.8892899,26.8052581 12.9224735,26.8158015 12.9562051,26.8178465 C13.066662,26.8245434 13.1562051,26.7404292 13.1562051,26.6299722 L13.1562051,26.6299722 L13.1562051,15.0825681 C13.1562051,15.0096626 13.1165338,14.9401275 13.0526689,14.9010918 L13.0526689,14.9010918 L8.65682216,12.2142437 C8.62727346,12.1961829 8.59408985,12.1856395 8.56035827,12.1835944 Z" id="形状结合"></path>
                <path d="M110.692332,65.0004784 C110.723982,65.0026505 110.75518,65.0123029 110.783362,65.0286423 L172.875694,101.029111 C172.942577,101.067889 172.984665,101.139558 172.984665,101.214673 L172.984665,138.241938 C172.984665,138.352395 172.895122,138.435793 172.784665,138.428213 C172.753015,138.426041 172.721817,138.416388 172.693635,138.400049 L155.941301,128.687225 L155.941301,136.271158 L150.26018,132.977304 L150.26018,139.613245 L133.216817,129.731686 L133.216817,123.095745 L127.535696,119.801892 L127.535696,112.217959 L110.492332,102.3364 L110.492332,65.1867529 C110.492332,65.076296 110.581875,64.992898 110.692332,65.0004784 Z M160.02846,100.794977 C159.918003,100.78828 159.82846,100.872394 159.82846,100.982851 L159.82846,100.982851 L159.82846,112.530255 C159.82846,112.603161 159.868131,112.672696 159.931996,112.711732 L159.931996,112.711732 L164.327842,115.39858 C164.357391,115.416641 164.390575,115.427184 164.424306,115.429229 C164.534763,115.435926 164.624306,115.351812 164.624306,115.241355 L164.624306,115.241355 L164.624306,103.693951 C164.624306,103.621045 164.584635,103.55151 164.52077,103.512474 L164.52077,103.512474 L160.124923,100.825626 C160.095375,100.807565 160.062191,100.797022 160.02846,100.794977 Z M149.784517,94.4116575 C149.67406,94.4049606 149.584517,94.4890748 149.584517,94.5995318 L149.584517,94.5995318 L149.584517,106.146936 C149.584517,106.219841 149.624189,106.289377 149.688053,106.328412 L149.688053,106.328412 L154.0839,109.01526 C154.113449,109.033321 154.146633,109.043865 154.180364,109.04591 C154.290821,109.052606 154.380364,108.968492 154.380364,108.858035 L154.380364,108.858035 L154.380364,97.3106312 C154.380364,97.2377257 154.340693,97.1681906 154.276828,97.1291549 L154.276828,97.1291549 L149.880981,94.4423068 C149.851433,94.424246 149.818249,94.4137026 149.784517,94.4116575 Z M139.540575,88.9892857 C139.430118,88.9825888 139.340575,89.066703 139.340575,89.17716 L139.340575,89.17716 L139.340575,100.724564 C139.340575,100.79747 139.380246,100.867005 139.444111,100.90604 L139.444111,100.90604 L143.839958,103.592888 C143.869507,103.610949 143.90269,103.621493 143.936422,103.623538 C144.046879,103.630235 144.136422,103.54612 144.136422,103.435664 L144.136422,103.435664 L144.136422,91.8882594 C144.136422,91.8153539 144.096751,91.7458188 144.032886,91.706783 L144.032886,91.706783 L139.637039,89.019935 C139.60749,89.0018741 139.574307,88.9913307 139.540575,88.9892857 Z M129.296633,83.08644 C129.186176,83.0797432 129.096633,83.1638574 129.096633,83.2743143 L129.096633,83.2743143 L129.096633,94.8217185 C129.096633,94.894624 129.136304,94.9641591 129.200169,95.0031948 L129.200169,95.0031948 L133.596016,97.6900428 C133.625564,97.7081037 133.658748,97.7186471 133.69248,97.7206922 C133.802937,97.727389 133.89248,97.6432748 133.89248,97.5328179 L133.89248,97.5328179 L133.89248,85.9854137 C133.89248,85.9125082 133.852808,85.8429732 133.788944,85.8039374 L133.788944,85.8039374 L129.393097,83.1170894 C129.363548,83.0990285 129.330364,83.0884851 129.296633,83.08644 Z M119.052691,77.1835944 C118.942234,77.1768975 118.852691,77.2610117 118.852691,77.3714687 L118.852691,77.3714687 L118.852691,88.9188729 C118.852691,88.9917783 118.892362,89.0613134 118.956227,89.1003492 L118.956227,89.1003492 L123.352073,91.7871972 C123.381622,91.8052581 123.414806,91.8158015 123.448537,91.8178465 C123.558994,91.8245434 123.648537,91.7404292 123.648537,91.6299722 L123.648537,91.6299722 L123.648537,80.0825681 C123.648537,80.0096626 123.608866,79.9401275 123.545001,79.9010918 L123.545001,79.9010918 L119.149154,77.2142437 C119.119606,77.1961829 119.086422,77.1856395 119.052691,77.1835944 Z" id="形状结合"></path>
                <path d="M221.184665,129.000478 C221.216314,129.00265 221.247512,129.012303 221.275694,129.028642 L283.368026,165.029111 C283.434909,165.067889 283.476997,165.139558 283.476997,165.214673 L283.476997,202.241938 C283.476997,202.352395 283.387454,202.435793 283.276997,202.428213 C283.245347,202.426041 283.214149,202.416388 283.185968,202.400049 L266.433634,192.687225 L266.433634,200.271158 L260.752513,196.977304 L260.752513,203.613245 L243.709149,193.731686 L243.709149,187.095745 L238.028028,183.801892 L238.028028,176.217959 L220.984665,166.3364 L220.984665,129.186753 C220.984665,129.076296 221.074208,128.992898 221.184665,129.000478 Z M270.520792,164.794977 C270.410335,164.78828 270.320792,164.872394 270.320792,164.982851 L270.320792,164.982851 L270.320792,176.530255 C270.320792,176.603161 270.360463,176.672696 270.424328,176.711732 L270.424328,176.711732 L274.820175,179.39858 C274.849724,179.416641 274.882907,179.427184 274.916639,179.429229 C275.027096,179.435926 275.116639,179.351812 275.116639,179.241355 L275.116639,179.241355 L275.116639,167.693951 C275.116639,167.621045 275.076967,167.55151 275.013103,167.512474 L275.013103,167.512474 L270.617256,164.825626 C270.587707,164.807565 270.554524,164.797022 270.520792,164.794977 Z M260.27685,158.411657 C260.166393,158.404961 260.07685,158.489075 260.07685,158.599532 L260.07685,158.599532 L260.07685,170.146936 C260.07685,170.219841 260.116521,170.289377 260.180386,170.328412 L260.180386,170.328412 L264.576233,173.01526 C264.605781,173.033321 264.638965,173.043865 264.672696,173.04591 C264.783153,173.052606 264.872696,172.968492 264.872696,172.858035 L264.872696,172.858035 L264.872696,161.310631 C264.872696,161.237726 264.833025,161.168191 264.76916,161.129155 L264.76916,161.129155 L260.373314,158.442307 C260.343765,158.424246 260.310581,158.413703 260.27685,158.411657 Z M250.032907,152.989286 C249.92245,152.982589 249.832907,153.066703 249.832907,153.17716 L249.832907,153.17716 L249.832907,164.724564 C249.832907,164.79747 249.872579,164.867005 249.936444,164.90604 L249.936444,164.90604 L254.33229,167.592888 C254.361839,167.610949 254.395023,167.621493 254.428754,167.623538 C254.539211,167.630235 254.628754,167.54612 254.628754,167.435664 L254.628754,167.435664 L254.628754,155.888259 C254.628754,155.815354 254.589083,155.745819 254.525218,155.706783 L254.525218,155.706783 L250.129371,153.019935 C250.099823,153.001874 250.066639,152.991331 250.032907,152.989286 Z M239.788965,147.08644 C239.678508,147.079743 239.588965,147.163857 239.588965,147.274314 L239.588965,147.274314 L239.588965,158.821718 C239.588965,158.894624 239.628636,158.964159 239.692501,159.003195 L239.692501,159.003195 L244.088348,161.690043 C244.117897,161.708104 244.15108,161.718647 244.184812,161.720692 C244.295269,161.727389 244.384812,161.643275 244.384812,161.532818 L244.384812,161.532818 L244.384812,149.985414 C244.384812,149.912508 244.345141,149.842973 244.281276,149.803937 L244.281276,149.803937 L239.885429,147.117089 C239.85588,147.099028 239.822697,147.088485 239.788965,147.08644 Z M229.545023,141.183594 C229.434566,141.176898 229.345023,141.261012 229.345023,141.371469 L229.345023,141.371469 L229.345023,152.918873 C229.345023,152.991778 229.384694,153.061313 229.448559,153.100349 L229.448559,153.100349 L233.844406,155.787197 C233.873955,155.805258 233.907138,155.815801 233.94087,155.817847 C234.051327,155.824543 234.14087,155.740429 234.14087,155.629972 L234.14087,155.629972 L234.14087,144.082568 C234.14087,144.009663 234.101198,143.940128 234.037334,143.901092 L234.037334,143.901092 L229.641487,141.214244 C229.611938,141.196183 229.578755,141.185639 229.545023,141.183594 Z" id="形状结合"></path>
                <path d="M442.169329,257.000478 C442.200979,257.00265 442.232177,257.012303 442.260359,257.028642 L504.352691,293.029111 C504.419574,293.067889 504.461662,293.139558 504.461662,293.214673 L504.461662,330.241938 C504.461662,330.352395 504.372119,330.435793 504.261662,330.428213 C504.230012,330.426041 504.198814,330.416388 504.170632,330.400049 L487.418298,320.687225 L487.418298,328.271158 L481.737177,324.977304 L481.737177,331.613245 L464.693814,321.731686 L464.693814,315.095745 L459.012693,311.801892 L459.012693,304.217959 L441.969329,294.3364 L441.969329,257.186753 C441.969329,257.076296 442.058872,256.992898 442.169329,257.000478 Z M491.505457,292.794977 C491.395,292.78828 491.305457,292.872394 491.305457,292.982851 L491.305457,292.982851 L491.305457,304.530255 C491.305457,304.603161 491.345128,304.672696 491.408993,304.711732 L491.408993,304.711732 L495.804839,307.39858 C495.834388,307.416641 495.867572,307.427184 495.901303,307.429229 C496.01176,307.435926 496.101303,307.351812 496.101303,307.241355 L496.101303,307.241355 L496.101303,295.693951 C496.101303,295.621045 496.061632,295.55151 495.997767,295.512474 L495.997767,295.512474 L491.60192,292.825626 C491.572372,292.807565 491.539188,292.797022 491.505457,292.794977 Z M481.261514,286.411657 C481.151057,286.404961 481.061514,286.489075 481.061514,286.599532 L481.061514,286.599532 L481.061514,298.146936 C481.061514,298.219841 481.101186,298.289377 481.16505,298.328412 L481.16505,298.328412 L485.560897,301.01526 C485.590446,301.033321 485.62363,301.043865 485.657361,301.04591 C485.767818,301.052606 485.857361,300.968492 485.857361,300.858035 L485.857361,300.858035 L485.857361,289.310631 C485.857361,289.237726 485.81769,289.168191 485.753825,289.129155 L485.753825,289.129155 L481.357978,286.442307 C481.32843,286.424246 481.295246,286.413703 481.261514,286.411657 Z M471.017572,280.989286 C470.907115,280.982589 470.817572,281.066703 470.817572,281.17716 L470.817572,281.17716 L470.817572,292.724564 C470.817572,292.79747 470.857243,292.867005 470.921108,292.90604 L470.921108,292.90604 L475.316955,295.592888 C475.346504,295.610949 475.379687,295.621493 475.413419,295.623538 C475.523876,295.630235 475.613419,295.54612 475.613419,295.435664 L475.613419,295.435664 L475.613419,283.888259 C475.613419,283.815354 475.573748,283.745819 475.509883,283.706783 L475.509883,283.706783 L471.114036,281.019935 C471.084487,281.001874 471.051304,280.991331 471.017572,280.989286 Z M460.77363,275.08644 C460.663173,275.079743 460.57363,275.163857 460.57363,275.274314 L460.57363,275.274314 L460.57363,286.821718 C460.57363,286.894624 460.613301,286.964159 460.677166,287.003195 L460.677166,287.003195 L465.073013,289.690043 C465.102561,289.708104 465.135745,289.718647 465.169477,289.720692 C465.279934,289.727389 465.369477,289.643275 465.369477,289.532818 L465.369477,289.532818 L465.369477,277.985414 C465.369477,277.912508 465.329805,277.842973 465.265941,277.803937 L465.265941,277.803937 L460.870094,275.117089 C460.840545,275.099028 460.807361,275.088485 460.77363,275.08644 Z M450.529688,269.183594 C450.419231,269.176898 450.329688,269.261012 450.329688,269.371469 L450.329688,269.371469 L450.329688,280.918873 C450.329688,280.991778 450.369359,281.061313 450.433224,281.100349 L450.433224,281.100349 L454.82907,283.787197 C454.858619,283.805258 454.891803,283.815801 454.925534,283.817847 C455.035991,283.824543 455.125534,283.740429 455.125534,283.629972 L455.125534,283.629972 L455.125534,272.082568 C455.125534,272.009663 455.085863,271.940128 455.021998,271.901092 L455.021998,271.901092 L450.626151,269.214244 C450.596603,269.196183 450.563419,269.185639 450.529688,269.183594 Z" id="形状结合"></path>
                <path d="M331.676997,193.000478 C331.708647,193.00265 331.739845,193.012303 331.768026,193.028642 L393.860359,229.029111 C393.927242,229.067889 393.969329,229.139558 393.969329,229.214673 L393.969329,266.241938 C393.969329,266.352395 393.879786,266.435793 393.769329,266.428213 C393.737679,266.426041 393.706482,266.416388 393.6783,266.400049 L376.925966,256.687225 L376.925966,264.271158 L371.244845,260.977304 L371.244845,267.613245 L354.201481,257.731686 L354.201481,251.095745 L348.52036,247.801892 L348.52036,240.217959 L331.476997,230.3364 L331.476997,193.186753 C331.476997,193.076296 331.56654,192.992898 331.676997,193.000478 Z M381.013124,228.794977 C380.902667,228.78828 380.813124,228.872394 380.813124,228.982851 L380.813124,228.982851 L380.813124,240.530255 C380.813124,240.603161 380.852796,240.672696 380.91666,240.711732 L380.91666,240.711732 L385.312507,243.39858 C385.342056,243.416641 385.375239,243.427184 385.408971,243.429229 C385.519428,243.435926 385.608971,243.351812 385.608971,243.241355 L385.608971,243.241355 L385.608971,231.693951 C385.608971,231.621045 385.5693,231.55151 385.505435,231.512474 L385.505435,231.512474 L381.109588,228.825626 C381.080039,228.807565 381.046856,228.797022 381.013124,228.794977 Z M370.769182,222.411657 C370.658725,222.404961 370.569182,222.489075 370.569182,222.599532 L370.569182,222.599532 L370.569182,234.146936 C370.569182,234.219841 370.608853,234.289377 370.672718,234.328412 L370.672718,234.328412 L375.068565,237.01526 C375.098114,237.033321 375.131297,237.043865 375.165029,237.04591 C375.275486,237.052606 375.365029,236.968492 375.365029,236.858035 L375.365029,236.858035 L375.365029,225.310631 C375.365029,225.237726 375.325358,225.168191 375.261493,225.129155 L375.261493,225.129155 L370.865646,222.442307 C370.836097,222.424246 370.802914,222.413703 370.769182,222.411657 Z M360.52524,216.989286 C360.414783,216.982589 360.32524,217.066703 360.32524,217.17716 L360.32524,217.17716 L360.32524,228.724564 C360.32524,228.79747 360.364911,228.867005 360.428776,228.90604 L360.428776,228.90604 L364.824623,231.592888 C364.854171,231.610949 364.887355,231.621493 364.921087,231.623538 C365.031543,231.630235 365.121087,231.54612 365.121087,231.435664 L365.121087,231.435664 L365.121087,219.888259 C365.121087,219.815354 365.081415,219.745819 365.01755,219.706783 L365.01755,219.706783 L360.621704,217.019935 C360.592155,217.001874 360.558971,216.991331 360.52524,216.989286 Z M350.281298,211.08644 C350.170841,211.079743 350.081298,211.163857 350.081298,211.274314 L350.081298,211.274314 L350.081298,222.821718 C350.081298,222.894624 350.120969,222.964159 350.184834,223.003195 L350.184834,223.003195 L354.58068,225.690043 C354.610229,225.708104 354.643413,225.718647 354.677144,225.720692 C354.787601,225.727389 354.877144,225.643275 354.877144,225.532818 L354.877144,225.532818 L354.877144,213.985414 C354.877144,213.912508 354.837473,213.842973 354.773608,213.803937 L354.773608,213.803937 L350.377761,211.117089 C350.348213,211.099028 350.315029,211.088485 350.281298,211.08644 Z M340.037355,205.183594 C339.926898,205.176898 339.837355,205.261012 339.837355,205.371469 L339.837355,205.371469 L339.837355,216.918873 C339.837355,216.991778 339.877027,217.061313 339.940891,217.100349 L339.940891,217.100349 L344.336738,219.787197 C344.366287,219.805258 344.39947,219.815801 344.433202,219.817847 C344.543659,219.824543 344.633202,219.740429 344.633202,219.629972 L344.633202,219.629972 L344.633202,208.082568 C344.633202,208.009663 344.593531,207.940128 344.529666,207.901092 L344.529666,207.901092 L340.133819,205.214244 C340.10427,205.196183 340.071087,205.185639 340.037355,205.183594 Z" id="形状结合"></path>
            </g>
        </g>
    </g>
</svg>