<?xml version="1.0" encoding="UTF-8"?>
<svg width="1024px" height="1024px" viewBox="0 0 1024 1024" version="1.1" xmlns="http://www.w3.org/2000/svg" xmlns:xlink="http://www.w3.org/1999/xlink">
    <title>操作系统@1x</title>
    <g id="操作系统" stroke="none" stroke-width="1" fill="none" fill-rule="evenodd">
        <g transform="translate(168.000000, 61.500000)">
            <g id="底座" transform="translate(22.529519, 584.333338)">
                <polygon id="路径-4" fill="#9FC5FB" points="0 101.403649 173.915756 0.566500834 520.433499 200.166662 342.933499 300.166662"></polygon>
                <polygon id="路径-2" fill="#C1DBFF" points="0 101.97015 0 116.132671 343.433499 315.666662 343.433499 300.166662"></polygon>
                <polygon id="路径-3" fill="#83A8DC" points="343.433499 315.666662 343.433499 300.166662 520.433499 200.166662 521.04279 213.762682"></polygon>
            </g>
            <g id="支架" transform="translate(215.029519, 559.141298)">
                <polygon id="路径" fill="#75A7ED" points="0 6.75248144e-14 1.13300167 148.423218 146.157215 231.698841 147.290217 85.5416259"></polygon>
                <polygon id="路径" fill="#528AD8" points="146.157215 231.698841 156.920731 225.467332 156.920731 91.2066342 147.290217 85.5416259"></polygon>
            </g>
            <g id="显示器" transform="translate(0.029519, 0.000000)">
                <polygon id="前" fill="#AFCBFC" points="5.80639503e-13 439.038146 653.741962 816.327701 653.741962 393.718079 5.80639503e-13 18.1280267"></polygon>
                <polygon id="右" fill="#9BBFF3" points="653.741962 394.851081 653.741962 816.327701 686.03251 798.766175 686.03251 375.023552"></polygon>
                <polygon id="上" fill="#9FC5FB" points="-4.70448817e-14 18.1280267 34.5565509 -7.02402726e-13 686.03251 375.023552 653.741962 394.851081"></polygon>
                <path d="M24.3595358,64.581095 L630.515428,412.412607 L630.515428,767.042129 L24.3595358,417.511114 L24.3595358,64.581095 Z M339.624982,367.193381 C329.208315,368.840327 323.999982,375.9138 323.999982,388.4138 C323.999982,401.174216 328.947899,414.122386 338.843732,427.258308 C345.614565,436.383106 356.486961,447.387088 371.460919,460.270254 C389.390212,475.749905 400.156971,485.280581 403.761195,488.862282 L403.977133,489.078392 C404.011568,489.113119 404.045226,489.147201 404.078107,489.180637 C413.843732,499.241443 418.726544,508.047888 418.726544,515.599971 C418.726544,522.76143 414.75519,526.366216 406.812482,526.41433 C398.34894,526.53177 387.281232,522.373447 373.609357,513.93936 C356.16144,503.175859 341.773419,488.701029 330.445294,470.514869 L317.749982,472.839467 C331.552065,499.452837 351.47394,520.791985 377.515607,536.856912 C397.56769,549.226906 413.843732,554.514881 426.343732,552.720837 C438.19269,550.915796 444.117169,543.112233 444.117169,529.31015 C444.117169,516.81015 439.104149,503.886922 429.078107,490.540467 C421.916649,480.914279 410.914044,469.63466 396.070294,456.70161 C375.367169,438.72166 364.299461,429.029482 362.867169,427.625078 C352.841128,417.66404 347.828107,409.493416 347.828107,403.113208 C347.828107,396.081958 351.343732,392.391348 358.374982,392.041378 C365.796857,391.802174 375.562482,395.417667 387.671857,402.887858 C402.25519,411.884218 414.299461,424.131955 423.804669,439.631069 L436.304669,437.185984 C423.414044,413.739054 405.835919,395.147832 383.570294,381.41232 C365.341128,370.166871 350.69269,365.427225 339.624982,367.193381 Z M173.999982,275.372009 C158.50519,281.308169 150.757794,295.278853 150.757794,317.284061 C150.757794,339.28927 158.50519,362.818586 173.999982,387.872009 C189.494774,412.925432 208.244774,432.239575 230.249982,445.814438 C252.25519,459.389301 271.00519,463.208653 286.499982,457.272493 C302.124982,451.416657 309.937482,437.486135 309.937482,415.480927 C309.937482,393.475718 302.124982,369.90624 286.499982,344.772493 L285.982283,343.935188 C270.588122,319.158928 252.010688,300.058782 230.249982,286.634751 C208.244774,273.059887 189.494774,269.30564 173.999982,275.372009 Z M230.249982,300.697251 C245.614565,310.175558 258.765607,324.668554 269.703107,344.17624 C280.510399,363.733809 285.914044,382.562073 285.914044,400.661032 C285.914044,418.75999 280.510399,430.856205 269.703107,436.949677 C258.765607,443.093033 245.614565,441.425558 230.249982,431.947251 C214.885399,422.468944 201.799461,407.951006 190.992169,388.393436 C180.054669,368.88575 174.585919,350.082428 174.585919,331.98347 C174.585919,313.884511 180.054669,301.763354 190.992169,295.619998 C201.799461,289.526526 214.885399,291.218944 230.249982,300.697251 Z" id="形状结合" fill="#0559D6"></path>
            </g>
        </g>
    </g>
</svg>