<?xml version="1.0" encoding="UTF-8"?>
<svg width="1024px" height="1024px" viewBox="0 0 1024 1024" version="1.1" xmlns="http://www.w3.org/2000/svg" xmlns:xlink="http://www.w3.org/1999/xlink">
    <title>表@1x</title>
    <defs>
        <linearGradient x1="0%" y1="51.0612026%" x2="100%" y2="51.0575372%" id="linearGradient-1">
            <stop stop-color="#97C1FF" offset="0.0965465199%"></stop>
            <stop stop-color="#A9C5FF" offset="15.5293839%"></stop>
            <stop stop-color="#C9DBFF" offset="29.593359%"></stop>
            <stop stop-color="#A9C5FF" offset="88.3433012%"></stop>
            <stop stop-color="#97C1FF" offset="100%"></stop>
        </linearGradient>
        <linearGradient x1="50%" y1="76.5106782%" x2="50%" y2="24.2725953%" id="linearGradient-2">
            <stop stop-color="#AFCBFC" offset="0%"></stop>
            <stop stop-color="#9FC5FB" offset="100%"></stop>
        </linearGradient>
        <linearGradient x1="54.8290115%" y1="59.2819003%" x2="54.8290115%" y2="110.725813%" id="linearGradient-3">
            <stop stop-color="#9FC5FB" offset="0%"></stop>
            <stop stop-color="#E2EFFF" offset="100%"></stop>
        </linearGradient>
    </defs>
    <g id="表" stroke="none" stroke-width="1" fill="none" fill-rule="evenodd">
        <g id="数据库" transform="translate(257.512821, 115.000000)">
            <g id="中" transform="translate(0.000000, 271.995897)">
                <path d="M215.909489,512.857533 C390.266601,538.299705 577.502659,503.519968 634.11293,435.174816 C690.723201,366.829665 604.44619,292.045933 441.407833,268.140677 C278.369477,244.23542 91.1334184,279.015157 23.2043924,345.823393 C-44.7246337,412.631629 41.5523768,487.41536 215.909489,512.857533 Z" id="下" fill="url(#linearGradient-1)"></path>
                <polygon id="路径" fill="url(#linearGradient-1)" points="0 130.297436 0 390.892308 651.487179 390.892308 651.487179 130.297436"></polygon>
                <path d="M26.0091946,88.0803772 C93.4000575,21.801425 279.263532,-12.185594 440.827544,11.503489 C521.364989,23.3121721 583.038577,47.5422712 617.508688,77.4204914 C634.399957,92.0616121 644.68883,108.011863 646.994682,124.530722 C649.18617,140.230294 644.05844,156.302169 631.032432,172.028369 C574.902576,239.79352 389.020143,273.480589 216.487052,248.304578 C130.319004,235.730945 65.8068889,211.128426 31.3195675,181.235287 C14.5571631,166.705865 4.9697305,150.979772 4.06943586,134.755643 C3.20740634,119.221086 10.3831032,103.448647 26.0091946,88.0803772 Z" id="上" stroke="url(#linearGradient-3)" stroke-width="8" fill="url(#linearGradient-2)"></path>
            </g>
            <g id="上">
                <path d="M215.909489,512.857533 C390.266601,538.299705 577.502659,503.519968 634.11293,435.174816 C690.723201,366.829665 604.44619,292.045933 441.407833,268.140677 C278.369477,244.23542 91.1334184,279.015157 23.2043924,345.823393 C-44.7246337,412.631629 41.5523768,487.41536 215.909489,512.857533 Z" id="下" fill="url(#linearGradient-1)"></path>
                <polygon id="路径" fill="url(#linearGradient-1)" points="0 130.297436 0 390.892308 651.487179 390.892308 651.487179 130.297436"></polygon>
                <path d="M26.0091946,88.0803772 C93.4000575,21.801425 279.263532,-12.185594 440.827544,11.503489 C521.364989,23.3121721 583.038577,47.5422712 617.508688,77.4204914 C634.399957,92.0616121 644.68883,108.011863 646.994682,124.530722 C649.18617,140.230294 644.05844,156.302169 631.032432,172.028369 C574.902576,239.79352 389.020143,273.480589 216.487052,248.304578 C130.319004,235.730945 65.8068889,211.128426 31.3195675,181.235287 C14.5571631,166.705865 4.9697305,150.979772 4.06943586,134.755643 C3.20740634,119.221086 10.3831032,103.448647 26.0091946,88.0803772 Z" stroke="url(#linearGradient-3)" stroke-width="8" fill="#9FC5FB"></path>
            </g>
        </g>
        <g id="表格" transform="translate(113.000000, 496.826923)">
            <g id="表头" transform="translate(0.208333, 0.000000)">
                <polygon id="前" fill="#196DEB" points="9.24445705e-13 69.5833333 260 219.583333 260.208333 173.333333 9.24445705e-13 22.9166667"></polygon>
                <polygon id="右" fill="#0043A6" points="260 219.583333 299.375 196.25 299.375 150 260 173.333333"></polygon>
                <polygon id="上" fill="#0559D6" points="260.208333 173.333333 299.791667 150 39.375 0 7.57912251e-13 22.9166667"></polygon>
            </g>
            <polygon id="右" fill="#9BBFF3" points="260.208333 434.583333 299.583333 411.25 299.583333 195.833333 260.208333 219.166667"></polygon>
            <polygon id="前" fill="#AFCBFC" points="0.208333333 285 260.208333 435 260.416667 219.583333 0.208333333 69.1666667"></polygon>
            <polygon id="前" fill="#8BACE5" points="23.9788251 279.057377 33.5758197 284.057377 33.784153 106.079235 23.9788251 100.662568"></polygon>
            <polygon id="前" fill="#8BACE5" points="91.5994991 320.061475 101.196494 325.061475 101.404827 145.894809 91.5994991 140.478142"></polygon>
            <polygon id="前" fill="#8BACE5" points="159.220173 357.5 168.817168 362.5 169.025501 185.11612 159.220173 179.699454"></polygon>
            <polygon id="前" fill="#8BACE5" points="226.840847 397.315574 236.437842 402.315574 236.646175 225.525956 226.840847 220.10929"></polygon>
            <polygon id="1" fill="#8BACE5" points="24.067623 112.612705 236.516393 235.922131 236.724727 224.139344 24.067623 100.413251"></polygon>
            <polygon id="2" fill="#8BACE5" points="24.067623 168.473361 236.516393 291.782787 236.724727 280 24.067623 156.273907"></polygon>
            <polygon id="3" fill="#8BACE5" points="24.067623 224.334016 236.516393 347.643443 236.724727 335.860656 24.067623 212.134563"></polygon>
            <polygon id="4" fill="#8BACE5" points="24.067623 280.194672 236.516393 403.504098 236.724727 391.721311 24.067623 267.995219"></polygon>
        </g>
    </g>
</svg>