<?xml version="1.0" encoding="UTF-8"?>
<svg width="1024px" height="1024px" viewBox="0 0 1024 1024" version="1.1" xmlns="http://www.w3.org/2000/svg" xmlns:xlink="http://www.w3.org/1999/xlink">
    <title>机柜@1x</title>
    <defs>
        <linearGradient x1="50%" y1="45.9106782%" x2="50%" y2="98.9065501%" id="linearGradient-1">
            <stop stop-color="#9FC5FB" offset="0%"></stop>
            <stop stop-color="#E2EFFF" offset="100%"></stop>
        </linearGradient>
    </defs>
    <g id="机柜" stroke="none" stroke-width="1" fill="none" fill-rule="evenodd">
        <g transform="translate(191.000000, 64.000000)">
            <polygon id="前" fill="#AFCBFC" points="0.643612028 738 256.643612 896 256.643612 372 0.643612028 222"></polygon>
            <polygon id="右" fill="#9BBFF3" points="257 374 257 896 641 666 641 150"></polygon>
            <path d="M384.993248,2.31407974 L637.037322,149.996155 L257.008977,371.679356 L4.95618172,222.023009 L384.993248,2.31407974 Z" id="上" stroke="url(#linearGradient-1)" stroke-width="4" fill="#9FC5FB"></path>
            <g id="机器" transform="translate(20.643612, 349.000000)" fill="#0559D6">
                <path d="M216,449.070213 L216,509.070213 L0,380.929787 L0,320.929787 L216,449.070213 Z M186,450.992389 C180.477153,447.717925 176,449.540585 176,455.063433 C176,460.58628 180.477153,467.717925 186,470.992424 C191.522847,474.266889 196,472.444228 196,466.921381 C196,461.398533 191.522847,454.266889 186,450.992389 Z M150,429.715209 C144.477153,426.440745 140,428.263406 140,433.786253 C140,439.309101 144.477153,446.440745 150,449.715245 C155.522847,452.989709 160,451.167049 160,445.644201 C160,440.121354 155.522847,432.989709 150,429.715209 Z M80,386.436165 L20,350.787736 L20,374.787736 L80,410.436165 L80,386.436165 Z"></path>
                <path d="M216,369.070213 L216,429.070213 L0,300.929787 L0,240.929787 L216,369.070213 Z M186,370.992389 C180.477153,367.717925 176,369.540585 176,375.063433 C176,380.58628 180.477153,387.717925 186,390.992424 C191.522847,394.266889 196,392.444228 196,386.921381 C196,381.398533 191.522847,374.266889 186,370.992389 Z M150,349.715209 C144.477153,346.440745 140,348.263406 140,353.786253 C140,359.309101 144.477153,366.440745 150,369.715245 C155.522847,372.989709 160,371.167049 160,365.644201 C160,360.121354 155.522847,352.989709 150,349.715209 Z M80,306.436165 L20,270.787736 L20,294.787736 L80,330.436165 L80,306.436165 Z"></path>
                <path d="M216,289.070213 L216,349.070213 L0,220.929787 L0,160.929787 L216,289.070213 Z M186,290.992389 C180.477153,287.717925 176,289.540585 176,295.063433 C176,300.58628 180.477153,307.717925 186,310.992424 C191.522847,314.266889 196,312.444228 196,306.921381 C196,301.398533 191.522847,294.266889 186,290.992389 Z M150,269.715209 C144.477153,266.440745 140,268.263406 140,273.786253 C140,279.309101 144.477153,286.440745 150,289.715245 C155.522847,292.989709 160,291.167049 160,285.644201 C160,280.121354 155.522847,272.989709 150,269.715209 Z M80,226.436165 L20,190.787736 L20,214.787736 L80,250.436165 L80,226.436165 Z"></path>
                <path d="M216,209.070213 L216,269.070213 L0,140.929787 L0,80.9297875 L216,209.070213 Z M186,210.992389 C180.477153,207.717925 176,209.540585 176,215.063433 C176,220.58628 180.477153,227.717925 186,230.992424 C191.522847,234.266889 196,232.444228 196,226.921381 C196,221.398533 191.522847,214.266889 186,210.992389 Z M150,189.715209 C144.477153,186.440745 140,188.263406 140,193.786253 C140,199.309101 144.477153,206.440745 150,209.715245 C155.522847,212.989709 160,211.167049 160,205.644201 C160,200.121354 155.522847,192.989709 150,189.715209 Z M80,146.436165 L20,110.787736 L20,134.787736 L80,170.436165 L80,146.436165 Z"></path>
                <path d="M216,129.070213 L216,189.070213 L0,60.9297875 L0,0.929787491 L216,129.070213 Z M186,130.992389 C180.477153,127.717925 176,129.540585 176,135.063433 C176,140.58628 180.477153,147.717925 186,150.992424 C191.522847,154.266889 196,152.444228 196,146.921381 C196,141.398533 191.522847,134.266889 186,130.992389 Z M150,109.715209 C144.477153,106.440745 140,108.263406 140,113.786253 C140,119.309101 144.477153,126.440745 150,129.715245 C155.522847,132.989709 160,131.167049 160,125.644201 C160,120.121354 155.522847,112.989709 150,109.715209 Z M80,66.4361654 L20,30.7877356 L20,54.7877356 L80,90.4361654 L80,66.4361654 Z"></path>
            </g>
            <path d="M353,694.59157 C361.836556,689.106317 369,691.823086 369,700.659642 C369,709.496198 361.836556,721.106317 353,726.59157 C344.163444,732.076823 337,729.360054 337,720.523498 C337,711.686942 344.163444,700.076823 353,694.59157 Z M417,654.863857 C425.836556,649.378604 433,652.095372 433,660.931928 C433,669.768484 425.836556,681.378604 417,686.863857 C408.163444,692.349109 401,689.632341 401,680.795785 C401,671.959229 408.163444,660.349109 417,654.863857 Z M481,615.136143 C489.836556,609.650891 497,612.367659 497,621.204215 C497,630.040771 489.836556,641.650891 481,647.136143 C472.163444,652.621396 465,649.904628 465,641.068072 C465,632.231516 472.163444,620.621396 481,615.136143 Z M545,575.40843 C553.836556,569.923177 561,572.639946 561,581.476502 C561,590.313058 553.836556,601.923177 545,607.40843 C536.163444,612.893683 529,610.176914 529,601.340358 C529,592.503802 536.163444,580.893683 545,575.40843 Z M353,630.59157 C361.836556,625.106317 369,627.823086 369,636.659642 C369,645.496198 361.836556,657.106317 353,662.59157 C344.163444,668.076823 337,665.360054 337,656.523498 C337,647.686942 344.163444,636.076823 353,630.59157 Z M417,590.863857 C425.836556,585.378604 433,588.095372 433,596.931928 C433,605.768484 425.836556,617.378604 417,622.863857 C408.163444,628.349109 401,625.632341 401,616.795785 C401,607.959229 408.163444,596.349109 417,590.863857 Z M481,551.136143 C489.836556,545.650891 497,548.367659 497,557.204215 C497,566.040771 489.836556,577.650891 481,583.136143 C472.163444,588.621396 465,585.904628 465,577.068072 C465,568.231516 472.163444,556.621396 481,551.136143 Z M545,511.40843 C553.836556,505.923177 561,508.639946 561,517.476502 C561,526.313058 553.836556,537.923177 545,543.40843 C536.163444,548.893683 529,546.176914 529,537.340358 C529,528.503802 536.163444,516.893683 545,511.40843 Z M353,566.59157 C361.836556,561.106317 369,563.823086 369,572.659642 C369,581.496198 361.836556,593.106317 353,598.59157 C344.163444,604.076823 337,601.360054 337,592.523498 C337,583.686942 344.163444,572.076823 353,566.59157 Z M417,526.863857 C425.836556,521.378604 433,524.095372 433,532.931928 C433,541.768484 425.836556,553.378604 417,558.863857 C408.163444,564.349109 401,561.632341 401,552.795785 C401,543.959229 408.163444,532.349109 417,526.863857 Z M481,487.136143 C489.836556,481.650891 497,484.367659 497,493.204215 C497,502.040771 489.836556,513.650891 481,519.136143 C472.163444,524.621396 465,521.904628 465,513.068072 C465,504.231516 472.163444,492.621396 481,487.136143 Z M545,447.40843 C553.836556,441.923177 561,444.639946 561,453.476502 C561,462.313058 553.836556,473.923177 545,479.40843 C536.163444,484.893683 529,482.176914 529,473.340358 C529,464.503802 536.163444,452.893683 545,447.40843 Z M353,502.59157 C361.836556,497.106317 369,499.823086 369,508.659642 C369,517.496198 361.836556,529.106317 353,534.59157 C344.163444,540.076823 337,537.360054 337,528.523498 C337,519.686942 344.163444,508.076823 353,502.59157 Z M417,462.863857 C425.836556,457.378604 433,460.095372 433,468.931928 C433,477.768484 425.836556,489.378604 417,494.863857 C408.163444,500.349109 401,497.632341 401,488.795785 C401,479.959229 408.163444,468.349109 417,462.863857 Z M481,423.136143 C489.836556,417.650891 497,420.367659 497,429.204215 C497,438.040771 489.836556,449.650891 481,455.136143 C472.163444,460.621396 465,457.904628 465,449.068072 C465,440.231516 472.163444,428.621396 481,423.136143 Z M545,383.40843 C553.836556,377.923177 561,380.639946 561,389.476502 C561,398.313058 553.836556,409.923177 545,415.40843 C536.163444,420.893683 529,418.176914 529,409.340358 C529,400.503802 536.163444,388.893683 545,383.40843 Z M353,438.59157 C361.836556,433.106317 369,435.823086 369,444.659642 C369,453.496198 361.836556,465.106317 353,470.59157 C344.163444,476.076823 337,473.360054 337,464.523498 C337,455.686942 344.163444,444.076823 353,438.59157 Z M417,398.863857 C425.836556,393.378604 433,396.095372 433,404.931928 C433,413.768484 425.836556,425.378604 417,430.863857 C408.163444,436.349109 401,433.632341 401,424.795785 C401,415.959229 408.163444,404.349109 417,398.863857 Z M481,359.136143 C489.836556,353.650891 497,356.367659 497,365.204215 C497,374.040771 489.836556,385.650891 481,391.136143 C472.163444,396.621396 465,393.904628 465,385.068072 C465,376.231516 472.163444,364.621396 481,359.136143 Z M545,319.40843 C553.836556,313.923177 561,316.639946 561,325.476502 C561,334.313058 553.836556,345.923177 545,351.40843 C536.163444,356.893683 529,354.176914 529,345.340358 C529,336.503802 536.163444,324.893683 545,319.40843 Z" id="风扇吧" fill="#6483B9"></path>
        </g>
    </g>
</svg>