<?xml version="1.0" encoding="UTF-8"?>
<svg width="1148px" height="686px" viewBox="0 0 1148 686" version="1.1" xmlns="http://www.w3.org/2000/svg" xmlns:xlink="http://www.w3.org/1999/xlink">
    <title>网格@1x</title>
    <defs>
        <linearGradient x1="57.661762%" y1="114.976797%" x2="57.661762%" y2="0%" id="linearGradient-1">
            <stop stop-color="#F5F5F5" stop-opacity="0" offset="0%"></stop>
            <stop stop-color="#F5F5F5" stop-opacity="0.26815426" offset="5.36118709%"></stop>
            <stop stop-color="#F5F5F5" offset="73.1101244%"></stop>
            <stop stop-color="#F5F5F5" stop-opacity="0" offset="99.9933416%"></stop>
        </linearGradient>
    </defs>
    <g id="页面-1" stroke="none" stroke-width="1" fill="none" fill-rule="evenodd">
        <g id="网格" transform="translate(0.000000, -0.000000)">
            <g id="蒙版" transform="translate(0.000000, 0.000000)">
                <g id="path-1-link" fill="#000000" fill-rule="nonzero">
                    <rect id="path-1" x="0" y="0" width="1148" height="686" rx="4"></rect>
                </g>
                <g id="path-1-link" fill="#FFFFFF">
                    <rect id="path-1" x="0" y="0" width="1148" height="686" rx="4"></rect>
                </g>
            </g>
            <path d="M0,686 L0,685 L22,685 L22,661 L0,661 L0,660 L22,660 L22,636 L0,636 L0,635 L22,635 L22,611 L0,611 L0,610 L22,610 L22,586 L0,586 L0,585 L22,585 L22,561 L0,561 L0,560 L22,560 L22,536 L0,536 L0,535 L22,535 L22,511 L0,511 L0,510 L22,510 L22,486 L0,486 L0,485 L22,485 L22,461 L0,461 L0,460 L22,460 L22,436 L0,436 L0,435 L22,435 L22,411 L0,411 L0,410 L22,410 L22,386 L0,386 L0,385 L22,385 L22,361 L0,361 L0,360 L22,360 L22,336 L0,336 L0,335 L22,335 L22,311 L0,311 L0,310 L22,310 L22,286 L0,286 L0,285 L22,285 L22,261 L0,261 L0,260 L22,260 L22,236 L0,236 L0,235 L22,235 L22,211 L0,211 L0,210 L22,210 L22,186 L0,186 L0,185 L22,185 L22,161 L0,161 L0,160 L22,160 L22,136 L0,136 L0,135 L22,135 L22,111 L0,111 L0,110 L22,110 L22,86 L0,86 L0,85 L22,85 L22,61 L0,61 L0,60 L22,60 L22,36 L0,36 L0,35 L22,35 L22,11 L0,11 L0,10 L22,10 L22,-14 L0,-14 L0,-15 L22,-15 L22,-39 L0,-39 L0,-40 L22,-40 L22,-64 L0,-64 L0,-65 L22,-65 L22,-89 L0,-89 L0,-90 L1148,-90 L1148,-89 L23,-89 L23,-65 L47,-65 L47,-88 L48,-88 L48,-65 L72,-65 L72,-88 L73,-88 L73,-65 L97,-65 L97,-88 L98,-88 L98,-65 L122,-65 L122,-88 L123,-88 L123,-65 L147,-65 L147,-88 L148,-88 L148,-65 L172,-65 L172,-88 L173,-88 L173,-65 L197,-65 L197,-88 L198,-88 L198,-65 L222,-65 L222,-88 L223,-88 L223,-65 L247,-65 L247,-88 L248,-88 L248,-65 L272,-65 L272,-88 L273,-88 L273,-65 L297,-65 L297,-88 L298,-88 L298,-65 L322,-65 L322,-88 L323,-88 L323,-65 L347,-65 L347,-88 L348,-88 L348,-65 L372,-65 L372,-88 L373,-88 L373,-65 L397,-65 L397,-88 L398,-88 L398,-65 L422,-65 L422,-88 L423,-88 L423,-65 L447,-65 L447,-88 L448,-88 L448,-65 L472,-65 L472,-88 L473,-88 L473,-65 L497,-65 L497,-88 L498,-88 L498,-65 L522,-65 L522,-88 L523,-88 L523,-65 L547,-65 L547,-88 L548,-88 L548,-65 L572,-65 L572,-88 L573,-88 L573,-65 L597,-65 L597,-88 L598,-88 L598,-65 L622,-65 L622,-88 L623,-88 L623,-65 L647,-65 L647,-88 L648,-88 L648,-65 L672,-65 L672,-88 L673,-88 L673,-65 L697,-65 L697,-88 L698,-88 L698,-65 L722,-65 L722,-88 L723,-88 L723,-65 L747,-65 L747,-88 L748,-88 L748,-65 L772,-65 L772,-88 L773,-88 L773,-65 L797,-65 L797,-88 L798,-88 L798,-65 L822,-65 L822,-88 L823,-88 L823,-65 L847,-65 L847,-88 L848,-88 L848,-65 L872,-65 L872,-88 L873,-88 L873,-65 L897,-65 L897,-88 L898,-88 L898,-65 L922,-65 L922,-88 L923,-88 L923,-65 L947,-65 L947,-88 L948,-88 L948,-65 L972,-65 L972,-88 L973,-88 L973,-65 L997,-65 L997,-88 L998,-88 L998,-65 L1022,-65 L1022,-88 L1023,-88 L1023,-65 L1047,-65 L1047,-88 L1048,-88 L1048,-65 L1072,-65 L1072,-88 L1073,-88 L1073,-65 L1097,-65 L1097,-88 L1098,-88 L1098,-65 L1122,-65 L1122,-88 L1123,-88 L1123,-65 L1148,-65 L1148,-64 L1123,-64 L1123,-40 L1148,-40 L1148,-39 L1123,-39 L1123,-15 L1148,-15 L1148,-14 L1123,-14 L1123,10 L1148,10 L1148,11 L1123,11 L1123,35 L1148,35 L1148,36 L1123,36 L1123,60 L1148,60 L1148,61 L1123,61 L1123,85 L1148,85 L1148,86 L1123,86 L1123,110 L1148,110 L1148,111 L1123,111 L1123,135 L1148,135 L1148,136 L1123,136 L1123,160 L1148,160 L1148,161 L1123,161 L1123,185 L1148,185 L1148,186 L1123,186 L1123,210 L1148,210 L1148,211 L1123,211 L1123,235 L1148,235 L1148,236 L1123,236 L1123,260 L1148,260 L1148,261 L1123,261 L1123,285 L1148,285 L1148,286 L1123,286 L1123,310 L1148,310 L1148,311 L1123,311 L1123,335 L1148,335 L1148,336 L1123,336 L1123,360 L1148,360 L1148,361 L1123,361 L1123,385 L1148,385 L1148,386 L1123,386 L1123,410 L1148,410 L1148,411 L1123,411 L1123,435 L1148,435 L1148,436 L1123,436 L1123,460 L1148,460 L1148,461 L1123,461 L1123,485 L1148,485 L1148,486 L1123,486 L1123,510 L1148,510 L1148,511 L1123,511 L1123,535 L1148,535 L1148,536 L1123,536 L1123,560 L1148,560 L1148,561 L1123,561 L1123,585 L1148,585 L1148,586 L1123,586 L1123,610 L1148,610 L1148,611 L1123,611 L1123,635 L1148,635 L1148,636 L1123,636 L1123,660 L1148,660 L1148,661 L1123,661 L1123,685 L1148,685 L1148,686 L0,686 Z M47,661 L23,661 L23,685 L47,685 L47,661 Z M72,661 L48,661 L48,685 L72,685 L72,661 Z M97,661 L73,661 L73,685 L97,685 L97,661 Z M122,661 L98,661 L98,685 L122,685 L122,661 Z M147,661 L123,661 L123,685 L147,685 L147,661 Z M172,661 L148,661 L148,685 L172,685 L172,661 Z M197,661 L173,661 L173,685 L197,685 L197,661 Z M222,661 L198,661 L198,685 L222,685 L222,661 Z M247,661 L223,661 L223,685 L247,685 L247,661 Z M272,661 L248,661 L248,685 L272,685 L272,661 Z M297,661 L273,661 L273,685 L297,685 L297,661 Z M322,661 L298,661 L298,685 L322,685 L322,661 Z M347,661 L323,661 L323,685 L347,685 L347,661 Z M372,661 L348,661 L348,685 L372,685 L372,661 Z M397,661 L373,661 L373,685 L397,685 L397,661 Z M422,661 L398,661 L398,685 L422,685 L422,661 Z M447,661 L423,661 L423,685 L447,685 L447,661 Z M472,661 L448,661 L448,685 L472,685 L472,661 Z M497,661 L473,661 L473,685 L497,685 L497,661 Z M522,661 L498,661 L498,685 L522,685 L522,661 Z M547,661 L523,661 L523,685 L547,685 L547,661 Z M572,661 L548,661 L548,685 L572,685 L572,661 Z M597,661 L573,661 L573,685 L597,685 L597,661 Z M622,661 L598,661 L598,685 L622,685 L622,661 Z M647,661 L623,661 L623,685 L647,685 L647,661 Z M672,661 L648,661 L648,685 L672,685 L672,661 Z M697,661 L673,661 L673,685 L697,685 L697,661 Z M722,661 L698,661 L698,685 L722,685 L722,661 Z M747,661 L723,661 L723,685 L747,685 L747,661 Z M772,661 L748,661 L748,685 L772,685 L772,661 Z M797,661 L773,661 L773,685 L797,685 L797,661 Z M822,661 L798,661 L798,685 L822,685 L822,661 Z M847,661 L823,661 L823,685 L847,685 L847,661 Z M872,661 L848,661 L848,685 L872,685 L872,661 Z M897,661 L873,661 L873,685 L897,685 L897,661 Z M922,661 L898,661 L898,685 L922,685 L922,661 Z M947,661 L923,661 L923,685 L947,685 L947,661 Z M972,661 L948,661 L948,685 L972,685 L972,661 Z M997,661 L973,661 L973,685 L997,685 L997,661 Z M1022,661 L998,661 L998,685 L1022,685 L1022,661 Z M1047,661 L1023,661 L1023,685 L1047,685 L1047,661 Z M1072,661 L1048,661 L1048,685 L1072,685 L1072,661 Z M1097,661 L1073,661 L1073,685 L1097,685 L1097,661 Z M1122,661 L1098,661 L1098,685 L1122,685 L1122,661 Z M47,636 L23,636 L23,660 L47,660 L47,636 Z M72,636 L48,636 L48,660 L72,660 L72,636 Z M97,636 L73,636 L73,660 L97,660 L97,636 Z M122,636 L98,636 L98,660 L122,660 L122,636 Z M147,636 L123,636 L123,660 L147,660 L147,636 Z M172,636 L148,636 L148,660 L172,660 L172,636 Z M197,636 L173,636 L173,660 L197,660 L197,636 Z M222,636 L198,636 L198,660 L222,660 L222,636 Z M247,636 L223,636 L223,660 L247,660 L247,636 Z M272,636 L248,636 L248,660 L272,660 L272,636 Z M297,636 L273,636 L273,660 L297,660 L297,636 Z M322,636 L298,636 L298,660 L322,660 L322,636 Z M347,636 L323,636 L323,660 L347,660 L347,636 Z M372,636 L348,636 L348,660 L372,660 L372,636 Z M397,636 L373,636 L373,660 L397,660 L397,636 Z M422,636 L398,636 L398,660 L422,660 L422,636 Z M447,636 L423,636 L423,660 L447,660 L447,636 Z M472,636 L448,636 L448,660 L472,660 L472,636 Z M497,636 L473,636 L473,660 L497,660 L497,636 Z M522,636 L498,636 L498,660 L522,660 L522,636 Z M547,636 L523,636 L523,660 L547,660 L547,636 Z M572,636 L548,636 L548,660 L572,660 L572,636 Z M597,636 L573,636 L573,660 L597,660 L597,636 Z M622,636 L598,636 L598,660 L622,660 L622,636 Z M647,636 L623,636 L623,660 L647,660 L647,636 Z M672,636 L648,636 L648,660 L672,660 L672,636 Z M697,636 L673,636 L673,660 L697,660 L697,636 Z M722,636 L698,636 L698,660 L722,660 L722,636 Z M747,636 L723,636 L723,660 L747,660 L747,636 Z M772,636 L748,636 L748,660 L772,660 L772,636 Z M797,636 L773,636 L773,660 L797,660 L797,636 Z M822,636 L798,636 L798,660 L822,660 L822,636 Z M847,636 L823,636 L823,660 L847,660 L847,636 Z M872,636 L848,636 L848,660 L872,660 L872,636 Z M897,636 L873,636 L873,660 L897,660 L897,636 Z M922,636 L898,636 L898,660 L922,660 L922,636 Z M947,636 L923,636 L923,660 L947,660 L947,636 Z M972,636 L948,636 L948,660 L972,660 L972,636 Z M997,636 L973,636 L973,660 L997,660 L997,636 Z M1022,636 L998,636 L998,660 L1022,660 L1022,636 Z M1047,636 L1023,636 L1023,660 L1047,660 L1047,636 Z M1072,636 L1048,636 L1048,660 L1072,660 L1072,636 Z M1097,636 L1073,636 L1073,660 L1097,660 L1097,636 Z M1122,636 L1098,636 L1098,660 L1122,660 L1122,636 Z M47,611 L23,611 L23,635 L47,635 L47,611 Z M72,611 L48,611 L48,635 L72,635 L72,611 Z M97,611 L73,611 L73,635 L97,635 L97,611 Z M122,611 L98,611 L98,635 L122,635 L122,611 Z M147,611 L123,611 L123,635 L147,635 L147,611 Z M172,611 L148,611 L148,635 L172,635 L172,611 Z M197,611 L173,611 L173,635 L197,635 L197,611 Z M222,611 L198,611 L198,635 L222,635 L222,611 Z M247,611 L223,611 L223,635 L247,635 L247,611 Z M272,611 L248,611 L248,635 L272,635 L272,611 Z M297,611 L273,611 L273,635 L297,635 L297,611 Z M322,611 L298,611 L298,635 L322,635 L322,611 Z M347,611 L323,611 L323,635 L347,635 L347,611 Z M372,611 L348,611 L348,635 L372,635 L372,611 Z M397,611 L373,611 L373,635 L397,635 L397,611 Z M422,611 L398,611 L398,635 L422,635 L422,611 Z M447,611 L423,611 L423,635 L447,635 L447,611 Z M472,611 L448,611 L448,635 L472,635 L472,611 Z M497,611 L473,611 L473,635 L497,635 L497,611 Z M522,611 L498,611 L498,635 L522,635 L522,611 Z M547,611 L523,611 L523,635 L547,635 L547,611 Z M572,611 L548,611 L548,635 L572,635 L572,611 Z M597,611 L573,611 L573,635 L597,635 L597,611 Z M622,611 L598,611 L598,635 L622,635 L622,611 Z M647,611 L623,611 L623,635 L647,635 L647,611 Z M672,611 L648,611 L648,635 L672,635 L672,611 Z M697,611 L673,611 L673,635 L697,635 L697,611 Z M722,611 L698,611 L698,635 L722,635 L722,611 Z M747,611 L723,611 L723,635 L747,635 L747,611 Z M772,611 L748,611 L748,635 L772,635 L772,611 Z M797,611 L773,611 L773,635 L797,635 L797,611 Z M822,611 L798,611 L798,635 L822,635 L822,611 Z M847,611 L823,611 L823,635 L847,635 L847,611 Z M872,611 L848,611 L848,635 L872,635 L872,611 Z M897,611 L873,611 L873,635 L897,635 L897,611 Z M922,611 L898,611 L898,635 L922,635 L922,611 Z M947,611 L923,611 L923,635 L947,635 L947,611 Z M972,611 L948,611 L948,635 L972,635 L972,611 Z M997,611 L973,611 L973,635 L997,635 L997,611 Z M1022,611 L998,611 L998,635 L1022,635 L1022,611 Z M1047,611 L1023,611 L1023,635 L1047,635 L1047,611 Z M1072,611 L1048,611 L1048,635 L1072,635 L1072,611 Z M1097,611 L1073,611 L1073,635 L1097,635 L1097,611 Z M1122,611 L1098,611 L1098,635 L1122,635 L1122,611 Z M47,586 L23,586 L23,610 L47,610 L47,586 Z M72,586 L48,586 L48,610 L72,610 L72,586 Z M97,586 L73,586 L73,610 L97,610 L97,586 Z M122,586 L98,586 L98,610 L122,610 L122,586 Z M147,586 L123,586 L123,610 L147,610 L147,586 Z M172,586 L148,586 L148,610 L172,610 L172,586 Z M197,586 L173,586 L173,610 L197,610 L197,586 Z M222,586 L198,586 L198,610 L222,610 L222,586 Z M247,586 L223,586 L223,610 L247,610 L247,586 Z M272,586 L248,586 L248,610 L272,610 L272,586 Z M297,586 L273,586 L273,610 L297,610 L297,586 Z M322,586 L298,586 L298,610 L322,610 L322,586 Z M347,586 L323,586 L323,610 L347,610 L347,586 Z M372,586 L348,586 L348,610 L372,610 L372,586 Z M397,586 L373,586 L373,610 L397,610 L397,586 Z M422,586 L398,586 L398,610 L422,610 L422,586 Z M447,586 L423,586 L423,610 L447,610 L447,586 Z M472,586 L448,586 L448,610 L472,610 L472,586 Z M497,586 L473,586 L473,610 L497,610 L497,586 Z M522,586 L498,586 L498,610 L522,610 L522,586 Z M547,586 L523,586 L523,610 L547,610 L547,586 Z M572,586 L548,586 L548,610 L572,610 L572,586 Z M597,586 L573,586 L573,610 L597,610 L597,586 Z M622,586 L598,586 L598,610 L622,610 L622,586 Z M647,586 L623,586 L623,610 L647,610 L647,586 Z M672,586 L648,586 L648,610 L672,610 L672,586 Z M697,586 L673,586 L673,610 L697,610 L697,586 Z M722,586 L698,586 L698,610 L722,610 L722,586 Z M747,586 L723,586 L723,610 L747,610 L747,586 Z M772,586 L748,586 L748,610 L772,610 L772,586 Z M797,586 L773,586 L773,610 L797,610 L797,586 Z M822,586 L798,586 L798,610 L822,610 L822,586 Z M847,586 L823,586 L823,610 L847,610 L847,586 Z M872,586 L848,586 L848,610 L872,610 L872,586 Z M897,586 L873,586 L873,610 L897,610 L897,586 Z M922,586 L898,586 L898,610 L922,610 L922,586 Z M947,586 L923,586 L923,610 L947,610 L947,586 Z M972,586 L948,586 L948,610 L972,610 L972,586 Z M997,586 L973,586 L973,610 L997,610 L997,586 Z M1022,586 L998,586 L998,610 L1022,610 L1022,586 Z M1047,586 L1023,586 L1023,610 L1047,610 L1047,586 Z M1072,586 L1048,586 L1048,610 L1072,610 L1072,586 Z M1097,586 L1073,586 L1073,610 L1097,610 L1097,586 Z M1122,586 L1098,586 L1098,610 L1122,610 L1122,586 Z M47,561 L23,561 L23,585 L47,585 L47,561 Z M72,561 L48,561 L48,585 L72,585 L72,561 Z M97,561 L73,561 L73,585 L97,585 L97,561 Z M122,561 L98,561 L98,585 L122,585 L122,561 Z M147,561 L123,561 L123,585 L147,585 L147,561 Z M172,561 L148,561 L148,585 L172,585 L172,561 Z M197,561 L173,561 L173,585 L197,585 L197,561 Z M222,561 L198,561 L198,585 L222,585 L222,561 Z M247,561 L223,561 L223,585 L247,585 L247,561 Z M272,561 L248,561 L248,585 L272,585 L272,561 Z M297,561 L273,561 L273,585 L297,585 L297,561 Z M322,561 L298,561 L298,585 L322,585 L322,561 Z M347,561 L323,561 L323,585 L347,585 L347,561 Z M372,561 L348,561 L348,585 L372,585 L372,561 Z M397,561 L373,561 L373,585 L397,585 L397,561 Z M422,561 L398,561 L398,585 L422,585 L422,561 Z M447,561 L423,561 L423,585 L447,585 L447,561 Z M472,561 L448,561 L448,585 L472,585 L472,561 Z M497,561 L473,561 L473,585 L497,585 L497,561 Z M522,561 L498,561 L498,585 L522,585 L522,561 Z M547,561 L523,561 L523,585 L547,585 L547,561 Z M572,561 L548,561 L548,585 L572,585 L572,561 Z M597,561 L573,561 L573,585 L597,585 L597,561 Z M622,561 L598,561 L598,585 L622,585 L622,561 Z M647,561 L623,561 L623,585 L647,585 L647,561 Z M672,561 L648,561 L648,585 L672,585 L672,561 Z M697,561 L673,561 L673,585 L697,585 L697,561 Z M722,561 L698,561 L698,585 L722,585 L722,561 Z M747,561 L723,561 L723,585 L747,585 L747,561 Z M772,561 L748,561 L748,585 L772,585 L772,561 Z M797,561 L773,561 L773,585 L797,585 L797,561 Z M822,561 L798,561 L798,585 L822,585 L822,561 Z M847,561 L823,561 L823,585 L847,585 L847,561 Z M872,561 L848,561 L848,585 L872,585 L872,561 Z M897,561 L873,561 L873,585 L897,585 L897,561 Z M922,561 L898,561 L898,585 L922,585 L922,561 Z M947,561 L923,561 L923,585 L947,585 L947,561 Z M972,561 L948,561 L948,585 L972,585 L972,561 Z M997,561 L973,561 L973,585 L997,585 L997,561 Z M1022,561 L998,561 L998,585 L1022,585 L1022,561 Z M1047,561 L1023,561 L1023,585 L1047,585 L1047,561 Z M1072,561 L1048,561 L1048,585 L1072,585 L1072,561 Z M1097,561 L1073,561 L1073,585 L1097,585 L1097,561 Z M1122,561 L1098,561 L1098,585 L1122,585 L1122,561 Z M47,536 L23,536 L23,560 L47,560 L47,536 Z M72,536 L48,536 L48,560 L72,560 L72,536 Z M97,536 L73,536 L73,560 L97,560 L97,536 Z M122,536 L98,536 L98,560 L122,560 L122,536 Z M147,536 L123,536 L123,560 L147,560 L147,536 Z M172,536 L148,536 L148,560 L172,560 L172,536 Z M197,536 L173,536 L173,560 L197,560 L197,536 Z M222,536 L198,536 L198,560 L222,560 L222,536 Z M247,536 L223,536 L223,560 L247,560 L247,536 Z M272,536 L248,536 L248,560 L272,560 L272,536 Z M297,536 L273,536 L273,560 L297,560 L297,536 Z M322,536 L298,536 L298,560 L322,560 L322,536 Z M347,536 L323,536 L323,560 L347,560 L347,536 Z M372,536 L348,536 L348,560 L372,560 L372,536 Z M397,536 L373,536 L373,560 L397,560 L397,536 Z M422,536 L398,536 L398,560 L422,560 L422,536 Z M447,536 L423,536 L423,560 L447,560 L447,536 Z M472,536 L448,536 L448,560 L472,560 L472,536 Z M497,536 L473,536 L473,560 L497,560 L497,536 Z M522,536 L498,536 L498,560 L522,560 L522,536 Z M547,536 L523,536 L523,560 L547,560 L547,536 Z M572,536 L548,536 L548,560 L572,560 L572,536 Z M597,536 L573,536 L573,560 L597,560 L597,536 Z M622,536 L598,536 L598,560 L622,560 L622,536 Z M647,536 L623,536 L623,560 L647,560 L647,536 Z M672,536 L648,536 L648,560 L672,560 L672,536 Z M697,536 L673,536 L673,560 L697,560 L697,536 Z M722,536 L698,536 L698,560 L722,560 L722,536 Z M747,536 L723,536 L723,560 L747,560 L747,536 Z M772,536 L748,536 L748,560 L772,560 L772,536 Z M797,536 L773,536 L773,560 L797,560 L797,536 Z M822,536 L798,536 L798,560 L822,560 L822,536 Z M847,536 L823,536 L823,560 L847,560 L847,536 Z M872,536 L848,536 L848,560 L872,560 L872,536 Z M897,536 L873,536 L873,560 L897,560 L897,536 Z M922,536 L898,536 L898,560 L922,560 L922,536 Z M947,536 L923,536 L923,560 L947,560 L947,536 Z M972,536 L948,536 L948,560 L972,560 L972,536 Z M997,536 L973,536 L973,560 L997,560 L997,536 Z M1022,536 L998,536 L998,560 L1022,560 L1022,536 Z M1047,536 L1023,536 L1023,560 L1047,560 L1047,536 Z M1072,536 L1048,536 L1048,560 L1072,560 L1072,536 Z M1097,536 L1073,536 L1073,560 L1097,560 L1097,536 Z M1122,536 L1098,536 L1098,560 L1122,560 L1122,536 Z M47,511 L23,511 L23,535 L47,535 L47,511 Z M72,511 L48,511 L48,535 L72,535 L72,511 Z M97,511 L73,511 L73,535 L97,535 L97,511 Z M122,511 L98,511 L98,535 L122,535 L122,511 Z M147,511 L123,511 L123,535 L147,535 L147,511 Z M172,511 L148,511 L148,535 L172,535 L172,511 Z M197,511 L173,511 L173,535 L197,535 L197,511 Z M222,511 L198,511 L198,535 L222,535 L222,511 Z M247,511 L223,511 L223,535 L247,535 L247,511 Z M272,511 L248,511 L248,535 L272,535 L272,511 Z M297,511 L273,511 L273,535 L297,535 L297,511 Z M322,511 L298,511 L298,535 L322,535 L322,511 Z M347,511 L323,511 L323,535 L347,535 L347,511 Z M372,511 L348,511 L348,535 L372,535 L372,511 Z M397,511 L373,511 L373,535 L397,535 L397,511 Z M422,511 L398,511 L398,535 L422,535 L422,511 Z M447,511 L423,511 L423,535 L447,535 L447,511 Z M472,511 L448,511 L448,535 L472,535 L472,511 Z M497,511 L473,511 L473,535 L497,535 L497,511 Z M522,511 L498,511 L498,535 L522,535 L522,511 Z M547,511 L523,511 L523,535 L547,535 L547,511 Z M572,511 L548,511 L548,535 L572,535 L572,511 Z M597,511 L573,511 L573,535 L597,535 L597,511 Z M622,511 L598,511 L598,535 L622,535 L622,511 Z M647,511 L623,511 L623,535 L647,535 L647,511 Z M672,511 L648,511 L648,535 L672,535 L672,511 Z M697,511 L673,511 L673,535 L697,535 L697,511 Z M722,511 L698,511 L698,535 L722,535 L722,511 Z M747,511 L723,511 L723,535 L747,535 L747,511 Z M772,511 L748,511 L748,535 L772,535 L772,511 Z M797,511 L773,511 L773,535 L797,535 L797,511 Z M822,511 L798,511 L798,535 L822,535 L822,511 Z M847,511 L823,511 L823,535 L847,535 L847,511 Z M872,511 L848,511 L848,535 L872,535 L872,511 Z M897,511 L873,511 L873,535 L897,535 L897,511 Z M922,511 L898,511 L898,535 L922,535 L922,511 Z M947,511 L923,511 L923,535 L947,535 L947,511 Z M972,511 L948,511 L948,535 L972,535 L972,511 Z M997,511 L973,511 L973,535 L997,535 L997,511 Z M1022,511 L998,511 L998,535 L1022,535 L1022,511 Z M1047,511 L1023,511 L1023,535 L1047,535 L1047,511 Z M1072,511 L1048,511 L1048,535 L1072,535 L1072,511 Z M1097,511 L1073,511 L1073,535 L1097,535 L1097,511 Z M1122,511 L1098,511 L1098,535 L1122,535 L1122,511 Z M47,486 L23,486 L23,510 L47,510 L47,486 Z M72,486 L48,486 L48,510 L72,510 L72,486 Z M97,486 L73,486 L73,510 L97,510 L97,486 Z M122,486 L98,486 L98,510 L122,510 L122,486 Z M147,486 L123,486 L123,510 L147,510 L147,486 Z M172,486 L148,486 L148,510 L172,510 L172,486 Z M197,486 L173,486 L173,510 L197,510 L197,486 Z M222,486 L198,486 L198,510 L222,510 L222,486 Z M247,486 L223,486 L223,510 L247,510 L247,486 Z M272,486 L248,486 L248,510 L272,510 L272,486 Z M297,486 L273,486 L273,510 L297,510 L297,486 Z M322,486 L298,486 L298,510 L322,510 L322,486 Z M347,486 L323,486 L323,510 L347,510 L347,486 Z M372,486 L348,486 L348,510 L372,510 L372,486 Z M397,486 L373,486 L373,510 L397,510 L397,486 Z M422,486 L398,486 L398,510 L422,510 L422,486 Z M447,486 L423,486 L423,510 L447,510 L447,486 Z M472,486 L448,486 L448,510 L472,510 L472,486 Z M497,486 L473,486 L473,510 L497,510 L497,486 Z M522,486 L498,486 L498,510 L522,510 L522,486 Z M547,486 L523,486 L523,510 L547,510 L547,486 Z M572,486 L548,486 L548,510 L572,510 L572,486 Z M597,486 L573,486 L573,510 L597,510 L597,486 Z M622,486 L598,486 L598,510 L622,510 L622,486 Z M647,486 L623,486 L623,510 L647,510 L647,486 Z M672,486 L648,486 L648,510 L672,510 L672,486 Z M697,486 L673,486 L673,510 L697,510 L697,486 Z M722,486 L698,486 L698,510 L722,510 L722,486 Z M747,486 L723,486 L723,510 L747,510 L747,486 Z M772,486 L748,486 L748,510 L772,510 L772,486 Z M797,486 L773,486 L773,510 L797,510 L797,486 Z M822,486 L798,486 L798,510 L822,510 L822,486 Z M847,486 L823,486 L823,510 L847,510 L847,486 Z M872,486 L848,486 L848,510 L872,510 L872,486 Z M897,486 L873,486 L873,510 L897,510 L897,486 Z M922,486 L898,486 L898,510 L922,510 L922,486 Z M947,486 L923,486 L923,510 L947,510 L947,486 Z M972,486 L948,486 L948,510 L972,510 L972,486 Z M997,486 L973,486 L973,510 L997,510 L997,486 Z M1022,486 L998,486 L998,510 L1022,510 L1022,486 Z M1047,486 L1023,486 L1023,510 L1047,510 L1047,486 Z M1072,486 L1048,486 L1048,510 L1072,510 L1072,486 Z M1097,486 L1073,486 L1073,510 L1097,510 L1097,486 Z M1122,486 L1098,486 L1098,510 L1122,510 L1122,486 Z M47,461 L23,461 L23,485 L47,485 L47,461 Z M72,461 L48,461 L48,485 L72,485 L72,461 Z M97,461 L73,461 L73,485 L97,485 L97,461 Z M122,461 L98,461 L98,485 L122,485 L122,461 Z M147,461 L123,461 L123,485 L147,485 L147,461 Z M172,461 L148,461 L148,485 L172,485 L172,461 Z M197,461 L173,461 L173,485 L197,485 L197,461 Z M222,461 L198,461 L198,485 L222,485 L222,461 Z M247,461 L223,461 L223,485 L247,485 L247,461 Z M272,461 L248,461 L248,485 L272,485 L272,461 Z M297,461 L273,461 L273,485 L297,485 L297,461 Z M322,461 L298,461 L298,485 L322,485 L322,461 Z M347,461 L323,461 L323,485 L347,485 L347,461 Z M372,461 L348,461 L348,485 L372,485 L372,461 Z M397,461 L373,461 L373,485 L397,485 L397,461 Z M422,461 L398,461 L398,485 L422,485 L422,461 Z M447,461 L423,461 L423,485 L447,485 L447,461 Z M472,461 L448,461 L448,485 L472,485 L472,461 Z M497,461 L473,461 L473,485 L497,485 L497,461 Z M522,461 L498,461 L498,485 L522,485 L522,461 Z M547,461 L523,461 L523,485 L547,485 L547,461 Z M572,461 L548,461 L548,485 L572,485 L572,461 Z M597,461 L573,461 L573,485 L597,485 L597,461 Z M622,461 L598,461 L598,485 L622,485 L622,461 Z M647,461 L623,461 L623,485 L647,485 L647,461 Z M672,461 L648,461 L648,485 L672,485 L672,461 Z M697,461 L673,461 L673,485 L697,485 L697,461 Z M722,461 L698,461 L698,485 L722,485 L722,461 Z M747,461 L723,461 L723,485 L747,485 L747,461 Z M772,461 L748,461 L748,485 L772,485 L772,461 Z M797,461 L773,461 L773,485 L797,485 L797,461 Z M822,461 L798,461 L798,485 L822,485 L822,461 Z M847,461 L823,461 L823,485 L847,485 L847,461 Z M872,461 L848,461 L848,485 L872,485 L872,461 Z M897,461 L873,461 L873,485 L897,485 L897,461 Z M922,461 L898,461 L898,485 L922,485 L922,461 Z M947,461 L923,461 L923,485 L947,485 L947,461 Z M972,461 L948,461 L948,485 L972,485 L972,461 Z M997,461 L973,461 L973,485 L997,485 L997,461 Z M1022,461 L998,461 L998,485 L1022,485 L1022,461 Z M1047,461 L1023,461 L1023,485 L1047,485 L1047,461 Z M1072,461 L1048,461 L1048,485 L1072,485 L1072,461 Z M1097,461 L1073,461 L1073,485 L1097,485 L1097,461 Z M1122,461 L1098,461 L1098,485 L1122,485 L1122,461 Z M47,436 L23,436 L23,460 L47,460 L47,436 Z M72,436 L48,436 L48,460 L72,460 L72,436 Z M97,436 L73,436 L73,460 L97,460 L97,436 Z M122,436 L98,436 L98,460 L122,460 L122,436 Z M147,436 L123,436 L123,460 L147,460 L147,436 Z M172,436 L148,436 L148,460 L172,460 L172,436 Z M197,436 L173,436 L173,460 L197,460 L197,436 Z M222,436 L198,436 L198,460 L222,460 L222,436 Z M247,436 L223,436 L223,460 L247,460 L247,436 Z M272,436 L248,436 L248,460 L272,460 L272,436 Z M297,436 L273,436 L273,460 L297,460 L297,436 Z M322,436 L298,436 L298,460 L322,460 L322,436 Z M347,436 L323,436 L323,460 L347,460 L347,436 Z M372,436 L348,436 L348,460 L372,460 L372,436 Z M397,436 L373,436 L373,460 L397,460 L397,436 Z M422,436 L398,436 L398,460 L422,460 L422,436 Z M447,436 L423,436 L423,460 L447,460 L447,436 Z M472,436 L448,436 L448,460 L472,460 L472,436 Z M497,436 L473,436 L473,460 L497,460 L497,436 Z M522,436 L498,436 L498,460 L522,460 L522,436 Z M547,436 L523,436 L523,460 L547,460 L547,436 Z M572,436 L548,436 L548,460 L572,460 L572,436 Z M597,436 L573,436 L573,460 L597,460 L597,436 Z M622,436 L598,436 L598,460 L622,460 L622,436 Z M647,436 L623,436 L623,460 L647,460 L647,436 Z M672,436 L648,436 L648,460 L672,460 L672,436 Z M697,436 L673,436 L673,460 L697,460 L697,436 Z M722,436 L698,436 L698,460 L722,460 L722,436 Z M747,436 L723,436 L723,460 L747,460 L747,436 Z M772,436 L748,436 L748,460 L772,460 L772,436 Z M797,436 L773,436 L773,460 L797,460 L797,436 Z M822,436 L798,436 L798,460 L822,460 L822,436 Z M847,436 L823,436 L823,460 L847,460 L847,436 Z M872,436 L848,436 L848,460 L872,460 L872,436 Z M897,436 L873,436 L873,460 L897,460 L897,436 Z M922,436 L898,436 L898,460 L922,460 L922,436 Z M947,436 L923,436 L923,460 L947,460 L947,436 Z M972,436 L948,436 L948,460 L972,460 L972,436 Z M997,436 L973,436 L973,460 L997,460 L997,436 Z M1022,436 L998,436 L998,460 L1022,460 L1022,436 Z M1047,436 L1023,436 L1023,460 L1047,460 L1047,436 Z M1072,436 L1048,436 L1048,460 L1072,460 L1072,436 Z M1097,436 L1073,436 L1073,460 L1097,460 L1097,436 Z M1122,436 L1098,436 L1098,460 L1122,460 L1122,436 Z M47,411 L23,411 L23,435 L47,435 L47,411 Z M72,411 L48,411 L48,435 L72,435 L72,411 Z M97,411 L73,411 L73,435 L97,435 L97,411 Z M122,411 L98,411 L98,435 L122,435 L122,411 Z M147,411 L123,411 L123,435 L147,435 L147,411 Z M172,411 L148,411 L148,435 L172,435 L172,411 Z M197,411 L173,411 L173,435 L197,435 L197,411 Z M222,411 L198,411 L198,435 L222,435 L222,411 Z M247,411 L223,411 L223,435 L247,435 L247,411 Z M272,411 L248,411 L248,435 L272,435 L272,411 Z M297,411 L273,411 L273,435 L297,435 L297,411 Z M322,411 L298,411 L298,435 L322,435 L322,411 Z M347,411 L323,411 L323,435 L347,435 L347,411 Z M372,411 L348,411 L348,435 L372,435 L372,411 Z M397,411 L373,411 L373,435 L397,435 L397,411 Z M422,411 L398,411 L398,435 L422,435 L422,411 Z M447,411 L423,411 L423,435 L447,435 L447,411 Z M472,411 L448,411 L448,435 L472,435 L472,411 Z M497,411 L473,411 L473,435 L497,435 L497,411 Z M522,411 L498,411 L498,435 L522,435 L522,411 Z M547,411 L523,411 L523,435 L547,435 L547,411 Z M572,411 L548,411 L548,435 L572,435 L572,411 Z M597,411 L573,411 L573,435 L597,435 L597,411 Z M622,411 L598,411 L598,435 L622,435 L622,411 Z M647,411 L623,411 L623,435 L647,435 L647,411 Z M672,411 L648,411 L648,435 L672,435 L672,411 Z M697,411 L673,411 L673,435 L697,435 L697,411 Z M722,411 L698,411 L698,435 L722,435 L722,411 Z M747,411 L723,411 L723,435 L747,435 L747,411 Z M772,411 L748,411 L748,435 L772,435 L772,411 Z M797,411 L773,411 L773,435 L797,435 L797,411 Z M822,411 L798,411 L798,435 L822,435 L822,411 Z M847,411 L823,411 L823,435 L847,435 L847,411 Z M872,411 L848,411 L848,435 L872,435 L872,411 Z M897,411 L873,411 L873,435 L897,435 L897,411 Z M922,411 L898,411 L898,435 L922,435 L922,411 Z M947,411 L923,411 L923,435 L947,435 L947,411 Z M972,411 L948,411 L948,435 L972,435 L972,411 Z M997,411 L973,411 L973,435 L997,435 L997,411 Z M1022,411 L998,411 L998,435 L1022,435 L1022,411 Z M1047,411 L1023,411 L1023,435 L1047,435 L1047,411 Z M1072,411 L1048,411 L1048,435 L1072,435 L1072,411 Z M1097,411 L1073,411 L1073,435 L1097,435 L1097,411 Z M1122,411 L1098,411 L1098,435 L1122,435 L1122,411 Z M47,386 L23,386 L23,410 L47,410 L47,386 Z M72,386 L48,386 L48,410 L72,410 L72,386 Z M97,386 L73,386 L73,410 L97,410 L97,386 Z M122,386 L98,386 L98,410 L122,410 L122,386 Z M147,386 L123,386 L123,410 L147,410 L147,386 Z M172,386 L148,386 L148,410 L172,410 L172,386 Z M197,386 L173,386 L173,410 L197,410 L197,386 Z M222,386 L198,386 L198,410 L222,410 L222,386 Z M247,386 L223,386 L223,410 L247,410 L247,386 Z M272,386 L248,386 L248,410 L272,410 L272,386 Z M297,386 L273,386 L273,410 L297,410 L297,386 Z M322,386 L298,386 L298,410 L322,410 L322,386 Z M347,386 L323,386 L323,410 L347,410 L347,386 Z M372,386 L348,386 L348,410 L372,410 L372,386 Z M397,386 L373,386 L373,410 L397,410 L397,386 Z M422,386 L398,386 L398,410 L422,410 L422,386 Z M447,386 L423,386 L423,410 L447,410 L447,386 Z M472,386 L448,386 L448,410 L472,410 L472,386 Z M497,386 L473,386 L473,410 L497,410 L497,386 Z M522,386 L498,386 L498,410 L522,410 L522,386 Z M547,386 L523,386 L523,410 L547,410 L547,386 Z M572,386 L548,386 L548,410 L572,410 L572,386 Z M597,386 L573,386 L573,410 L597,410 L597,386 Z M622,386 L598,386 L598,410 L622,410 L622,386 Z M647,386 L623,386 L623,410 L647,410 L647,386 Z M672,386 L648,386 L648,410 L672,410 L672,386 Z M697,386 L673,386 L673,410 L697,410 L697,386 Z M722,386 L698,386 L698,410 L722,410 L722,386 Z M747,386 L723,386 L723,410 L747,410 L747,386 Z M772,386 L748,386 L748,410 L772,410 L772,386 Z M797,386 L773,386 L773,410 L797,410 L797,386 Z M822,386 L798,386 L798,410 L822,410 L822,386 Z M847,386 L823,386 L823,410 L847,410 L847,386 Z M872,386 L848,386 L848,410 L872,410 L872,386 Z M897,386 L873,386 L873,410 L897,410 L897,386 Z M922,386 L898,386 L898,410 L922,410 L922,386 Z M947,386 L923,386 L923,410 L947,410 L947,386 Z M972,386 L948,386 L948,410 L972,410 L972,386 Z M997,386 L973,386 L973,410 L997,410 L997,386 Z M1022,386 L998,386 L998,410 L1022,410 L1022,386 Z M1047,386 L1023,386 L1023,410 L1047,410 L1047,386 Z M1072,386 L1048,386 L1048,410 L1072,410 L1072,386 Z M1097,386 L1073,386 L1073,410 L1097,410 L1097,386 Z M1122,386 L1098,386 L1098,410 L1122,410 L1122,386 Z M47,361 L23,361 L23,385 L47,385 L47,361 Z M72,361 L48,361 L48,385 L72,385 L72,361 Z M97,361 L73,361 L73,385 L97,385 L97,361 Z M122,361 L98,361 L98,385 L122,385 L122,361 Z M147,361 L123,361 L123,385 L147,385 L147,361 Z M172,361 L148,361 L148,385 L172,385 L172,361 Z M197,361 L173,361 L173,385 L197,385 L197,361 Z M222,361 L198,361 L198,385 L222,385 L222,361 Z M247,361 L223,361 L223,385 L247,385 L247,361 Z M272,361 L248,361 L248,385 L272,385 L272,361 Z M297,361 L273,361 L273,385 L297,385 L297,361 Z M322,361 L298,361 L298,385 L322,385 L322,361 Z M347,361 L323,361 L323,385 L347,385 L347,361 Z M372,361 L348,361 L348,385 L372,385 L372,361 Z M397,361 L373,361 L373,385 L397,385 L397,361 Z M422,361 L398,361 L398,385 L422,385 L422,361 Z M447,361 L423,361 L423,385 L447,385 L447,361 Z M472,361 L448,361 L448,385 L472,385 L472,361 Z M497,361 L473,361 L473,385 L497,385 L497,361 Z M522,361 L498,361 L498,385 L522,385 L522,361 Z M547,361 L523,361 L523,385 L547,385 L547,361 Z M572,361 L548,361 L548,385 L572,385 L572,361 Z M597,361 L573,361 L573,385 L597,385 L597,361 Z M622,361 L598,361 L598,385 L622,385 L622,361 Z M647,361 L623,361 L623,385 L647,385 L647,361 Z M672,361 L648,361 L648,385 L672,385 L672,361 Z M697,361 L673,361 L673,385 L697,385 L697,361 Z M722,361 L698,361 L698,385 L722,385 L722,361 Z M747,361 L723,361 L723,385 L747,385 L747,361 Z M772,361 L748,361 L748,385 L772,385 L772,361 Z M797,361 L773,361 L773,385 L797,385 L797,361 Z M822,361 L798,361 L798,385 L822,385 L822,361 Z M847,361 L823,361 L823,385 L847,385 L847,361 Z M872,361 L848,361 L848,385 L872,385 L872,361 Z M897,361 L873,361 L873,385 L897,385 L897,361 Z M922,361 L898,361 L898,385 L922,385 L922,361 Z M947,361 L923,361 L923,385 L947,385 L947,361 Z M972,361 L948,361 L948,385 L972,385 L972,361 Z M997,361 L973,361 L973,385 L997,385 L997,361 Z M1022,361 L998,361 L998,385 L1022,385 L1022,361 Z M1047,361 L1023,361 L1023,385 L1047,385 L1047,361 Z M1072,361 L1048,361 L1048,385 L1072,385 L1072,361 Z M1097,361 L1073,361 L1073,385 L1097,385 L1097,361 Z M1122,361 L1098,361 L1098,385 L1122,385 L1122,361 Z M47,336 L23,336 L23,360 L47,360 L47,336 Z M72,336 L48,336 L48,360 L72,360 L72,336 Z M97,336 L73,336 L73,360 L97,360 L97,336 Z M122,336 L98,336 L98,360 L122,360 L122,336 Z M147,336 L123,336 L123,360 L147,360 L147,336 Z M172,336 L148,336 L148,360 L172,360 L172,336 Z M197,336 L173,336 L173,360 L197,360 L197,336 Z M222,336 L198,336 L198,360 L222,360 L222,336 Z M247,336 L223,336 L223,360 L247,360 L247,336 Z M272,336 L248,336 L248,360 L272,360 L272,336 Z M297,336 L273,336 L273,360 L297,360 L297,336 Z M322,336 L298,336 L298,360 L322,360 L322,336 Z M347,336 L323,336 L323,360 L347,360 L347,336 Z M372,336 L348,336 L348,360 L372,360 L372,336 Z M397,336 L373,336 L373,360 L397,360 L397,336 Z M422,336 L398,336 L398,360 L422,360 L422,336 Z M447,336 L423,336 L423,360 L447,360 L447,336 Z M472,336 L448,336 L448,360 L472,360 L472,336 Z M497,336 L473,336 L473,360 L497,360 L497,336 Z M522,336 L498,336 L498,360 L522,360 L522,336 Z M547,336 L523,336 L523,360 L547,360 L547,336 Z M572,336 L548,336 L548,360 L572,360 L572,336 Z M597,336 L573,336 L573,360 L597,360 L597,336 Z M622,336 L598,336 L598,360 L622,360 L622,336 Z M647,336 L623,336 L623,360 L647,360 L647,336 Z M672,336 L648,336 L648,360 L672,360 L672,336 Z M697,336 L673,336 L673,360 L697,360 L697,336 Z M722,336 L698,336 L698,360 L722,360 L722,336 Z M747,336 L723,336 L723,360 L747,360 L747,336 Z M772,336 L748,336 L748,360 L772,360 L772,336 Z M797,336 L773,336 L773,360 L797,360 L797,336 Z M822,336 L798,336 L798,360 L822,360 L822,336 Z M847,336 L823,336 L823,360 L847,360 L847,336 Z M872,336 L848,336 L848,360 L872,360 L872,336 Z M897,336 L873,336 L873,360 L897,360 L897,336 Z M922,336 L898,336 L898,360 L922,360 L922,336 Z M947,336 L923,336 L923,360 L947,360 L947,336 Z M972,336 L948,336 L948,360 L972,360 L972,336 Z M997,336 L973,336 L973,360 L997,360 L997,336 Z M1022,336 L998,336 L998,360 L1022,360 L1022,336 Z M1047,336 L1023,336 L1023,360 L1047,360 L1047,336 Z M1072,336 L1048,336 L1048,360 L1072,360 L1072,336 Z M1097,336 L1073,336 L1073,360 L1097,360 L1097,336 Z M1122,336 L1098,336 L1098,360 L1122,360 L1122,336 Z M47,311 L23,311 L23,335 L47,335 L47,311 Z M72,311 L48,311 L48,335 L72,335 L72,311 Z M97,311 L73,311 L73,335 L97,335 L97,311 Z M122,311 L98,311 L98,335 L122,335 L122,311 Z M147,311 L123,311 L123,335 L147,335 L147,311 Z M172,311 L148,311 L148,335 L172,335 L172,311 Z M197,311 L173,311 L173,335 L197,335 L197,311 Z M222,311 L198,311 L198,335 L222,335 L222,311 Z M247,311 L223,311 L223,335 L247,335 L247,311 Z M272,311 L248,311 L248,335 L272,335 L272,311 Z M297,311 L273,311 L273,335 L297,335 L297,311 Z M322,311 L298,311 L298,335 L322,335 L322,311 Z M347,311 L323,311 L323,335 L347,335 L347,311 Z M372,311 L348,311 L348,335 L372,335 L372,311 Z M397,311 L373,311 L373,335 L397,335 L397,311 Z M422,311 L398,311 L398,335 L422,335 L422,311 Z M447,311 L423,311 L423,335 L447,335 L447,311 Z M472,311 L448,311 L448,335 L472,335 L472,311 Z M497,311 L473,311 L473,335 L497,335 L497,311 Z M522,311 L498,311 L498,335 L522,335 L522,311 Z M547,311 L523,311 L523,335 L547,335 L547,311 Z M572,311 L548,311 L548,335 L572,335 L572,311 Z M597,311 L573,311 L573,335 L597,335 L597,311 Z M622,311 L598,311 L598,335 L622,335 L622,311 Z M647,311 L623,311 L623,335 L647,335 L647,311 Z M672,311 L648,311 L648,335 L672,335 L672,311 Z M697,311 L673,311 L673,335 L697,335 L697,311 Z M722,311 L698,311 L698,335 L722,335 L722,311 Z M747,311 L723,311 L723,335 L747,335 L747,311 Z M772,311 L748,311 L748,335 L772,335 L772,311 Z M797,311 L773,311 L773,335 L797,335 L797,311 Z M822,311 L798,311 L798,335 L822,335 L822,311 Z M847,311 L823,311 L823,335 L847,335 L847,311 Z M872,311 L848,311 L848,335 L872,335 L872,311 Z M897,311 L873,311 L873,335 L897,335 L897,311 Z M922,311 L898,311 L898,335 L922,335 L922,311 Z M947,311 L923,311 L923,335 L947,335 L947,311 Z M972,311 L948,311 L948,335 L972,335 L972,311 Z M997,311 L973,311 L973,335 L997,335 L997,311 Z M1022,311 L998,311 L998,335 L1022,335 L1022,311 Z M1047,311 L1023,311 L1023,335 L1047,335 L1047,311 Z M1072,311 L1048,311 L1048,335 L1072,335 L1072,311 Z M1097,311 L1073,311 L1073,335 L1097,335 L1097,311 Z M1122,311 L1098,311 L1098,335 L1122,335 L1122,311 Z M47,286 L23,286 L23,310 L47,310 L47,286 Z M72,286 L48,286 L48,310 L72,310 L72,286 Z M97,286 L73,286 L73,310 L97,310 L97,286 Z M122,286 L98,286 L98,310 L122,310 L122,286 Z M147,286 L123,286 L123,310 L147,310 L147,286 Z M172,286 L148,286 L148,310 L172,310 L172,286 Z M197,286 L173,286 L173,310 L197,310 L197,286 Z M222,286 L198,286 L198,310 L222,310 L222,286 Z M247,286 L223,286 L223,310 L247,310 L247,286 Z M272,286 L248,286 L248,310 L272,310 L272,286 Z M297,286 L273,286 L273,310 L297,310 L297,286 Z M322,286 L298,286 L298,310 L322,310 L322,286 Z M347,286 L323,286 L323,310 L347,310 L347,286 Z M372,286 L348,286 L348,310 L372,310 L372,286 Z M397,286 L373,286 L373,310 L397,310 L397,286 Z M422,286 L398,286 L398,310 L422,310 L422,286 Z M447,286 L423,286 L423,310 L447,310 L447,286 Z M472,286 L448,286 L448,310 L472,310 L472,286 Z M497,286 L473,286 L473,310 L497,310 L497,286 Z M522,286 L498,286 L498,310 L522,310 L522,286 Z M547,286 L523,286 L523,310 L547,310 L547,286 Z M572,286 L548,286 L548,310 L572,310 L572,286 Z M597,286 L573,286 L573,310 L597,310 L597,286 Z M622,286 L598,286 L598,310 L622,310 L622,286 Z M647,286 L623,286 L623,310 L647,310 L647,286 Z M672,286 L648,286 L648,310 L672,310 L672,286 Z M697,286 L673,286 L673,310 L697,310 L697,286 Z M722,286 L698,286 L698,310 L722,310 L722,286 Z M747,286 L723,286 L723,310 L747,310 L747,286 Z M772,286 L748,286 L748,310 L772,310 L772,286 Z M797,286 L773,286 L773,310 L797,310 L797,286 Z M822,286 L798,286 L798,310 L822,310 L822,286 Z M847,286 L823,286 L823,310 L847,310 L847,286 Z M872,286 L848,286 L848,310 L872,310 L872,286 Z M897,286 L873,286 L873,310 L897,310 L897,286 Z M922,286 L898,286 L898,310 L922,310 L922,286 Z M947,286 L923,286 L923,310 L947,310 L947,286 Z M972,286 L948,286 L948,310 L972,310 L972,286 Z M997,286 L973,286 L973,310 L997,310 L997,286 Z M1022,286 L998,286 L998,310 L1022,310 L1022,286 Z M1047,286 L1023,286 L1023,310 L1047,310 L1047,286 Z M1072,286 L1048,286 L1048,310 L1072,310 L1072,286 Z M1097,286 L1073,286 L1073,310 L1097,310 L1097,286 Z M1122,286 L1098,286 L1098,310 L1122,310 L1122,286 Z M47,261 L23,261 L23,285 L47,285 L47,261 Z M72,261 L48,261 L48,285 L72,285 L72,261 Z M97,261 L73,261 L73,285 L97,285 L97,261 Z M122,261 L98,261 L98,285 L122,285 L122,261 Z M147,261 L123,261 L123,285 L147,285 L147,261 Z M172,261 L148,261 L148,285 L172,285 L172,261 Z M197,261 L173,261 L173,285 L197,285 L197,261 Z M222,261 L198,261 L198,285 L222,285 L222,261 Z M247,261 L223,261 L223,285 L247,285 L247,261 Z M272,261 L248,261 L248,285 L272,285 L272,261 Z M297,261 L273,261 L273,285 L297,285 L297,261 Z M322,261 L298,261 L298,285 L322,285 L322,261 Z M347,261 L323,261 L323,285 L347,285 L347,261 Z M372,261 L348,261 L348,285 L372,285 L372,261 Z M397,261 L373,261 L373,285 L397,285 L397,261 Z M422,261 L398,261 L398,285 L422,285 L422,261 Z M447,261 L423,261 L423,285 L447,285 L447,261 Z M472,261 L448,261 L448,285 L472,285 L472,261 Z M497,261 L473,261 L473,285 L497,285 L497,261 Z M522,261 L498,261 L498,285 L522,285 L522,261 Z M547,261 L523,261 L523,285 L547,285 L547,261 Z M572,261 L548,261 L548,285 L572,285 L572,261 Z M597,261 L573,261 L573,285 L597,285 L597,261 Z M622,261 L598,261 L598,285 L622,285 L622,261 Z M647,261 L623,261 L623,285 L647,285 L647,261 Z M672,261 L648,261 L648,285 L672,285 L672,261 Z M697,261 L673,261 L673,285 L697,285 L697,261 Z M722,261 L698,261 L698,285 L722,285 L722,261 Z M747,261 L723,261 L723,285 L747,285 L747,261 Z M772,261 L748,261 L748,285 L772,285 L772,261 Z M797,261 L773,261 L773,285 L797,285 L797,261 Z M822,261 L798,261 L798,285 L822,285 L822,261 Z M847,261 L823,261 L823,285 L847,285 L847,261 Z M872,261 L848,261 L848,285 L872,285 L872,261 Z M897,261 L873,261 L873,285 L897,285 L897,261 Z M922,261 L898,261 L898,285 L922,285 L922,261 Z M947,261 L923,261 L923,285 L947,285 L947,261 Z M972,261 L948,261 L948,285 L972,285 L972,261 Z M997,261 L973,261 L973,285 L997,285 L997,261 Z M1022,261 L998,261 L998,285 L1022,285 L1022,261 Z M1047,261 L1023,261 L1023,285 L1047,285 L1047,261 Z M1072,261 L1048,261 L1048,285 L1072,285 L1072,261 Z M1097,261 L1073,261 L1073,285 L1097,285 L1097,261 Z M1122,261 L1098,261 L1098,285 L1122,285 L1122,261 Z M47,236 L23,236 L23,260 L47,260 L47,236 Z M72,236 L48,236 L48,260 L72,260 L72,236 Z M97,236 L73,236 L73,260 L97,260 L97,236 Z M122,236 L98,236 L98,260 L122,260 L122,236 Z M147,236 L123,236 L123,260 L147,260 L147,236 Z M172,236 L148,236 L148,260 L172,260 L172,236 Z M197,236 L173,236 L173,260 L197,260 L197,236 Z M222,236 L198,236 L198,260 L222,260 L222,236 Z M247,236 L223,236 L223,260 L247,260 L247,236 Z M272,236 L248,236 L248,260 L272,260 L272,236 Z M297,236 L273,236 L273,260 L297,260 L297,236 Z M322,236 L298,236 L298,260 L322,260 L322,236 Z M347,236 L323,236 L323,260 L347,260 L347,236 Z M372,236 L348,236 L348,260 L372,260 L372,236 Z M397,236 L373,236 L373,260 L397,260 L397,236 Z M422,236 L398,236 L398,260 L422,260 L422,236 Z M447,236 L423,236 L423,260 L447,260 L447,236 Z M472,236 L448,236 L448,260 L472,260 L472,236 Z M497,236 L473,236 L473,260 L497,260 L497,236 Z M522,236 L498,236 L498,260 L522,260 L522,236 Z M547,236 L523,236 L523,260 L547,260 L547,236 Z M572,236 L548,236 L548,260 L572,260 L572,236 Z M597,236 L573,236 L573,260 L597,260 L597,236 Z M622,236 L598,236 L598,260 L622,260 L622,236 Z M647,236 L623,236 L623,260 L647,260 L647,236 Z M672,236 L648,236 L648,260 L672,260 L672,236 Z M697,236 L673,236 L673,260 L697,260 L697,236 Z M722,236 L698,236 L698,260 L722,260 L722,236 Z M747,236 L723,236 L723,260 L747,260 L747,236 Z M772,236 L748,236 L748,260 L772,260 L772,236 Z M797,236 L773,236 L773,260 L797,260 L797,236 Z M822,236 L798,236 L798,260 L822,260 L822,236 Z M847,236 L823,236 L823,260 L847,260 L847,236 Z M872,236 L848,236 L848,260 L872,260 L872,236 Z M897,236 L873,236 L873,260 L897,260 L897,236 Z M922,236 L898,236 L898,260 L922,260 L922,236 Z M947,236 L923,236 L923,260 L947,260 L947,236 Z M972,236 L948,236 L948,260 L972,260 L972,236 Z M997,236 L973,236 L973,260 L997,260 L997,236 Z M1022,236 L998,236 L998,260 L1022,260 L1022,236 Z M1047,236 L1023,236 L1023,260 L1047,260 L1047,236 Z M1072,236 L1048,236 L1048,260 L1072,260 L1072,236 Z M1097,236 L1073,236 L1073,260 L1097,260 L1097,236 Z M1122,236 L1098,236 L1098,260 L1122,260 L1122,236 Z M47,211 L23,211 L23,235 L47,235 L47,211 Z M72,211 L48,211 L48,235 L72,235 L72,211 Z M97,211 L73,211 L73,235 L97,235 L97,211 Z M122,211 L98,211 L98,235 L122,235 L122,211 Z M147,211 L123,211 L123,235 L147,235 L147,211 Z M172,211 L148,211 L148,235 L172,235 L172,211 Z M197,211 L173,211 L173,235 L197,235 L197,211 Z M222,211 L198,211 L198,235 L222,235 L222,211 Z M247,211 L223,211 L223,235 L247,235 L247,211 Z M272,211 L248,211 L248,235 L272,235 L272,211 Z M297,211 L273,211 L273,235 L297,235 L297,211 Z M322,211 L298,211 L298,235 L322,235 L322,211 Z M347,211 L323,211 L323,235 L347,235 L347,211 Z M372,211 L348,211 L348,235 L372,235 L372,211 Z M397,211 L373,211 L373,235 L397,235 L397,211 Z M422,211 L398,211 L398,235 L422,235 L422,211 Z M447,211 L423,211 L423,235 L447,235 L447,211 Z M472,211 L448,211 L448,235 L472,235 L472,211 Z M497,211 L473,211 L473,235 L497,235 L497,211 Z M522,211 L498,211 L498,235 L522,235 L522,211 Z M547,211 L523,211 L523,235 L547,235 L547,211 Z M572,211 L548,211 L548,235 L572,235 L572,211 Z M597,211 L573,211 L573,235 L597,235 L597,211 Z M622,211 L598,211 L598,235 L622,235 L622,211 Z M647,211 L623,211 L623,235 L647,235 L647,211 Z M672,211 L648,211 L648,235 L672,235 L672,211 Z M697,211 L673,211 L673,235 L697,235 L697,211 Z M722,211 L698,211 L698,235 L722,235 L722,211 Z M747,211 L723,211 L723,235 L747,235 L747,211 Z M772,211 L748,211 L748,235 L772,235 L772,211 Z M797,211 L773,211 L773,235 L797,235 L797,211 Z M822,211 L798,211 L798,235 L822,235 L822,211 Z M847,211 L823,211 L823,235 L847,235 L847,211 Z M872,211 L848,211 L848,235 L872,235 L872,211 Z M897,211 L873,211 L873,235 L897,235 L897,211 Z M922,211 L898,211 L898,235 L922,235 L922,211 Z M947,211 L923,211 L923,235 L947,235 L947,211 Z M972,211 L948,211 L948,235 L972,235 L972,211 Z M997,211 L973,211 L973,235 L997,235 L997,211 Z M1022,211 L998,211 L998,235 L1022,235 L1022,211 Z M1047,211 L1023,211 L1023,235 L1047,235 L1047,211 Z M1072,211 L1048,211 L1048,235 L1072,235 L1072,211 Z M1097,211 L1073,211 L1073,235 L1097,235 L1097,211 Z M1122,211 L1098,211 L1098,235 L1122,235 L1122,211 Z M47,186 L23,186 L23,210 L47,210 L47,186 Z M72,186 L48,186 L48,210 L72,210 L72,186 Z M97,186 L73,186 L73,210 L97,210 L97,186 Z M122,186 L98,186 L98,210 L122,210 L122,186 Z M147,186 L123,186 L123,210 L147,210 L147,186 Z M172,186 L148,186 L148,210 L172,210 L172,186 Z M197,186 L173,186 L173,210 L197,210 L197,186 Z M222,186 L198,186 L198,210 L222,210 L222,186 Z M247,186 L223,186 L223,210 L247,210 L247,186 Z M272,186 L248,186 L248,210 L272,210 L272,186 Z M297,186 L273,186 L273,210 L297,210 L297,186 Z M322,186 L298,186 L298,210 L322,210 L322,186 Z M347,186 L323,186 L323,210 L347,210 L347,186 Z M372,186 L348,186 L348,210 L372,210 L372,186 Z M397,186 L373,186 L373,210 L397,210 L397,186 Z M422,186 L398,186 L398,210 L422,210 L422,186 Z M447,186 L423,186 L423,210 L447,210 L447,186 Z M472,186 L448,186 L448,210 L472,210 L472,186 Z M497,186 L473,186 L473,210 L497,210 L497,186 Z M522,186 L498,186 L498,210 L522,210 L522,186 Z M547,186 L523,186 L523,210 L547,210 L547,186 Z M572,186 L548,186 L548,210 L572,210 L572,186 Z M597,186 L573,186 L573,210 L597,210 L597,186 Z M622,186 L598,186 L598,210 L622,210 L622,186 Z M647,186 L623,186 L623,210 L647,210 L647,186 Z M672,186 L648,186 L648,210 L672,210 L672,186 Z M697,186 L673,186 L673,210 L697,210 L697,186 Z M722,186 L698,186 L698,210 L722,210 L722,186 Z M747,186 L723,186 L723,210 L747,210 L747,186 Z M772,186 L748,186 L748,210 L772,210 L772,186 Z M797,186 L773,186 L773,210 L797,210 L797,186 Z M822,186 L798,186 L798,210 L822,210 L822,186 Z M847,186 L823,186 L823,210 L847,210 L847,186 Z M872,186 L848,186 L848,210 L872,210 L872,186 Z M897,186 L873,186 L873,210 L897,210 L897,186 Z M922,186 L898,186 L898,210 L922,210 L922,186 Z M947,186 L923,186 L923,210 L947,210 L947,186 Z M972,186 L948,186 L948,210 L972,210 L972,186 Z M997,186 L973,186 L973,210 L997,210 L997,186 Z M1022,186 L998,186 L998,210 L1022,210 L1022,186 Z M1047,186 L1023,186 L1023,210 L1047,210 L1047,186 Z M1072,186 L1048,186 L1048,210 L1072,210 L1072,186 Z M1097,186 L1073,186 L1073,210 L1097,210 L1097,186 Z M1122,186 L1098,186 L1098,210 L1122,210 L1122,186 Z M47,161 L23,161 L23,185 L47,185 L47,161 Z M72,161 L48,161 L48,185 L72,185 L72,161 Z M97,161 L73,161 L73,185 L97,185 L97,161 Z M122,161 L98,161 L98,185 L122,185 L122,161 Z M147,161 L123,161 L123,185 L147,185 L147,161 Z M172,161 L148,161 L148,185 L172,185 L172,161 Z M197,161 L173,161 L173,185 L197,185 L197,161 Z M222,161 L198,161 L198,185 L222,185 L222,161 Z M247,161 L223,161 L223,185 L247,185 L247,161 Z M272,161 L248,161 L248,185 L272,185 L272,161 Z M297,161 L273,161 L273,185 L297,185 L297,161 Z M322,161 L298,161 L298,185 L322,185 L322,161 Z M347,161 L323,161 L323,185 L347,185 L347,161 Z M372,161 L348,161 L348,185 L372,185 L372,161 Z M397,161 L373,161 L373,185 L397,185 L397,161 Z M422,161 L398,161 L398,185 L422,185 L422,161 Z M447,161 L423,161 L423,185 L447,185 L447,161 Z M472,161 L448,161 L448,185 L472,185 L472,161 Z M497,161 L473,161 L473,185 L497,185 L497,161 Z M522,161 L498,161 L498,185 L522,185 L522,161 Z M547,161 L523,161 L523,185 L547,185 L547,161 Z M572,161 L548,161 L548,185 L572,185 L572,161 Z M597,161 L573,161 L573,185 L597,185 L597,161 Z M622,161 L598,161 L598,185 L622,185 L622,161 Z M647,161 L623,161 L623,185 L647,185 L647,161 Z M672,161 L648,161 L648,185 L672,185 L672,161 Z M697,161 L673,161 L673,185 L697,185 L697,161 Z M722,161 L698,161 L698,185 L722,185 L722,161 Z M747,161 L723,161 L723,185 L747,185 L747,161 Z M772,161 L748,161 L748,185 L772,185 L772,161 Z M797,161 L773,161 L773,185 L797,185 L797,161 Z M822,161 L798,161 L798,185 L822,185 L822,161 Z M847,161 L823,161 L823,185 L847,185 L847,161 Z M872,161 L848,161 L848,185 L872,185 L872,161 Z M897,161 L873,161 L873,185 L897,185 L897,161 Z M922,161 L898,161 L898,185 L922,185 L922,161 Z M947,161 L923,161 L923,185 L947,185 L947,161 Z M972,161 L948,161 L948,185 L972,185 L972,161 Z M997,161 L973,161 L973,185 L997,185 L997,161 Z M1022,161 L998,161 L998,185 L1022,185 L1022,161 Z M1047,161 L1023,161 L1023,185 L1047,185 L1047,161 Z M1072,161 L1048,161 L1048,185 L1072,185 L1072,161 Z M1097,161 L1073,161 L1073,185 L1097,185 L1097,161 Z M1122,161 L1098,161 L1098,185 L1122,185 L1122,161 Z M47,136 L23,136 L23,160 L47,160 L47,136 Z M72,136 L48,136 L48,160 L72,160 L72,136 Z M97,136 L73,136 L73,160 L97,160 L97,136 Z M122,136 L98,136 L98,160 L122,160 L122,136 Z M147,136 L123,136 L123,160 L147,160 L147,136 Z M172,136 L148,136 L148,160 L172,160 L172,136 Z M197,136 L173,136 L173,160 L197,160 L197,136 Z M222,136 L198,136 L198,160 L222,160 L222,136 Z M247,136 L223,136 L223,160 L247,160 L247,136 Z M272,136 L248,136 L248,160 L272,160 L272,136 Z M297,136 L273,136 L273,160 L297,160 L297,136 Z M322,136 L298,136 L298,160 L322,160 L322,136 Z M347,136 L323,136 L323,160 L347,160 L347,136 Z M372,136 L348,136 L348,160 L372,160 L372,136 Z M397,136 L373,136 L373,160 L397,160 L397,136 Z M422,136 L398,136 L398,160 L422,160 L422,136 Z M447,136 L423,136 L423,160 L447,160 L447,136 Z M472,136 L448,136 L448,160 L472,160 L472,136 Z M497,136 L473,136 L473,160 L497,160 L497,136 Z M522,136 L498,136 L498,160 L522,160 L522,136 Z M547,136 L523,136 L523,160 L547,160 L547,136 Z M572,136 L548,136 L548,160 L572,160 L572,136 Z M597,136 L573,136 L573,160 L597,160 L597,136 Z M622,136 L598,136 L598,160 L622,160 L622,136 Z M647,136 L623,136 L623,160 L647,160 L647,136 Z M672,136 L648,136 L648,160 L672,160 L672,136 Z M697,136 L673,136 L673,160 L697,160 L697,136 Z M722,136 L698,136 L698,160 L722,160 L722,136 Z M747,136 L723,136 L723,160 L747,160 L747,136 Z M772,136 L748,136 L748,160 L772,160 L772,136 Z M797,136 L773,136 L773,160 L797,160 L797,136 Z M822,136 L798,136 L798,160 L822,160 L822,136 Z M847,136 L823,136 L823,160 L847,160 L847,136 Z M872,136 L848,136 L848,160 L872,160 L872,136 Z M897,136 L873,136 L873,160 L897,160 L897,136 Z M922,136 L898,136 L898,160 L922,160 L922,136 Z M947,136 L923,136 L923,160 L947,160 L947,136 Z M972,136 L948,136 L948,160 L972,160 L972,136 Z M997,136 L973,136 L973,160 L997,160 L997,136 Z M1022,136 L998,136 L998,160 L1022,160 L1022,136 Z M1047,136 L1023,136 L1023,160 L1047,160 L1047,136 Z M1072,136 L1048,136 L1048,160 L1072,160 L1072,136 Z M1097,136 L1073,136 L1073,160 L1097,160 L1097,136 Z M1122,136 L1098,136 L1098,160 L1122,160 L1122,136 Z M47,111 L23,111 L23,135 L47,135 L47,111 Z M72,111 L48,111 L48,135 L72,135 L72,111 Z M97,111 L73,111 L73,135 L97,135 L97,111 Z M122,111 L98,111 L98,135 L122,135 L122,111 Z M147,111 L123,111 L123,135 L147,135 L147,111 Z M172,111 L148,111 L148,135 L172,135 L172,111 Z M197,111 L173,111 L173,135 L197,135 L197,111 Z M222,111 L198,111 L198,135 L222,135 L222,111 Z M247,111 L223,111 L223,135 L247,135 L247,111 Z M272,111 L248,111 L248,135 L272,135 L272,111 Z M297,111 L273,111 L273,135 L297,135 L297,111 Z M322,111 L298,111 L298,135 L322,135 L322,111 Z M347,111 L323,111 L323,135 L347,135 L347,111 Z M372,111 L348,111 L348,135 L372,135 L372,111 Z M397,111 L373,111 L373,135 L397,135 L397,111 Z M422,111 L398,111 L398,135 L422,135 L422,111 Z M447,111 L423,111 L423,135 L447,135 L447,111 Z M472,111 L448,111 L448,135 L472,135 L472,111 Z M497,111 L473,111 L473,135 L497,135 L497,111 Z M522,111 L498,111 L498,135 L522,135 L522,111 Z M547,111 L523,111 L523,135 L547,135 L547,111 Z M572,111 L548,111 L548,135 L572,135 L572,111 Z M597,111 L573,111 L573,135 L597,135 L597,111 Z M622,111 L598,111 L598,135 L622,135 L622,111 Z M647,111 L623,111 L623,135 L647,135 L647,111 Z M672,111 L648,111 L648,135 L672,135 L672,111 Z M697,111 L673,111 L673,135 L697,135 L697,111 Z M722,111 L698,111 L698,135 L722,135 L722,111 Z M747,111 L723,111 L723,135 L747,135 L747,111 Z M772,111 L748,111 L748,135 L772,135 L772,111 Z M797,111 L773,111 L773,135 L797,135 L797,111 Z M822,111 L798,111 L798,135 L822,135 L822,111 Z M847,111 L823,111 L823,135 L847,135 L847,111 Z M872,111 L848,111 L848,135 L872,135 L872,111 Z M897,111 L873,111 L873,135 L897,135 L897,111 Z M922,111 L898,111 L898,135 L922,135 L922,111 Z M947,111 L923,111 L923,135 L947,135 L947,111 Z M972,111 L948,111 L948,135 L972,135 L972,111 Z M997,111 L973,111 L973,135 L997,135 L997,111 Z M1022,111 L998,111 L998,135 L1022,135 L1022,111 Z M1047,111 L1023,111 L1023,135 L1047,135 L1047,111 Z M1072,111 L1048,111 L1048,135 L1072,135 L1072,111 Z M1097,111 L1073,111 L1073,135 L1097,135 L1097,111 Z M1122,111 L1098,111 L1098,135 L1122,135 L1122,111 Z M47,86 L23,86 L23,110 L47,110 L47,86 Z M72,86 L48,86 L48,110 L72,110 L72,86 Z M97,86 L73,86 L73,110 L97,110 L97,86 Z M122,86 L98,86 L98,110 L122,110 L122,86 Z M147,86 L123,86 L123,110 L147,110 L147,86 Z M172,86 L148,86 L148,110 L172,110 L172,86 Z M197,86 L173,86 L173,110 L197,110 L197,86 Z M222,86 L198,86 L198,110 L222,110 L222,86 Z M247,86 L223,86 L223,110 L247,110 L247,86 Z M272,86 L248,86 L248,110 L272,110 L272,86 Z M297,86 L273,86 L273,110 L297,110 L297,86 Z M322,86 L298,86 L298,110 L322,110 L322,86 Z M347,86 L323,86 L323,110 L347,110 L347,86 Z M372,86 L348,86 L348,110 L372,110 L372,86 Z M397,86 L373,86 L373,110 L397,110 L397,86 Z M422,86 L398,86 L398,110 L422,110 L422,86 Z M447,86 L423,86 L423,110 L447,110 L447,86 Z M472,86 L448,86 L448,110 L472,110 L472,86 Z M497,86 L473,86 L473,110 L497,110 L497,86 Z M522,86 L498,86 L498,110 L522,110 L522,86 Z M547,86 L523,86 L523,110 L547,110 L547,86 Z M572,86 L548,86 L548,110 L572,110 L572,86 Z M597,86 L573,86 L573,110 L597,110 L597,86 Z M622,86 L598,86 L598,110 L622,110 L622,86 Z M647,86 L623,86 L623,110 L647,110 L647,86 Z M672,86 L648,86 L648,110 L672,110 L672,86 Z M697,86 L673,86 L673,110 L697,110 L697,86 Z M722,86 L698,86 L698,110 L722,110 L722,86 Z M747,86 L723,86 L723,110 L747,110 L747,86 Z M772,86 L748,86 L748,110 L772,110 L772,86 Z M797,86 L773,86 L773,110 L797,110 L797,86 Z M822,86 L798,86 L798,110 L822,110 L822,86 Z M847,86 L823,86 L823,110 L847,110 L847,86 Z M872,86 L848,86 L848,110 L872,110 L872,86 Z M897,86 L873,86 L873,110 L897,110 L897,86 Z M922,86 L898,86 L898,110 L922,110 L922,86 Z M947,86 L923,86 L923,110 L947,110 L947,86 Z M972,86 L948,86 L948,110 L972,110 L972,86 Z M997,86 L973,86 L973,110 L997,110 L997,86 Z M1022,86 L998,86 L998,110 L1022,110 L1022,86 Z M1047,86 L1023,86 L1023,110 L1047,110 L1047,86 Z M1072,86 L1048,86 L1048,110 L1072,110 L1072,86 Z M1097,86 L1073,86 L1073,110 L1097,110 L1097,86 Z M1122,86 L1098,86 L1098,110 L1122,110 L1122,86 Z M47,61 L23,61 L23,85 L47,85 L47,61 Z M72,61 L48,61 L48,85 L72,85 L72,61 Z M97,61 L73,61 L73,85 L97,85 L97,61 Z M122,61 L98,61 L98,85 L122,85 L122,61 Z M147,61 L123,61 L123,85 L147,85 L147,61 Z M172,61 L148,61 L148,85 L172,85 L172,61 Z M197,61 L173,61 L173,85 L197,85 L197,61 Z M222,61 L198,61 L198,85 L222,85 L222,61 Z M247,61 L223,61 L223,85 L247,85 L247,61 Z M272,61 L248,61 L248,85 L272,85 L272,61 Z M297,61 L273,61 L273,85 L297,85 L297,61 Z M322,61 L298,61 L298,85 L322,85 L322,61 Z M347,61 L323,61 L323,85 L347,85 L347,61 Z M372,61 L348,61 L348,85 L372,85 L372,61 Z M397,61 L373,61 L373,85 L397,85 L397,61 Z M422,61 L398,61 L398,85 L422,85 L422,61 Z M447,61 L423,61 L423,85 L447,85 L447,61 Z M472,61 L448,61 L448,85 L472,85 L472,61 Z M497,61 L473,61 L473,85 L497,85 L497,61 Z M522,61 L498,61 L498,85 L522,85 L522,61 Z M547,61 L523,61 L523,85 L547,85 L547,61 Z M572,61 L548,61 L548,85 L572,85 L572,61 Z M597,61 L573,61 L573,85 L597,85 L597,61 Z M622,61 L598,61 L598,85 L622,85 L622,61 Z M647,61 L623,61 L623,85 L647,85 L647,61 Z M672,61 L648,61 L648,85 L672,85 L672,61 Z M697,61 L673,61 L673,85 L697,85 L697,61 Z M722,61 L698,61 L698,85 L722,85 L722,61 Z M747,61 L723,61 L723,85 L747,85 L747,61 Z M772,61 L748,61 L748,85 L772,85 L772,61 Z M797,61 L773,61 L773,85 L797,85 L797,61 Z M822,61 L798,61 L798,85 L822,85 L822,61 Z M847,61 L823,61 L823,85 L847,85 L847,61 Z M872,61 L848,61 L848,85 L872,85 L872,61 Z M897,61 L873,61 L873,85 L897,85 L897,61 Z M922,61 L898,61 L898,85 L922,85 L922,61 Z M947,61 L923,61 L923,85 L947,85 L947,61 Z M972,61 L948,61 L948,85 L972,85 L972,61 Z M997,61 L973,61 L973,85 L997,85 L997,61 Z M1022,61 L998,61 L998,85 L1022,85 L1022,61 Z M1047,61 L1023,61 L1023,85 L1047,85 L1047,61 Z M1072,61 L1048,61 L1048,85 L1072,85 L1072,61 Z M1097,61 L1073,61 L1073,85 L1097,85 L1097,61 Z M1122,61 L1098,61 L1098,85 L1122,85 L1122,61 Z M47,36 L23,36 L23,60 L47,60 L47,36 Z M72,36 L48,36 L48,60 L72,60 L72,36 Z M97,36 L73,36 L73,60 L97,60 L97,36 Z M122,36 L98,36 L98,60 L122,60 L122,36 Z M147,36 L123,36 L123,60 L147,60 L147,36 Z M172,36 L148,36 L148,60 L172,60 L172,36 Z M197,36 L173,36 L173,60 L197,60 L197,36 Z M222,36 L198,36 L198,60 L222,60 L222,36 Z M247,36 L223,36 L223,60 L247,60 L247,36 Z M272,36 L248,36 L248,60 L272,60 L272,36 Z M297,36 L273,36 L273,60 L297,60 L297,36 Z M322,36 L298,36 L298,60 L322,60 L322,36 Z M347,36 L323,36 L323,60 L347,60 L347,36 Z M372,36 L348,36 L348,60 L372,60 L372,36 Z M397,36 L373,36 L373,60 L397,60 L397,36 Z M422,36 L398,36 L398,60 L422,60 L422,36 Z M447,36 L423,36 L423,60 L447,60 L447,36 Z M472,36 L448,36 L448,60 L472,60 L472,36 Z M497,36 L473,36 L473,60 L497,60 L497,36 Z M522,36 L498,36 L498,60 L522,60 L522,36 Z M547,36 L523,36 L523,60 L547,60 L547,36 Z M572,36 L548,36 L548,60 L572,60 L572,36 Z M597,36 L573,36 L573,60 L597,60 L597,36 Z M622,36 L598,36 L598,60 L622,60 L622,36 Z M647,36 L623,36 L623,60 L647,60 L647,36 Z M672,36 L648,36 L648,60 L672,60 L672,36 Z M697,36 L673,36 L673,60 L697,60 L697,36 Z M722,36 L698,36 L698,60 L722,60 L722,36 Z M747,36 L723,36 L723,60 L747,60 L747,36 Z M772,36 L748,36 L748,60 L772,60 L772,36 Z M797,36 L773,36 L773,60 L797,60 L797,36 Z M822,36 L798,36 L798,60 L822,60 L822,36 Z M847,36 L823,36 L823,60 L847,60 L847,36 Z M872,36 L848,36 L848,60 L872,60 L872,36 Z M897,36 L873,36 L873,60 L897,60 L897,36 Z M922,36 L898,36 L898,60 L922,60 L922,36 Z M947,36 L923,36 L923,60 L947,60 L947,36 Z M972,36 L948,36 L948,60 L972,60 L972,36 Z M997,36 L973,36 L973,60 L997,60 L997,36 Z M1022,36 L998,36 L998,60 L1022,60 L1022,36 Z M1047,36 L1023,36 L1023,60 L1047,60 L1047,36 Z M1072,36 L1048,36 L1048,60 L1072,60 L1072,36 Z M1097,36 L1073,36 L1073,60 L1097,60 L1097,36 Z M1122,36 L1098,36 L1098,60 L1122,60 L1122,36 Z M47,11 L23,11 L23,35 L47,35 L47,11 Z M72,11 L48,11 L48,35 L72,35 L72,11 Z M97,11 L73,11 L73,35 L97,35 L97,11 Z M122,11 L98,11 L98,35 L122,35 L122,11 Z M147,11 L123,11 L123,35 L147,35 L147,11 Z M172,11 L148,11 L148,35 L172,35 L172,11 Z M197,11 L173,11 L173,35 L197,35 L197,11 Z M222,11 L198,11 L198,35 L222,35 L222,11 Z M247,11 L223,11 L223,35 L247,35 L247,11 Z M272,11 L248,11 L248,35 L272,35 L272,11 Z M297,11 L273,11 L273,35 L297,35 L297,11 Z M322,11 L298,11 L298,35 L322,35 L322,11 Z M347,11 L323,11 L323,35 L347,35 L347,11 Z M372,11 L348,11 L348,35 L372,35 L372,11 Z M397,11 L373,11 L373,35 L397,35 L397,11 Z M422,11 L398,11 L398,35 L422,35 L422,11 Z M447,11 L423,11 L423,35 L447,35 L447,11 Z M472,11 L448,11 L448,35 L472,35 L472,11 Z M497,11 L473,11 L473,35 L497,35 L497,11 Z M522,11 L498,11 L498,35 L522,35 L522,11 Z M547,11 L523,11 L523,35 L547,35 L547,11 Z M572,11 L548,11 L548,35 L572,35 L572,11 Z M597,11 L573,11 L573,35 L597,35 L597,11 Z M622,11 L598,11 L598,35 L622,35 L622,11 Z M647,11 L623,11 L623,35 L647,35 L647,11 Z M672,11 L648,11 L648,35 L672,35 L672,11 Z M697,11 L673,11 L673,35 L697,35 L697,11 Z M722,11 L698,11 L698,35 L722,35 L722,11 Z M747,11 L723,11 L723,35 L747,35 L747,11 Z M772,11 L748,11 L748,35 L772,35 L772,11 Z M797,11 L773,11 L773,35 L797,35 L797,11 Z M822,11 L798,11 L798,35 L822,35 L822,11 Z M847,11 L823,11 L823,35 L847,35 L847,11 Z M872,11 L848,11 L848,35 L872,35 L872,11 Z M897,11 L873,11 L873,35 L897,35 L897,11 Z M922,11 L898,11 L898,35 L922,35 L922,11 Z M947,11 L923,11 L923,35 L947,35 L947,11 Z M972,11 L948,11 L948,35 L972,35 L972,11 Z M997,11 L973,11 L973,35 L997,35 L997,11 Z M1022,11 L998,11 L998,35 L1022,35 L1022,11 Z M1047,11 L1023,11 L1023,35 L1047,35 L1047,11 Z M1072,11 L1048,11 L1048,35 L1072,35 L1072,11 Z M1097,11 L1073,11 L1073,35 L1097,35 L1097,11 Z M1122,11 L1098,11 L1098,35 L1122,35 L1122,11 Z M47,-14 L23,-14 L23,10 L47,10 L47,-14 Z M72,-14 L48,-14 L48,10 L72,10 L72,-14 Z M97,-14 L73,-14 L73,10 L97,10 L97,-14 Z M122,-14 L98,-14 L98,10 L122,10 L122,-14 Z M147,-14 L123,-14 L123,10 L147,10 L147,-14 Z M172,-14 L148,-14 L148,10 L172,10 L172,-14 Z M197,-14 L173,-14 L173,10 L197,10 L197,-14 Z M222,-14 L198,-14 L198,10 L222,10 L222,-14 Z M247,-14 L223,-14 L223,10 L247,10 L247,-14 Z M272,-14 L248,-14 L248,10 L272,10 L272,-14 Z M297,-14 L273,-14 L273,10 L297,10 L297,-14 Z M322,-14 L298,-14 L298,10 L322,10 L322,-14 Z M347,-14 L323,-14 L323,10 L347,10 L347,-14 Z M372,-14 L348,-14 L348,10 L372,10 L372,-14 Z M397,-14 L373,-14 L373,10 L397,10 L397,-14 Z M422,-14 L398,-14 L398,10 L422,10 L422,-14 Z M447,-14 L423,-14 L423,10 L447,10 L447,-14 Z M472,-14 L448,-14 L448,10 L472,10 L472,-14 Z M497,-14 L473,-14 L473,10 L497,10 L497,-14 Z M522,-14 L498,-14 L498,10 L522,10 L522,-14 Z M547,-14 L523,-14 L523,10 L547,10 L547,-14 Z M572,-14 L548,-14 L548,10 L572,10 L572,-14 Z M597,-14 L573,-14 L573,10 L597,10 L597,-14 Z M622,-14 L598,-14 L598,10 L622,10 L622,-14 Z M647,-14 L623,-14 L623,10 L647,10 L647,-14 Z M672,-14 L648,-14 L648,10 L672,10 L672,-14 Z M697,-14 L673,-14 L673,10 L697,10 L697,-14 Z M722,-14 L698,-14 L698,10 L722,10 L722,-14 Z M747,-14 L723,-14 L723,10 L747,10 L747,-14 Z M772,-14 L748,-14 L748,10 L772,10 L772,-14 Z M797,-14 L773,-14 L773,10 L797,10 L797,-14 Z M822,-14 L798,-14 L798,10 L822,10 L822,-14 Z M847,-14 L823,-14 L823,10 L847,10 L847,-14 Z M872,-14 L848,-14 L848,10 L872,10 L872,-14 Z M897,-14 L873,-14 L873,10 L897,10 L897,-14 Z M922,-14 L898,-14 L898,10 L922,10 L922,-14 Z M947,-14 L923,-14 L923,10 L947,10 L947,-14 Z M972,-14 L948,-14 L948,10 L972,10 L972,-14 Z M997,-14 L973,-14 L973,10 L997,10 L997,-14 Z M1022,-14 L998,-14 L998,10 L1022,10 L1022,-14 Z M1047,-14 L1023,-14 L1023,10 L1047,10 L1047,-14 Z M1072,-14 L1048,-14 L1048,10 L1072,10 L1072,-14 Z M1097,-14 L1073,-14 L1073,10 L1097,10 L1097,-14 Z M1122,-14 L1098,-14 L1098,10 L1122,10 L1122,-14 Z M47,-39 L23,-39 L23,-15 L47,-15 L47,-39 Z M72,-39 L48,-39 L48,-15 L72,-15 L72,-39 Z M97,-39 L73,-39 L73,-15 L97,-15 L97,-39 Z M122,-39 L98,-39 L98,-15 L122,-15 L122,-39 Z M147,-39 L123,-39 L123,-15 L147,-15 L147,-39 Z M172,-39 L148,-39 L148,-15 L172,-15 L172,-39 Z M197,-39 L173,-39 L173,-15 L197,-15 L197,-39 Z M222,-39 L198,-39 L198,-15 L222,-15 L222,-39 Z M247,-39 L223,-39 L223,-15 L247,-15 L247,-39 Z M272,-39 L248,-39 L248,-15 L272,-15 L272,-39 Z M297,-39 L273,-39 L273,-15 L297,-15 L297,-39 Z M322,-39 L298,-39 L298,-15 L322,-15 L322,-39 Z M347,-39 L323,-39 L323,-15 L347,-15 L347,-39 Z M372,-39 L348,-39 L348,-15 L372,-15 L372,-39 Z M397,-39 L373,-39 L373,-15 L397,-15 L397,-39 Z M422,-39 L398,-39 L398,-15 L422,-15 L422,-39 Z M447,-39 L423,-39 L423,-15 L447,-15 L447,-39 Z M472,-39 L448,-39 L448,-15 L472,-15 L472,-39 Z M497,-39 L473,-39 L473,-15 L497,-15 L497,-39 Z M522,-39 L498,-39 L498,-15 L522,-15 L522,-39 Z M547,-39 L523,-39 L523,-15 L547,-15 L547,-39 Z M572,-39 L548,-39 L548,-15 L572,-15 L572,-39 Z M597,-39 L573,-39 L573,-15 L597,-15 L597,-39 Z M622,-39 L598,-39 L598,-15 L622,-15 L622,-39 Z M647,-39 L623,-39 L623,-15 L647,-15 L647,-39 Z M672,-39 L648,-39 L648,-15 L672,-15 L672,-39 Z M697,-39 L673,-39 L673,-15 L697,-15 L697,-39 Z M722,-39 L698,-39 L698,-15 L722,-15 L722,-39 Z M747,-39 L723,-39 L723,-15 L747,-15 L747,-39 Z M772,-39 L748,-39 L748,-15 L772,-15 L772,-39 Z M797,-39 L773,-39 L773,-15 L797,-15 L797,-39 Z M822,-39 L798,-39 L798,-15 L822,-15 L822,-39 Z M847,-39 L823,-39 L823,-15 L847,-15 L847,-39 Z M872,-39 L848,-39 L848,-15 L872,-15 L872,-39 Z M897,-39 L873,-39 L873,-15 L897,-15 L897,-39 Z M922,-39 L898,-39 L898,-15 L922,-15 L922,-39 Z M947,-39 L923,-39 L923,-15 L947,-15 L947,-39 Z M972,-39 L948,-39 L948,-15 L972,-15 L972,-39 Z M997,-39 L973,-39 L973,-15 L997,-15 L997,-39 Z M1022,-39 L998,-39 L998,-15 L1022,-15 L1022,-39 Z M1047,-39 L1023,-39 L1023,-15 L1047,-15 L1047,-39 Z M1072,-39 L1048,-39 L1048,-15 L1072,-15 L1072,-39 Z M1097,-39 L1073,-39 L1073,-15 L1097,-15 L1097,-39 Z M1122,-39 L1098,-39 L1098,-15 L1122,-15 L1122,-39 Z M47,-64 L23,-64 L23,-40 L47,-40 L47,-64 Z M72,-64 L48,-64 L48,-40 L72,-40 L72,-64 Z M97,-64 L73,-64 L73,-40 L97,-40 L97,-64 Z M122,-64 L98,-64 L98,-40 L122,-40 L122,-64 Z M147,-64 L123,-64 L123,-40 L147,-40 L147,-64 Z M172,-64 L148,-64 L148,-40 L172,-40 L172,-64 Z M197,-64 L173,-64 L173,-40 L197,-40 L197,-64 Z M222,-64 L198,-64 L198,-40 L222,-40 L222,-64 Z M247,-64 L223,-64 L223,-40 L247,-40 L247,-64 Z M272,-64 L248,-64 L248,-40 L272,-40 L272,-64 Z M297,-64 L273,-64 L273,-40 L297,-40 L297,-64 Z M322,-64 L298,-64 L298,-40 L322,-40 L322,-64 Z M347,-64 L323,-64 L323,-40 L347,-40 L347,-64 Z M372,-64 L348,-64 L348,-40 L372,-40 L372,-64 Z M397,-64 L373,-64 L373,-40 L397,-40 L397,-64 Z M422,-64 L398,-64 L398,-40 L422,-40 L422,-64 Z M447,-64 L423,-64 L423,-40 L447,-40 L447,-64 Z M472,-64 L448,-64 L448,-40 L472,-40 L472,-64 Z M497,-64 L473,-64 L473,-40 L497,-40 L497,-64 Z M522,-64 L498,-64 L498,-40 L522,-40 L522,-64 Z M547,-64 L523,-64 L523,-40 L547,-40 L547,-64 Z M572,-64 L548,-64 L548,-40 L572,-40 L572,-64 Z M597,-64 L573,-64 L573,-40 L597,-40 L597,-64 Z M622,-64 L598,-64 L598,-40 L622,-40 L622,-64 Z M647,-64 L623,-64 L623,-40 L647,-40 L647,-64 Z M672,-64 L648,-64 L648,-40 L672,-40 L672,-64 Z M697,-64 L673,-64 L673,-40 L697,-40 L697,-64 Z M722,-64 L698,-64 L698,-40 L722,-40 L722,-64 Z M747,-64 L723,-64 L723,-40 L747,-40 L747,-64 Z M772,-64 L748,-64 L748,-40 L772,-40 L772,-64 Z M797,-64 L773,-64 L773,-40 L797,-40 L797,-64 Z M822,-64 L798,-64 L798,-40 L822,-40 L822,-64 Z M847,-64 L823,-64 L823,-40 L847,-40 L847,-64 Z M872,-64 L848,-64 L848,-40 L872,-40 L872,-64 Z M897,-64 L873,-64 L873,-40 L897,-40 L897,-64 Z M922,-64 L898,-64 L898,-40 L922,-40 L922,-64 Z M947,-64 L923,-64 L923,-40 L947,-40 L947,-64 Z M972,-64 L948,-64 L948,-40 L972,-40 L972,-64 Z M997,-64 L973,-64 L973,-40 L997,-40 L997,-64 Z M1022,-64 L998,-64 L998,-40 L1022,-40 L1022,-64 Z M1047,-64 L1023,-64 L1023,-40 L1047,-40 L1047,-64 Z M1072,-64 L1048,-64 L1048,-40 L1072,-40 L1072,-64 Z M1097,-64 L1073,-64 L1073,-40 L1097,-40 L1097,-64 Z M1122,-64 L1098,-64 L1098,-40 L1122,-40 L1122,-64 Z" fill="url(#linearGradient-1)" fill-rule="nonzero"></path>
        </g>
    </g>
</svg>